<?xml version="1.0" encoding="utf-8"?>
<!-- Generator: Adobe Illustrator 26.5.0, SVG Export Plug-In . SVG Version: 6.00 Build 0)  -->
<svg version="1.1" id="Layer_1" xmlns="http://www.w3.org/2000/svg" xmlns:xlink="http://www.w3.org/1999/xlink" x="0px" y="0px"
	 viewBox="0 0 826.6 603.5" style="enable-background:new 0 0 826.6 603.5;" xml:space="preserve">
<style type="text/css">
	.st0{enable-background:new    ;}
	.st1{fill:#A8A8A8;}
	.st2{fill:none;stroke:#000000;}
	.st3{fill:none;stroke:#CCCCCC;stroke-width:0.5;}
	.st4{fill:none;stroke:#CCCCCC;}
	.st5{fill:#FFA617;}
	.st6{fill:#FF8445;}
	.st7{fill:#B93E00;}
</style>
<g id="viz" transform="translate(50,10)">
	<g id="axis">
		<g transform="translate(0,540)">
			<g transform="translate(0.5,0)">
				<g class="st0">
					<path class="st1" d="M13.5-31.8h-0.9v-5.6c-0.2,0.2-0.5,0.4-0.8,0.6s-0.7,0.4-0.9,0.5v-0.8c0.5-0.2,0.9-0.5,1.3-0.8
						s0.6-0.6,0.8-1h0.6V-31.8z"/>
					<path class="st1" d="M15.7-35.3c0-0.8,0.1-1.5,0.3-2c0.2-0.5,0.4-0.9,0.8-1.2s0.8-0.4,1.3-0.4c0.4,0,0.7,0.1,1,0.2
						c0.3,0.2,0.5,0.4,0.7,0.7c0.2,0.3,0.3,0.6,0.4,1.1c0.1,0.4,0.2,1,0.2,1.7c0,0.8-0.1,1.5-0.3,2c-0.2,0.5-0.4,0.9-0.8,1.2
						c-0.3,0.3-0.8,0.4-1.3,0.4c-0.7,0-1.2-0.2-1.6-0.7C16-33,15.7-34,15.7-35.3z M16.6-35.3c0,1.2,0.1,2,0.4,2.3
						c0.3,0.4,0.6,0.6,1,0.6s0.7-0.2,1-0.6s0.4-1.2,0.4-2.3c0-1.2-0.1-2-0.4-2.3s-0.6-0.6-1-0.6c-0.4,0-0.7,0.2-1,0.5
						C16.8-37.3,16.6-36.5,16.6-35.3z"/>
				</g>
			</g>
			<g transform="translate(88.125,0)">
				<path class="st2" d="M15.3-14.9"/>
				<g class="st0">
					<path class="st1" d="M14.8-32.6v0.8h-4.7c0-0.2,0-0.4,0.1-0.6c0.1-0.3,0.3-0.6,0.6-1s0.6-0.7,1.1-1.1c0.8-0.6,1.3-1.1,1.6-1.5
						c0.3-0.4,0.4-0.7,0.4-1.1c0-0.3-0.1-0.6-0.4-0.9c-0.2-0.2-0.6-0.4-1-0.4c-0.4,0-0.8,0.1-1,0.4s-0.4,0.6-0.4,1.1l-0.9-0.1
						c0.1-0.7,0.3-1.2,0.7-1.5c0.4-0.4,0.9-0.5,1.6-0.5c0.7,0,1.2,0.2,1.6,0.6s0.6,0.9,0.6,1.4c0,0.3-0.1,0.6-0.2,0.8
						s-0.3,0.6-0.6,0.9s-0.7,0.7-1.4,1.3c-0.5,0.4-0.9,0.7-1,0.9c-0.1,0.2-0.3,0.3-0.4,0.5H14.8z"/>
					<path class="st1" d="M15.7-35.3c0-0.8,0.1-1.5,0.3-2c0.2-0.5,0.4-0.9,0.8-1.2s0.8-0.4,1.3-0.4c0.4,0,0.7,0.1,1,0.2
						c0.3,0.2,0.5,0.4,0.7,0.7c0.2,0.3,0.3,0.6,0.4,1.1c0.1,0.4,0.2,1,0.2,1.7c0,0.8-0.1,1.5-0.3,2c-0.2,0.5-0.4,0.9-0.8,1.2
						c-0.3,0.3-0.8,0.4-1.3,0.4c-0.7,0-1.2-0.2-1.6-0.7C16-33,15.7-34,15.7-35.3z M16.6-35.3c0,1.2,0.1,2,0.4,2.3
						c0.3,0.4,0.6,0.6,1,0.6s0.7-0.2,1-0.6s0.4-1.2,0.4-2.3c0-1.2-0.1-2-0.4-2.3s-0.6-0.6-1-0.6c-0.4,0-0.7,0.2-1,0.5
						C16.8-37.3,16.6-36.5,16.6-35.3z"/>
				</g>
			</g>
			<g transform="translate(175.75,0)">
				<path class="st2" d="M15.3-14.9"/>
				<g class="st0">
					<path class="st1" d="M10.2-33.7l0.9-0.1c0.1,0.5,0.3,0.9,0.5,1.1c0.2,0.2,0.5,0.3,0.9,0.3c0.4,0,0.8-0.1,1-0.4s0.4-0.6,0.4-1.1
						c0-0.4-0.1-0.7-0.4-1c-0.3-0.3-0.6-0.4-1-0.4c-0.2,0-0.4,0-0.6,0.1l0.1-0.8c0.1,0,0.1,0,0.1,0c0.4,0,0.7-0.1,1-0.3
						s0.4-0.5,0.4-0.9c0-0.3-0.1-0.6-0.3-0.8s-0.5-0.3-0.8-0.3c-0.3,0-0.6,0.1-0.9,0.3s-0.4,0.5-0.4,1l-0.9-0.2
						c0.1-0.6,0.4-1,0.7-1.4c0.4-0.3,0.9-0.5,1.4-0.5c0.4,0,0.8,0.1,1.1,0.3c0.3,0.2,0.6,0.4,0.8,0.7s0.3,0.6,0.3,0.9
						c0,0.3-0.1,0.6-0.2,0.8s-0.4,0.5-0.7,0.6c0.4,0.1,0.8,0.3,1,0.6c0.2,0.3,0.4,0.7,0.4,1.2c0,0.6-0.2,1.2-0.7,1.6
						c-0.5,0.4-1,0.7-1.7,0.7c-0.6,0-1.1-0.2-1.6-0.6S10.2-33.1,10.2-33.7z"/>
					<path class="st1" d="M15.7-35.3c0-0.8,0.1-1.5,0.3-2c0.2-0.5,0.4-0.9,0.8-1.2s0.8-0.4,1.3-0.4c0.4,0,0.7,0.1,1,0.2
						c0.3,0.2,0.5,0.4,0.7,0.7c0.2,0.3,0.3,0.6,0.4,1.1c0.1,0.4,0.2,1,0.2,1.7c0,0.8-0.1,1.5-0.3,2c-0.2,0.5-0.4,0.9-0.8,1.2
						c-0.3,0.3-0.8,0.4-1.3,0.4c-0.7,0-1.2-0.2-1.6-0.7C16-33,15.7-34,15.7-35.3z M16.6-35.3c0,1.2,0.1,2,0.4,2.3
						c0.3,0.4,0.6,0.6,1,0.6s0.7-0.2,1-0.6s0.4-1.2,0.4-2.3c0-1.2-0.1-2-0.4-2.3s-0.6-0.6-1-0.6c-0.4,0-0.7,0.2-1,0.5
						C16.8-37.3,16.6-36.5,16.6-35.3z"/>
				</g>
			</g>
			<g transform="translate(263.375,0)">
				<path class="st2" d="M15.3-14.9"/>
				<g class="st0">
					<path class="st1" d="M13-31.8v-1.7H9.9v-0.8l3.3-4.6h0.7v4.6h1v0.8h-1v1.7H13z M13-34.3v-3.2l-2.2,3.2H13z"/>
					<path class="st1" d="M15.7-35.3c0-0.8,0.1-1.5,0.3-2c0.2-0.5,0.4-0.9,0.8-1.2s0.8-0.4,1.3-0.4c0.4,0,0.7,0.1,1,0.2
						c0.3,0.2,0.5,0.4,0.7,0.7c0.2,0.3,0.3,0.6,0.4,1.1c0.1,0.4,0.2,1,0.2,1.7c0,0.8-0.1,1.5-0.3,2c-0.2,0.5-0.4,0.9-0.8,1.2
						c-0.3,0.3-0.8,0.4-1.3,0.4c-0.7,0-1.2-0.2-1.6-0.7C16-33,15.7-34,15.7-35.3z M16.6-35.3c0,1.2,0.1,2,0.4,2.3
						c0.3,0.4,0.6,0.6,1,0.6s0.7-0.2,1-0.6s0.4-1.2,0.4-2.3c0-1.2-0.1-2-0.4-2.3s-0.6-0.6-1-0.6c-0.4,0-0.7,0.2-1,0.5
						C16.8-37.3,16.6-36.5,16.6-35.3z"/>
				</g>
			</g>
			<g transform="translate(351,0)">
				<path class="st2" d="M15.3-14.9"/>
				<g class="st0">
					<path class="st1" d="M10.2-33.7l0.9-0.1c0.1,0.4,0.2,0.8,0.5,1c0.2,0.2,0.5,0.3,0.9,0.3c0.4,0,0.8-0.2,1.1-0.5s0.4-0.7,0.4-1.3
						c0-0.5-0.1-0.9-0.4-1.2s-0.7-0.4-1.1-0.4c-0.3,0-0.5,0.1-0.8,0.2c-0.2,0.1-0.4,0.3-0.5,0.5l-0.8-0.1l0.7-3.7h3.6v0.8h-2.9
						l-0.4,1.9c0.4-0.3,0.9-0.4,1.4-0.4c0.6,0,1.2,0.2,1.6,0.6s0.6,1,0.6,1.7c0,0.6-0.2,1.2-0.6,1.7c-0.5,0.6-1.1,0.9-1.9,0.9
						c-0.7,0-1.2-0.2-1.6-0.5S10.2-33.1,10.2-33.7z"/>
					<path class="st1" d="M15.7-35.3c0-0.8,0.1-1.5,0.3-2c0.2-0.5,0.4-0.9,0.8-1.2s0.8-0.4,1.3-0.4c0.4,0,0.7,0.1,1,0.2
						c0.3,0.2,0.5,0.4,0.7,0.7c0.2,0.3,0.3,0.6,0.4,1.1c0.1,0.4,0.2,1,0.2,1.7c0,0.8-0.1,1.5-0.3,2c-0.2,0.5-0.4,0.9-0.8,1.2
						c-0.3,0.3-0.8,0.4-1.3,0.4c-0.7,0-1.2-0.2-1.6-0.7C16-33,15.7-34,15.7-35.3z M16.6-35.3c0,1.2,0.1,2,0.4,2.3
						c0.3,0.4,0.6,0.6,1,0.6s0.7-0.2,1-0.6s0.4-1.2,0.4-2.3c0-1.2-0.1-2-0.4-2.3s-0.6-0.6-1-0.6c-0.4,0-0.7,0.2-1,0.5
						C16.8-37.3,16.6-36.5,16.6-35.3z"/>
				</g>
			</g>
			<g transform="translate(438.625,0)">
				<path class="st2" d="M15.3-14.9"/>
				<g class="st0">
					<path class="st1" d="M14.7-37.2l-0.9,0.1c-0.1-0.3-0.2-0.6-0.3-0.8c-0.2-0.3-0.5-0.4-0.9-0.4c-0.3,0-0.5,0.1-0.7,0.2
						c-0.3,0.2-0.5,0.5-0.7,0.9c-0.2,0.4-0.2,0.9-0.2,1.7c0.2-0.3,0.5-0.6,0.8-0.7c0.3-0.2,0.6-0.2,1-0.2c0.6,0,1.1,0.2,1.5,0.6
						c0.4,0.4,0.6,1,0.6,1.7c0,0.4-0.1,0.9-0.3,1.3c-0.2,0.4-0.5,0.7-0.8,0.9c-0.3,0.2-0.7,0.3-1.2,0.3c-0.7,0-1.3-0.3-1.8-0.8
						c-0.5-0.5-0.7-1.4-0.7-2.7c0-1.4,0.3-2.4,0.8-3c0.4-0.5,1-0.8,1.8-0.8c0.6,0,1,0.2,1.4,0.5C14.4-38.2,14.7-37.7,14.7-37.2z
						 M11.1-34.1c0,0.3,0.1,0.6,0.2,0.9c0.1,0.3,0.3,0.5,0.5,0.6c0.2,0.1,0.5,0.2,0.7,0.2c0.4,0,0.7-0.1,1-0.4
						c0.3-0.3,0.4-0.7,0.4-1.2c0-0.5-0.1-0.9-0.4-1.2c-0.3-0.3-0.6-0.4-1-0.4c-0.4,0-0.7,0.1-1,0.4C11.3-34.9,11.1-34.6,11.1-34.1z"
						/>
					<path class="st1" d="M15.7-35.3c0-0.8,0.1-1.5,0.3-2c0.2-0.5,0.4-0.9,0.8-1.2c0.3-0.3,0.8-0.4,1.3-0.4c0.4,0,0.7,0.1,1,0.2
						c0.3,0.2,0.5,0.4,0.7,0.7c0.2,0.3,0.3,0.6,0.4,1.1c0.1,0.4,0.2,1,0.2,1.7c0,0.8-0.1,1.5-0.3,2c-0.2,0.5-0.4,0.9-0.8,1.2
						c-0.3,0.3-0.8,0.4-1.3,0.4c-0.7,0-1.2-0.2-1.6-0.7C16-33,15.7-34,15.7-35.3z M16.6-35.3c0,1.2,0.1,2,0.4,2.3
						c0.3,0.4,0.6,0.6,1,0.6c0.4,0,0.7-0.2,1-0.6c0.3-0.4,0.4-1.2,0.4-2.3c0-1.2-0.1-2-0.4-2.3c-0.3-0.4-0.6-0.6-1-0.6
						c-0.4,0-0.7,0.2-1,0.5C16.8-37.3,16.6-36.5,16.6-35.3z"/>
				</g>
			</g>
			<g transform="translate(526.25,0)">
				<path class="st2" d="M15.3-14.9"/>
				<g class="st0">
					<path class="st1" d="M10.2-38v-0.8h4.6v0.7c-0.5,0.5-0.9,1.1-1.4,1.9c-0.4,0.8-0.8,1.6-1,2.5c-0.2,0.6-0.3,1.3-0.3,2h-0.9
						c0-0.6,0.1-1.2,0.3-2c0.2-0.8,0.5-1.6,0.9-2.3c0.4-0.7,0.8-1.4,1.3-1.9H10.2z"/>
					<path class="st1" d="M15.7-35.3c0-0.8,0.1-1.5,0.3-2c0.2-0.5,0.4-0.9,0.8-1.2c0.3-0.3,0.8-0.4,1.3-0.4c0.4,0,0.7,0.1,1,0.2
						c0.3,0.2,0.5,0.4,0.7,0.7c0.2,0.3,0.3,0.6,0.4,1.1c0.1,0.4,0.2,1,0.2,1.7c0,0.8-0.1,1.5-0.3,2c-0.2,0.5-0.4,0.9-0.8,1.2
						c-0.3,0.3-0.8,0.4-1.3,0.4c-0.7,0-1.2-0.2-1.6-0.7C16-33,15.7-34,15.7-35.3z M16.6-35.3c0,1.2,0.1,2,0.4,2.3
						c0.3,0.4,0.6,0.6,1,0.6c0.4,0,0.7-0.2,1-0.6c0.3-0.4,0.4-1.2,0.4-2.3c0-1.2-0.1-2-0.4-2.3c-0.3-0.4-0.6-0.6-1-0.6
						c-0.4,0-0.7,0.2-1,0.5C16.8-37.3,16.6-36.5,16.6-35.3z"/>
				</g>
			</g>
			<g transform="translate(613.875,0)">
				<path class="st2" d="M15.3-14.9"/>
				<g class="st0">
					<path class="st1" d="M11.5-35.7c-0.4-0.1-0.6-0.3-0.8-0.6s-0.3-0.5-0.3-0.9c0-0.5,0.2-1,0.6-1.3c0.4-0.4,0.9-0.5,1.5-0.5
						c0.6,0,1.1,0.2,1.5,0.5c0.4,0.4,0.6,0.8,0.6,1.3c0,0.3-0.1,0.6-0.3,0.9c-0.2,0.2-0.4,0.4-0.8,0.6c0.4,0.1,0.8,0.4,1,0.7
						s0.3,0.7,0.3,1.1c0,0.6-0.2,1.1-0.6,1.5c-0.4,0.4-1,0.6-1.7,0.6c-0.7,0-1.3-0.2-1.7-0.6c-0.4-0.4-0.6-0.9-0.6-1.6
						c0-0.5,0.1-0.9,0.4-1.2C10.7-35.3,11.1-35.6,11.5-35.7z M11.1-33.8c0,0.3,0.1,0.5,0.2,0.7c0.1,0.2,0.3,0.4,0.5,0.5
						c0.2,0.1,0.5,0.2,0.8,0.2c0.4,0,0.8-0.1,1-0.4s0.4-0.6,0.4-1c0-0.4-0.1-0.8-0.4-1c-0.3-0.3-0.6-0.4-1.1-0.4
						c-0.4,0-0.8,0.1-1,0.4C11.2-34.6,11.1-34.3,11.1-33.8z M11.3-37.2c0,0.3,0.1,0.6,0.3,0.8c0.2,0.2,0.5,0.3,0.8,0.3
						c0.3,0,0.6-0.1,0.8-0.3c0.2-0.2,0.3-0.5,0.3-0.8c0-0.3-0.1-0.6-0.3-0.8c-0.2-0.2-0.5-0.3-0.8-0.3c-0.3,0-0.6,0.1-0.8,0.3
						C11.5-37.7,11.3-37.5,11.3-37.2z"/>
					<path class="st1" d="M15.7-35.3c0-0.8,0.1-1.5,0.3-2c0.2-0.5,0.4-0.9,0.8-1.2c0.3-0.3,0.8-0.4,1.3-0.4c0.4,0,0.7,0.1,1,0.2
						c0.3,0.2,0.5,0.4,0.7,0.7c0.2,0.3,0.3,0.6,0.4,1.1c0.1,0.4,0.2,1,0.2,1.7c0,0.8-0.1,1.5-0.3,2c-0.2,0.5-0.4,0.9-0.8,1.2
						c-0.3,0.3-0.8,0.4-1.3,0.4c-0.7,0-1.2-0.2-1.6-0.7C16-33,15.7-34,15.7-35.3z M16.6-35.3c0,1.2,0.1,2,0.4,2.3
						c0.3,0.4,0.6,0.6,1,0.6c0.4,0,0.7-0.2,1-0.6c0.3-0.4,0.4-1.2,0.4-2.3c0-1.2-0.1-2-0.4-2.3c-0.3-0.4-0.6-0.6-1-0.6
						c-0.4,0-0.7,0.2-1,0.5C16.8-37.3,16.6-36.5,16.6-35.3z"/>
				</g>
			</g>
			<g transform="translate(701.5,0)">
				<path class="st2" d="M15.3-14.9"/>
				<g class="st0">
					<path class="st1" d="M10.3-33.4l0.8-0.1c0.1,0.4,0.2,0.7,0.4,0.9c0.2,0.2,0.5,0.3,0.8,0.3c0.3,0,0.5-0.1,0.7-0.2
						c0.2-0.1,0.4-0.3,0.5-0.5c0.1-0.2,0.2-0.5,0.3-0.8S14-34.6,14-35c0,0,0-0.1,0-0.2c-0.2,0.3-0.4,0.5-0.7,0.7
						c-0.3,0.2-0.6,0.3-1,0.3c-0.6,0-1.1-0.2-1.5-0.6s-0.6-1-0.6-1.7c0-0.7,0.2-1.3,0.6-1.8c0.4-0.4,1-0.7,1.6-0.7
						c0.5,0,0.9,0.1,1.3,0.4s0.7,0.6,0.9,1.1c0.2,0.5,0.3,1.1,0.3,2c0,0.9-0.1,1.6-0.3,2.2c-0.2,0.5-0.5,1-0.9,1.2
						c-0.4,0.3-0.9,0.4-1.4,0.4c-0.6,0-1-0.2-1.4-0.5C10.6-32.4,10.4-32.9,10.3-33.4z M13.9-36.6c0-0.5-0.1-0.9-0.4-1.2
						s-0.6-0.4-1-0.4c-0.4,0-0.7,0.2-1,0.5c-0.3,0.3-0.4,0.7-0.4,1.2c0,0.5,0.1,0.8,0.4,1.1c0.3,0.3,0.6,0.4,1,0.4
						c0.4,0,0.7-0.1,1-0.4C13.8-35.7,13.9-36.1,13.9-36.6z"/>
					<path class="st1" d="M15.7-35.3c0-0.8,0.1-1.5,0.3-2c0.2-0.5,0.4-0.9,0.8-1.2c0.3-0.3,0.8-0.4,1.3-0.4c0.4,0,0.7,0.1,1,0.2
						c0.3,0.2,0.5,0.4,0.7,0.7c0.2,0.3,0.3,0.6,0.4,1.1c0.1,0.4,0.2,1,0.2,1.7c0,0.8-0.1,1.5-0.3,2c-0.2,0.5-0.4,0.9-0.8,1.2
						c-0.3,0.3-0.8,0.4-1.3,0.4c-0.7,0-1.2-0.2-1.6-0.7C16-33,15.7-34,15.7-35.3z M16.6-35.3c0,1.2,0.1,2,0.4,2.3
						c0.3,0.4,0.6,0.6,1,0.6c0.4,0,0.7-0.2,1-0.6c0.3-0.4,0.4-1.2,0.4-2.3c0-1.2-0.1-2-0.4-2.3c-0.3-0.4-0.6-0.6-1-0.6
						c-0.4,0-0.7,0.2-1,0.5C16.8-37.3,16.6-36.5,16.6-35.3z"/>
				</g>
			</g>
			<g class="st0">
				<path d="M249,0.6c0-0.8,0.2-1.3,0.5-1.7s0.8-0.6,1.4-0.6c0.6,0,1.1,0.2,1.4,0.6s0.5,0.9,0.5,1.7c0,0.8-0.2,1.3-0.5,1.7
					s-0.8,0.6-1.4,0.6c-0.6,0-1.1-0.2-1.4-0.6S249,1.4,249,0.6z M250.3,0.6c0,0.6,0.1,0.9,0.2,1.1c0.1,0.1,0.2,0.2,0.4,0.2
					c0.2,0,0.3-0.1,0.4-0.2c0.1-0.2,0.2-0.6,0.2-1.1s-0.1-0.9-0.2-1.1c-0.1-0.1-0.2-0.2-0.4-0.2c-0.2,0-0.3,0.1-0.4,0.2
					C250.3-0.3,250.3,0.1,250.3,0.6z M252.1,7.4h-1.2l4.6-9.1h1.2L252.1,7.4z M254.8,5.2c0-0.8,0.2-1.3,0.5-1.7s0.8-0.6,1.4-0.6
					c0.6,0,1.1,0.2,1.4,0.6s0.5,0.9,0.5,1.7c0,0.8-0.2,1.3-0.5,1.7s-0.8,0.6-1.4,0.6c-0.6,0-1.1-0.2-1.4-0.6S254.8,6,254.8,5.2z
					 M256.1,5.2c0,0.6,0.1,0.9,0.2,1.1c0.1,0.1,0.2,0.2,0.4,0.2c0.2,0,0.3-0.1,0.4-0.2c0.1-0.2,0.2-0.6,0.2-1.1s-0.1-0.9-0.2-1.1
					c-0.1-0.1-0.2-0.2-0.4-0.2s-0.3,0.1-0.4,0.2C256.1,4.2,256.1,4.6,256.1,5.2z"/>
				<path d="M263.4,7.1v-8.6h6.4V0h-4.6v1.9h4.3v1.4h-4.3v2.3h4.8v1.4H263.4z"/>
				<path d="M276.8,2.7L275.2,3c-0.1-0.3-0.2-0.6-0.4-0.7S274.3,2,274,2c-0.4,0-0.7,0.1-1,0.4s-0.4,0.8-0.4,1.4
					c0,0.7,0.1,1.3,0.4,1.6s0.6,0.5,1,0.5c0.3,0,0.6-0.1,0.8-0.3s0.3-0.5,0.4-0.9l1.6,0.3c-0.2,0.7-0.5,1.3-1,1.7s-1.1,0.6-1.9,0.6
					c-0.9,0-1.6-0.3-2.2-0.9S271,5,271,4c0-1,0.3-1.8,0.8-2.4s1.3-0.9,2.2-0.9c0.8,0,1.4,0.2,1.8,0.5S276.6,2.1,276.8,2.7z"/>
				<path d="M277.6,3.9c0-0.5,0.1-1.1,0.4-1.6s0.7-0.9,1.1-1.2s1-0.4,1.7-0.4c0.9,0,1.7,0.3,2.3,0.9s0.9,1.4,0.9,2.3
					c0,0.9-0.3,1.7-0.9,2.3s-1.4,0.9-2.3,0.9c-0.6,0-1.1-0.1-1.6-0.4s-0.9-0.6-1.2-1.1S277.6,4.6,277.6,3.9z M279.3,4
					c0,0.6,0.1,1.1,0.4,1.4s0.7,0.5,1.1,0.5s0.8-0.2,1.1-0.5s0.4-0.8,0.4-1.4c0-0.6-0.1-1.1-0.4-1.4s-0.7-0.5-1.1-0.5
					s-0.8,0.2-1.1,0.5S279.3,3.4,279.3,4z"/>
				<path d="M291,7.1h-1.6V3.9c0-0.7,0-1.1-0.1-1.3s-0.2-0.4-0.3-0.5S288.6,2,288.3,2c-0.3,0-0.5,0.1-0.8,0.2s-0.4,0.4-0.5,0.6
					S287,3.6,287,4.3v2.8h-1.6V0.9h1.5v0.9c0.5-0.7,1.2-1.1,2.1-1.1c0.4,0,0.7,0.1,1,0.2s0.5,0.3,0.7,0.5s0.3,0.4,0.3,0.7
					s0.1,0.6,0.1,1.1V7.1z"/>
				<path d="M292.3,3.9c0-0.5,0.1-1.1,0.4-1.6s0.7-0.9,1.1-1.2s1-0.4,1.7-0.4c0.9,0,1.7,0.3,2.3,0.9s0.9,1.4,0.9,2.3
					c0,0.9-0.3,1.7-0.9,2.3s-1.4,0.9-2.3,0.9c-0.6,0-1.1-0.1-1.6-0.4s-0.9-0.6-1.2-1.1S292.3,4.6,292.3,3.9z M294,4
					c0,0.6,0.1,1.1,0.4,1.4s0.7,0.5,1.1,0.5s0.8-0.2,1.1-0.5S297,4.6,297,4c0-0.6-0.1-1.1-0.4-1.4s-0.7-0.5-1.1-0.5
					s-0.8,0.2-1.1,0.5S294,3.4,294,4z"/>
				<path d="M299.9,0.9h1.5v0.8c0.5-0.7,1.2-1,1.9-1c0.4,0,0.7,0.1,1,0.2s0.5,0.4,0.7,0.7c0.3-0.3,0.6-0.6,0.9-0.7s0.7-0.2,1-0.2
					c0.5,0,0.8,0.1,1.2,0.3s0.6,0.5,0.7,0.8c0.1,0.3,0.2,0.7,0.2,1.3v4h-1.6V3.6c0-0.6-0.1-1-0.2-1.2c-0.2-0.2-0.4-0.4-0.7-0.4
					c-0.2,0-0.4,0.1-0.7,0.2s-0.3,0.3-0.4,0.6s-0.1,0.7-0.1,1.3v3h-1.6V3.7c0-0.6,0-1-0.1-1.2s-0.1-0.3-0.3-0.4S303,2,302.8,2
					c-0.3,0-0.5,0.1-0.7,0.2s-0.3,0.3-0.4,0.6s-0.1,0.7-0.1,1.3v3h-1.6V0.9z"/>
				<path d="M310.7,0v-1.5h1.6V0H310.7z M310.7,7.1V0.9h1.6v6.2H310.7z"/>
				<path d="M319.4,2.7L317.8,3c-0.1-0.3-0.2-0.6-0.4-0.7S317,2,316.7,2c-0.4,0-0.7,0.1-1,0.4s-0.4,0.8-0.4,1.4
					c0,0.7,0.1,1.3,0.4,1.6s0.6,0.5,1,0.5c0.3,0,0.6-0.1,0.8-0.3s0.3-0.5,0.4-0.9l1.6,0.3c-0.2,0.7-0.5,1.3-1,1.7s-1.1,0.6-1.9,0.6
					c-0.9,0-1.6-0.3-2.2-0.9S313.7,5,313.7,4c0-1,0.3-1.8,0.8-2.4s1.3-0.9,2.2-0.9c0.8,0,1.4,0.2,1.8,0.5S319.2,2.1,319.4,2.7z"/>
				<path d="M321.9,2.8l-1.5-0.3c0.2-0.6,0.5-1,0.9-1.3s1-0.4,1.8-0.4c0.7,0,1.3,0.1,1.6,0.3s0.6,0.4,0.8,0.7s0.2,0.8,0.2,1.5l0,1.9
					c0,0.5,0,1,0.1,1.2s0.2,0.5,0.3,0.8h-1.6c0-0.1-0.1-0.3-0.2-0.5c0-0.1,0-0.2-0.1-0.2c-0.3,0.3-0.6,0.5-0.9,0.6s-0.7,0.2-1,0.2
					c-0.6,0-1.1-0.2-1.5-0.5s-0.6-0.8-0.6-1.3c0-0.4,0.1-0.7,0.3-0.9s0.4-0.5,0.7-0.6s0.7-0.3,1.3-0.4c0.8-0.1,1.3-0.3,1.6-0.4V2.9
					c0-0.3-0.1-0.5-0.2-0.7S323.4,2,323,2c-0.3,0-0.5,0.1-0.7,0.2S322,2.5,321.9,2.8z M324.1,4.1c-0.2,0.1-0.5,0.2-1,0.3
					s-0.8,0.2-0.9,0.3c-0.2,0.2-0.3,0.3-0.3,0.6c0,0.2,0.1,0.4,0.3,0.6s0.4,0.3,0.7,0.3c0.3,0,0.6-0.1,0.8-0.3
					c0.2-0.1,0.3-0.3,0.4-0.5c0-0.1,0.1-0.4,0.1-0.8V4.1z"/>
				<path d="M327.4,7.1v-8.6h1.6v8.6H327.4z"/>
				<path d="M330.7,7.1v-8.6h1.6v8.6H330.7z"/>
				<path d="M333.3,0.9h1.8l1.5,4.4l1.5-4.4h1.7l-2.2,6L337.1,8c-0.1,0.4-0.3,0.6-0.4,0.8s-0.3,0.3-0.5,0.5s-0.4,0.2-0.6,0.3
					s-0.5,0.1-0.8,0.1c-0.3,0-0.6,0-0.9-0.1l-0.1-1.3c0.3,0.1,0.5,0.1,0.7,0.1c0.4,0,0.7-0.1,0.8-0.3c0.2-0.2,0.3-0.5,0.4-0.9
					L333.3,0.9z"/>
				<path d="M344-1.5h3.2c0.7,0,1.3,0.1,1.6,0.2c0.5,0.1,0.9,0.4,1.3,0.8s0.6,0.8,0.8,1.4s0.3,1.2,0.3,2c0,0.7-0.1,1.3-0.3,1.8
					c-0.2,0.6-0.5,1.1-0.9,1.5c-0.3,0.3-0.7,0.5-1.2,0.7c-0.4,0.1-0.9,0.2-1.5,0.2H344V-1.5z M345.8,0v5.7h1.3c0.5,0,0.8,0,1-0.1
					c0.3-0.1,0.5-0.2,0.7-0.4s0.3-0.4,0.5-0.8s0.2-0.9,0.2-1.6s-0.1-1.2-0.2-1.5s-0.3-0.6-0.5-0.8s-0.5-0.3-0.8-0.4
					C347.7,0,347.3,0,346.6,0H345.8z"/>
				<path d="M352.7,0v-1.5h1.6V0H352.7z M352.7,7.1V0.9h1.6v6.2H352.7z"/>
				<path d="M355.5,5.3l1.7-0.3c0.1,0.3,0.2,0.6,0.4,0.7s0.5,0.2,0.9,0.2c0.4,0,0.7-0.1,1-0.2c0.1-0.1,0.2-0.3,0.2-0.4
					c0-0.1,0-0.2-0.1-0.3c-0.1-0.1-0.3-0.2-0.6-0.2c-1.3-0.3-2.2-0.6-2.5-0.8c-0.5-0.3-0.7-0.8-0.7-1.4c0-0.5,0.2-1,0.6-1.4
					s1.1-0.6,2-0.6c0.9,0,1.5,0.1,1.9,0.4s0.7,0.7,0.9,1.2l-1.6,0.3c-0.1-0.2-0.2-0.4-0.4-0.6s-0.5-0.2-0.8-0.2
					c-0.4,0-0.7,0.1-0.9,0.2c-0.1,0.1-0.2,0.2-0.2,0.3c0,0.1,0.1,0.2,0.2,0.3c0.1,0.1,0.7,0.3,1.5,0.5s1.5,0.4,1.8,0.7
					c0.3,0.3,0.5,0.7,0.5,1.2c0,0.6-0.2,1.1-0.7,1.5s-1.2,0.6-2.1,0.6c-0.8,0-1.5-0.2-2-0.5S355.6,5.9,355.5,5.3z"/>
				<path d="M363.9,2.8l-1.5-0.3c0.2-0.6,0.5-1,0.9-1.3s1-0.4,1.8-0.4c0.7,0,1.3,0.1,1.6,0.3s0.6,0.4,0.8,0.7s0.2,0.8,0.2,1.5l0,1.9
					c0,0.5,0,1,0.1,1.2s0.2,0.5,0.3,0.8h-1.6c0-0.1-0.1-0.3-0.2-0.5c0-0.1,0-0.2-0.1-0.2c-0.3,0.3-0.6,0.5-0.9,0.6s-0.7,0.2-1,0.2
					c-0.6,0-1.1-0.2-1.5-0.5s-0.6-0.8-0.6-1.3c0-0.4,0.1-0.7,0.3-0.9s0.4-0.5,0.7-0.6s0.7-0.3,1.3-0.4c0.8-0.1,1.3-0.3,1.6-0.4V2.9
					c0-0.3-0.1-0.5-0.2-0.7S365.5,2,365,2c-0.3,0-0.5,0.1-0.7,0.2S364,2.5,363.9,2.8z M366.1,4.1c-0.2,0.1-0.5,0.2-1,0.3
					s-0.8,0.2-0.9,0.3c-0.2,0.2-0.3,0.3-0.3,0.6c0,0.2,0.1,0.4,0.3,0.6s0.4,0.3,0.7,0.3c0.3,0,0.6-0.1,0.8-0.3
					c0.2-0.1,0.3-0.3,0.4-0.5c0-0.1,0.1-0.4,0.1-0.8V4.1z"/>
				<path d="M375.1,7.1h-1.5V6.2c-0.3,0.4-0.6,0.6-0.9,0.8s-0.7,0.3-1,0.3c-0.7,0-1.3-0.3-1.8-0.9S369,5,369,4
					c0-1.1,0.2-1.9,0.7-2.4s1.1-0.8,1.9-0.8c0.7,0,1.3,0.3,1.8,0.9v-3.1h1.6V7.1z M370.7,3.9c0,0.7,0.1,1.1,0.3,1.4
					c0.3,0.4,0.6,0.6,1.1,0.6c0.4,0,0.7-0.2,1-0.5s0.4-0.8,0.4-1.4c0-0.7-0.1-1.2-0.4-1.5s-0.6-0.5-1-0.5c-0.4,0-0.7,0.2-1,0.5
					S370.7,3.3,370.7,3.9z"/>
				<path d="M378.4,7.1l-2.5-6.2h1.7l1.2,3.2l0.3,1.1c0.1-0.3,0.1-0.4,0.2-0.5c0.1-0.2,0.1-0.4,0.2-0.5l1.2-3.2h1.7l-2.5,6.2H378.4z
					"/>
				<path d="M384.6,2.8l-1.5-0.3c0.2-0.6,0.5-1,0.9-1.3s1-0.4,1.8-0.4c0.7,0,1.3,0.1,1.6,0.3s0.6,0.4,0.8,0.7s0.2,0.8,0.2,1.5l0,1.9
					c0,0.5,0,1,0.1,1.2s0.2,0.5,0.3,0.8h-1.6c0-0.1-0.1-0.3-0.2-0.5c0-0.1,0-0.2-0.1-0.2c-0.3,0.3-0.6,0.5-0.9,0.6s-0.7,0.2-1,0.2
					c-0.6,0-1.1-0.2-1.5-0.5S383,5.9,383,5.4c0-0.4,0.1-0.7,0.3-0.9s0.4-0.5,0.7-0.6s0.7-0.3,1.3-0.4c0.8-0.1,1.3-0.3,1.6-0.4V2.9
					c0-0.3-0.1-0.5-0.2-0.7S386.1,2,385.7,2c-0.3,0-0.5,0.1-0.7,0.2S384.7,2.5,384.6,2.8z M386.8,4.1c-0.2,0.1-0.5,0.2-1,0.3
					s-0.8,0.2-0.9,0.3c-0.2,0.2-0.3,0.3-0.3,0.6c0,0.2,0.1,0.4,0.3,0.6s0.4,0.3,0.7,0.3c0.3,0,0.6-0.1,0.8-0.3
					c0.2-0.1,0.3-0.3,0.4-0.5c0-0.1,0.1-0.4,0.1-0.8V4.1z"/>
				<path d="M395.7,7.1h-1.6V3.9c0-0.7,0-1.1-0.1-1.3s-0.2-0.4-0.3-0.5S393.3,2,393.1,2c-0.3,0-0.5,0.1-0.8,0.2s-0.4,0.4-0.5,0.6
					s-0.1,0.7-0.1,1.4v2.8h-1.6V0.9h1.5v0.9c0.5-0.7,1.2-1.1,2.1-1.1c0.4,0,0.7,0.1,1,0.2s0.5,0.3,0.7,0.5s0.3,0.4,0.3,0.7
					s0.1,0.6,0.1,1.1V7.1z"/>
				<path d="M400.2,0.9v1.3h-1.1v2.5c0,0.5,0,0.8,0,0.9s0.1,0.2,0.1,0.2s0.2,0.1,0.3,0.1c0.2,0,0.4-0.1,0.7-0.2l0.1,1.3
					c-0.4,0.2-0.8,0.2-1.3,0.2c-0.3,0-0.6,0-0.8-0.1s-0.4-0.2-0.5-0.4s-0.2-0.4-0.2-0.6c0-0.2-0.1-0.6-0.1-1.2V2.2h-0.8V0.9h0.8
					v-1.2l1.7-1v2.2H400.2z"/>
				<path d="M402.6,2.8l-1.5-0.3c0.2-0.6,0.5-1,0.9-1.3s1-0.4,1.8-0.4c0.7,0,1.3,0.1,1.6,0.3s0.6,0.4,0.8,0.7s0.2,0.8,0.2,1.5l0,1.9
					c0,0.5,0,1,0.1,1.2s0.2,0.5,0.3,0.8h-1.6c0-0.1-0.1-0.3-0.2-0.5c0-0.1,0-0.2-0.1-0.2c-0.3,0.3-0.6,0.5-0.9,0.6s-0.7,0.2-1,0.2
					c-0.6,0-1.1-0.2-1.5-0.5S401,5.9,401,5.4c0-0.4,0.1-0.7,0.3-0.9s0.4-0.5,0.7-0.6s0.7-0.3,1.3-0.4c0.8-0.1,1.3-0.3,1.6-0.4V2.9
					c0-0.3-0.1-0.5-0.2-0.7S404.1,2,403.7,2c-0.3,0-0.5,0.1-0.7,0.2S402.7,2.5,402.6,2.8z M404.8,4.1c-0.2,0.1-0.5,0.2-1,0.3
					s-0.8,0.2-0.9,0.3c-0.2,0.2-0.3,0.3-0.3,0.6c0,0.2,0.1,0.4,0.3,0.6s0.4,0.3,0.7,0.3c0.3,0,0.6-0.1,0.8-0.3
					c0.2-0.1,0.3-0.3,0.4-0.5c0-0.1,0.1-0.4,0.1-0.8V4.1z"/>
				<path d="M407.9,7.5l1.9,0.2c0,0.2,0.1,0.4,0.2,0.5c0.2,0.1,0.4,0.2,0.7,0.2c0.4,0,0.8-0.1,1-0.2c0.1-0.1,0.3-0.2,0.3-0.4
					c0.1-0.1,0.1-0.4,0.1-0.8V6.1c-0.5,0.7-1.1,1-1.9,1c-0.8,0-1.5-0.4-2-1.1c-0.4-0.6-0.6-1.3-0.6-2.1c0-1,0.3-1.8,0.8-2.4
					s1.1-0.8,1.9-0.8c0.8,0,1.4,0.3,1.9,1V0.9h1.5v5.6c0,0.7-0.1,1.3-0.2,1.6c-0.1,0.4-0.3,0.6-0.5,0.9s-0.5,0.4-0.9,0.5
					s-0.8,0.2-1.4,0.2c-1.1,0-1.8-0.2-2.2-0.5s-0.7-0.8-0.7-1.4C407.9,7.7,407.9,7.6,407.9,7.5z M409.4,3.9c0,0.7,0.1,1.1,0.4,1.5
					s0.6,0.5,0.9,0.5c0.4,0,0.7-0.2,1-0.5s0.4-0.8,0.4-1.4c0-0.6-0.1-1.1-0.4-1.4s-0.6-0.5-1-0.5c-0.4,0-0.7,0.2-1,0.5
					S409.4,3.2,409.4,3.9z"/>
				<path d="M419,5.1l1.6,0.3c-0.2,0.6-0.5,1.1-1,1.4s-1,0.5-1.7,0.5c-1.1,0-1.9-0.4-2.4-1.1c-0.4-0.6-0.6-1.3-0.6-2.1
					c0-1,0.3-1.8,0.8-2.4s1.2-0.9,2-0.9c0.9,0,1.7,0.3,2.2,0.9s0.8,1.5,0.8,2.8h-4.1c0,0.5,0.1,0.9,0.4,1.1s0.6,0.4,0.9,0.4
					c0.3,0,0.5-0.1,0.7-0.2S418.9,5.4,419,5.1z M419.1,3.5c0-0.5-0.1-0.8-0.4-1.1S418.2,2,417.9,2c-0.4,0-0.7,0.1-0.9,0.4
					s-0.3,0.6-0.3,1.1H419.1z"/>
				<path d="M427.8,7.1h-1.5V6.2c-0.3,0.4-0.6,0.6-0.9,0.8s-0.7,0.3-1,0.3c-0.7,0-1.3-0.3-1.8-0.9S421.7,5,421.7,4
					c0-1.1,0.2-1.9,0.7-2.4s1.1-0.8,1.9-0.8c0.7,0,1.3,0.3,1.8,0.9v-3.1h1.6V7.1z M423.4,3.9c0,0.7,0.1,1.1,0.3,1.4
					c0.3,0.4,0.6,0.6,1.1,0.6c0.4,0,0.7-0.2,1-0.5s0.4-0.8,0.4-1.4c0-0.7-0.1-1.2-0.4-1.5s-0.6-0.5-1-0.5c-0.4,0-0.7,0.2-1,0.5
					S423.4,3.3,423.4,3.9z"/>
				<path d="M432.3,4.3l1.7-0.2c0.1,0.6,0.3,1,0.6,1.2s0.7,0.4,1.3,0.4c0.6,0,1-0.1,1.3-0.4s0.4-0.5,0.4-0.8c0-0.2-0.1-0.4-0.2-0.5
					c-0.1-0.1-0.3-0.3-0.6-0.4c-0.2-0.1-0.7-0.2-1.4-0.4c-0.9-0.2-1.6-0.5-2-0.8c-0.5-0.5-0.8-1-0.8-1.7c0-0.4,0.1-0.8,0.4-1.2
					s0.6-0.7,1.1-0.9s1-0.3,1.7-0.3c1.1,0,1.9,0.2,2.4,0.7S439,0.2,439,1l-1.7,0.1c-0.1-0.4-0.2-0.8-0.5-1s-0.6-0.3-1.1-0.3
					c-0.5,0-0.9,0.1-1.2,0.3c-0.2,0.1-0.3,0.3-0.3,0.5c0,0.2,0.1,0.4,0.3,0.5c0.2,0.2,0.8,0.4,1.6,0.6s1.5,0.4,1.9,0.6
					s0.7,0.5,0.9,0.9s0.3,0.8,0.3,1.4c0,0.5-0.1,1-0.4,1.4s-0.7,0.8-1.2,1s-1.1,0.3-1.9,0.3c-1.1,0-1.9-0.2-2.5-0.8
					S432.4,5.3,432.3,4.3z"/>
				<path d="M443.6,0.9v1.3h-1.1v2.5c0,0.5,0,0.8,0,0.9s0.1,0.2,0.1,0.2s0.2,0.1,0.3,0.1c0.2,0,0.4-0.1,0.7-0.2l0.1,1.3
					c-0.4,0.2-0.8,0.2-1.3,0.2c-0.3,0-0.6,0-0.8-0.1s-0.4-0.2-0.5-0.4s-0.2-0.4-0.2-0.6c0-0.2-0.1-0.6-0.1-1.2V2.2h-0.8V0.9h0.8
					v-1.2l1.7-1v2.2H443.6z"/>
				<path d="M448.8,7.1V6.2c-0.2,0.3-0.5,0.6-0.9,0.8s-0.8,0.3-1.2,0.3c-0.4,0-0.8-0.1-1.1-0.3s-0.6-0.4-0.7-0.8s-0.2-0.8-0.2-1.4
					V0.9h1.6v2.9c0,0.9,0,1.4,0.1,1.6s0.2,0.4,0.3,0.5s0.4,0.2,0.6,0.2c0.3,0,0.5-0.1,0.8-0.2s0.4-0.3,0.5-0.6s0.1-0.8,0.1-1.7V0.9
					h1.6v6.2H448.8z"/>
				<path d="M457.8,7.1h-1.5V6.2c-0.3,0.4-0.6,0.6-0.9,0.8s-0.7,0.3-1,0.3c-0.7,0-1.3-0.3-1.8-0.9S451.7,5,451.7,4
					c0-1.1,0.2-1.9,0.7-2.4s1.1-0.8,1.9-0.8c0.7,0,1.3,0.3,1.8,0.9v-3.1h1.6V7.1z M453.4,3.9c0,0.7,0.1,1.1,0.3,1.4
					c0.3,0.4,0.6,0.6,1.1,0.6c0.4,0,0.7-0.2,1-0.5s0.4-0.8,0.4-1.4c0-0.7-0.1-1.2-0.4-1.5s-0.6-0.5-1-0.5c-0.4,0-0.7,0.2-1,0.5
					S453.4,3.3,453.4,3.9z"/>
				<path d="M463,5.1l1.6,0.3c-0.2,0.6-0.5,1.1-1,1.4s-1,0.5-1.7,0.5c-1.1,0-1.9-0.4-2.4-1.1c-0.4-0.6-0.6-1.3-0.6-2.1
					c0-1,0.3-1.8,0.8-2.4s1.2-0.9,2-0.9c0.9,0,1.7,0.3,2.2,0.9s0.8,1.5,0.8,2.8h-4.1c0,0.5,0.1,0.9,0.4,1.1s0.6,0.4,0.9,0.4
					c0.3,0,0.5-0.1,0.7-0.2S462.9,5.4,463,5.1z M463.1,3.5c0-0.5-0.1-0.8-0.4-1.1S462.2,2,461.9,2c-0.4,0-0.7,0.1-0.9,0.4
					s-0.3,0.6-0.3,1.1H463.1z"/>
				<path d="M471.7,7.1h-1.6V3.9c0-0.7,0-1.1-0.1-1.3s-0.2-0.4-0.3-0.5S469.3,2,469.1,2c-0.3,0-0.5,0.1-0.8,0.2s-0.4,0.4-0.5,0.6
					s-0.1,0.7-0.1,1.4v2.8h-1.6V0.9h1.5v0.9c0.5-0.7,1.2-1.1,2.1-1.1c0.4,0,0.7,0.1,1,0.2s0.5,0.3,0.7,0.5s0.3,0.4,0.3,0.7
					s0.1,0.6,0.1,1.1V7.1z"/>
				<path d="M476.2,0.9v1.3h-1.1v2.5c0,0.5,0,0.8,0,0.9s0.1,0.2,0.1,0.2s0.2,0.1,0.3,0.1c0.2,0,0.4-0.1,0.7-0.2l0.1,1.3
					c-0.4,0.2-0.8,0.2-1.3,0.2c-0.3,0-0.6,0-0.8-0.1s-0.4-0.2-0.5-0.4s-0.2-0.4-0.2-0.6c0-0.2-0.1-0.6-0.1-1.2V2.2h-0.8V0.9h0.8
					v-1.2l1.7-1v2.2H476.2z"/>
				<path d="M476.8,5.3l1.7-0.3c0.1,0.3,0.2,0.6,0.4,0.7s0.5,0.2,0.9,0.2c0.4,0,0.7-0.1,1-0.2c0.1-0.1,0.2-0.3,0.2-0.4
					c0-0.1,0-0.2-0.1-0.3c-0.1-0.1-0.3-0.2-0.6-0.2c-1.3-0.3-2.2-0.6-2.5-0.8c-0.5-0.3-0.7-0.8-0.7-1.4c0-0.5,0.2-1,0.6-1.4
					s1.1-0.6,2-0.6c0.9,0,1.5,0.1,1.9,0.4s0.7,0.7,0.9,1.2l-1.6,0.3c-0.1-0.2-0.2-0.4-0.4-0.6s-0.5-0.2-0.8-0.2
					c-0.4,0-0.7,0.1-0.9,0.2c-0.1,0.1-0.2,0.2-0.2,0.3c0,0.1,0.1,0.2,0.2,0.3c0.1,0.1,0.7,0.3,1.5,0.5s1.5,0.4,1.8,0.7
					c0.3,0.3,0.5,0.7,0.5,1.2c0,0.6-0.2,1.1-0.7,1.5s-1.2,0.6-2.1,0.6c-0.8,0-1.5-0.2-2-0.5S477,5.9,476.8,5.3z"/>
			</g>
			<g class="st0">
				<path d="M-21.8-220.2h1.5v5.8c-0.6-0.1-1.1-0.2-1.6-0.6s-1.2-0.9-2.1-1.9c-0.7-0.7-1.2-1.2-1.4-1.4c-0.3-0.2-0.7-0.3-1-0.3
					c-0.4,0-0.6,0.1-0.8,0.3s-0.3,0.5-0.3,0.8c0,0.3,0.1,0.6,0.3,0.8s0.6,0.3,1,0.4l-0.2,1.6c-0.9-0.1-1.6-0.4-2-0.9
					s-0.6-1.2-0.6-1.9c0-0.8,0.2-1.5,0.7-2s1-0.7,1.7-0.7c0.4,0,0.8,0.1,1.1,0.2s0.7,0.4,1.1,0.7c0.3,0.2,0.6,0.6,1.1,1.1
					s0.8,0.8,0.9,1s0.3,0.3,0.5,0.3V-220.2z"/>
				<path d="M-28.9-224.1c0-0.8,0.3-1.5,0.9-2c0.7-0.6,1.9-0.8,3.5-0.8c1.6,0,2.8,0.3,3.5,0.8c0.6,0.5,0.9,1.1,0.9,1.9
					c0,0.8-0.3,1.5-1,2s-1.8,0.8-3.4,0.8c-1.6,0-2.8-0.3-3.5-0.8C-28.6-222.7-28.9-223.3-28.9-224.1z M-27.5-224.1
					c0,0.2,0.1,0.4,0.2,0.5s0.4,0.3,0.7,0.4c0.4,0.1,1.1,0.2,2.2,0.2s1.7-0.1,2.1-0.2s0.6-0.2,0.8-0.4s0.2-0.3,0.2-0.5
					s-0.1-0.4-0.2-0.5s-0.4-0.3-0.7-0.4c-0.4-0.1-1.1-0.2-2.1-0.2s-1.7,0.1-2.1,0.2s-0.6,0.2-0.8,0.4S-27.5-224.3-27.5-224.1z"/>
				<path d="M-21.8-233.6h1.5v5.8c-0.6-0.1-1.1-0.2-1.6-0.6s-1.2-0.9-2.1-1.9c-0.7-0.7-1.2-1.2-1.4-1.4c-0.3-0.2-0.7-0.3-1-0.3
					c-0.4,0-0.6,0.1-0.8,0.3s-0.3,0.5-0.3,0.8c0,0.3,0.1,0.6,0.3,0.8s0.6,0.3,1,0.4l-0.2,1.6c-0.9-0.1-1.6-0.4-2-0.9
					s-0.6-1.2-0.6-1.9c0-0.8,0.2-1.5,0.7-2s1-0.7,1.7-0.7c0.4,0,0.8,0.1,1.1,0.2s0.7,0.4,1.1,0.7c0.3,0.2,0.6,0.6,1.1,1.1
					s0.8,0.8,0.9,1s0.3,0.3,0.5,0.3V-233.6z"/>
				<path d="M-21.8-240.3h1.5v5.8c-0.6-0.1-1.1-0.2-1.6-0.6s-1.2-0.9-2.1-1.9c-0.7-0.7-1.2-1.2-1.4-1.4c-0.3-0.2-0.7-0.3-1-0.3
					c-0.4,0-0.6,0.1-0.8,0.3s-0.3,0.5-0.3,0.8c0,0.3,0.1,0.6,0.3,0.8s0.6,0.3,1,0.4l-0.2,1.6c-0.9-0.1-1.6-0.4-2-0.9
					s-0.6-1.2-0.6-1.9c0-0.8,0.2-1.5,0.7-2s1-0.7,1.7-0.7c0.4,0,0.8,0.1,1.1,0.2s0.7,0.4,1.1,0.7c0.3,0.2,0.6,0.6,1.1,1.1
					s0.8,0.8,0.9,1s0.3,0.3,0.5,0.3V-240.3z"/>
				<path d="M-28.8-245.1v-3.2c0-0.7,0.1-1.3,0.2-1.6c0.1-0.5,0.4-0.9,0.8-1.3s0.8-0.6,1.4-0.8s1.2-0.3,2-0.3c0.7,0,1.3,0.1,1.8,0.3
					c0.6,0.2,1.1,0.5,1.5,0.9c0.3,0.3,0.5,0.7,0.7,1.2c0.1,0.4,0.2,0.9,0.2,1.5v3.3H-28.8z M-27.4-246.8h5.7v-1.3c0-0.5,0-0.8-0.1-1
					c-0.1-0.3-0.2-0.5-0.4-0.7s-0.4-0.3-0.8-0.5s-0.9-0.2-1.6-0.2s-1.2,0.1-1.5,0.2s-0.6,0.3-0.8,0.5s-0.3,0.5-0.4,0.8
					c-0.1,0.2-0.1,0.7-0.1,1.4V-246.8z"/>
				<path d="M-27.3-253.7h-1.5v-1.6h1.5V-253.7z M-20.2-253.7h-6.2v-1.6h6.2V-253.7z"/>
				<path d="M-22-256.5l-0.3-1.7c0.3-0.1,0.6-0.2,0.7-0.4s0.2-0.5,0.2-0.9c0-0.4-0.1-0.7-0.2-1c-0.1-0.1-0.3-0.2-0.4-0.2
					c-0.1,0-0.2,0-0.3,0.1c-0.1,0.1-0.2,0.3-0.2,0.6c-0.3,1.3-0.6,2.2-0.8,2.5c-0.3,0.5-0.8,0.7-1.4,0.7c-0.5,0-1-0.2-1.4-0.6
					s-0.6-1.1-0.6-2c0-0.9,0.1-1.5,0.4-1.9s0.7-0.7,1.2-0.9l0.3,1.6c-0.2,0.1-0.4,0.2-0.6,0.4s-0.2,0.5-0.2,0.8
					c0,0.4,0.1,0.7,0.2,0.9c0.1,0.1,0.2,0.2,0.3,0.2c0.1,0,0.2-0.1,0.3-0.2c0.1-0.1,0.3-0.7,0.5-1.5s0.4-1.5,0.7-1.8
					c0.3-0.3,0.7-0.5,1.2-0.5c0.6,0,1.1,0.2,1.5,0.7s0.6,1.2,0.6,2.1c0,0.8-0.2,1.5-0.5,2S-21.4-256.6-22-256.5z"/>
				<path d="M-26.5-266.6h1.3v1.1h2.5c0.5,0,0.8,0,0.9,0s0.2-0.1,0.2-0.1s0.1-0.2,0.1-0.3c0-0.2-0.1-0.4-0.2-0.7l1.3-0.1
					c0.2,0.4,0.2,0.8,0.2,1.3c0,0.3,0,0.6-0.1,0.8s-0.2,0.4-0.4,0.5s-0.4,0.2-0.6,0.2c-0.2,0-0.6,0.1-1.2,0.1h-2.7v0.8h-1.3v-0.8
					h-1.2l-1-1.7h2.2V-266.6z"/>
				<path d="M-20.2-269.3v1.6h-6.2v-1.5h0.9c-0.4-0.3-0.7-0.5-0.8-0.7s-0.2-0.4-0.2-0.7c0-0.4,0.1-0.7,0.3-1.1l1.4,0.5
					c-0.2,0.3-0.3,0.5-0.3,0.8c0,0.2,0.1,0.4,0.2,0.6s0.4,0.3,0.7,0.4s1,0.1,2.1,0.1H-20.2z"/>
				<path d="M-27.3-272.4h-1.5v-1.6h1.5V-272.4z M-20.2-272.4h-6.2v-1.6h6.2V-272.4z"/>
				<path d="M-24.6-281.2l0.3,1.6c-0.3,0.1-0.6,0.2-0.7,0.4s-0.2,0.4-0.2,0.8c0,0.4,0.1,0.7,0.4,1s0.8,0.4,1.4,0.4
					c0.7,0,1.3-0.1,1.6-0.4s0.5-0.6,0.5-1c0-0.3-0.1-0.6-0.3-0.8s-0.5-0.3-0.9-0.4l0.3-1.6c0.7,0.2,1.3,0.5,1.7,1s0.6,1.1,0.6,1.9
					c0,0.9-0.3,1.6-0.9,2.2s-1.4,0.8-2.4,0.8c-1,0-1.8-0.3-2.4-0.8s-0.9-1.3-0.9-2.2c0-0.8,0.2-1.4,0.5-1.8S-25.3-281-24.6-281.2z"
					/>
				<path d="M-26.5-285.3h1.3v1.1h2.5c0.5,0,0.8,0,0.9,0s0.2-0.1,0.2-0.1s0.1-0.2,0.1-0.3c0-0.2-0.1-0.4-0.2-0.7l1.3-0.1
					c0.2,0.4,0.2,0.8,0.2,1.3c0,0.3,0,0.6-0.1,0.8s-0.2,0.4-0.4,0.5s-0.4,0.2-0.6,0.2c-0.2,0-0.6,0.1-1.2,0.1h-2.7v0.8h-1.3v-0.8
					h-1.2l-1-1.7h2.2V-285.3z"/>
				<path d="M-23.4-293.8h-1.4v-3.7h3.4c0.4,0.4,0.7,0.9,0.9,1.6s0.4,1.4,0.4,2.1c0,0.9-0.2,1.7-0.6,2.3s-0.9,1.2-1.6,1.5
					s-1.5,0.5-2.3,0.5c-0.9,0-1.7-0.2-2.4-0.6s-1.2-0.9-1.6-1.6c-0.3-0.6-0.4-1.2-0.4-2.1c0-1.1,0.2-1.9,0.7-2.5s1.1-1,1.9-1.2
					l0.3,1.7c-0.4,0.1-0.8,0.3-1,0.7s-0.4,0.8-0.4,1.3c0,0.8,0.2,1.4,0.7,1.8s1.2,0.7,2.1,0.7c1,0,1.8-0.2,2.3-0.7s0.8-1,0.8-1.8
					c0-0.4-0.1-0.7-0.2-1.1s-0.3-0.7-0.5-0.9h-1.1V-293.8z"/>
				<path d="M-20.2-300.7v1.6h-6.2v-1.5h0.9c-0.4-0.3-0.7-0.5-0.8-0.7s-0.2-0.4-0.2-0.7c0-0.4,0.1-0.7,0.3-1.1l1.4,0.5
					c-0.2,0.3-0.3,0.5-0.3,0.8c0,0.2,0.1,0.4,0.2,0.6s0.4,0.3,0.7,0.4s1,0.1,2.1,0.1H-20.2z"/>
				<path d="M-24.6-305l-0.3,1.5c-0.6-0.2-1-0.5-1.3-0.9s-0.4-1-0.4-1.8c0-0.7,0.1-1.3,0.3-1.6s0.4-0.6,0.7-0.8s0.8-0.2,1.5-0.2
					l1.9,0c0.5,0,1,0,1.2-0.1s0.5-0.2,0.8-0.3v1.6c-0.1,0-0.3,0.1-0.5,0.2c-0.1,0-0.2,0-0.2,0.1c0.3,0.3,0.5,0.6,0.6,0.9
					s0.2,0.7,0.2,1c0,0.6-0.2,1.1-0.5,1.5s-0.8,0.6-1.3,0.6c-0.4,0-0.7-0.1-0.9-0.3s-0.5-0.4-0.6-0.7s-0.3-0.7-0.4-1.3
					c-0.1-0.8-0.3-1.3-0.4-1.6h-0.2c-0.3,0-0.5,0.1-0.7,0.2s-0.2,0.5-0.2,0.9c0,0.3,0.1,0.5,0.2,0.7S-24.8-305.1-24.6-305z
					 M-23.2-307.2c0.1,0.2,0.2,0.5,0.3,1s0.2,0.8,0.3,0.9c0.2,0.2,0.3,0.3,0.6,0.3c0.2,0,0.4-0.1,0.6-0.3s0.3-0.4,0.3-0.7
					c0-0.3-0.1-0.6-0.3-0.8c-0.1-0.2-0.3-0.3-0.5-0.4c-0.1,0-0.4-0.1-0.8-0.1H-23.2z"/>
				<path d="M-20.2-316.1v1.5h-0.9c0.4,0.3,0.6,0.6,0.8,0.9s0.3,0.7,0.3,1c0,0.7-0.3,1.3-0.9,1.8s-1.4,0.8-2.4,0.8
					c-1.1,0-1.9-0.2-2.4-0.7s-0.8-1.1-0.8-1.9c0-0.7,0.3-1.3,0.9-1.8h-3.1v-1.6H-20.2z M-23.5-311.7c0.7,0,1.1-0.1,1.4-0.3
					c0.4-0.3,0.6-0.6,0.6-1.1c0-0.4-0.2-0.7-0.5-1s-0.8-0.4-1.4-0.4c-0.7,0-1.2,0.1-1.5,0.4s-0.5,0.6-0.5,1c0,0.4,0.2,0.7,0.5,1
					S-24.1-311.7-23.5-311.7z"/>
				<path d="M-22.2-321.4l0.3-1.6c0.6,0.2,1.1,0.5,1.4,1s0.5,1,0.5,1.7c0,1.1-0.4,1.9-1.1,2.4c-0.6,0.4-1.3,0.6-2.1,0.6
					c-1,0-1.8-0.3-2.4-0.8s-0.9-1.2-0.9-2c0-0.9,0.3-1.7,0.9-2.2s1.5-0.8,2.8-0.8v4.1c0.5,0,0.9-0.1,1.1-0.4s0.4-0.6,0.4-0.9
					c0-0.3-0.1-0.5-0.2-0.7S-21.9-321.3-22.2-321.4z M-23.9-321.5c-0.5,0-0.8,0.1-1.1,0.4s-0.4,0.5-0.4,0.9c0,0.4,0.1,0.7,0.4,0.9
					s0.6,0.3,1.1,0.3V-321.5z"/>
				<path d="M-22-323.8l-0.3-1.7c0.3-0.1,0.6-0.2,0.7-0.4s0.2-0.5,0.2-0.9c0-0.4-0.1-0.7-0.2-1c-0.1-0.1-0.3-0.2-0.4-0.2
					c-0.1,0-0.2,0-0.3,0.1c-0.1,0.1-0.2,0.3-0.2,0.6c-0.3,1.3-0.6,2.2-0.8,2.5c-0.3,0.5-0.8,0.7-1.4,0.7c-0.5,0-1-0.2-1.4-0.6
					s-0.6-1.1-0.6-2c0-0.9,0.1-1.5,0.4-1.9s0.7-0.7,1.2-0.9l0.3,1.6c-0.2,0.1-0.4,0.2-0.6,0.4s-0.2,0.5-0.2,0.8
					c0,0.4,0.1,0.7,0.2,0.9c0.1,0.1,0.2,0.2,0.3,0.2c0.1,0,0.2-0.1,0.3-0.2c0.1-0.1,0.3-0.7,0.5-1.5s0.4-1.5,0.7-1.8
					c0.3-0.3,0.7-0.5,1.2-0.5c0.6,0,1.1,0.2,1.5,0.7s0.6,1.2,0.6,2.1c0,0.8-0.2,1.5-0.5,2S-21.4-324-22-323.8z"/>
			</g>
		</g>
		<g>
			<g transform="translate(0,90.5)">
				<line class="st3" x1="15.3" y1="164.1" x2="716.3" y2="164.1"/>
				<g class="st0">
					<path class="st1" d="M10-14.3l1.1,0.4c-0.2,0.8-0.5,1.4-0.9,1.8c-0.4,0.4-0.9,0.6-1.5,0.6c-0.8,0-1.4-0.3-1.9-0.9
						C6.3-13.1,6-14,6-15.2c0-1.2,0.3-2.2,0.8-2.9C7.3-18.7,8-19,8.8-19c0.7,0,1.2,0.2,1.7,0.7c0.3,0.3,0.5,0.8,0.7,1.4L10-16.5
						c-0.1-0.4-0.2-0.7-0.4-0.9c-0.2-0.2-0.5-0.3-0.8-0.3c-0.4,0-0.8,0.2-1.1,0.6s-0.4,1-0.4,1.9c0,0.9,0.1,1.5,0.4,1.9
						s0.6,0.6,1,0.6c0.3,0,0.6-0.1,0.8-0.4C9.7-13.4,9.9-13.8,10-14.3z"/>
				</g>
			</g>
			<g transform="translate(0,270.5)">
				<path class="st4" d="M15.3-14.9"/>
				<g class="st0">
					<path class="st1" d="M5.7-18.8H8c0.6,0,1.1,0.1,1.4,0.2S9.9-18.3,10-18s0.3,0.6,0.3,1c0,0.3-0.1,0.7-0.2,0.9
						c-0.2,0.3-0.4,0.5-0.6,0.6c0.3,0.1,0.6,0.3,0.8,0.6s0.3,0.7,0.3,1.1c0,0.5-0.1,1-0.4,1.3c-0.3,0.4-0.5,0.6-0.9,0.7
						c-0.2,0.1-0.8,0.1-1.7,0.1h-2V-18.8z M6.9-17.7v1.7h0.8c0.5,0,0.8,0,0.9,0c0.2,0,0.4-0.1,0.5-0.3c0.1-0.1,0.2-0.3,0.2-0.6
						c0-0.2,0-0.4-0.1-0.5c-0.1-0.1-0.2-0.2-0.3-0.2s-0.5,0-1.1,0H6.9z M6.9-14.8v1.9H8c0.5,0,0.8,0,0.9-0.1C9-13,9.1-13.1,9.2-13.3
						c0.1-0.1,0.1-0.3,0.1-0.6c0-0.2,0-0.4-0.1-0.6c-0.1-0.2-0.2-0.3-0.4-0.3c-0.2-0.1-0.5-0.1-1-0.1H6.9z"/>
				</g>
			</g>
			<g transform="translate(0,450.5)">
				<line class="st3" x1="15.3" y1="-14.9" x2="716.3" y2="-14.9"/>
				<g class="st0">
					<path class="st1" d="M11.5-11.7h-1.3l-0.5-1.6H7.4l-0.5,1.6H5.6l2.3-7.2h1.3L11.5-11.7z M9.4-14.5l-0.8-2.7l-0.8,2.7H9.4z"/>
				</g>
			</g>
		</g>
	</g>
	<g id="visualization">
		<g id="B">
			<g id="circles">
				<circle class="st5" cx="426.5" cy="294.8" r="8.3"/>
				<circle class="st5" cx="416.9" cy="251.5" r="4.3"/>
				<circle class="st5" cx="354.9" cy="248.1" r="8.1"/>
				<circle class="st5" cx="328.2" cy="279.8" r="12.5"/>
				<circle class="st5" cx="442.8" cy="240.4" r="22"/>
				<circle class="st5" cx="468.5" cy="249.2" r="3.3"/>
				<circle class="st5" cx="304.5" cy="225.2" r="6.7"/>
				<circle class="st5" cx="472.2" cy="239.2" r="5.4"/>
				<circle class="st5" cx="594.5" cy="254.1" r="3.3"/>
				<circle class="st5" cx="400.4" cy="266.6" r="16.1"/>
				<circle class="st5" cx="466.5" cy="263.7" r="9.3"/>
				<circle class="st5" cx="451.1" cy="271.8" r="6.1"/>
				<circle class="st5" cx="346.4" cy="258.4" r="3.2"/>
				<circle class="st5" cx="438.4" cy="281.3" r="7.7"/>
				<circle class="st5" cx="363.3" cy="277.8" r="20.7"/>
				<circle class="st5" cx="422.2" cy="278.3" r="6.7"/>
				<circle class="st5" cx="389.2" cy="286.2" r="4.6"/>
				<circle class="st5" cx="296.3" cy="260.5" r="10.3"/>
				<circle class="st5" cx="354.9" cy="223.8" r="14.2"/>
				<circle class="st5" cx="294.7" cy="239.6" r="8.7"/>
				<circle class="st5" cx="504.2" cy="259.3" r="4.5"/>
				<circle class="st5" cx="381.3" cy="219.2" r="10.6"/>
				<circle class="st5" cx="340.8" cy="297.1" r="7"/>
				<circle class="st5" cx="311.5" cy="269.2" r="5.2"/>
				<circle class="st5" cx="324.9" cy="245.4" r="20"/>
				<circle class="st5" cx="403.1" cy="206.8" r="12.4"/>
				<circle class="st5" cx="377.9" cy="244.8" r="13.2"/>
				<circle class="st5" cx="405.3" cy="235" r="13.9"/>
				
					<ellipse transform="matrix(0.1602 -0.9871 0.9871 0.1602 186.7035 725.1534)" class="st5" cx="519.5" cy="252.9" rx="10.1" ry="10.1"/>
				<circle class="st5" cx="423.4" cy="262.3" r="5.3"/>
				<circle class="st5" cx="492.9" cy="254.1" r="4.5"/>
				<circle class="st5" cx="431" cy="269.9" r="3.4"/>
				<circle class="st5" cx="404.6" cy="296" r="11.6"/>
				<circle class="st5" cx="302.2" cy="276" r="4.3"/>
				<circle class="st5" cx="439.9" cy="267.9" r="3.7"/>
			</g>
			<g id="labels">
				<g transform="translate(411.23528515540517,130.70315980134987)">
				</g>
				<g transform="translate(401.56906519022294,87.37580669822516)">
				</g>
				<g transform="translate(339.5593222753372,84.01738081456008)">
				</g>
				<g transform="translate(312.87483747010816,115.64123463458745)">
				</g>
				<g transform="translate(427.4949935925358,76.2404193385084)">
				</g>
				<g transform="translate(453.232082656087,85.12609934580513)">
				</g>
				<g transform="translate(289.2274712583043,61.102558011355114)">
				</g>
				<g transform="translate(456.8705949760151,75.04427561885497)">
				</g>
				<g transform="translate(579.20125,90)">
				</g>
				<g transform="translate(385.0930056827693,102.435802448026)">
				</g>
				<g transform="translate(451.2123306391449,99.57992967921554)">
				</g>
				<g transform="translate(435.77521485009794,107.63964949638371)">
				</g>
				<g transform="translate(331.0953039513916,94.24673195469065)">
				</g>
				<g transform="translate(423.12566624776235,117.14377908473162)">
				</g>
				<g transform="translate(347.9941161306,113.6690017626102)">
				</g>
				<g transform="translate(406.93586802533724,114.18469334131579)">
				</g>
				<g transform="translate(373.8966375768502,122.10971006980226)">
				</g>
				<g transform="translate(281.0246518308362,96.37877207963766)">
				</g>
				<g transform="translate(339.5435762595277,59.65756547732895)">
				</g>
				<g transform="translate(279.42099255753186,75.46416458997426)">
				</g>
				<g transform="translate(488.93764392302853,95.19760402204325)">
				</g>
				<g transform="translate(365.998786268618,55.06820648555117)">
				</g>
				<g transform="translate(325.49134418662624,132.9819711584458)">
				</g>
				<g transform="translate(296.2328972594812,105.07094521779456)">
				</g>
				<g transform="translate(309.55697750771463,81.31520898811401)">
				</g>
				<g transform="translate(387.77654159900305,42.66920452315487)">
				</g>
				<g transform="translate(362.63711277522276,80.668137299962)">
				</g>
				<g transform="translate(390.0098740858126,70.88798536088908)">
				</g>
				<g transform="translate(504.1987852454496,88.7383505814753)">
				</g>
				<g transform="translate(408.1182105330138,98.2051045047695)">
				</g>
				<g transform="translate(477.5679252005383,89.99319012767221)">
				</g>
				<g transform="translate(415.6891001204256,105.8075182425964)">
				</g>
				<g transform="translate(389.2935566917165,131.85800130846204)">
				</g>
				<g transform="translate(286.895323907837,111.90071540369703)">
				</g>
				<g transform="translate(424.5885916149276,103.76023315713348)">
				</g>
			</g>
		</g>
		<g id="A">
			<g id="circles_00000039121520522513482760000016007607716234704771_">
				<circle class="st6" cx="460.1" cy="435.3" r="9.5"/>
				<circle class="st6" cx="350.7" cy="447.7" r="10.3"/>
				<circle class="st6" cx="423.6" cy="436" r="25"/>
				<circle class="st6" cx="395" cy="447.7" r="3.6"/>
				<circle class="st6" cx="451" cy="424.3" r="2.8"/>
				<circle class="st6" cx="261.9" cy="434.6" r="2.9"/>
				<circle class="st6" cx="310.1" cy="434.7" r="6"/>
				<circle class="st6" cx="322" cy="422.8" r="8.8"/>
				<circle class="st6" cx="377.1" cy="430.6" r="19.2"/>
				<circle class="st6" cx="80.5" cy="434.6" r="10.5"/>
				<circle class="st6" cx="293.6" cy="434.5" r="8.5"/>
				<circle class="st6" cx="329" cy="442.4" r="10"/>
				<circle class="st6" cx="344.7" cy="424.3" r="11.9"/>
				<circle class="st6" cx="336.8" cy="459.2" r="5.8"/>
			</g>
			<g id="labels_00000063610541774523304890000008458295322200980370_">
				<g transform="translate(444.7421174108626,450.1872979256104)">
				</g>
				<g transform="translate(335.92606475612604,463.1682319581628)">
				</g>
				<g transform="translate(408.28582274588314,450.8448378276254)">
				</g>
				<g transform="translate(380.2810528172096,463.10145864086945)">
				</g>
				<g transform="translate(435.68870096433125,439.19513414315486)">
				</g>
				<g transform="translate(247.10250000000002,450)">
				</g>
				<g transform="translate(295.38377949322154,450.1161917346242)">
				</g>
				<g transform="translate(307.25768836623115,438.1839480412113)">
				</g>
				<g transform="translate(362.36229047411285,446.03743905566466)">
				</g>
				<g transform="translate(65.71875,450)">
				</g>
				<g transform="translate(278.860185557607,449.94079307731715)">
				</g>
				<g transform="translate(314.20653294126794,457.801490718734)">
				</g>
				<g transform="translate(329.8882281030854,439.68737643853984)">
				</g>
				<g transform="translate(321.47353452974835,474.0780791947981)">
				</g>
			</g>
		</g>
	</g>
</g>
<line class="st3" x1="65.3" y1="85.4" x2="766.3" y2="85.4"/>
<g id="C">
	<g id="circles_00000081640309377972916610000003907036512966541210_">
		<circle class="st7" cx="535.1" cy="92.2" r="3.6"/>
		<circle class="st7" cx="502.9" cy="85.1" r="6.5"/>
		<circle class="st7" cx="614.7" cy="84.9" r="4.2"/>
		<circle class="st7" cx="573.5" cy="83" r="2.8"/>
		<circle class="st7" cx="746.2" cy="84.9" r="4.2"/>
		<circle class="st7" cx="308" cy="84.9" r="3.1"/>
		<circle class="st7" cx="656.8" cy="84.9" r="3.1"/>
		<circle class="st7" cx="625.1" cy="84.9" r="4.3"/>
		<circle class="st7" cx="552" cy="87.2" r="6.2"/>
		<circle class="st7" cx="585" cy="84.9" r="5.9"/>
		<circle class="st7" cx="456.3" cy="84.9" r="8.7"/>
		<circle class="st7" cx="491.2" cy="84.9" r="2.5"/>
		<circle class="st7" cx="470.4" cy="84.9" r="3.4"/>
		<circle class="st7" cx="521.4" cy="84.6" r="10"/>
		<circle class="st7" cx="564.9" cy="86.8" r="4.7"/>
		<circle class="st7" cx="430.4" cy="84.9" r="15.2"/>
		<circle class="st7" cx="539.4" cy="81.9" r="5.5"/>
		<circle class="st7" cx="559.5" cy="78.1" r="3.5"/>
	</g>
	<g id="labels_00000152226474532866129680000014754940970505128600_">
		<g transform="translate(469.77900734097653,277.2269127044766)">
		</g>
		<g transform="translate(437.5852879228775,270.14816453186603)">
		</g>
		<g transform="translate(549.3845469891434,270)">
		</g>
		<g transform="translate(508.1989174234373,268.04308818545803)">
		</g>
		<g transform="translate(680.84625,270)">
		</g>
		<g transform="translate(242.72125000000005,270)">
		</g>
		<g transform="translate(591.46875,270)">
		</g>
		<g transform="translate(559.7910750053641,270)">
		</g>
		<g transform="translate(486.69828802238766,272.2490753200024)">
		</g>
		<g transform="translate(519.6435175848185,270.00074183003477)">
		</g>
		<g transform="translate(391.011730657102,270)">
		</g>
		<g transform="translate(425.8429290291569,269.99999165930006)">
		</g>
		<g transform="translate(405.13459219763075,270)">
		</g>
		<g transform="translate(456.11036187266996,269.6712926123781)">
		</g>
		<g transform="translate(499.5436995586093,271.8903003793031)">
		</g>
		<g transform="translate(365.11343592793014,270)">
		</g>
		<g transform="translate(474.052235478017,266.91712834461197)">
		</g>
		<g transform="translate(494.18610557712725,263.2051017373373)">
		</g>
	</g>
</g>
</svg>
