<?xml version="1.0" encoding="UTF-8"?>
<svg id="svg3258" xmlns="http://www.w3.org/2000/svg" viewBox="0 0 187.7049 95.8086">
  <defs>
    <style>
      .cls-1 {
        fill: #c85422;
      }

      .cls-1, .cls-2, .cls-3, .cls-4, .cls-5 {
        stroke: #fff;
        stroke-miterlimit: 10;
        stroke-width: .1px;
      }

      .cls-2 {
        fill: #ffc685;
      }

      .cls-3 {
        fill: #ed6f20;
      }

      .cls-4 {
        fill: #f59f3f;
      }

      .cls-6 {
        letter-spacing: -.0298em;
      }

      .cls-5 {
        fill: #9e3d22;
      }

      .cls-7 {
        letter-spacing: -.0601em;
      }

      .cls-8 {
        font-family: ArialNarrow-Bold, Arial;
      }

      .cls-8, .cls-9 {
        font-size: 4px;
      }

      .cls-9 {
        font-family: ArialMT, Arial;
      }
    </style>
  </defs>
  <g>
    <path id="Bay" class="cls-4" d="M25.2535,14.4363l.5,4.7,.4,3.5-1.1-.3-.3-.1-.1-.1-.3-.2-.4-.4-2.4-1.4-.2-.1-.1-.1-.1-.1-.2-.1-.4-.2-.2-.1h-.3l-.2-.1-.2-.1-.7-.2-.1-1.6,.3-.3,1.2-.5,3.4-.3,.7-.1-.2-1.7,.6-.1h.4"/>
    <path id="Jackson" class="cls-2" d="M23.5536,9.0363l5.3-.6,1.9,3.5-.6,1.4-1.8,.2-.8,.6-.8,.1-1.5,.2-.6,.1-.3-2.8-.9-.5-1.1,.1,.9-2.3h.3"/>
    <path id="Charlotte" class="cls-3" d="M68.6536,54.8363l5.7-.9,.5,3.3-5.7,.8v-.4l-.1-.7-.2-1v-.1l-.2-.1-.4,.1-.1,.1-.5,.5-.1,.1,.3,1.8v.1l-.5,.1-.2-.2h0l-.1,.1-.1,.2h-.2l-.1-.2-.1-.2h0l-1.4-1.8,1.4-.2-.1-.8-.1-.4,2.3-.2"/>
    <path id="Lee" class="cls-3" d="M66.9535,59.3363l1.3,2.4,.2,.1,.2,.1,.7,.2,.1-.2,.2-.1,.6,.1h0l-.5,.4-.1,.1h-.3l-.4-.1-.6-.3h-.2v-.1l-1.2-2.2v-.4m2.1-1.2l5.7-.8,.5,3.2,.2,1.1-.9,1.5-1.9,.3-.3-.1-.3-.6-.6-.5-1.3-.8-1.3-1.9,.2-1.4"/>
    <path id="Hendry" class="cls-2" d="M74.6536,57.0363l4.5-.7,2.6-.4,.3-2.5,1.3,7.9,.2,.9-4.5,.8-.4-2.1-.2-1.2-3.4,.6-.4-3.3"/>
    <path id="Collier" class="cls-1" d="M83.5535,62.2363l.6,3.5,.4,2.2-5.5,.9v-.2l-.1-.1-.5-.3-.3-.1h-.1l-1.1-.2h-.1l-1.3,.3-.1,.1-.1,.1v.5h-.1l-.2-.1-.7-1-1-1.7-.1-.5-.2-.4-.3-1-.2-.8-.2-.4h0l.3,.1,1.9-.3,.9-1.5-.2-1.1,3.4-.6,.2,1.2,.4,2.1,4.3-.7"/>
    <path id="Monroe" class="cls-5" d="M88.5535,79.1363l-.1,.3-.5,.4-.5,.4-.5,.2h0l.1-.1,.6-.6,.9-.6h0m4.3-6.7h0l-.2,.4-.7,1.8v.1l.1,.2-.1,.2-.2,.3-1.8,2.5-.1,.1-.9,.9h0v-.1l.4-.6,.3-.2,.4-.6,.4-.4,.6-.9,.1-.2,.7-1.4,.8-2,.2-.1m-7.2,8.9l-.6,.5-.7,.5h-.3l-.2-.1h0l1-.6,1.4-.8h0l.1,.1-.1,.1-.6,.3m-7.1,2.3h0l.2-.4,1.6-.8,.4,.1,.8,.2,.3,.5h-.1l-.1,.1-.1,.1-.7,.3-4.5,1.6-.3,.1h0v-.3l.2-.2,.5-.1h.1l.1,.1h.1l.4-.2,.2-.1,.4-.4,.5-.6m6-15.7l.9,5.5,.5,2.1,.1,.2h0l-.7,.6-.9,.4-.9,.2-.2-.1-.5-.3-.1-.1-.5-.7v-1.5l.1-.1h.3v-.2l-.8-1.3-1.3-2-1.4-1.9,5.4-.8"/>
    <path id="Miami-Dade" class="cls-5" d="M92.8535,72.4363h-.3l.1-.6,.4-1.5,.1-.2h.1l.1,.4-.2,.9-.3,1m-8.6-6.7l1.1-.2,1.2,.1,2.8-.5,1.7-.4,.4-.2,.4-.1,.4-.1,.8-.2h0l.1,.7,.1,.9v.9l-.1,.3-.1,.1-.2,.2v.2l-.2-.1h-.1l-.3,.2-.2,.2v.1l-.6,2.5-.1,.4v.3l.3,1,.1,.1h.1l.1,.1v.1l-.2,.5-.4,.6h0l-.3,.3-.6,.7-1.5,.8-.5,.2-.4,.2-.7,.1h-1.2l-.1-.2-.6-2.1-.9-5.5-.3-2.2"/>
    <path id="Broward" class="cls-5" d="M83.4535,61.2363l6.7-1.1,.6-.1,2-.2,.2,4.4-.8,.2-.4,.1-.4,.1-.4,.2-1.7,.4-2.8,.5-1.2-.1-1.1,.2-.6-3.5-.1-1.1"/>
    <path id="Palm_Beach" data-name="Palm Beach" class="cls-5" d="M82.1536,53.4363l5.7-.9h.1l2.7-.4,.7-.3,.2,.4,.2,.5,.2,.4,.3,.8,.2,1.2,.2,1.1,.1,.5,.1,3v.2l-2,.2-.6,.1-6.7,1.1-1.4-7.9"/>
    <path id="Sarasota" class="cls-3" d="M68.3535,52.6363l.3,2.2-2.3,.3,.1,.4,.1,.8-1.4,.1-2-3.1-.1-.2-.2-.2-.1-.2-.5-.6-.3-.3-.6-.6,4.5-.6,.3,2.2,2.2-.2"/>
    <path id="DeSoto" class="cls-4" d="M73.6536,49.8363l.6,3.9-5.7,.9-.6-3.9,2.2-.3,1.2-.2,2.3-.4"/>
    <path id="Glades" class="cls-2" d="M80.9535,50.3363l1.2,3.1-.3,2.5-2.6,.4-4.5,.7-.5-3.3,3.4-.5-.2-1.1,1-1.3,2.5-.5"/>
    <path id="Martin" class="cls-1" d="M89.3535,48.3363l2,3.5-.7,.3-2.7,.3h-.1l-5.7,1,1.9-3.5,3-.5,1.5-.2-.2-.8,1-.1"/>
    <path id="St._Lucie" data-name="St. Lucie" class="cls-3" d="M83.3535,45.7363l4.1-.7,2,3.5-1,.2,.1,.7-1.5,.3-3,.5-.7-4.5"/>
    <path id="Indian_River" data-name="Indian River" class="cls-4" d="M80.5535,42.4363l4.1-.7,.6-.5,.1-.1,2.1,3.6-4.2,.7-1.1,.2-.2-1.1-1.1,.2-.3-2.3"/>
    <path id="Okeechobee" class="cls-4" d="M77.8535,45.2363l3.1-.5,1.1-.2,.2,1.1,1.1-.2,.7,4.4-1.9,3.6-1.2-3.1-1-1-1.1-.9-1.2-2.1,.2-1.1"/>
    <path id="Highlands" class="cls-2" d="M73.0535,45.9363l4.8-.7-.2,1.1,1.2,2.1,1.1,.9,1,1-2.6,.4-1,1.3,.2,1.1-3.4,.5-.6-3.9-.5-3.8"/>
    <path id="Hardee" class="cls-2" d="M67.4535,46.7363l5.6-.8,.6,3.9-2.1,.3-1.2,.2-2.2,.3-.7-3.9"/>
    <path id="Manatee" class="cls-3" d="M61.8535,47.9363l5.7-.8,.6,3.9,.2,1.7-2.3,.3-.3-2.3-4.5,.6-.6-.6-.4-.7,.3-.1,.4-.3,.8-1.2v-.1l.1-.4"/>
    <path id="Pinellas" class="cls-3" d="M59.8535,41.3363l.4,2.6-.8,.2h0v.1l.1,.1,.1,.1,1.2,.5,.5-.2,.1,.3-.3,.8-1,2.4-.6-.8-1.2-3.1h0l.1-.7v-.6l-.1-.9-.1-.2-.1-.1-.2-.2,1.9-.3"/>
    <path id="Hillsborough" class="cls-3" d="M59.8535,41.3363l6.2-.9,.6-.1,.6,3.9,.4,2.8-5.7,.8,1.1-1.7h0l.3-.6,.1-.3-.3-.6-.2-.2-1.7-.6h-.4l-.3,.1-.3,.1-.4-2.7"/>
    <path id="Hernando" class="cls-4" d="M58.8535,34.4363l2.6-.4,.1,.4,1.7-.3v.3l.2,.2,.5,.5,.2,.1,1.4,.4,.4,.6-2.2,.3,.1,.6-4.4,.6-.4,.1-.2-3.4"/>
    <path id="Pasco" class="cls-4" d="M65.8535,36.2363l.3,2.1-.3,1.9-6.2,.9-1.7,.3,1-3.5,.4-.1,4.4-.6-.1-.6,2.2-.4"/>
    <path id="Osceola" class="cls-3" d="M70.7536,37.5363l8.9-1.4,.2,1.3,.3,2h-.1l.5,3.3,.3,2.3-3.1,.5-.1-.5,.1-.3-.6-.8-.3-.5-2.5-2.3-.8-.6-2.6-1.9-.2-1.1"/>
    <path id="Polk" class="cls-4" d="M70.6536,37.2363l.2,1.1,2.6,1.9,.8,.6,2.5,2.3,.3,.5,.6,.9,.1,.3,.1,.5-4.8,.6-5.6,.8-.4-2.7-.6-3.9-.6,.1,.3-1.9,1-.6,3.5-.5"/>
    <path id="Orange" class="cls-3" d="M72.5535,31.5363l-.4,1v.3l.6,.5,1.1,.2,3.8-.6,1.9,3.1-8.9,1.4-.8-5.5,.1-.1h.3l2.3-.3"/>
    <path id="Seminole" class="cls-4" d="M72.4535,31.5363l.3-1.3,.6,.5,1.5,.3h.3l.4-.2,.1-.3,.8,.7,.4,.5,.7,1.1-3.8,.6-1.1-.2-.6-.5v-.3l.4-.9"/>
    <path id="Lake_FL" data-name="Lake FL" class="cls-4" d="M68.9535,25.4363l2.1,2,.8,.5,.5,.3,.5,.4h0l.1,.7-.1,.7-.3,1.3-2.4,.4h-.3l-.1,.1,.8,5.5-3.4,.5-1.1-7.9,3.3-.5v-1.3l-.4-2.7"/>
    <path id="Sumter" class="cls-5" d="M62.0535,30.5363l4-.6,1.1,7.8-1,.6-.3-2.1-.4-.6-1.4-.3-.2-.1-.5-.5-.1-.3v-1l.1-.2,.2-.3,.2-.1h0l.3-.4v-.1l-1.4-1.3-.6-.5"/>
    <path id="Citrus" class="cls-2" d="M59.4535,29.8363l2.7,.7,.5,.6,1.4,1.3v.1l-.1,.4h0l-.2,.1-.2,.3-.1,.2v.7l-2,.2-.1-.4-2.5,.4-.2-1.9-.1-.4-.1-.2-1.4-1.1,.1-.1,.1-.1,.3-.3,.2-.1h.2l.7,.2,.7-.4,.1-.2h0"/>
    <path id="Levy" class="cls-2" d="M57.1535,23.4363l2.9,.6,.5,3.4-1.5,.2,.3,2.2h0l-.2,.1-.6,.5-.7-.2h-.2l-.2,.1-.3,.3-.1,.1v-.3l-.1-.3-.7-1.1-.3-.1-4-1.1,.9-.8,.5-.9,.2-.8,.4-1.7,3.2-.2"/>
    <path id="Marion" class="cls-4" d="M60.0536,24.0363l2-.3,.2,.2v.1l.8,.4,.8-.3,.1-.1h0l-.1-.4,.3-.3,.2-.1,.8-.3,1.8,.1,.3,.7,.6,.7,.5,.5,.5,.5,.4,2.7v1.3l-3.2,.5-4,.6-2.7-.7-.3-2.2,1.5-.2-.5-3.4"/>
    <path id="Volusia" class="cls-4" d="M68.4535,24.8363l2.6-1.4,.2,.3,.3,1.4,.9-.2h0l2-.4-.3-1.4,.5-.7,.8,1.4,.7,1.1,.5,.8,.3,.4,1.1,1.3,2.1,2.5-2.7,.5,.4,2.2h-.3l-.7-1.1-.4-.5-.8-.6-.1,.3-.4,.2h-.3l-1.4-.5-.6-.5,.1-.7-.1-.7h0l-.5-.4-.5-.3-.8-.4-2.1-2-.5-.6"/>
    <path id="Brevard" class="cls-4" d="M77.6536,32.7363h.3l-.5-2.3,2.6-.4,2.1,2.2h0l.1,.1h0l.8,1.5v.1l-.4,.2-.1,.1-.1,.2v.1h0v1.3l.2,.7,.3,1,.4,1,.3,.6,.2,.4,.3,.5h0l.9,1.3-.1,.1-.6,.5-3.8,.5-.5-3.3h.1l-.3-2-.2-1.3-2-3.1"/>
    <path id="Washington" class="cls-2" d="M20.0536,13.2363v-.8l.1-.3,.8-.1,.2,.2v.4l1.3-.2,.1-.9v-.2l1.1-.1,.9,.5,.3,2.8-.6,.1,.2,1.7-.7,.1-3.4,.3-1.3,.4-.2,.3,.4-.8,.4-1.9-.2-.2-.1-.4,.5-.9h.2"/>
    <path id="Holmes" class="cls-2" d="M17.5536,9.7363l5.9-.7-.9,2.3v.2l-.1,.9-1.3,.1v-.4l-.2-.2-.8,.1-.1,.4v.8l-2.2,.2-.3-3.7"/>
    <path id="Walton" class="cls-4" d="M15.8535,9.9363l1.7-.2,.3,3.7,2.2-.2-.1,.1-.5,.9,.1,.4,.2,.2-.4,1.9-.5,.7,.1,1.5-4.6-.9-.7-7.9,2.2-.2"/>
    <path id="Okaloosa" class="cls-4" d="M13.6535,10.1363l.7,7.9-4.5,.4-.6-7.8,1.1-.2,3.3-.3"/>
    <path id="Santa_Rosa" data-name="Santa Rosa" class="cls-5" d="M5.1535,10.9363l4.1-.4,.6,7.8-1.3,.3-1.8,.3-.8-.5-1.4-2.5-.6-1.4-.1-.4v-.2l-.1-1v-.2l.2-.8,.1-.1,.4-.4,.7-.5"/>
    <path id="Escambia" class="cls-2" d="M.3535,11.3363l4.8-.5-.7,.6-.5,.5-.1,.1-.2,.8v.2l.1,1v.2l.2,.5,.6,1.4,1.4,2.5,.8,.5,1.8-.3-2.5,.7h-.2l-.4,.1-.3,.1-.4,.1-1.7,.4-1,.3,.7-.3,.1-1.4,.2-2.9v-.4l-.1-.2-.5-.3-.4-.2h-.3l-.4-.2-1.1-1.3-.2-.2,.3-1.8"/>
    <path id="Calhoun" class="cls-2" d="M25.2535,14.4363l1.5-.2,.8-.1,.8-.6,1.8-.2-.5,1.2-.4,2.4-.5,1.9-3,.3-.5-4.7"/>
    <path id="Gulf" class="cls-2" d="M25.7535,19.1363l3-.3,1.3,2.8,.1,1.8-.6,.9h-.2l-1,1,.1,.1-1,.1v-1.4l-.2-.3-.6-.8-.3-.3h0l-.6-3.6"/>
    <path id="Franklin" class="cls-2" d="M35.4535,20.4363l2.3,.4,.1,.2v.2h0v.1l-.1,.2h-.1l-.3,.1-.5-.1h-.1l-.1-.1h-.1l-.6,.2-.3,.1-1.6,1.3-.7,.6-.6,.5-.7,.3-1.2,.4-.5,.1-.4-.1h-.3l-.2,.1-1,.4,.1-.2,1-1h.2l.6-.9-.1-1.8,.1-.6,5.1-.4"/>
    <path id="Dixie" class="cls-2" d="M53.7536,20.5363l.2,3-.4,1.7-.2,.8-.5,.9-.9,.8-.2-.7-.4-.6-.2-.3-.3-.1h-.3l-.5-.3-.9-.5-.3-.1v-.1l-.4-1.8,.8-2.1,4.5-.6"/>
    <path id="Gilchrist" class="cls-2" d="M54.0536,19.6363l.8-.7,1.8,1.1,.5,3.4-3.2,.1-.2-3,.3-.9"/>
    <path id="Alachua" class="cls-3" d="M57.9535,18.5363l1.3,.1,.3,.4h.1l1.4,.2h.6l.1-.1h.1l.5,.1h.2l1,.9,.1,.3v.1l.4,3.1,.1,.4h0l-.1,.1-.9,.4-.8-.4v-.1l-.2-.2-2,.3-2.9-.6-.5-3.4,1.2-1.6"/>
    <path id="Putnam" class="cls-2" d="M68.5535,18.1363l1.1,2.7,1.4,2.7-2.6,1.4-.5-.5-.6-.7-.3-.8-1.8-.1-.8,.3-.2,.1-.3,.3-.4-3.1h.1l.3-.1,1-.7v-.2l.1-.1,1-.7h.2l2.3-.5"/>
    <path id="Flagler" class="cls-3" d="M69.7536,21.1363l3.4-1.1,1.7,2.9-.5,.7,.3,1.4-2,.4h0l-.9,.2-.3-1.4-.3-.4-1.4-2.7"/>
    <path id="St._Johns" data-name="St. Johns" class="cls-3" d="M67.0535,15.0363l.6-.3h.3l.7,.2,1.2-.2-.3-1.9,.6-.1,1.3,3.5,.9,2.3h0l.1,.3,.1,.2,.5,.8-3.4,1.1-1.1-2.7-1.5-3.2"/>
    <path id="Clay" class="cls-4" d="M66.9535,14.7363l1.6,3.4-2.4,.4h-.2l-1,.7v.4l-1,.7-.3,.1-.8-5.4-.1-.6,1.1-.2,2.3-.4,.3-.1h.3l.2,1"/>
    <path id="Bradford" class="cls-2" d="M61.7536,15.2363l1-.2,.8,5.4h-.1v-.1l-.1-.3-1-.9h-.2l-.5-.1h-.1l-.1,.1h-.6l-1.4-.2h-.1l-.2-.5,.5-.2,.7-.4,1.2-1.7,.3-.6v-.1l-.1-.2"/>
    <path id="Union" class="cls-2" d="M61.7536,15.2363l.1,.2v.1l-.3,.6-1.2,1.7-.7,.4-.5,.2h-1.3l.4-2.6,3.5-.6"/>
    <path id="Suwannee" class="cls-2" d="M54.2536,13.7363l.7,5.2-.9,.7-.7-.8-.4-.4-.2-.1-1.1-.7-.5-.2-.6-.1v.1h-.5l-.1-.1-.4-.9-.2-.8v-.1h0l.6-1.7,.1-.5h0l.3-.2,.4-.1h.9l.6,.1,2,.6"/>
    <path id="Lafayette" class="cls-2" d="M49.3535,15.4363h0l-.1,.1,.2,.8,.4,.9,.2,.2,.3,.1,.2-.1v-.1l.6,.1,.5,.2,1.1,.7,.2,.1,.4,.4,.7,.8-.3,.9-4.4,.6-.4,.1-.3-.9-.6-4.7,1.3-.2"/>
    <path id="Taylor" class="cls-2" d="M48.0536,15.6363l.6,4.7,.3,.9,.4-.1-.8,2.1-.4-.1-1.1-.4-.1-.1-.1-.1-.4-.5v-.1l-.1-.2-.1-.3-.6-.7-.5-.3-.1-.1-1.2-.5-.7-.2-1-.5-.7-.4,1.5-3,3.9-.5,.1,.6,1.1-.2"/>
    <path id="Wakulla" class="cls-4" d="M33.1535,17.0363l5.1-.7,.1,.4,1.8-.2,.3,2.3-1.9,.3-1,.5-.2,.1v.4l.1,.5h0l.2,.3-2.2-.5-.7-.4-.3-.2-.5-.6-1-1.7,.1-.3,.1-.2"/>
    <path id="Liberty" class="cls-2" d="M33.7536,15.7363l-.6,1.2-.1,.2-.2,.3,1,1.7,.5,.6,.3,.2,.7,.4-5.1,.6-.1,.6-1.3-2.8,.5-1.9,.4-2.4,.5-1.2,3.5,2.5"/>
    <path id="Gadsden" class="cls-2" d="M36.1535,11.5363l1.1-.1-.5,1.2-.5,1.5-.1,.1-.1,.2-.2,.1-1.5,.7-.7,.5-3.5-2.4,.6-1.4h0l5.4-.4"/>
    <path id="Leon" class="cls-3" d="M40.3535,11.2363l-.1,2-.3,1.2,.3,2.1-1.8,.2-.1-.4-5.1,.7,.6-1.2,.7-.5,1.5-.7v-.2l.2-.1,.1-.1,.5-1.5,.5-1.2,2.2-.2,.8-.1"/>
    <path id="Jefferson" class="cls-4" d="M43.2536,11.0363l1.5-.1,.1,.2,.1,.7-.3,.4-.9,1-.7,1.9-.1,.6-1.5,3h-1l-.5-4.3,.2-1.2,.1-2,3-.2"/>
    <path id="Madison" class="cls-2" d="M47.5536,10.8363h.5l.5,.2,.5,1.7,.3,.6,.1,.1,.6,.4-.7,1.6-1.3,.2-1.1,.2-.1-.6-3.9,.5,.1-.6,.6-1.9,.9-1,.3-.4-.1-.7-.1-.2,2.9-.1"/>
    <path id="Hamilton" class="cls-2" d="M49.9535,10.6363l5-.3-.3,.5v.6l.2,.3,.6,.7h.2l.1,.3v.1l-.3,.8-.1,.1-.6,.3h-.5v-.1l-1.9-.7-.6-.1h-.9l-.4,.1-.3,.2h0l-.1,.4-.6-.4-.1-.1-.3-.6-.5-1.7-.5-.3,1.9-.1"/>
    <path id="Columbia" class="cls-4" d="M56.0536,10.2363l1.4-.1,.8,5.7-.4,2.6-1.2,1.6-1.8-1.1-.7-5.2v.1h.5l.6-.3,.1-.1,.3-.8v-.2l-.1-.1-.6-.7-.2-.3v-.6l.3-.5h1"/>
    <path id="Baker" class="cls-2" d="M57.9535,10.0363l2.3-.1,.3,1.8,.1,.3,.2,.3,.2,.2h.1l1.3-.2,.1,1.1,.2,1.7-1,.2-3.5,.6-.8-5.7,.5-.2"/>
    <path id="Duval" class="cls-3" d="M62.6536,13.7363l2-2.8,.9-1.3,.2-.2,.1-.1,.8-.3h1.5l.7,.7,.2,.1,.2,.2,.3,1,.2,.7,.1,.5,.1,.4,.1,.3-.6,.1,.3,1.9-1.2,.2-.7-.4h-.3l-.6,.3-.1-.9h-.3l-.3,.1-2.3,.4-1.1,.2-.2-1.1"/>
    <path id="Nassau" class="cls-3" d="M68.4535,6.9363l.4,2.6-.7-.6h-1.5l-.8,.3-.1,.1-.2,.2-.9,1.3-2,2.8-.2-1.1,.1-.9,.1-.9v-.9l-.1-.4-.4-.5-.2-.3v-.3l.1-1.4,1.1-.7,.5,.3,1.7,.4,1.3,.1h.7l.9-.1h.2"/>
    <g>
      <rect class="cls-5" x="48.3499" y="91.2062" width="8.9036" height="3.3029"/>
      <rect class="cls-1" x="39.5899" y="91.2062" width="8.9036" height="3.3029"/>
      <rect class="cls-3" x="30.9736" y="91.2062" width="8.9036" height="3.3029"/>
      <rect class="cls-4" x="22.2136" y="91.2062" width="8.9036" height="3.3029"/>
      <rect class="cls-2" x="13.4536" y="91.2062" width="8.9036" height="3.3029"/>
    </g>
  </g>
  <g>
    <path id="Bay-2" data-name="Bay" class="cls-4" d="M119.5535,14.4363l.5,4.7,.4,3.5-1.1-.3-.3-.1-.1-.1-.3-.2-.4-.4-2.4-1.4-.2-.1-.1-.1-.1-.1-.2-.1-.4-.2-.2-.1h-.3l-.2-.1-.2-.1-.7-.2-.1-1.6,.3-.3,1.2-.5,3.4-.3,.7-.1-.2-1.7,.6-.1h.4"/>
    <path id="Jackson-2" data-name="Jackson" class="cls-4" d="M117.8535,9.0363l5.3-.6,1.9,3.5-.6,1.4-1.8,.2-.8,.6-.8,.1-1.5,.2-.6,.1-.3-2.8-.9-.5-1.1,.1,.9-2.3h.3"/>
    <path id="Charlotte-2" data-name="Charlotte" class="cls-4" d="M162.9536,54.8363l5.7-.9,.5,3.3-5.7,.8v-.4l-.1-.7-.2-1v-.1l-.2-.1-.4,.1-.1,.1-.5,.5-.1,.1,.3,1.8v.1l-.5,.1-.2-.2h0l-.1,.1-.1,.2h-.2l-.1-.2-.1-.2h0l-1.4-1.8,1.4-.2-.1-.8-.1-.4,2.3-.2"/>
    <path id="Lee-2" data-name="Lee" class="cls-2" d="M161.2535,59.3363l1.3,2.4,.2,.1,.2,.1,.7,.2,.1-.2,.2-.1,.6,.1h0l-.5,.4-.1,.1h-.3l-.4-.1-.6-.3h-.2v-.1l-1.2-2.2v-.4m2.1-1.2l5.7-.8,.5,3.2,.2,1.1-.9,1.5-1.9,.3-.3-.1-.3-.6-.6-.5-1.3-.8-1.3-1.9,.2-1.4"/>
    <path id="Hendry-2" data-name="Hendry" class="cls-2" d="M168.9536,57.0363l4.5-.7,2.6-.4,.3-2.5,1.3,7.9,.2,.9-4.5,.8-.4-2.1-.2-1.2-3.4,.6-.4-3.3"/>
    <path id="Collier-2" data-name="Collier" class="cls-4" d="M177.8535,62.2363l.6,3.5,.4,2.2-5.5,.9v-.2l-.1-.1-.5-.3-.3-.1h-.1l-1.1-.2h-.1l-1.3,.3-.1,.1-.1,.1v.5h-.1l-.2-.1-.7-1-1-1.7-.1-.5-.2-.4-.3-1-.2-.8-.2-.4h0l.3,.1,1.9-.3,.9-1.5-.2-1.1,3.4-.6,.2,1.2,.4,2.1,4.3-.7"/>
    <path id="Monroe-2" data-name="Monroe" class="cls-1" d="M182.8535,79.1363l-.1,.3-.5,.4-.5,.4-.5,.2h0l.1-.1,.6-.6,.9-.6h0m4.3-6.7h0l-.2,.4-.7,1.8v.1l.1,.2-.1,.2-.2,.3-1.8,2.5-.1,.1-.9,.9h0v-.1l.4-.6,.3-.2,.4-.6,.4-.4,.6-.9,.1-.2,.7-1.4,.8-2,.2-.1m-7.2,8.9l-.6,.5-.7,.5h-.3l-.2-.1h0l1-.6,1.4-.8h0l.1,.1-.1,.1-.6,.3m-7.1,2.3h0l.2-.4,1.6-.8,.4,.1,.8,.2,.3,.5h-.1l-.1,.1-.1,.1-.7,.3-4.5,1.6-.3,.1h0v-.3l.2-.2,.5-.1h.1l.1,.1h.1l.4-.2,.2-.1,.4-.4,.5-.6m6-15.7l.9,5.5,.5,2.1,.1,.2h0l-.7,.6-.9,.4-.9,.2-.2-.1-.5-.3-.1-.1-.5-.7v-1.5l.1-.1h.3v-.2l-.8-1.3-1.3-2-1.4-1.9,5.4-.8"/>
    <path id="Miami-Dade-2" data-name="Miami-Dade" class="cls-4" d="M187.1536,72.4363h-.3l.1-.6,.4-1.5,.1-.2h.1l.1,.4-.2,.9-.3,1m-8.6-6.7l1.1-.2,1.2,.1,2.8-.5,1.7-.4,.4-.2,.4-.1,.4-.1,.8-.2h0l.1,.7,.1,.9v.9l-.1,.3-.1,.1-.2,.2v.2l-.2-.1h-.1l-.3,.2-.2,.2v.1l-.6,2.5-.1,.4v.3l.3,1,.1,.1h.1l.1,.1v.1l-.2,.5-.4,.6h0l-.3,.3-.6,.7-1.5,.8-.5,.2-.4,.2-.7,.1h-1.2l-.1-.2-.6-2.1-.9-5.5-.3-2.2"/>
    <path id="Broward-2" data-name="Broward" class="cls-4" d="M177.7535,61.2363l6.7-1.1,.6-.1,2-.2,.2,4.4-.8,.2-.4,.1-.4,.1-.4,.2-1.7,.4-2.8,.5-1.2-.1-1.1,.2-.6-3.5-.1-1.1"/>
    <path id="Palm_Beach-2" data-name="Palm Beach" class="cls-3" d="M176.4536,53.4363l5.7-.9h.1l2.7-.4,.7-.3,.2,.4,.2,.5,.2,.4,.3,.8,.2,1.2,.2,1.1,.1,.5,.1,3v.2l-2,.2-.6,.1-6.7,1.1-1.4-7.9"/>
    <path id="Sarasota-2" data-name="Sarasota" class="cls-3" d="M162.6536,52.6363l.3,2.2-2.3,.3,.1,.4,.1,.8-1.4,.1-2-3.1-.1-.2-.2-.2-.1-.2-.5-.6-.3-.3-.6-.6,4.5-.6,.3,2.2,2.2-.2"/>
    <path id="DeSoto-2" data-name="DeSoto" class="cls-4" d="M167.9536,49.8363l.6,3.9-5.7,.9-.6-3.9,2.2-.3,1.2-.2,2.3-.4"/>
    <path id="Glades-2" data-name="Glades" class="cls-1" d="M175.2535,50.3363l1.2,3.1-.3,2.5-2.6,.4-4.5,.7-.5-3.3,3.4-.5-.2-1.1,1-1.3,2.5-.5"/>
    <path id="Martin-2" data-name="Martin" class="cls-4" d="M183.6536,48.3363l2,3.5-.7,.3-2.7,.3h-.1l-5.7,1,1.9-3.5,3-.5,1.5-.2-.2-.8,1-.1"/>
    <path id="St._Lucie-2" data-name="St. Lucie" class="cls-2" d="M177.6536,45.7363l4.1-.7,2,3.5-1,.2,.1,.7-1.5,.3-3,.5-.7-4.5"/>
    <path id="Indian_River-2" data-name="Indian River" class="cls-4" d="M174.8535,42.4363l4.1-.7,.6-.5,.1-.1,2.1,3.6-4.2,.7-1.1,.2-.2-1.1-1.1,.2-.3-2.3"/>
    <path id="Okeechobee-2" data-name="Okeechobee" class="cls-2" d="M172.1536,45.2363l3.1-.5,1.1-.2,.2,1.1,1.1-.2,.7,4.4-1.9,3.6-1.2-3.1-1-1-1.1-.9-1.2-2.1,.2-1.1"/>
    <path id="Highlands-2" data-name="Highlands" class="cls-4" d="M167.3535,45.9363l4.8-.7-.2,1.1,1.2,2.1,1.1,.9,1,1-2.6,.4-1,1.3,.2,1.1-3.4,.5-.6-3.9-.5-3.8"/>
    <path id="Hardee-2" data-name="Hardee" class="cls-4" d="M161.7535,46.7363l5.6-.8,.6,3.9-2.1,.3-1.2,.2-2.2,.3-.7-3.9"/>
    <path id="Manatee-2" data-name="Manatee" class="cls-4" d="M156.1536,47.9363l5.7-.8,.6,3.9,.2,1.7-2.3,.3-.3-2.3-4.5,.6-.6-.6-.4-.7,.3-.1,.4-.3,.8-1.2v-.1l.1-.4"/>
    <path id="Pinellas-2" data-name="Pinellas" class="cls-3" d="M154.1536,41.3363l.4,2.6-.8,.2h0v.1l.1,.1,.1,.1,1.2,.5,.5-.2,.1,.3-.3,.8-1,2.4-.6-.8-1.2-3.1h0l.1-.7v-.6l-.1-.9-.1-.2-.1-.1-.2-.2,1.9-.3"/>
    <path id="Hillsborough-2" data-name="Hillsborough" class="cls-2" d="M154.1536,41.3363l6.2-.9,.6-.1,.6,3.9,.4,2.8-5.7,.8,1.1-1.7h0l.3-.6,.1-.3-.3-.6-.2-.2-1.7-.6h-.4l-.3,.1-.3,.1-.4-2.7"/>
    <path id="Hernando-2" data-name="Hernando" class="cls-2" d="M153.1536,34.4363l2.6-.4,.1,.4,1.7-.3v.3l.2,.2,.5,.5,.2,.1,1.4,.4,.4,.6-2.2,.3,.1,.6-4.4,.6-.4,.1-.2-3.4"/>
    <path id="Pasco-2" data-name="Pasco" class="cls-2" d="M160.1536,36.2363l.3,2.1-.3,1.9-6.2,.9-1.7,.3,1-3.5,.4-.1,4.4-.6-.1-.6,2.2-.4"/>
    <path id="Osceola-2" data-name="Osceola" class="cls-2" d="M165.0535,37.5363l8.9-1.4,.2,1.3,.3,2h-.1l.5,3.3,.3,2.3-3.1,.5-.1-.5,.1-.3-.6-.8-.3-.5-2.5-2.3-.8-.6-2.6-1.9-.2-1.1"/>
    <path id="Polk-2" data-name="Polk" class="cls-2" d="M164.9536,37.2363l.2,1.1,2.6,1.9,.8,.6,2.5,2.3,.3,.5,.6,.9,.1,.3,.1,.5-4.8,.6-5.6,.8-.4-2.7-.6-3.9-.6,.1,.3-1.9,1-.6,3.5-.5"/>
    <path id="Orange-2" data-name="Orange" class="cls-4" d="M166.8535,31.5363l-.4,1v.3l.6,.5,1.1,.2,3.8-.6,1.9,3.1-8.9,1.4-.8-5.5,.1-.1h.3l2.3-.3"/>
    <path id="Seminole-2" data-name="Seminole" class="cls-2" d="M166.7535,31.5363l.3-1.3,.6,.5,1.5,.3h.3l.4-.2,.1-.3,.8,.7,.4,.5,.7,1.1-3.8,.6-1.1-.2-.6-.5v-.3l.4-.9"/>
    <path id="Lake_FL-2" data-name="Lake FL" class="cls-2" d="M163.2535,25.4363l2.1,2,.8,.5,.5,.3,.5,.4h0l.1,.7-.1,.7-.3,1.3-2.4,.4h-.3l-.1,.1,.8,5.5-3.4,.5-1.1-7.9,3.3-.5v-1.3l-.4-2.7"/>
    <path id="Sumter-2" data-name="Sumter" class="cls-4" d="M156.3535,30.5363l4-.6,1.1,7.8-1,.6-.3-2.1-.4-.6-1.4-.3-.2-.1-.5-.5-.1-.3v-1l.1-.2,.2-.3,.2-.1h0l.3-.4v-.1l-1.4-1.3-.6-.5"/>
    <path id="Citrus-2" data-name="Citrus" class="cls-4" d="M153.7535,29.8363l2.7,.7,.5,.6,1.4,1.3v.1l-.1,.4h0l-.2,.1-.2,.3-.1,.2v.7l-2,.2-.1-.4-2.5,.4-.2-1.9-.1-.4-.1-.2-1.4-1.1,.1-.1,.1-.1,.3-.3,.2-.1h.2l.7,.2,.7-.4,.1-.2h0"/>
    <path id="Levy-2" data-name="Levy" class="cls-4" d="M151.4536,23.4363l2.9,.6,.5,3.4-1.5,.2,.3,2.2h0l-.2,.1-.6,.5-.7-.2h-.2l-.2,.1-.3,.3-.1,.1v-.3l-.1-.3-.7-1.1-.3-.1-4-1.1,.9-.8,.5-.9,.2-.8,.4-1.7,3.2-.2"/>
    <path id="Marion-2" data-name="Marion" class="cls-2" d="M154.3535,24.0363l2-.3,.2,.2v.1l.8,.4,.8-.3,.1-.1h0l-.1-.4,.3-.3,.2-.1,.8-.3,1.8,.1,.3,.7,.6,.7,.5,.5,.5,.5,.4,2.7v1.3l-3.2,.5-4,.6-2.7-.7-.3-2.2,1.5-.2-.5-3.4"/>
    <path id="Volusia-2" data-name="Volusia" class="cls-2" d="M162.7535,24.8363l2.6-1.4,.2,.3,.3,1.4,.9-.2h0l2-.4-.3-1.4,.5-.7,.8,1.4,.7,1.1,.5,.8,.3,.4,1.1,1.3,2.1,2.5-2.7,.5,.4,2.2h-.3l-.7-1.1-.4-.5-.8-.6-.1,.3-.4,.2h-.3l-1.4-.5-.6-.5,.1-.7-.1-.7h0l-.5-.4-.5-.3-.8-.4-2.1-2-.5-.6"/>
    <path id="Brevard-2" data-name="Brevard" class="cls-2" d="M171.9536,32.7363h.3l-.5-2.3,2.6-.4,2.1,2.2h0l.1,.1h0l.8,1.5v.1l-.4,.2-.1,.1-.1,.2v.1h0v1.3l.2,.7,.3,1,.4,1,.3,.6,.2,.4,.3,.5h0l.9,1.3-.1,.1-.6,.5-3.8,.5-.5-3.3h.1l-.3-2-.2-1.3-2-3.1"/>
    <path id="Washington-2" data-name="Washington" class="cls-2" d="M114.3535,13.2363v-.8l.1-.3,.8-.1,.2,.2v.4l1.3-.2,.1-.9v-.2l1.1-.1,.9,.5,.3,2.8-.6,.1,.2,1.7-.7,.1-3.4,.3-1.3,.4-.2,.3,.4-.8,.4-1.9-.2-.2-.1-.4,.5-.9h.2"/>
    <path id="Holmes-2" data-name="Holmes" class="cls-4" d="M111.8535,9.7363l5.9-.7-.9,2.3v.2l-.1,.9-1.3,.1v-.4l-.2-.2-.8,.1-.1,.4v.8l-2.2,.2-.3-3.7"/>
    <path id="Walton-2" data-name="Walton" class="cls-4" d="M110.1536,9.9363l1.7-.2,.3,3.7,2.2-.2-.1,.1-.5,.9,.1,.4,.2,.2-.4,1.9-.5,.7,.1,1.5-4.6-.9-.7-7.9,2.2-.2"/>
    <path id="Okaloosa-2" data-name="Okaloosa" class="cls-2" d="M107.9535,10.1363l.7,7.9-4.5,.4-.6-7.8,1.1-.2,3.3-.3"/>
    <path id="Santa_Rosa-2" data-name="Santa Rosa" class="cls-2" d="M99.4535,10.9363l4.1-.4,.6,7.8-1.3,.3-1.8,.3-.8-.5-1.4-2.5-.6-1.4-.1-.4v-.2l-.1-1v-.2l.2-.8,.1-.1,.4-.4,.7-.5"/>
    <path id="Escambia-2" data-name="Escambia" class="cls-2" d="M94.6536,11.3363l4.8-.5-.7,.6-.5,.5-.1,.1-.2,.8v.2l.1,1v.2l.2,.5,.6,1.4,1.4,2.5,.8,.5,1.8-.3-2.5,.7h-.2l-.4,.1-.3,.1-.4,.1-1.7,.4-1,.3,.7-.3,.1-1.4,.2-2.9v-.4l-.1-.2-.5-.3-.4-.2h-.3l-.4-.2-1.1-1.3-.2-.2,.3-1.8"/>
    <path id="Calhoun-2" data-name="Calhoun" class="cls-4" d="M119.5535,14.4363l1.5-.2,.8-.1,.8-.6,1.8-.2-.5,1.2-.4,2.4-.5,1.9-3,.3-.5-4.7"/>
    <path id="Gulf-2" data-name="Gulf" class="cls-4" d="M120.0535,19.1363l3-.3,1.3,2.8,.1,1.8-.6,.9h-.2l-1,1,.1,.1-1,.1v-1.4l-.2-.3-.6-.8-.3-.3h0l-.6-3.6"/>
    <path id="Franklin-2" data-name="Franklin" class="cls-1" d="M129.7535,20.4363l2.3,.4,.1,.2v.2h0v.1l-.1,.2h-.1l-.3,.1-.5-.1h-.1l-.1-.1h-.1l-.6,.2-.3,.1-1.6,1.3-.7,.6-.6,.5-.7,.3-1.2,.4-.5,.1-.4-.1h-.3l-.2,.1-1,.4,.1-.2,1-1h.2l.6-.9-.1-1.8,.1-.6,5.1-.4"/>
    <path id="Dixie-2" data-name="Dixie" class="cls-4" d="M148.0535,20.5363l.2,3-.4,1.7-.2,.8-.5,.9-.9,.8-.2-.7-.4-.6-.2-.3-.3-.1h-.3l-.5-.3-.9-.5-.3-.1v-.1l-.4-1.8,.8-2.1,4.5-.6"/>
    <path id="Gilchrist-2" data-name="Gilchrist" class="cls-4" d="M148.3535,19.6363l.8-.7,1.8,1.1,.5,3.4-3.2,.1-.2-3,.3-.9"/>
    <path id="Alachua-2" data-name="Alachua" class="cls-4" d="M152.2535,18.5363l1.3,.1,.3,.4h.1l1.4,.2h.6l.1-.1h.1l.5,.1h.2l1,.9,.1,.3v.1l.4,3.1,.1,.4h0l-.1,.1-.9,.4-.8-.4v-.1l-.2-.2-2,.3-2.9-.6-.5-3.4,1.2-1.6"/>
    <path id="Putnam-2" data-name="Putnam" class="cls-4" d="M162.8535,18.1363l1.1,2.7,1.4,2.7-2.6,1.4-.5-.5-.6-.7-.3-.8-1.8-.1-.8,.3-.2,.1-.3,.3-.4-3.1h.1l.3-.1,1-.7v-.2l.1-.1,1-.7h.2l2.3-.5"/>
    <path id="Flagler-2" data-name="Flagler" class="cls-2" d="M164.0535,21.1363l3.4-1.1,1.7,2.9-.5,.7,.3,1.4-2,.4h0l-.9,.2-.3-1.4-.3-.4-1.4-2.7"/>
    <path id="St._Johns-2" data-name="St. Johns" class="cls-2" d="M161.3535,15.0363l.6-.3h.3l.7,.2,1.2-.2-.3-1.9,.6-.1,1.3,3.5,.9,2.3h0l.1,.3,.1,.2,.5,.8-3.4,1.1-1.1-2.7-1.5-3.2"/>
    <path id="Clay-2" data-name="Clay" class="cls-2" d="M161.2535,14.7363l1.6,3.4-2.4,.4h-.2l-1,.7v.4l-1,.7-.3,.1-.8-5.4-.1-.6,1.1-.2,2.3-.4,.3-.1h.3l.2,1"/>
    <path id="Bradford-2" data-name="Bradford" class="cls-4" d="M156.0535,15.2363l1-.2,.8,5.4h-.1v-.1l-.1-.3-1-.9h-.2l-.5-.1h-.1l-.1,.1h-.6l-1.4-.2h-.1l-.2-.5,.5-.2,.7-.4,1.2-1.7,.3-.6v-.1l-.1-.2"/>
    <path id="Union-2" data-name="Union" class="cls-2" d="M156.0535,15.2363l.1,.2v.1l-.3,.6-1.2,1.7-.7,.4-.5,.2h-1.3l.4-2.6,3.5-.6"/>
    <path id="Suwannee-2" data-name="Suwannee" class="cls-2" d="M148.5535,13.7363l.7,5.2-.9,.7-.7-.8-.4-.4-.2-.1-1.1-.7-.5-.2-.6-.1v.1h-.5l-.1-.1-.4-.9-.2-.8v-.1h0l.6-1.7,.1-.5h0l.3-.2,.4-.1h.9l.6,.1,2,.6"/>
    <path id="Lafayette-2" data-name="Lafayette" class="cls-4" d="M143.6536,15.4363h0l-.1,.1,.2,.8,.4,.9,.2,.2,.3,.1,.2-.1v-.1l.6,.1,.5,.2,1.1,.7,.2,.1,.4,.4,.7,.8-.3,.9-4.4,.6-.4,.1-.3-.9-.6-4.7,1.3-.2"/>
    <path id="Taylor-2" data-name="Taylor" class="cls-4" d="M142.3535,15.6363l.6,4.7,.3,.9,.4-.1-.8,2.1-.4-.1-1.1-.4-.1-.1-.1-.1-.4-.5v-.1l-.1-.2-.1-.3-.6-.7-.5-.3-.1-.1-1.2-.5-.7-.2-1-.5-.7-.4,1.5-3,3.9-.5,.1,.6,1.1-.2"/>
    <path id="Wakulla-2" data-name="Wakulla" class="cls-2" d="M127.4536,17.0363l5.1-.7,.1,.4,1.8-.2,.3,2.3-1.9,.3-1,.5-.2,.1v.4l.1,.5h0l.2,.3-2.2-.5-.7-.4-.3-.2-.5-.6-1-1.7,.1-.3,.1-.2"/>
    <path id="Liberty-2" data-name="Liberty" class="cls-4" d="M128.0535,15.7363l-.6,1.2-.1,.2-.2,.3,1,1.7,.5,.6,.3,.2,.7,.4-5.1,.6-.1,.6-1.3-2.8,.5-1.9,.4-2.4,.5-1.2,3.5,2.5"/>
    <path id="Gadsden-2" data-name="Gadsden" class="cls-4" d="M130.4536,11.5363l1.1-.1-.5,1.2-.5,1.5-.1,.1-.1,.2-.2,.1-1.5,.7-.7,.5-3.5-2.4,.6-1.4h0l5.4-.4"/>
    <path id="Leon-2" data-name="Leon" class="cls-2" d="M134.6536,11.2363l-.1,2-.3,1.2,.3,2.1-1.8,.2-.1-.4-5.1,.7,.6-1.2,.7-.5,1.5-.7v-.2l.2-.1,.1-.1,.5-1.5,.5-1.2,2.2-.2,.8-.1"/>
    <path id="Jefferson-2" data-name="Jefferson" class="cls-5" d="M137.5535,11.0363l1.5-.1,.1,.2,.1,.7-.3,.4-.9,1-.7,1.9-.1,.6-1.5,3h-1l-.5-4.3,.2-1.2,.1-2,3-.2"/>
    <path id="Madison-2" data-name="Madison" class="cls-4" d="M141.8535,10.8363h.5l.5,.2,.5,1.7,.3,.6,.1,.1,.6,.4-.7,1.6-1.3,.2-1.1,.2-.1-.6-3.9,.5,.1-.6,.6-1.9,.9-1,.3-.4-.1-.7-.1-.2,2.9-.1"/>
    <path id="Hamilton-2" data-name="Hamilton" class="cls-4" d="M144.2535,10.6363l5-.3-.3,.5v.6l.2,.3,.6,.7h.2l.1,.3v.1l-.3,.8-.1,.1-.6,.3h-.5v-.1l-1.9-.7-.6-.1h-.9l-.4,.1-.3,.2h0l-.1,.4-.6-.4-.1-.1-.3-.6-.5-1.7-.5-.3,1.9-.1"/>
    <path id="Columbia-2" data-name="Columbia" class="cls-2" d="M150.3535,10.2363l1.4-.1,.8,5.7-.4,2.6-1.2,1.6-1.8-1.1-.7-5.2v.1h.5l.6-.3,.1-.1,.3-.8v-.2l-.1-.1-.6-.7-.2-.3v-.6l.3-.5h1"/>
    <path id="Baker-2" data-name="Baker" class="cls-2" d="M152.2535,10.0363l2.3-.1,.3,1.8,.1,.3,.2,.3,.2,.2h.1l1.3-.2,.1,1.1,.2,1.7-1,.2-3.5,.6-.8-5.7,.5-.2"/>
    <path id="Duval-2" data-name="Duval" class="cls-2" d="M156.9536,13.7363l2-2.8,.9-1.3,.2-.2,.1-.1,.8-.3h1.5l.7,.7,.2,.1,.2,.2,.3,1,.2,.7,.1,.5,.1,.4,.1,.3-.6,.1,.3,1.9-1.2,.2-.7-.4h-.3l-.6,.3-.1-.9h-.3l-.3,.1-2.3,.4-1.1,.2-.2-1.1"/>
    <path id="Nassau-2" data-name="Nassau" class="cls-2" d="M162.7535,6.9363l.4,2.6-.7-.6h-1.5l-.8,.3-.1,.1-.2,.2-.9,1.3-2,2.8-.2-1.1,.1-.9,.1-.9v-.9l-.1-.4-.4-.5-.2-.3v-.3l.1-1.4,1.1-.7,.5,.3,1.7,.4,1.3,.1h.7l.9-.1h.2"/>
  </g>
  <text class="cls-9" transform="translate(9.6297 94.5095)"><tspan x="0" y="0">$</tspan></text>
  <text class="cls-9" transform="translate(58.7022 94.5095)"><tspan x="0" y="0">$$$</tspan></text>
  <text class="cls-8" transform="translate(8.5535 3.4321)"><tspan class="cls-6" x="0" y="0">A</tspan><tspan x="2.248" y="0">verage Property </tspan><tspan class="cls-7" x="28.1348" y="0">T</tspan><tspan x="29.8984" y="0">ax Payment</tspan></text>
  <text class="cls-8" transform="translate(103.0105 3.4321)"><tspan x="0" y="0">Per Pupil Funding</tspan><tspan class="cls-6" x="28.0664" y="0"> </tspan><tspan x="28.8594" y="0">Amount</tspan></text>
</svg>