<?xml version="1.0" encoding="utf-8"?>
<!-- Generator: Adobe Illustrator 26.5.0, SVG Export Plug-In . SVG Version: 6.00 Build 0)  -->
<svg version="1.1"
	 id="svg3258" xmlns:rdf="http://www.w3.org/1999/02/22-rdf-syntax-ns#" xmlns:cc="http://creativecommons.org/ns#" xmlns:inkscape="http://www.inkscape.org/namespaces/inkscape" xmlns:svg="http://www.w3.org/2000/svg" xmlns:sodipodi="http://sodipodi.sourceforge.net/DTD/sodipodi-0.dtd" xmlns:dc="http://purl.org/dc/elements/1.1/" sodipodi:docname="fl.svg"
	 xmlns="http://www.w3.org/2000/svg" xmlns:xlink="http://www.w3.org/1999/xlink" x="0px" y="0px" viewBox="0 0 194.5 95.8"
	 style="enable-background:new 0 0 194.5 95.8;" xml:space="preserve">
<style type="text/css">
	.st0{fill:#F59F3F;stroke:#FFFFFF;stroke-width:0.1;stroke-miterlimit:10;}
	.st1{fill:#FFC685;stroke:#FFFFFF;stroke-width:0.1;stroke-miterlimit:10;}
	.st2{fill:#ED6F20;stroke:#FFFFFF;stroke-width:0.1;stroke-miterlimit:10;}
	.st3{fill:#C85422;stroke:#FFFFFF;stroke-width:0.1;stroke-miterlimit:10;}
	.st4{fill:#9E3D22;stroke:#FFFFFF;stroke-width:0.1;stroke-miterlimit:10;}
</style>
<sodipodi:namedview  bordercolor="#666666" borderopacity="1" fit-margin-bottom="0" fit-margin-left="0" fit-margin-right="0" fit-margin-top="0" gridtolerance="10" guidetolerance="10" id="namedview3264" inkscape:current-layer="svg3258" inkscape:cx="8.4866449" inkscape:cy="38.066552" inkscape:pageopacity="0" inkscape:pageshadow="2" inkscape:window-height="716" inkscape:window-maximized="1" inkscape:window-width="1366" inkscape:window-x="-8" inkscape:window-y="-8" inkscape:zoom="4.5491794" objecttolerance="10" pagecolor="#ffffff" showgrid="false">
	</sodipodi:namedview>
<path id="Bay" inkscape:connector-curvature="0" class="st0" d="M27.9,22.6l0.5,4.7l0.4,3.5l-1.1-0.3l-0.3-0.1l-0.1-0.1L27,30.1
	l-0.4-0.4l-2.4-1.4L24,28.2l-0.1-0.1L23.8,28l-0.2-0.1l-0.4-0.2L23,27.6l-0.2,0h-0.1l-0.2-0.1l-0.2-0.1l-0.7-0.2l-0.1-1.6l0.3-0.3
	l1.2-0.5l3.4-0.3l0.7-0.1l-0.2-1.7l0.6-0.1L27.9,22.6"/>
<path id="Jackson" inkscape:connector-curvature="0" class="st1" d="M26.2,17.2l5.3-0.6l1.9,3.5l-0.6,1.4L31,21.7l-0.8,0.6l-0.8,0.1
	l-1.5,0.2l-0.6,0.1L27,19.9l-0.9-0.5L25,19.5l0.9-2.3L26.2,17.2"/>
<path id="Charlotte" inkscape:connector-curvature="0" class="st2" d="M71.3,63l5.7-0.9l0.5,3.3l-5.7,0.8v-0.4l-0.1-0.7l-0.2-1V64
	l-0.2-0.1L70.9,64l-0.1,0.1l-0.5,0.5l-0.1,0.1l0.3,1.8v0.1L70,66.7l-0.2-0.2l0,0l-0.1,0.1l-0.1,0.2h-0.2l-0.1-0.2l-0.1-0.2l0,0l0,0
	l-1.4-1.8l1.4-0.2l-0.1-0.8L69,63.2L71.3,63"/>
<path id="Lee" inkscape:connector-curvature="0" class="st2" d="M69.6,67.5l1.3,2.4l0.2,0.1l0.2,0.1l0.7,0.2l0.1-0.2l0.2-0.1
	l0.6,0.1l0,0l-0.5,0.4l-0.1,0.1h-0.1H72l-0.4-0.1L71,70.2h-0.1h-0.1v-0.1l-1.2-2.2V67.5 M71.7,66.3l5.7-0.8l0.5,3.2l0.2,1.1
	l-0.9,1.5l-1.9,0.3L75,71.5l-0.3-0.6l-0.6-0.5l-1.3-0.8l-1.3-1.9L71.7,66.3"/>
<path id="Hendry" inkscape:connector-curvature="0" class="st1" d="M77.3,65.2l4.5-0.7l2.6-0.4l0.3-2.5l1.3,7.9l0.2,0.9l-4.5,0.8
	l-0.4-2.1l-0.2-1.2l-3.4,0.6L77.3,65.2"/>
<path id="Collier" inkscape:connector-curvature="0" class="st3" d="M86.2,70.4l0.6,3.5l0.4,2.2L81.7,77v-0.2l-0.1-0.1l-0.5-0.3
	l-0.3-0.1h-0.1l-1.1-0.2h-0.1l-1.3,0.3l-0.1,0.1L78,76.6v0.1v0.2v0.2h-0.1L77.7,77L77,76l-1-1.7l-0.1-0.5l-0.2-0.4l-0.3-1l-0.2-0.8
	L75,71.2l0,0l0.3,0.1l1.9-0.3l0.9-1.5l-0.2-1.1l3.4-0.6l0.2,1.2l0.4,2.1L86.2,70.4"/>
<path id="Monroe" inkscape:connector-curvature="0" class="st4" d="M91.2,87.3l-0.1,0.3L90.6,88l-0.5,0.4l-0.5,0.2l0,0l0,0l0,0
	l0.1-0.1l0.6-0.6L91.2,87.3L91.2,87.3 M95.5,80.6L95.5,80.6L95.3,81l-0.7,1.8v0.1l0.1,0.2l-0.1,0.2l-0.2,0.3l-1.8,2.5l-0.1,0.1
	l-0.9,0.9l0,0l0,0V87l0.4-0.6l0.3-0.2l0.4-0.6l0.4-0.4l0.6-0.9l0.1-0.2l0.7-1.4l0.8-2L95.5,80.6 M88.3,89.5L87.7,90L87,90.5h-0.3
	l-0.2-0.1l0,0l0,0l1-0.6l1.4-0.8l0,0l0.1,0.1l-0.1,0.1L88.3,89.5 M81.2,91.8L81.2,91.8l0.2-0.4l1.6-0.8l0.4,0.1l0.8,0.2l0.3,0.5l0,0
	h-0.1l-0.1,0.1l-0.1,0.1l-0.7,0.3L79,93.5l-0.3,0.1l0,0v-0.2v-0.1l0.2-0.2l0.5-0.1h0.1l0.1,0.1h0.1l0.4-0.2l0.2-0.1l0.4-0.4
	L81.2,91.8 M87.2,76.1l0.9,5.5l0.5,2.1l0.1,0.2l0,0L88,84.5l-0.9,0.4l-0.9,0.2L86,85l-0.5-0.3l-0.1-0.1l-0.5-0.7v-0.3V83v-0.5v-0.1
	l0.1-0.1h0.1h0.2v-0.1v-0.1l-0.8-1.3l-1.3-2l-1.4-1.9L87.2,76.1"/>
<path id="Miami-Dade" inkscape:connector-curvature="0" class="st4" d="M95.5,80.6h-0.3l0.1-0.6l0.4-1.5l0.1-0.2h0.1l0.1,0.4
	l-0.2,0.9L95.5,80.6 M86.9,73.9l1.1-0.2l1.2,0.1l2.8-0.5l1.7-0.4l0.4-0.2l0.4-0.1l0.4-0.1l0.8-0.2l0,0l0.1,0.7l0.1,0.9v0.3v0.6
	l-0.1,0.3l-0.1,0.1l-0.2,0.2v0.2l-0.2-0.1h-0.1l-0.3,0.2l-0.2,0.2V76l-0.6,2.5L94,78.9v0.3l0.3,1l0.1,0.1h0.1l0.1,0.1v0.1L94.4,81
	L94,81.6l0,0l-0.3,0.3l-0.6,0.7l-1.5,0.8l-0.5,0.2l-0.4,0.2L90,83.9h-1.2l0,0l-0.1-0.2l-0.6-2.1l-0.9-5.5L86.9,73.9"/>
<path id="Broward" inkscape:connector-curvature="0" class="st4" d="M86.1,69.4l6.7-1.1l0.6-0.1l2-0.2l0.2,4.4l-0.8,0.2l-0.4,0.1
	L94,72.8L93.6,73l-1.7,0.4l-2.8,0.5l-1.2-0.1L86.8,74l-0.6-3.5L86.1,69.4"/>
<path id="Palm_Beach" inkscape:connector-curvature="0" class="st4" d="M84.8,61.6l5.7-0.9h0.1l2.7-0.4L94,60l0.2,0.4l0.2,0.5
	l0.2,0.4l0.3,0.8l0.2,1.2l0.2,1.1l0.1,0.5l0.1,3v0.2l-2,0.2l-0.6,0.1l-6.7,1.1L84.8,61.6"/>
<path id="Sarasota" inkscape:connector-curvature="0" class="st2" d="M71,60.8l0.3,2.2L69,63.3l0.1,0.4l0.1,0.8l-1.4,0.1l-2-3.1
	l-0.1-0.2l-0.2-0.2l-0.1-0.2l-0.5-0.6L64.6,60L64,59.4l4.5-0.6l0.3,2.2L71,60.8"/>
<path id="DeSoto" inkscape:connector-curvature="0" class="st0" d="M76.3,58l0.6,3.9l-5.7,0.9l-0.6-3.9l2.2-0.3l1.2-0.2L76.3,58"/>
<path id="Glades" inkscape:connector-curvature="0" class="st1" d="M83.6,58.5l1.2,3.1l-0.3,2.5l-2.6,0.4l-4.5,0.7l-0.5-3.3l3.4-0.5
	l-0.2-1.1l1-1.3L83.6,58.5"/>
<path id="Martin" inkscape:connector-curvature="0" class="st3" d="M92,56.5l2,3.5l-0.7,0.3l-2.7,0.3h-0.1l-5.7,1l1.9-3.5l3-0.5
	l1.5-0.2L91,56.6L92,56.5"/>
<path id="St._Lucie" inkscape:connector-curvature="0" class="st2" d="M86,53.9l4.1-0.7l2,3.5l-1,0.2l0.1,0.7l-1.5,0.3l-3,0.5
	L86,53.9"/>
<path id="Indian_River" inkscape:connector-curvature="0" class="st0" d="M83.2,50.6l4.1-0.7l0.6-0.5l0.1-0.1l2.1,3.6l-4.2,0.7
	l-1.1,0.2l-0.2-1.1l-1.1,0.2L83.2,50.6"/>
<path id="Okeechobee" inkscape:connector-curvature="0" class="st0" d="M80.5,53.4l3.1-0.5l1.1-0.2l0.2,1.1l1.1-0.2l0.7,4.4
	l-1.9,3.6l-1.2-3.1l-1-1l-1.1-0.9l-1.2-2.1L80.5,53.4"/>
<path id="Highlands" inkscape:connector-curvature="0" class="st1" d="M75.7,54.1l4.8-0.7l-0.2,1.1l1.2,2.1l1.1,0.9l1,1L81,58.9
	l-1,1.3l0.2,1.1l-3.4,0.5l-0.6-3.9L75.7,54.1"/>
<path id="Hardee" inkscape:connector-curvature="0" class="st1" d="M70.1,54.9l5.6-0.8l0.6,3.9l-2.1,0.3L73,58.5l-2.2,0.3L70.1,54.9
	"/>
<path id="Manatee" inkscape:connector-curvature="0" class="st2" d="M64.5,56.1l5.7-0.8l0.6,3.9l0.2,1.7l-2.3,0.3l-0.3-2.3l-4.5,0.6
	l-0.6-0.6l-0.4-0.7l0.3-0.1l0.4-0.3l0.8-1.2v-0.1L64.5,56.1"/>
<path id="Pinellas" inkscape:connector-curvature="0" class="st2" d="M62.5,49.5l0.4,2.6l-0.8,0.2l0,0v0.1l0.1,0.1l0.1,0.1l1.2,0.5
	l0.5-0.2l0.1,0.3L63.8,54l-1,2.4l-0.6-0.8L61,52.5l0,0l0.1-0.7v-0.6L61,50.3l-0.1-0.2L60.8,50l-0.2-0.2L62.5,49.5"/>
<path id="Hillsborough" inkscape:connector-curvature="0" class="st2" d="M62.5,49.5l6.2-0.9l0.6-0.1l0.6,3.9l0.4,2.8L64.6,56
	l1.1-1.7l0,0l0.3-0.6l0.1-0.3l-0.3-0.6l-0.2-0.2L63.9,52h-0.4l-0.3,0.1l-0.3,0.1L62.5,49.5"/>
<path id="Hernando" inkscape:connector-curvature="0" class="st0" d="M61.5,42.6l2.6-0.4l0.1,0.4l1.7-0.3v0.3l0.2,0.2l0.5,0.5
	l0.2,0.1l1.4,0.4l0.4,0.6l-2.2,0.3l0.1,0.6l-4.4,0.6L61.7,46L61.5,42.6"/>
<path id="Pasco" inkscape:connector-curvature="0" class="st0" d="M68.5,44.4l0.3,2.1l-0.3,1.9l-6.2,0.9l-1.7,0.3l1-3.5L62,46
	l4.4-0.6l-0.1-0.6L68.5,44.4"/>
<path id="Osceola" inkscape:connector-curvature="0" class="st2" d="M73.4,45.7l8.9-1.4l0.2,1.3l0.3,2h-0.1l0.5,3.3l0.3,2.3
	l-3.1,0.5l-0.1-0.5l0.1-0.3l-0.6-0.8l-0.3-0.5L77,49.3l-0.8-0.6l-2.6-1.9L73.4,45.7"/>
<path id="Polk" inkscape:connector-curvature="0" class="st0" d="M73.3,45.4l0.2,1.1l2.6,1.9l0.8,0.6l2.5,2.3l0.3,0.5l0.6,0.9
	l0.1,0.3l0.1,0.5l-4.8,0.6l-5.6,0.8l-0.4-2.7l-0.6-3.9l-0.6,0.1l0.3-1.9l1-0.6L73.3,45.4"/>
<path id="Orange" inkscape:connector-curvature="0" class="st2" d="M75.2,39.7l-0.4,1V41l0.6,0.5l1.1,0.2l3.8-0.6l1.9,3.1l-8.9,1.4
	l-0.8-5.5l0.1-0.1h0.1h0.2L75.2,39.7"/>
<path id="Seminole" inkscape:connector-curvature="0" class="st0" d="M75.1,39.7l0.3-1.3l0.6,0.5l1.5,0.3h0.2h0.1l0.4-0.2l0.1-0.3
	l0.8,0.7l0.4,0.5l0.7,1.1l-3.8,0.6l-1.1-0.2l-0.6-0.5v-0.3L75.1,39.7"/>
<path id="Lake_FL" inkscape:connector-curvature="0" class="st0" d="M71.6,33.6l2.1,2l0.8,0.5l0.5,0.3l0.5,0.4l0,0l0.1,0.7l-0.1,0.7
	l-0.3,1.3l-2.4,0.4h-0.2h-0.1L72.4,40l0.8,5.5L69.8,46l-1.1-7.9l3.3-0.5v-1.3L71.6,33.6"/>
<path id="Sumter" inkscape:connector-curvature="0" class="st4" d="M64.7,38.7l4-0.6l1.1,7.8l-1,0.6l-0.3-2.1l-0.4-0.6l-1.4-0.3
	l-0.2-0.1L66,42.9l-0.1-0.3v-0.3v-0.6v-0.1l0.1-0.2l0.2-0.3l0.2-0.1l0,0l0.3-0.4v-0.1l-1.4-1.3L64.7,38.7"/>
<path id="Citrus" inkscape:connector-curvature="0" class="st1" d="M62.1,38l2.7,0.7l0.5,0.6l1.4,1.3v0.1l-0.1,0.4l0,0l-0.2,0.1
	l-0.2,0.3l-0.1,0.2v0.1v0.6l-2,0.2L64,42.2l-2.5,0.4l-0.2-1.9l-0.1-0.4l-0.1-0.2L59.7,39l0.1-0.1l0.1-0.1l0.3-0.3l0.2-0.1h0.2
	l0.7,0.2l0.7-0.4L62.1,38L62.1,38"/>
<path id="Levy" inkscape:connector-curvature="0" class="st1" d="M59.8,31.6l2.9,0.6l0.5,3.4l-1.5,0.2L62,38l0,0l-0.2,0.1l-0.6,0.5
	l-0.7-0.2h-0.2l-0.2,0.1l-0.3,0.3l-0.1,0.1V39v-0.4l-0.1-0.3l-0.7-1.1l-0.3-0.1l-4-1.1l0.9-0.8l0.5-0.9l0.2-0.8l0.4-1.7L59.8,31.6"
	/>
<path id="Marion" inkscape:connector-curvature="0" class="st0" d="M62.7,32.2l2-0.3l0.2,0.2v0.1l0.8,0.4l0.8-0.3l0.1-0.1l0,0
	l-0.1-0.4l0.3-0.3l0.2-0.1l0.8-0.3l1.8,0.1l0.3,0.7l0.6,0.7l0.5,0.5l0.5,0.5l0.4,2.7v1.3l-3.2,0.5l-4,0.6L62,38l-0.3-2.2l1.5-0.2
	L62.7,32.2"/>
<path id="Volusia" inkscape:connector-curvature="0" class="st0" d="M71.1,33l2.6-1.4l0.2,0.3l0.3,1.4l0.9-0.2l0,0l2-0.4l-0.3-1.4
	l0.5-0.7l0.8,1.4l0.7,1.1l0.5,0.8l0.3,0.4l1.1,1.3l2.1,2.5l-2.7,0.5l0.4,2.2h-0.3l-0.7-1.1l-0.4-0.5l-0.8-0.6l-0.1,0.3l-0.4,0.2
	h-0.1h-0.2l-1.4-0.5l-0.6-0.5l0.1-0.7l-0.1-0.7l0,0L75,36.3L74.5,36l-0.8-0.4l-2.1-2L71.1,33"/>
<path id="Brevard" inkscape:connector-curvature="0" class="st0" d="M80.3,40.9h0.3l-0.5-2.3l2.6-0.4l2.1,2.2l0,0l0.1,0.1l0,0
	l0.8,1.5v0.1l-0.4,0.2l-0.1,0.1l-0.1,0.2v0.1l0,0v0.2v0.4v0.4V44l0.2,0.7l0.3,1l0.4,1l0.3,0.6l0.2,0.4l0.3,0.5l0,0l0.9,1.3l-0.1,0.1
	L87,50.1l-3.8,0.5l-0.5-3.3h0.1l-0.3-2L82.3,44L80.3,40.9"/>
<path id="Washington" inkscape:connector-curvature="0" class="st1" d="M22.7,21.4v-0.8l0.1-0.3l0.8-0.1l0.2,0.2v0.4l1.3-0.2
	l0.1-0.9v-0.1v-0.1l1.1-0.1l0.9,0.5l0.3,2.8l-0.6,0.1l0.2,1.7l-0.7,0.1L23,24.9l-1.3,0.4l-0.2,0.3l0.4-0.8l0.4-1.9l-0.2-0.2L22,22.3
	l0.5-0.9L22.7,21.4"/>
<path id="Holmes" inkscape:connector-curvature="0" class="st1" d="M20.2,17.9l5.9-0.7l-0.9,2.3v0.1v0.1l-0.1,0.9l-1.3,0.1v-0.4
	l-0.2-0.2l-0.8,0.1l-0.1,0.4v0.8l-2.2,0.2L20.2,17.9"/>
<path id="Walton" inkscape:connector-curvature="0" class="st0" d="M18.5,18.1l1.7-0.2l0.3,3.7l2.2-0.2l-0.1,0.1l-0.5,0.9l0.1,0.4
	l0.2,0.2L22,24.9l-0.5,0.7l0.1,1.5L17,26.2l-0.7-7.9L18.5,18.1"/>
<path id="Okaloosa" inkscape:connector-curvature="0" class="st0" d="M16.3,18.3l0.7,7.9l-4.5,0.4l-0.6-7.8l1.1-0.2L16.3,18.3"/>
<path id="Santa_Rosa" inkscape:connector-curvature="0" class="st4" d="M7.8,19.1l4.1-0.4l0.6,7.8l-1.3,0.3l-1.8,0.3l-0.8-0.5
	l-1.4-2.5l-0.6-1.4l-0.1-0.4v-0.2l-0.1-1v-0.2l0.2-0.8L6.7,20l0.4-0.4L7.8,19.1"/>
<path id="Escambia" inkscape:connector-curvature="0" class="st1" d="M3,19.5L7.8,19l-0.7,0.6l-0.5,0.5l-0.1,0.1L6.3,21v0.2l0.1,1
	v0.2l0.2,0.5l0.6,1.4l1.4,2.5l0.8,0.5l1.8-0.3l-2.5,0.7H8.6H8.5l-0.4,0.1l-0.3,0.1L7.4,28l-1.7,0.4l-1,0.3l0.7-0.3L5.5,27l0.2-2.9
	v-0.2v-0.2l-0.1-0.2l-0.5-0.3L4.7,23H4.5H4.4L4,22.8l-1.1-1.3l-0.2-0.2L3,19.5"/>
<path id="Calhoun" inkscape:connector-curvature="0" class="st1" d="M27.9,22.6l1.5-0.2l0.8-0.1l0.8-0.6l1.8-0.2l-0.5,1.2l-0.4,2.4
	L31.4,27l-3,0.3L27.9,22.6"/>
<path id="Gulf" inkscape:connector-curvature="0" class="st1" d="M28.4,27.3l3-0.3l1.3,2.8l0.1,1.8l-0.6,0.9H32l-1,1l0.1,0.1l-1,0.1
	v-1.3v-0.1L29.9,32l-0.6-0.8L29,30.9l0,0L28.4,27.3"/>
<path id="Franklin" inkscape:connector-curvature="0" class="st1" d="M38.1,28.6l2.3,0.4l0.1,0.2v0.1v0.1l0,0v0.1l-0.1,0.2h-0.1
	L40,29.8l-0.5-0.1h-0.1l-0.1-0.1l-0.1,0l-0.6,0.2l-0.3,0.1l-1.6,1.3L36,31.8l-0.6,0.5l-0.7,0.3L33.5,33L33,33.1L32.6,33h-0.3
	l-0.2,0.1l-1,0.4l0.1-0.2l1-1h0.2l0.6-0.9l-0.1-1.8L33,29L38.1,28.6"/>
<path id="Dixie" inkscape:connector-curvature="0" class="st1" d="M56.4,28.7l0.2,3l-0.4,1.7L56,34.2l-0.5,0.9l-0.9,0.8l-0.2-0.7
	L54,34.6l-0.2-0.3l-0.3-0.1h-0.3l-0.5-0.3l-0.9-0.5l-0.3-0.1v-0.1l-0.4-1.8l0.8-2.1L56.4,28.7"/>
<path id="Gilchrist" inkscape:connector-curvature="0" class="st1" d="M56.7,27.8l0.8-0.7l1.8,1.1l0.5,3.4l-3.2,0.1l-0.2-3
	L56.7,27.8"/>
<path id="Alachua" inkscape:connector-curvature="0" class="st2" d="M60.6,26.7l1.3,0.1l0.3,0.4h0.1l1.4,0.2h0.6l0.1-0.1h0.1
	l0.5,0.1h0.2l1,0.9l0.1,0.3v0.1l0.4,3.1l0.1,0.4l0,0l-0.1,0.1l-0.9,0.4L65,32.3v-0.1L64.8,32l-2,0.3l-2.9-0.6l-0.5-3.4L60.6,26.7"/>
<path id="Putnam" inkscape:connector-curvature="0" class="st1" d="M71.2,26.3l1.1,2.7l1.4,2.7l-2.6,1.4l-0.5-0.5L70,31.9l-0.3-0.8
	L67.9,31l-0.8,0.3l-0.2,0.1l-0.3,0.3l-0.4-3.1h0.1l0.3-0.1l1-0.7v-0.2l0.1-0.1l1-0.7h0.2L71.2,26.3"/>
<path id="Flagler" inkscape:connector-curvature="0" class="st2" d="M72.4,29.3l3.4-1.1l1.7,2.9L77,31.8l0.3,1.4l-2,0.4l0,0
	l-0.9,0.2l-0.3-1.4L73.8,32L72.4,29.3"/>
<path id="St._Johns" inkscape:connector-curvature="0" class="st2" d="M69.7,23.2l0.6-0.3h0.3l0.7,0.2l1.2-0.2L72.2,21l0.6-0.1
	l1.3,3.5l0.9,2.3l0,0l0.1,0.3l0.1,0.2l0.5,0.8l-3.4,1.1l-1.1-2.7L69.7,23.2"/>
<path id="Clay" inkscape:connector-curvature="0" class="st0" d="M69.6,22.9l1.6,3.4l-2.4,0.4h-0.2l-1,0.7v0.2v0.2l-1,0.7l-0.3,0.1
	l-0.8-5.4l-0.1-0.6l1.1-0.2l2.3-0.4l0.3-0.1h0.3L69.6,22.9"/>
<path id="Bradford" inkscape:connector-curvature="0" class="st1" d="M64.4,23.4l1-0.2l0.8,5.4h-0.1v-0.1L66,28.2l-1-0.9h-0.2
	l-0.5-0.1h-0.1l-0.1,0.1h-0.6l-1.4-0.2H62l-0.2-0.5l0.5-0.2L63,26l1.2-1.7l0.3-0.6v-0.1L64.4,23.4"/>
<path id="Union" inkscape:connector-curvature="0" class="st1" d="M64.4,23.4l0.1,0.2v0.1l-0.3,0.6L63,26l-0.7,0.4l-0.5,0.2h-1.3
	l0.4-2.6L64.4,23.4"/>
<path id="Suwannee" inkscape:connector-curvature="0" class="st1" d="M56.9,21.9l0.7,5.2l-0.9,0.7L56,27l-0.4-0.4l-0.2-0.1l-1.1-0.7
	l-0.5-0.2l-0.6-0.1v0.1H53h-0.3l-0.1-0.1l-0.4-0.9L52,23.8v-0.1l0,0l0.6-1.7l0.1-0.5l0,0l0.3-0.2l0.4-0.1h0.9l0.6,0.1L56.9,21.9"/>
<path id="Lafayette" inkscape:connector-curvature="0" class="st1" d="M52,23.6L52,23.6l-0.1,0.1l0.2,0.8l0.4,0.9l0.2,0.2l0.3,0.1
	l0.2-0.1v-0.1l0.6,0.1l0.5,0.2l1.1,0.7l0.2,0.1L56,27l0.7,0.8l-0.3,0.9L52,29.3l-0.4,0.1l-0.3-0.9l-0.6-4.7L52,23.6"/>
<path id="Taylor" inkscape:connector-curvature="0" class="st1" d="M50.7,23.8l0.6,4.7l0.3,0.9l0.4-0.1l-0.8,2.1l-0.4-0.1l-1.1-0.4
	l-0.1-0.1l-0.1-0.1l-0.4-0.5v-0.1L49,29.9l-0.1-0.3l-0.6-0.7l-0.5-0.3l-0.1-0.1L46.5,28l-0.7-0.2l-1-0.5l-0.7-0.4l1.5-3l3.9-0.5
	l0.1,0.6L50.7,23.8"/>
<path id="Wakulla" inkscape:connector-curvature="0" class="st0" d="M35.8,25.2l5.1-0.7l0.1,0.4l1.8-0.2l0.3,2.3l-1.9,0.3l-1,0.5
	L40,27.9v0.4l0.1,0.5l0,0l0.2,0.3l-2.2-0.5l-0.7-0.4L37.1,28l-0.5-0.6l-1-1.7l0.1-0.3L35.8,25.2"/>
<path id="Liberty" inkscape:connector-curvature="0" class="st1" d="M36.4,23.9l-0.6,1.2l-0.1,0.2l-0.2,0.3l1,1.7l0.5,0.6l0.3,0.2
	l0.7,0.4l-5.1,0.6l-0.1,0.6l-1.3-2.8L32,25l0.4-2.4l0.5-1.2L36.4,23.9"/>
<path id="Gadsden" inkscape:connector-curvature="0" class="st1" d="M38.8,19.7l1.1-0.1l-0.5,1.2l-0.5,1.5l-0.1,0.1l-0.1,0.2
	l-0.2,0.1L37,23.4l-0.7,0.5l-3.5-2.4l0.6-1.4l0,0L38.8,19.7"/>
<path id="Leon" inkscape:connector-curvature="0" class="st2" d="M43,19.4l-0.1,2l-0.3,1.2l0.3,2.1l-1.8,0.2L41,24.5l-5.1,0.7
	l0.6-1.2l0.7-0.5l1.5-0.7l0-0.2l0.2-0.1l0.1-0.1l0.5-1.5l0.5-1.2l2.2-0.2L43,19.4"/>
<path id="Jefferson" inkscape:connector-curvature="0" class="st0" d="M45.9,19.2l1.5-0.1l0.1,0.2l0.1,0.7l-0.3,0.4l-0.9,1l-0.7,1.9
	l-0.1,0.6l-1.5,3h-1l-0.5-4.3l0.2-1.2l0.1-2L45.9,19.2"/>
<path id="Madison" inkscape:connector-curvature="0" class="st1" d="M50.2,19h0.5l0.5,0.2l0.5,1.7l0.3,0.6l0.1,0.1l0.6,0.4L52,23.6
	l-1.3,0.2L49.6,24l-0.1-0.6l-3.9,0.5l0.1-0.6l0.6-1.9l0.9-1l0.3-0.4l-0.1-0.7l-0.1-0.2L50.2,19"/>
<path id="Hamilton" inkscape:connector-curvature="0" class="st1" d="M52.6,18.8l5-0.3L57.3,19v0.2v0.4l0.2,0.3l0.6,0.7l0.2,0
	l0.1,0.3V21l-0.3,0.8L58,21.9l-0.6,0.3h-0.5v-0.1L55,21.4l-0.6-0.1h-0.9l-0.4,0.1l-0.3,0.2l0,0L52.7,22l-0.6-0.4L52,21.5l-0.3-0.6
	l-0.5-1.7l-0.5-0.3L52.6,18.8"/>
<path id="Columbia" inkscape:connector-curvature="0" class="st0" d="M58.7,18.4l1.4-0.1l0.8,5.7l-0.4,2.6l-1.2,1.6l-1.8-1.1
	l-0.7-5.2V22h0.5l0.6-0.3l0.1-0.1l0.3-0.8v-0.1l0-0.1l-0.1-0.1l-0.6-0.7l-0.2-0.3v-0.4v-0.2l0.3-0.5H58.7"/>
<path id="Baker" inkscape:connector-curvature="0" class="st1" d="M60.6,18.2l2.3-0.1l0.3,1.8l0.1,0.3l0.2,0.3l0.2,0.2h0.1l1.3-0.2
	l0.1,1.1l0.2,1.7l-1,0.2l-3.5,0.6l-0.8-5.7L60.6,18.2"/>
<path id="Duval" inkscape:connector-curvature="0" class="st2" d="M65.3,21.9l2-2.8l0.9-1.3l0.2-0.2l0.1-0.1l0.8-0.3h1.3h0.2
	l0.7,0.7l0.2,0.1l0.2,0.2l0.3,1l0.2,0.7l0.1,0.5l0.1,0.4l0.1,0.3l-0.6,0.1l0.3,1.9l-1.2,0.2l-0.7-0.4h-0.3l-0.6,0.3l-0.1-0.9h-0.3
	l-0.3,0.1l-2.3,0.4L65.5,23L65.3,21.9"/>
<path id="Nassau" inkscape:connector-curvature="0" class="st2" d="M71.1,15.1l0.4,2.6l-0.7-0.6h-0.2h-1.3l-0.8,0.3l-0.1,0.1
	l-0.2,0.2L67.3,19l-2,2.8l-0.2-1.1l0.1-0.9l0.1-0.9V18l-0.1-0.4l-0.4-0.5l-0.2-0.3v-0.3l0.1-1.4l1.1-0.7l0.5,0.3l1.7,0.4l1.3,0.1H70
	l0.9-0.1H71.1"/>
<g>
	<rect x="36.4" y="59" class="st4" width="6.2" height="2.3"/>
	<rect x="30.3" y="59" class="st3" width="6.2" height="2.3"/>
	<rect x="24.3" y="59" class="st2" width="6.2" height="2.3"/>
	<rect x="18.2" y="59" class="st0" width="6.2" height="2.3"/>
	<rect x="12.1" y="59" class="st1" width="6.2" height="2.3"/>
</g>
<g>
	<path d="M10,63.2v-0.4c-0.2-0.1-0.3-0.2-0.3-0.4c0-0.1,0-0.2,0.1-0.3S9.9,62,10,62v-0.1h0.1V62c0.1,0,0.1,0,0.2,0.1
		c0.1,0.1,0.1,0.1,0.1,0.2l-0.2,0c0-0.1,0-0.1-0.1-0.2v0.4c0.1,0,0.2,0.1,0.3,0.2c0.1,0.1,0.1,0.2,0.1,0.3c0,0.1,0,0.2-0.1,0.3
		s-0.1,0.1-0.2,0.1v0.2H10v-0.2c-0.2,0-0.3-0.2-0.3-0.4l0.2,0C9.9,63,9.9,63.1,10,63.2C10,63.2,10,63.2,10,63.2z M10,62.2
		C10,62.2,10,62.2,10,62.2c-0.1,0.1-0.1,0.1-0.1,0.2c0,0.1,0,0.1,0.1,0.2V62.2z M10.1,63.2C10.2,63.2,10.2,63.2,10.1,63.2
		c0.1-0.1,0.1-0.1,0.1-0.2c0-0.1,0-0.2-0.1-0.2V63.2z"/>
	<path d="M10.6,63.1l0.2,0c0,0.1,0,0.1,0.1,0.1s0.1,0.1,0.1,0.1c0,0,0.1,0,0.1-0.1s0-0.1,0-0.2c0-0.1,0-0.2,0-0.2
		c0,0-0.1-0.1-0.1-0.1c-0.1,0-0.1,0-0.2,0.1l-0.2,0l0.1-0.7h0.6v0.3h-0.4l0,0.2c0.1,0,0.1,0,0.2,0c0.1,0,0.2,0,0.2,0.1
		c0.1,0.1,0.1,0.2,0.1,0.4c0,0.1,0,0.2-0.1,0.3s-0.2,0.2-0.3,0.2c-0.1,0-0.2,0-0.3-0.1C10.7,63.3,10.6,63.2,10.6,63.1z"/>
	<path d="M11.9,62c0.1,0,0.2,0.1,0.3,0.2s0.1,0.3,0.1,0.6c0,0.3,0,0.5-0.1,0.6s-0.2,0.2-0.3,0.2c-0.1,0-0.2-0.1-0.3-0.2
		s-0.1-0.3-0.1-0.6c0-0.3,0-0.5,0.1-0.6S11.8,62,11.9,62z M11.9,62.2c0,0-0.1,0-0.1,0.1s0,0.2,0,0.4c0,0.2,0,0.4,0,0.4
		c0,0.1,0.1,0.1,0.1,0.1c0,0,0.1,0,0.1-0.1c0-0.1,0-0.2,0-0.4c0-0.2,0-0.4,0-0.4C12,62.2,12,62.2,11.9,62.2z"/>
	<path d="M12.8,62c0.1,0,0.2,0.1,0.3,0.2s0.1,0.3,0.1,0.6c0,0.3,0,0.5-0.1,0.6s-0.2,0.2-0.3,0.2c-0.1,0-0.2-0.1-0.3-0.2
		s-0.1-0.3-0.1-0.6c0-0.3,0-0.5,0.1-0.6S12.7,62,12.8,62z M12.8,62.2c0,0-0.1,0-0.1,0.1s0,0.2,0,0.4c0,0.2,0,0.4,0,0.4
		c0,0.1,0.1,0.1,0.1,0.1c0,0,0.1,0,0.1-0.1c0-0.1,0-0.2,0-0.4c0-0.2,0-0.4,0-0.4C12.9,62.2,12.9,62.2,12.8,62.2z"/>
</g>
<g>
	<path d="M40.3,63.2v-0.4c-0.2-0.1-0.3-0.2-0.3-0.4c0-0.1,0-0.2,0.1-0.3s0.1-0.1,0.2-0.1v-0.1h0.1V62c0.1,0,0.1,0,0.2,0.1
		c0.1,0.1,0.1,0.1,0.1,0.2l-0.2,0c0-0.1,0-0.1-0.1-0.2v0.4c0.1,0,0.2,0.1,0.3,0.2c0.1,0.1,0.1,0.2,0.1,0.3c0,0.1,0,0.2-0.1,0.3
		s-0.1,0.1-0.2,0.1v0.2h-0.1v-0.2c-0.2,0-0.3-0.2-0.3-0.4l0.2,0C40.2,63,40.2,63.1,40.3,63.2C40.3,63.2,40.3,63.2,40.3,63.2z
		 M40.3,62.2C40.3,62.2,40.3,62.2,40.3,62.2c-0.1,0.1-0.1,0.1-0.1,0.2c0,0.1,0,0.1,0.1,0.2V62.2z M40.5,63.2
		C40.5,63.2,40.5,63.2,40.5,63.2c0.1-0.1,0.1-0.1,0.1-0.2c0-0.1,0-0.2-0.1-0.2V63.2z"/>
	<path d="M40.9,63l0.2,0c0,0.1,0,0.1,0.1,0.2c0,0,0.1,0.1,0.1,0.1c0,0,0.1,0,0.1-0.1c0,0,0-0.1,0-0.2c0-0.1,0-0.1,0-0.2
		s-0.1-0.1-0.1-0.1c0,0-0.1,0-0.1,0l0-0.2c0.1,0,0.1,0,0.1,0s0.1-0.1,0.1-0.1c0,0,0-0.1,0-0.1c0,0-0.1,0-0.1,0s-0.1,0-0.1,0
		c0,0,0,0.1,0,0.1l-0.2,0c0-0.1,0.1-0.2,0.1-0.3c0.1-0.1,0.1-0.1,0.2-0.1c0.1,0,0.2,0,0.3,0.1s0.1,0.2,0.1,0.3c0,0.1,0,0.1,0,0.2
		s-0.1,0.1-0.1,0.1c0.1,0,0.1,0.1,0.2,0.1s0.1,0.1,0.1,0.2c0,0.1,0,0.2-0.1,0.3c-0.1,0.1-0.2,0.1-0.3,0.1c-0.1,0-0.2,0-0.3-0.1
		C41,63.3,40.9,63.2,40.9,63z"/>
	<path d="M42.2,62c0.1,0,0.2,0.1,0.3,0.2s0.1,0.3,0.1,0.6c0,0.3,0,0.5-0.1,0.6s-0.2,0.2-0.3,0.2c-0.1,0-0.2-0.1-0.3-0.2
		s-0.1-0.3-0.1-0.6c0-0.3,0-0.5,0.1-0.6S42.1,62,42.2,62z M42.2,62.2c0,0-0.1,0-0.1,0.1s0,0.2,0,0.4c0,0.2,0,0.4,0,0.4
		c0,0.1,0.1,0.1,0.1,0.1c0,0,0.1,0,0.1-0.1c0-0.1,0-0.2,0-0.4c0-0.2,0-0.4,0-0.4C42.3,62.2,42.3,62.2,42.2,62.2z"/>
	<path d="M43.1,62c0.1,0,0.2,0.1,0.3,0.2s0.1,0.3,0.1,0.6c0,0.3,0,0.5-0.1,0.6s-0.2,0.2-0.3,0.2c-0.1,0-0.2-0.1-0.3-0.2
		s-0.1-0.3-0.1-0.6c0-0.3,0-0.5,0.1-0.6S43,62,43.1,62z M43.1,62.2c0,0-0.1,0-0.1,0.1s0,0.2,0,0.4c0,0.2,0,0.4,0,0.4
		c0,0.1,0.1,0.1,0.1,0.1c0,0,0.1,0,0.1-0.1c0-0.1,0-0.2,0-0.4c0-0.2,0-0.4,0-0.4C43.2,62.2,43.2,62.2,43.1,62.2z"/>
	<path d="M44.1,62c0.1,0,0.2,0.1,0.3,0.2s0.1,0.3,0.1,0.6c0,0.3,0,0.5-0.1,0.6s-0.2,0.2-0.3,0.2c-0.1,0-0.2-0.1-0.3-0.2
		s-0.1-0.3-0.1-0.6c0-0.3,0-0.5,0.1-0.6S43.9,62,44.1,62z M44.1,62.2c0,0-0.1,0-0.1,0.1s0,0.2,0,0.4c0,0.2,0,0.4,0,0.4
		c0,0.1,0.1,0.1,0.1,0.1c0,0,0.1,0,0.1-0.1c0-0.1,0-0.2,0-0.4c0-0.2,0-0.4,0-0.4C44.1,62.2,44.1,62.2,44.1,62.2z"/>
</g>
<sodipodi:namedview  bordercolor="#666666" borderopacity="1" fit-margin-bottom="0" fit-margin-left="0" fit-margin-right="0" fit-margin-top="0" gridtolerance="10" guidetolerance="10" id="namedview3264" inkscape:current-layer="svg3258" inkscape:cx="8.4866449" inkscape:cy="38.066552" inkscape:pageopacity="0" inkscape:pageshadow="2" inkscape:window-height="716" inkscape:window-maximized="1" inkscape:window-width="1366" inkscape:window-x="-8" inkscape:window-y="-8" inkscape:zoom="4.5491794" objecttolerance="10" pagecolor="#ffffff" showgrid="false">
	</sodipodi:namedview>
<path id="Bay_00000069381130966487529450000000113415727025389479_" inkscape:connector-curvature="0" class="st0" d="M122.2,24.2
	l0.5,4.7l0.4,3.5l-1.1-0.3l-0.3-0.1l-0.1-0.1l-0.3-0.2l-0.4-0.4l-2.4-1.4l-0.2-0.1l-0.1-0.1l-0.1-0.1l-0.2-0.1l-0.4-0.2l-0.2-0.1
	l-0.2,0H117l-0.2-0.1l-0.2-0.1l-0.7-0.2l-0.1-1.6l0.3-0.3l1.2-0.5l3.4-0.3l0.7-0.1l-0.2-1.7l0.6-0.1L122.2,24.2"/>
<path id="Jackson_00000070090075273441443830000001164817417416866696_" inkscape:connector-curvature="0" class="st1" d="
	M120.5,18.8l5.3-0.6l1.9,3.5l-0.6,1.4l-1.8,0.2l-0.8,0.6l-0.8,0.1l-1.5,0.2l-0.6,0.1l-0.3-2.8l-0.9-0.5l-1.1,0.1l0.9-2.3L120.5,18.8
	"/>
<path id="Charlotte_00000155859307655048341610000006267681777215297437_" inkscape:connector-curvature="0" class="st2" d="
	M165.6,64.6l5.7-0.9l0.5,3.3l-5.7,0.8v-0.4l-0.1-0.7l-0.2-1v-0.1l-0.2-0.1l-0.4,0.1l-0.1,0.1l-0.5,0.5l-0.1,0.1l0.3,1.8v0.1
	l-0.5,0.1l-0.2-0.2l0,0l-0.1,0.1l-0.1,0.2h-0.2l-0.1-0.2l-0.1-0.2l0,0l0,0l-1.4-1.8l1.4-0.2l-0.1-0.8l-0.1-0.4L165.6,64.6"/>
<path id="Lee_00000103979212509343055070000002674944937763336095_" inkscape:connector-curvature="0" class="st2" d="M163.9,69.1
	l1.3,2.4l0.2,0.1l0.2,0.1l0.7,0.2l0.1-0.2l0.2-0.1l0.6,0.1l0,0l-0.5,0.4l-0.1,0.1h-0.1h-0.2l-0.4-0.1l-0.6-0.3h-0.1h-0.1v-0.1
	l-1.2-2.2V69.1 M166,67.9l5.7-0.8l0.5,3.2l0.2,1.1l-0.9,1.5l-1.9,0.3l-0.3-0.1l-0.3-0.6l-0.6-0.5l-1.3-0.8l-1.3-1.9L166,67.9"/>
<path id="Hendry_00000016761504424514152300000004467885543487371941_" inkscape:connector-curvature="0" class="st1" d="
	M171.6,66.8l4.5-0.7l2.6-0.4l0.3-2.5l1.3,7.9l0.2,0.9l-4.5,0.8l-0.4-2.1l-0.2-1.2l-3.4,0.6L171.6,66.8"/>
<path id="Collier_00000020372184020175892330000008363070856430203548_" inkscape:connector-curvature="0" class="st3" d="M180.5,72
	l0.6,3.5l0.4,2.2l-5.5,0.9v-0.2l-0.1-0.1l-0.5-0.3l-0.3-0.1H175l-1.1-0.2h-0.1l-1.3,0.3l-0.1,0.1l-0.1,0.1v0.1v0.2v0.2h-0.1
	l-0.2-0.1l-0.7-1l-1-1.7l-0.1-0.5L170,75l-0.3-1l-0.2-0.8l-0.2-0.4l0,0l0.3,0.1l1.9-0.3l0.9-1.5l-0.2-1.1l3.4-0.6l0.2,1.2l0.4,2.1
	L180.5,72"/>
<path id="Monroe_00000019643560192118694770000013449600149585838526_" inkscape:connector-curvature="0" class="st4" d="
	M185.5,88.9l-0.1,0.3l-0.5,0.4l-0.5,0.4l-0.5,0.2l0,0l0,0l0,0l0.1-0.1l0.6-0.6L185.5,88.9L185.5,88.9 M189.8,82.2L189.8,82.2
	l-0.2,0.4l-0.7,1.8v0.1l0.1,0.2l-0.1,0.2l-0.2,0.3l-1.8,2.5l-0.1,0.1l-0.9,0.9l0,0l0,0v-0.1l0.4-0.6l0.3-0.2l0.4-0.6l0.4-0.4
	l0.6-0.9l0.1-0.2l0.7-1.4l0.8-2L189.8,82.2 M182.6,91.1l-0.6,0.5l-0.7,0.5H181l-0.2-0.1l0,0l0,0l1-0.6l1.4-0.8l0,0l0.1,0.1l-0.1,0.1
	L182.6,91.1 M175.5,93.4L175.5,93.4l0.2-0.4l1.6-0.8l0.4,0.1l0.8,0.2l0.3,0.5l0,0h-0.1l-0.1,0.1l-0.1,0.1l-0.7,0.3l-4.5,1.6
	l-0.3,0.1l0,0V95v-0.1l0.2-0.2l0.5-0.1h0.1l0.1,0.1h0.1l0.4-0.2l0.2-0.1L175,94L175.5,93.4 M181.5,77.7l0.9,5.5l0.5,2.1l0.1,0.2l0,0
	l-0.7,0.6l-0.9,0.4l-0.9,0.2l-0.2-0.1l-0.5-0.3l-0.1-0.1l-0.5-0.7v-0.3v-0.6v-0.5V84l0.1-0.1h0.1h0.2v-0.1v-0.1l-0.8-1.3l-1.3-2
	l-1.4-1.9L181.5,77.7"/>
<path id="Miami-Dade_00000026142041656989334940000017059492057872608942_" inkscape:connector-curvature="0" class="st4" d="
	M189.8,82.2h-0.3l0.1-0.6l0.4-1.5l0.1-0.2h0.1l0.1,0.4l-0.2,0.9L189.8,82.2 M181.2,75.5l1.1-0.2l1.2,0.1l2.8-0.5l1.7-0.4l0.4-0.2
	l0.4-0.1l0.4-0.1l0.8-0.2l0,0l0.1,0.7l0.1,0.9v0.3v0.6l-0.1,0.3l-0.1,0.1l-0.2,0.2v0.2l-0.2-0.1h-0.1l-0.3,0.2l-0.2,0.2v0.1
	l-0.6,2.5l-0.1,0.4v0.3l0.3,1l0.1,0.1h0.1l0.1,0.1v0.1l-0.2,0.5l-0.4,0.6l0,0l-0.3,0.3l-0.6,0.7l-1.5,0.8l-0.5,0.2l-0.4,0.2
	l-0.7,0.1h-1.2l0,0l-0.1-0.2l-0.6-2.1l-0.9-5.5L181.2,75.5"/>
<path id="Broward_00000111193437171119202370000005782314496162030745_" inkscape:connector-curvature="0" class="st4" d="M180.4,71
	l6.7-1.1l0.6-0.1l2-0.2l0.2,4.4l-0.8,0.2l-0.4,0.1l-0.4,0.1l-0.4,0.2l-1.7,0.4l-2.8,0.5l-1.2-0.1l-1.1,0.2l-0.6-3.5L180.4,71"/>
<path id="Palm_Beach_00000180353514674695959920000003190368185334068926_" inkscape:connector-curvature="0" class="st4" d="
	M179.1,63.2l5.7-0.9h0.1l2.7-0.4l0.7-0.3l0.2,0.4l0.2,0.5l0.2,0.4l0.3,0.8l0.2,1.2l0.2,1.1l0.1,0.5l0.1,3v0.2l-2,0.2l-0.6,0.1
	l-6.7,1.1L179.1,63.2"/>
<path id="Sarasota_00000061450342295586585530000010269722589497307784_" inkscape:connector-curvature="0" class="st2" d="
	M165.3,62.4l0.3,2.2l-2.3,0.3l0.1,0.4l0.1,0.8l-1.4,0.1l-2-3.1l-0.1-0.2l-0.2-0.2l-0.1-0.2l-0.5-0.6l-0.3-0.3l-0.6-0.6l4.5-0.6
	l0.3,2.2L165.3,62.4"/>
<path id="DeSoto_00000119836486049316401620000011501753499779083159_" inkscape:connector-curvature="0" class="st0" d="
	M170.6,59.6l0.6,3.9l-5.7,0.9l-0.6-3.9l2.2-0.3l1.2-0.2L170.6,59.6"/>
<path id="Glades_00000134231528307194675070000014509306962308093620_" inkscape:connector-curvature="0" class="st1" d="
	M177.9,60.1l1.2,3.1l-0.3,2.5l-2.6,0.4l-4.5,0.7l-0.5-3.3l3.4-0.5l-0.2-1.1l1-1.3L177.9,60.1"/>
<path id="Martin_00000165194743331680931930000014254377400475015079_" inkscape:connector-curvature="0" class="st3" d="
	M186.3,58.1l2,3.5l-0.7,0.3l-2.7,0.3h-0.1l-5.7,1l1.9-3.5l3-0.5l1.5-0.2l-0.2-0.8L186.3,58.1"/>
<path id="St._Lucie_00000097484830845945402400000011510387001898086033_" inkscape:connector-curvature="0" class="st2" d="
	M180.3,55.5l4.1-0.7l2,3.5l-1,0.2l0.1,0.7l-1.5,0.3l-3,0.5L180.3,55.5"/>
<path id="Indian_River_00000013165728541757694540000017108626843830481567_" inkscape:connector-curvature="0" class="st0" d="
	M177.5,52.2l4.1-0.7l0.6-0.5l0.1-0.1l2.1,3.6l-4.2,0.7l-1.1,0.2l-0.2-1.1l-1.1,0.2L177.5,52.2"/>
<path id="Okeechobee_00000181774814737125622440000006149687797155868546_" inkscape:connector-curvature="0" class="st0" d="
	M174.8,55l3.1-0.5l1.1-0.2l0.2,1.1l1.1-0.2l0.7,4.4l-1.9,3.6l-1.2-3.1l-1-1l-1.1-0.9l-1.2-2.1L174.8,55"/>
<path id="Highlands_00000169552419595000741810000006386060234751463843_" inkscape:connector-curvature="0" class="st1" d="
	M170,55.7l4.8-0.7l-0.2,1.1l1.2,2.1l1.1,0.9l1,1l-2.6,0.4l-1,1.3l0.2,1.1l-3.4,0.5l-0.6-3.9L170,55.7"/>
<path id="Hardee_00000051367437655075753830000013649390074301504154_" inkscape:connector-curvature="0" class="st1" d="
	M164.4,56.5l5.6-0.8l0.6,3.9l-2.1,0.3l-1.2,0.2l-2.2,0.3L164.4,56.5"/>
<path id="Manatee_00000158017656150877970210000007860697683988814513_" inkscape:connector-curvature="0" class="st2" d="
	M158.8,57.7l5.7-0.8l0.6,3.9l0.2,1.7l-2.3,0.3l-0.3-2.3l-4.5,0.6l-0.6-0.6l-0.4-0.7l0.3-0.1l0.4-0.3l0.8-1.2v-0.1L158.8,57.7"/>
<path id="Pinellas_00000116234445973335062500000012208741319577568940_" inkscape:connector-curvature="0" class="st2" d="
	M156.8,51.1l0.4,2.6l-0.8,0.2l0,0V54l0.1,0.1l0.1,0.1l1.2,0.5l0.5-0.2l0.1,0.3l-0.3,0.8l-1,2.4l-0.6-0.8l-1.2-3.1l0,0l0.1-0.7v-0.6
	l-0.1-0.9l-0.1-0.2l-0.1-0.1l-0.2-0.2L156.8,51.1"/>
<path id="Hillsborough_00000147218451241972706640000012567479034410215325_" inkscape:connector-curvature="0" class="st2" d="
	M156.8,51.1l6.2-0.9l0.6-0.1l0.6,3.9l0.4,2.8l-5.7,0.8l1.1-1.7l0,0l0.3-0.6l0.1-0.3l-0.3-0.6l-0.2-0.2l-1.7-0.6h-0.4l-0.3,0.1
	l-0.3,0.1L156.8,51.1"/>
<path id="Hernando_00000013173690458203338640000004300895970759860358_" inkscape:connector-curvature="0" class="st0" d="
	M155.8,44.2l2.6-0.4l0.1,0.4l1.7-0.3v0.3l0.2,0.2l0.5,0.5l0.2,0.1l1.4,0.4l0.4,0.6l-2.2,0.3l0.1,0.6l-4.4,0.6l-0.4,0.1L155.8,44.2"
	/>
<path id="Pasco_00000136413971561191663250000008340909371985624234_" inkscape:connector-curvature="0" class="st0" d="M162.8,46
	l0.3,2.1l-0.3,1.9l-6.2,0.9l-1.7,0.3l1-3.5l0.4-0.1l4.4-0.6l-0.1-0.6L162.8,46"/>
<path id="Osceola_00000013186613984859291800000001369363673951185597_" inkscape:connector-curvature="0" class="st2" d="
	M167.7,47.3l8.9-1.4l0.2,1.3l0.3,2H177l0.5,3.3l0.3,2.3l-3.1,0.5l-0.1-0.5l0.1-0.3l-0.6-0.8l-0.3-0.5l-2.5-2.3l-0.8-0.6l-2.6-1.9
	L167.7,47.3"/>
<path id="Polk_00000029729357732158395960000011576070630782161593_" inkscape:connector-curvature="0" class="st0" d="M167.6,47
	l0.2,1.1l2.6,1.9l0.8,0.6l2.5,2.3l0.3,0.5l0.6,0.9l0.1,0.3l0.1,0.5l-4.8,0.6l-5.6,0.8l-0.4-2.7l-0.6-3.9l-0.6,0.1l0.3-1.9l1-0.6
	L167.6,47"/>
<path id="Orange_00000103973241914919663990000012461335510990097327_" inkscape:connector-curvature="0" class="st2" d="
	M169.5,41.3l-0.4,1v0.3l0.6,0.5l1.1,0.2l3.8-0.6l1.9,3.1l-8.9,1.4l-0.8-5.5l0.1-0.1h0.1h0.2L169.5,41.3"/>
<path id="Seminole_00000121967842164898856250000006695661363233817015_" inkscape:connector-curvature="0" class="st0" d="
	M169.4,41.3l0.3-1.3l0.6,0.5l1.5,0.3h0.2h0.1l0.4-0.2l0.1-0.3l0.8,0.7l0.4,0.5l0.7,1.1l-3.8,0.6l-1.1-0.2l-0.6-0.5v-0.3L169.4,41.3"
	/>
<path id="Lake_FL_00000174566693979968661110000012847677153452339889_" inkscape:connector-curvature="0" class="st0" d="
	M165.9,35.2l2.1,2l0.8,0.5l0.5,0.3l0.5,0.4l0,0l0.1,0.7l-0.1,0.7l-0.3,1.3l-2.4,0.4h-0.2h-0.1l-0.1,0.1l0.8,5.5l-3.4,0.5l-1.1-7.9
	l3.3-0.5v-1.3L165.9,35.2"/>
<path id="Sumter_00000044169269545188970700000004577666783337377687_" inkscape:connector-curvature="0" class="st4" d="M159,40.3
	l4-0.6l1.1,7.8l-1,0.6l-0.3-2.1l-0.4-0.6l-1.4-0.3l-0.2-0.1l-0.5-0.5l-0.1-0.3v-0.3v-0.6v-0.1l0.1-0.2l0.2-0.3l0.2-0.1l0,0l0.3-0.4
	v-0.1l-1.4-1.3L159,40.3"/>
<path id="Citrus_00000126291698387042650590000013323366111298493093_" inkscape:connector-curvature="0" class="st1" d="
	M156.4,39.6l2.7,0.7l0.5,0.6l1.4,1.3v0.1l-0.1,0.4l0,0l-0.2,0.1l-0.2,0.3l-0.1,0.2v0.1V44l-2,0.2l-0.1-0.4l-2.5,0.4l-0.2-1.9
	l-0.1-0.4l-0.1-0.2l-1.4-1.1l0.1-0.1l0.1-0.1l0.3-0.3l0.2-0.1h0.2l0.7,0.2l0.7-0.4L156.4,39.6L156.4,39.6"/>
<path id="Levy_00000023241195461124540180000001091240554655743925_" inkscape:connector-curvature="0" class="st1" d="M154.1,33.2
	l2.9,0.6l0.5,3.4l-1.5,0.2l0.3,2.2l0,0l-0.2,0.1l-0.6,0.5l-0.7-0.2h-0.2l-0.2,0.1l-0.3,0.3l-0.1,0.1v0.1v-0.4l-0.1-0.3l-0.7-1.1
	l-0.3-0.1l-4-1.1l0.9-0.8l0.5-0.9l0.2-0.8l0.4-1.7L154.1,33.2"/>
<path id="Marion_00000158732786158967645700000015107235141011477418_" inkscape:connector-curvature="0" class="st0" d="M157,33.8
	l2-0.3l0.2,0.2v0.1l0.8,0.4l0.8-0.3l0.1-0.1l0,0l-0.1-0.4l0.3-0.3l0.2-0.1l0.8-0.3l1.8,0.1l0.3,0.7l0.6,0.7l0.5,0.5l0.5,0.5l0.4,2.7
	v1.3l-3.2,0.5l-4,0.6l-2.7-0.7l-0.3-2.2l1.5-0.2L157,33.8"/>
<path id="Volusia_00000181071857855521514690000012348464865387037058_" inkscape:connector-curvature="0" class="st0" d="
	M165.4,34.6l2.6-1.4l0.2,0.3l0.3,1.4l0.9-0.2l0,0l2-0.4l-0.3-1.4l0.5-0.7l0.8,1.4l0.7,1.1l0.5,0.8l0.3,0.4l1.1,1.3l2.1,2.5l-2.7,0.5
	l0.4,2.2h-0.3l-0.7-1.1l-0.4-0.5l-0.8-0.6l-0.1,0.3l-0.4,0.2H172h-0.2l-1.4-0.5l-0.6-0.5l0.1-0.7l-0.1-0.7l0,0l-0.5-0.4l-0.5-0.3
	l-0.8-0.4l-2.1-2L165.4,34.6"/>
<path id="Brevard_00000176752047314076959950000005543831731028353166_" inkscape:connector-curvature="0" class="st0" d="
	M174.6,42.5h0.3l-0.5-2.3l2.6-0.4l2.1,2.2l0,0l0.1,0.1l0,0l0.8,1.5v0.1l-0.4,0.2l-0.1,0.1l-0.1,0.2v0.1l0,0v0.2v0.4v0.4v0.3l0.2,0.7
	l0.3,1l0.4,1l0.3,0.6l0.2,0.4l0.3,0.5l0,0l0.9,1.3l-0.1,0.1l-0.6,0.5l-3.8,0.5l-0.5-3.3h0.1l-0.3-2l-0.2-1.3L174.6,42.5"/>
<path id="Washington_00000060711392032301625800000012541142435883713966_" inkscape:connector-curvature="0" class="st1" d="
	M117,23v-0.8l0.1-0.3l0.8-0.1l0.2,0.2v0.4l1.3-0.2l0.1-0.9v-0.1v-0.1l1.1-0.1l0.9,0.5l0.3,2.8l-0.6,0.1l0.2,1.7l-0.7,0.1l-3.4,0.3
	l-1.3,0.4l-0.2,0.3l0.4-0.8l0.4-1.9l-0.2-0.2l-0.1-0.4l0.5-0.9L117,23"/>
<path id="Holmes_00000172410146500338592520000017652464948099677851_" inkscape:connector-curvature="0" class="st1" d="
	M114.5,19.5l5.9-0.7l-0.9,2.3v0.1v0.1l-0.1,0.9l-1.3,0.1v-0.4l-0.2-0.2l-0.8,0.1l-0.1,0.4V23l-2.2,0.2L114.5,19.5"/>
<path id="Walton_00000101796141630567321970000013345640775338850987_" inkscape:connector-curvature="0" class="st0" d="
	M112.8,19.7l1.7-0.2l0.3,3.7L117,23l-0.1,0.1l-0.5,0.9l0.1,0.4l0.2,0.2l-0.4,1.9l-0.5,0.7l0.1,1.5l-4.6-0.9l-0.7-7.9L112.8,19.7"/>
<path id="Okaloosa_00000044177775096060986610000016671054224780824224_" inkscape:connector-curvature="0" class="st0" d="
	M110.6,19.9l0.7,7.9l-4.5,0.4l-0.6-7.8l1.1-0.2L110.6,19.9"/>
<path id="Santa_Rosa_00000061437472099858201410000006478338506361993380_" inkscape:connector-curvature="0" class="st4" d="
	M102.1,20.7l4.1-0.4l0.6,7.8l-1.3,0.3l-1.8,0.3l-0.8-0.5l-1.4-2.5l-0.6-1.4l-0.1-0.4v-0.2l-0.1-1v-0.2l0.2-0.8l0.1-0.1l0.4-0.4
	L102.1,20.7"/>
<path id="Escambia_00000121972269034652832360000008108963853817477047_" inkscape:connector-curvature="0" class="st1" d="
	M97.3,21.1l4.8-0.5l-0.7,0.6l-0.5,0.5l-0.1,0.1l-0.2,0.8v0.2l0.1,1V24l0.2,0.5l0.6,1.4l1.4,2.5l0.8,0.5l1.8-0.3l-2.5,0.7h-0.1h-0.1
	l-0.4,0.1l-0.3,0.1l-0.4,0.1L100,30l-1,0.3l0.7-0.3l0.1-1.4l0.2-2.9v-0.2v-0.2l-0.1-0.2l-0.5-0.3L99,24.6h-0.2h-0.1l-0.4-0.2
	l-1.1-1.3L97,22.9L97.3,21.1"/>
<path id="Calhoun_00000047764640950979258840000006008911437634287795_" inkscape:connector-curvature="0" class="st1" d="
	M122.2,24.2l1.5-0.2l0.8-0.1l0.8-0.6l1.8-0.2l-0.5,1.2l-0.4,2.4l-0.5,1.9l-3,0.3L122.2,24.2"/>
<path id="Gulf_00000066500607662793516740000007417321200969875074_" inkscape:connector-curvature="0" class="st1" d="M122.7,28.9
	l3-0.3l1.3,2.8l0.1,1.8l-0.6,0.9h-0.2l-1,1l0.1,0.1l-1,0.1V34v-0.1l-0.2-0.3l-0.6-0.8l-0.3-0.3l0,0L122.7,28.9"/>
<path id="Franklin_00000088113692641028757780000004855430062253307839_" inkscape:connector-curvature="0" class="st1" d="
	M132.4,30.2l2.3,0.4l0.1,0.2v0.1V31l0,0v0.1l-0.1,0.2h-0.1l-0.3,0.1l-0.5-0.1h-0.1l-0.1-0.1l-0.1,0l-0.6,0.2l-0.3,0.1l-1.6,1.3
	l-0.7,0.6l-0.6,0.5l-0.7,0.3l-1.2,0.4l-0.5,0.1l-0.4-0.1h-0.3l-0.2,0.1l-1,0.4l0.1-0.2l1-1h0.2l0.6-0.9l-0.1-1.8l0.1-0.6L132.4,30.2
	"/>
<path id="Dixie_00000144304431376305759610000017682020659115655307_" inkscape:connector-curvature="0" class="st1" d="M150.7,30.3
	l0.2,3l-0.4,1.7l-0.2,0.8l-0.5,0.9l-0.9,0.8l-0.2-0.7l-0.4-0.6l-0.2-0.3l-0.3-0.1h-0.3l-0.5-0.3l-0.9-0.5l-0.3-0.1v-0.1l-0.4-1.8
	l0.8-2.1L150.7,30.3"/>
<path id="Gilchrist_00000068652489430405589880000006110493517546924212_" inkscape:connector-curvature="0" class="st1" d="
	M151,29.4l0.8-0.7l1.8,1.1l0.5,3.4l-3.2,0.1l-0.2-3L151,29.4"/>
<path id="Alachua_00000115495184938568444250000013276089756731831970_" inkscape:connector-curvature="0" class="st2" d="
	M154.9,28.3l1.3,0.1l0.3,0.4h0.1L158,29h0.6l0.1-0.1h0.1l0.5,0.1h0.2l1,0.9l0.1,0.3v0.1l0.4,3.1l0.1,0.4l0,0l-0.1,0.1l-0.9,0.4
	l-0.8-0.4v-0.1l-0.2-0.2l-2,0.3l-2.9-0.6l-0.5-3.4L154.9,28.3"/>
<path id="Putnam_00000016787514972874003880000006756186387817414320_" inkscape:connector-curvature="0" class="st1" d="
	M165.5,27.9l1.1,2.7l1.4,2.7l-2.6,1.4l-0.5-0.5l-0.6-0.7l-0.3-0.8l-1.8-0.1l-0.8,0.3l-0.2,0.1l-0.3,0.3l-0.4-3.1h0.1l0.3-0.1l1-0.7
	v-0.2l0.1-0.1l1-0.7h0.2L165.5,27.9"/>
<path id="Flagler_00000109007889676112762680000001509297702900815801_" inkscape:connector-curvature="0" class="st2" d="
	M166.7,30.9l3.4-1.1l1.7,2.9l-0.5,0.7l0.3,1.4l-2,0.4l0,0l-0.9,0.2l-0.3-1.4l-0.3-0.4L166.7,30.9"/>
<path id="St._Johns_00000166658839391643419680000016298135913518644919_" inkscape:connector-curvature="0" class="st2" d="
	M164,24.8l0.6-0.3h0.3l0.7,0.2l1.2-0.2l-0.3-1.9l0.6-0.1l1.3,3.5l0.9,2.3l0,0l0.1,0.3l0.1,0.2l0.5,0.8l-3.4,1.1l-1.1-2.7L164,24.8"
	/>
<path id="Clay_00000170273706855123859300000000345017118685273487_" inkscape:connector-curvature="0" class="st0" d="M163.9,24.5
	l1.6,3.4l-2.4,0.4h-0.2l-1,0.7v0.2v0.2l-1,0.7l-0.3,0.1l-0.8-5.4l-0.1-0.6l1.1-0.2l2.3-0.4l0.3-0.1h0.3L163.9,24.5"/>
<path id="Bradford_00000089553652816247121600000018327791001197174441_" inkscape:connector-curvature="0" class="st1" d="
	M158.7,25l1-0.2l0.8,5.4h-0.1v-0.1l-0.1-0.3l-1-0.9h-0.2l-0.5-0.1h-0.1l-0.1,0.1h-0.6l-1.4-0.2h-0.1l-0.2-0.5l0.5-0.2l0.7-0.4
	l1.2-1.7l0.3-0.6v-0.1L158.7,25"/>
<path id="Union_00000159428348485429133220000010180303675274454975_" inkscape:connector-curvature="0" class="st1" d="M158.7,25
	l0.1,0.2v0.1l-0.3,0.6l-1.2,1.7l-0.7,0.4l-0.5,0.2h-1.3l0.4-2.6L158.7,25"/>
<path id="Suwannee_00000160890160544045095430000014695221994759357872_" inkscape:connector-curvature="0" class="st1" d="
	M151.2,23.5l0.7,5.2l-0.9,0.7l-0.7-0.8l-0.4-0.4l-0.2-0.1l-1.1-0.7l-0.5-0.2l-0.6-0.1v0.1h-0.2H147l-0.1-0.1l-0.4-0.9l-0.2-0.8v-0.1
	l0,0l0.6-1.7l0.1-0.5l0,0l0.3-0.2l0.4-0.1h0.9l0.6,0.1L151.2,23.5"/>
<path id="Lafayette_00000062871394012883989950000001548564697883257500_" inkscape:connector-curvature="0" class="st1" d="
	M146.3,25.2L146.3,25.2l-0.1,0.1l0.2,0.8l0.4,0.9l0.2,0.2l0.3,0.1l0.2-0.1v-0.1l0.6,0.1l0.5,0.2l1.1,0.7l0.2,0.1l0.4,0.4l0.7,0.8
	l-0.3,0.9l-4.4,0.6l-0.4,0.1l-0.3-0.9l-0.6-4.7L146.3,25.2"/>
<path id="Taylor_00000162327278258297220100000005799810573739280775_" inkscape:connector-curvature="0" class="st1" d="M145,25.4
	l0.6,4.7l0.3,0.9l0.4-0.1l-0.8,2.1l-0.4-0.1l-1.1-0.4l-0.1-0.1l-0.1-0.1l-0.4-0.5v-0.1l-0.1-0.2l-0.1-0.3l-0.6-0.7l-0.5-0.3
	l-0.1-0.1l-1.2-0.5l-0.7-0.2l-1-0.5l-0.7-0.4l1.5-3l3.9-0.5l0.1,0.6L145,25.4"/>
<path id="Wakulla_00000042000162216026988000000004174839980141809820_" inkscape:connector-curvature="0" class="st0" d="
	M130.1,26.8l5.1-0.7l0.1,0.4l1.8-0.2l0.3,2.3l-1.9,0.3l-1,0.5l-0.2,0.1v0.4l0.1,0.5l0,0l0.2,0.3l-2.2-0.5l-0.7-0.4l-0.3-0.2
	l-0.5-0.6l-1-1.7L130,27L130.1,26.8"/>
<path id="Liberty_00000086686445427269889620000005687098749173529475_" inkscape:connector-curvature="0" class="st1" d="
	M130.7,25.5l-0.6,1.2l-0.1,0.2l-0.2,0.3l1,1.7l0.5,0.6l0.3,0.2l0.7,0.4l-5.1,0.6l-0.1,0.6l-1.3-2.8l0.5-1.9l0.4-2.4l0.5-1.2
	L130.7,25.5"/>
<path id="Gadsden_00000036217125806247458670000008461254367336116119_" inkscape:connector-curvature="0" class="st1" d="
	M133.1,21.3l1.1-0.1l-0.5,1.2l-0.5,1.5l-0.1,0.1l-0.1,0.2l-0.2,0.1l-1.5,0.7l-0.7,0.5l-3.5-2.4l0.6-1.4l0,0L133.1,21.3"/>
<path id="Leon_00000071519164445031294130000000914167314237216189_" inkscape:connector-curvature="0" class="st2" d="M137.3,21
	l-0.1,2l-0.3,1.2l0.3,2.1l-1.8,0.2l-0.1-0.4l-5.1,0.7l0.6-1.2l0.7-0.5l1.5-0.7v-0.2l0.2-0.1l0.1-0.1l0.5-1.5l0.5-1.2l2.2-0.2
	L137.3,21"/>
<path id="Jefferson_00000013188903610846190480000007424677628753959553_" inkscape:connector-curvature="0" class="st0" d="
	M140.2,20.8l1.5-0.1l0.1,0.2l0.1,0.7l-0.3,0.4l-0.9,1l-0.7,1.9l-0.1,0.6l-1.5,3h-1l-0.5-4.3l0.2-1.2l0.1-2L140.2,20.8"/>
<path id="Madison_00000171712998603243540430000015627562245097781640_" inkscape:connector-curvature="0" class="st1" d="
	M144.5,20.6h0.5l0.5,0.2l0.5,1.7l0.3,0.6l0.1,0.1l0.6,0.4l-0.7,1.6l-1.3,0.2l-1.1,0.2l-0.1-0.6l-3.9,0.5l0.1-0.6l0.6-1.9l0.9-1
	l0.3-0.4l-0.1-0.7l-0.1-0.2L144.5,20.6"/>
<path id="Hamilton_00000072266709202985915220000008122121994934380969_" inkscape:connector-curvature="0" class="st1" d="
	M146.9,20.4l5-0.3l-0.3,0.5v0.2v0.4l0.2,0.3l0.6,0.7l0.2,0l0.1,0.3v0.1l-0.3,0.8l-0.1,0.1l-0.6,0.3h-0.5v-0.1l-1.9-0.7l-0.6-0.1
	h-0.9l-0.4,0.1l-0.3,0.2l0,0l-0.1,0.4l-0.6-0.4l-0.1-0.1l-0.3-0.6l-0.5-1.7l-0.5-0.3L146.9,20.4"/>
<path id="Columbia_00000168086094484260379450000002440776421214597506_" inkscape:connector-curvature="0" class="st0" d="M153,20
	l1.4-0.1l0.8,5.7l-0.4,2.6l-1.2,1.6l-1.8-1.1l-0.7-5.2v0.1h0.5l0.6-0.3l0.1-0.1l0.3-0.8v-0.1v-0.1l-0.1-0.1l-0.6-0.7l-0.2-0.3v-0.4
	v-0.2L152,20H153"/>
<path id="Baker_00000173141837584592460320000016159903758954187686_" inkscape:connector-curvature="0" class="st1" d="M154.9,19.8
	l2.3-0.1l0.3,1.8l0.1,0.3l0.2,0.3l0.2,0.2h0.1l1.3-0.2l0.1,1.1l0.2,1.7l-1,0.2l-3.5,0.6l-0.8-5.7L154.9,19.8"/>
<path id="Duval_00000002374776375113648650000012709420618709645203_" inkscape:connector-curvature="0" class="st2" d="M159.6,23.5
	l2-2.8l0.9-1.3l0.2-0.2l0.1-0.1l0.8-0.3h1.3h0.2l0.7,0.7l0.2,0.1l0.2,0.2l0.3,1l0.2,0.7l0.1,0.5l0.1,0.4l0.1,0.3l-0.6,0.1l0.3,1.9
	l-1.2,0.2l-0.7-0.4h-0.3l-0.6,0.3l-0.1-0.9h-0.3l-0.3,0.1l-2.3,0.4l-1.1,0.2L159.6,23.5"/>
<path id="Nassau_00000141454447839045343180000011996040243870982548_" inkscape:connector-curvature="0" class="st2" d="
	M165.4,16.7l0.4,2.6l-0.7-0.6h-0.2h-1.3l-0.8,0.3l-0.1,0.1l-0.2,0.2l-0.9,1.3l-2,2.8l-0.2-1.1l0.1-0.9l0.1-0.9v-0.9l-0.1-0.4
	l-0.4-0.5l-0.2-0.3v-0.3l0.1-1.4l1.1-0.7l0.5,0.3l1.7,0.4l1.3,0.1h0.7l0.9-0.1H165.4"/>
<g>
	<rect x="140.6" y="59" class="st4" width="6.2" height="2.3"/>
	<rect x="134.4" y="59" class="st3" width="6.2" height="2.3"/>
	<rect x="128.4" y="59" class="st2" width="6.2" height="2.3"/>
	<rect x="122.3" y="59" class="st0" width="6.2" height="2.3"/>
	<rect x="116.2" y="59" class="st1" width="6.2" height="2.3"/>
</g>
<g>
	<path d="M114.1,63.2v-0.4c-0.2-0.1-0.3-0.2-0.3-0.4c0-0.1,0-0.2,0.1-0.3s0.1-0.1,0.2-0.1v-0.1h0.1V62c0.1,0,0.1,0,0.2,0.1
		c0.1,0.1,0.1,0.1,0.1,0.2l-0.2,0c0-0.1,0-0.1-0.1-0.2v0.4c0.1,0,0.2,0.1,0.3,0.2c0.1,0.1,0.1,0.2,0.1,0.3c0,0.1,0,0.2-0.1,0.3
		s-0.1,0.1-0.2,0.1v0.2h-0.1v-0.2c-0.2,0-0.3-0.2-0.3-0.4l0.2,0C114,63,114,63.1,114.1,63.2C114.1,63.2,114.1,63.2,114.1,63.2z
		 M114.1,62.2C114.1,62.2,114.1,62.2,114.1,62.2c-0.1,0.1-0.1,0.1-0.1,0.2c0,0.1,0,0.1,0.1,0.2V62.2z M114.2,63.2
		C114.3,63.2,114.3,63.2,114.2,63.2c0.1-0.1,0.1-0.1,0.1-0.2c0-0.1,0-0.2-0.1-0.2V63.2z"/>
	<path d="M114.7,63.1l0.2,0c0,0.1,0,0.1,0.1,0.1s0.1,0.1,0.1,0.1c0,0,0.1,0,0.1-0.1s0-0.1,0-0.2c0-0.1,0-0.2,0-0.2
		c0,0-0.1-0.1-0.1-0.1c-0.1,0-0.1,0-0.2,0.1l-0.2,0l0.1-0.7h0.6v0.3H115l0,0.2c0.1,0,0.1,0,0.2,0c0.1,0,0.2,0,0.2,0.1
		c0.1,0.1,0.1,0.2,0.1,0.4c0,0.1,0,0.2-0.1,0.3s-0.2,0.2-0.3,0.2c-0.1,0-0.2,0-0.3-0.1C114.8,63.3,114.7,63.2,114.7,63.1z"/>
	<path d="M116,62c0.1,0,0.2,0.1,0.3,0.2s0.1,0.3,0.1,0.6c0,0.3,0,0.5-0.1,0.6s-0.2,0.2-0.3,0.2c-0.1,0-0.2-0.1-0.3-0.2
		s-0.1-0.3-0.1-0.6c0-0.3,0-0.5,0.1-0.6S115.9,62,116,62z M116,62.2c0,0-0.1,0-0.1,0.1s0,0.2,0,0.4c0,0.2,0,0.4,0,0.4
		c0,0.1,0.1,0.1,0.1,0.1c0,0,0.1,0,0.1-0.1c0-0.1,0-0.2,0-0.4c0-0.2,0-0.4,0-0.4C116.1,62.2,116.1,62.2,116,62.2z"/>
	<path d="M116.9,62c0.1,0,0.2,0.1,0.3,0.2s0.1,0.3,0.1,0.6c0,0.3,0,0.5-0.1,0.6s-0.2,0.2-0.3,0.2c-0.1,0-0.2-0.1-0.3-0.2
		s-0.1-0.3-0.1-0.6c0-0.3,0-0.5,0.1-0.6S116.8,62,116.9,62z M116.9,62.2c0,0-0.1,0-0.1,0.1s0,0.2,0,0.4c0,0.2,0,0.4,0,0.4
		c0,0.1,0.1,0.1,0.1,0.1c0,0,0.1,0,0.1-0.1c0-0.1,0-0.2,0-0.4c0-0.2,0-0.4,0-0.4C117,62.2,117,62.2,116.9,62.2z"/>
</g>
<g>
	<path d="M144.5,63.2v-0.4c-0.2-0.1-0.3-0.2-0.3-0.4c0-0.1,0-0.2,0.1-0.3c0.1-0.1,0.1-0.1,0.2-0.1v-0.1h0.1V62c0.1,0,0.1,0,0.2,0.1
		c0.1,0.1,0.1,0.1,0.1,0.2l-0.2,0c0-0.1,0-0.1-0.1-0.2v0.4c0.1,0,0.2,0.1,0.3,0.2c0.1,0.1,0.1,0.2,0.1,0.3c0,0.1,0,0.2-0.1,0.3
		c-0.1,0.1-0.1,0.1-0.2,0.1v0.2h-0.1v-0.2c-0.2,0-0.3-0.2-0.3-0.4l0.2,0C144.3,63,144.4,63.1,144.5,63.2
		C144.4,63.2,144.4,63.2,144.5,63.2z M144.5,62.2C144.4,62.2,144.4,62.2,144.5,62.2c-0.1,0.1-0.1,0.1-0.1,0.2c0,0.1,0,0.1,0.1,0.2
		V62.2z M144.6,63.2C144.6,63.2,144.6,63.2,144.6,63.2c0.1-0.1,0.1-0.1,0.1-0.2c0-0.1,0-0.2-0.1-0.2V63.2z"/>
	<path d="M145,63l0.2,0c0,0.1,0,0.1,0.1,0.2c0,0,0.1,0.1,0.1,0.1c0,0,0.1,0,0.1-0.1c0,0,0-0.1,0-0.2c0-0.1,0-0.1,0-0.2
		c0,0-0.1-0.1-0.1-0.1c0,0-0.1,0-0.1,0l0-0.2c0.1,0,0.1,0,0.1,0c0,0,0.1-0.1,0.1-0.1c0,0,0-0.1,0-0.1c0,0-0.1,0-0.1,0s-0.1,0-0.1,0
		c0,0,0,0.1,0,0.1l-0.2,0c0-0.1,0.1-0.2,0.1-0.3s0.1-0.1,0.2-0.1c0.1,0,0.2,0,0.3,0.1c0.1,0.1,0.1,0.2,0.1,0.3c0,0.1,0,0.1,0,0.2
		s-0.1,0.1-0.1,0.1c0.1,0,0.1,0.1,0.2,0.1c0,0.1,0.1,0.1,0.1,0.2c0,0.1,0,0.2-0.1,0.3c-0.1,0.1-0.2,0.1-0.3,0.1
		c-0.1,0-0.2,0-0.3-0.1C145.1,63.3,145,63.2,145,63z"/>
	<path d="M146.3,62c0.1,0,0.2,0.1,0.3,0.2s0.1,0.3,0.1,0.6c0,0.3,0,0.5-0.1,0.6s-0.2,0.2-0.3,0.2c-0.1,0-0.2-0.1-0.3-0.2
		S146,63,146,62.7c0-0.3,0-0.5,0.1-0.6S146.2,62,146.3,62z M146.3,62.2c0,0-0.1,0-0.1,0.1s0,0.2,0,0.4c0,0.2,0,0.4,0,0.4
		c0,0.1,0.1,0.1,0.1,0.1c0,0,0.1,0,0.1-0.1c0-0.1,0-0.2,0-0.4c0-0.2,0-0.4,0-0.4C146.4,62.2,146.4,62.2,146.3,62.2z"/>
	<path d="M147.2,62c0.1,0,0.2,0.1,0.3,0.2s0.1,0.3,0.1,0.6c0,0.3,0,0.5-0.1,0.6s-0.2,0.2-0.3,0.2c-0.1,0-0.2-0.1-0.3-0.2
		s-0.1-0.3-0.1-0.6c0-0.3,0-0.5,0.1-0.6S147.1,62,147.2,62z M147.2,62.2c0,0-0.1,0-0.1,0.1s0,0.2,0,0.4c0,0.2,0,0.4,0,0.4
		c0,0.1,0.1,0.1,0.1,0.1c0,0,0.1,0,0.1-0.1c0-0.1,0-0.2,0-0.4c0-0.2,0-0.4,0-0.4C147.3,62.2,147.3,62.2,147.2,62.2z"/>
	<path d="M148.2,62c0.1,0,0.2,0.1,0.3,0.2s0.1,0.3,0.1,0.6c0,0.3,0,0.5-0.1,0.6s-0.2,0.2-0.3,0.2c-0.1,0-0.2-0.1-0.3-0.2
		s-0.1-0.3-0.1-0.6c0-0.3,0-0.5,0.1-0.6S148,62,148.2,62z M148.2,62.2c0,0-0.1,0-0.1,0.1s0,0.2,0,0.4c0,0.2,0,0.4,0,0.4
		c0,0.1,0.1,0.1,0.1,0.1c0,0,0.1,0,0.1-0.1c0-0.1,0-0.2,0-0.4c0-0.2,0-0.4,0-0.4C148.2,62.2,148.2,62.2,148.2,62.2z"/>
</g>
</svg>
