<?xml version="1.0" encoding="utf-8"?>
<!-- Generator: Adobe Illustrator 26.5.0, SVG Export Plug-In . SVG Version: 6.00 Build 0)  -->
<svg version="1.1"
	 id="svg3258" xmlns:cc="http://creativecommons.org/ns#" xmlns:dc="http://purl.org/dc/elements/1.1/" xmlns:rdf="http://www.w3.org/1999/02/22-rdf-syntax-ns#" xmlns:svg="http://www.w3.org/2000/svg" xmlns:inkscape="http://www.inkscape.org/namespaces/inkscape" xmlns:sodipodi="http://sodipodi.sourceforge.net/DTD/sodipodi-0.dtd"
	 xmlns="http://www.w3.org/2000/svg" xmlns:xlink="http://www.w3.org/1999/xlink" x="0px" y="0px" viewBox="0 0 194.5 107.7"
	 style="enable-background:new 0 0 194.5 107.7;" xml:space="preserve">
<style type="text/css">
	.st0{fill:#F59F3F;stroke:#FFFFFF;stroke-width:0.1;stroke-miterlimit:10;}
	.st1{fill:#FFC685;stroke:#FFFFFF;stroke-width:0.1;stroke-miterlimit:10;}
	.st2{fill:#ED6F20;stroke:#FFFFFF;stroke-width:0.1;stroke-miterlimit:10;}
	.st3{fill:#C85422;stroke:#FFFFFF;stroke-width:0.1;stroke-miterlimit:10;}
	.st4{fill:#9E3D22;stroke:#FFFFFF;stroke-width:0.1;stroke-miterlimit:10;}
</style>
<sodipodi:namedview  bordercolor="#666666" borderopacity="1" fit-margin-bottom="0" fit-margin-left="0" fit-margin-right="0" fit-margin-top="0" gridtolerance="10" guidetolerance="10" id="namedview3264" inkscape:current-layer="svg3258" inkscape:cx="8.4866449" inkscape:cy="38.066552" inkscape:pageopacity="0" inkscape:pageshadow="2" inkscape:window-height="716" inkscape:window-maximized="1" inkscape:window-width="1366" inkscape:window-x="-8" inkscape:window-y="-8" inkscape:zoom="4.5491794" objecttolerance="10" pagecolor="#ffffff" showgrid="false">
	</sodipodi:namedview>
<g>
	<path id="Bay" inkscape:connector-curvature="0" class="st0" d="M27.9,20.1l0.5,4.7l0.4,3.5L27.7,28l-0.3-0.1l-0.1-0.1L27,27.6
		l-0.4-0.4l-2.4-1.4L24,25.7l-0.1-0.1l-0.1-0.1l-0.2-0.1l-0.4-0.2L23,25.1h-0.2h-0.1L22.5,25l-0.2-0.1l-0.7-0.2l-0.1-1.6l0.3-0.3
		l1.2-0.5l3.4-0.3l0.7-0.1l-0.2-1.7l0.6-0.1L27.9,20.1"/>
	<path id="Jackson" inkscape:connector-curvature="0" class="st1" d="M26.2,14.7l5.3-0.6l1.9,3.5L32.8,19L31,19.2l-0.8,0.6l-0.8,0.1
		l-1.5,0.2l-0.6,0.1L27,17.4l-0.9-0.5L25,17l0.9-2.3H26.2"/>
	<path id="Charlotte" inkscape:connector-curvature="0" class="st2" d="M71.3,60.5l5.7-0.9l0.5,3.3l-5.7,0.8v-0.4l-0.1-0.7l-0.2-1
		v-0.1l-0.2-0.1l-0.4,0.1l-0.1,0.1l-0.5,0.5l-0.1,0.1l0.3,1.8v0.1L70,64.2L69.8,64l0,0l-0.1,0.1l-0.1,0.2h-0.2l-0.1-0.2l-0.1-0.2
		l0,0l0,0l-1.4-1.8l1.4-0.2l-0.1-0.8L69,60.7L71.3,60.5"/>
	<path id="Lee" inkscape:connector-curvature="0" class="st2" d="M69.6,65l1.3,2.4l0.2,0.1l0.2,0.1l0.7,0.2l0.1-0.2l0.2-0.1l0.6,0.1
		l0,0L72.4,68l-0.1,0.1h-0.1H72L71.6,68L71,67.7h-0.1h-0.1v-0.1l-1.2-2.2L69.6,65 M71.7,63.8l5.7-0.8l0.5,3.2l0.2,1.1l-0.9,1.5
		l-1.9,0.3L75,69l-0.3-0.6l-0.6-0.5l-1.3-0.8l-1.3-1.9L71.7,63.8"/>
	<path id="Hendry" inkscape:connector-curvature="0" class="st1" d="M77.3,62.7l4.5-0.7l2.6-0.4l0.3-2.5L86,67l0.2,0.9l-4.5,0.8
		l-0.4-2.1l-0.2-1.2L77.7,66L77.3,62.7"/>
	<path id="Collier" inkscape:connector-curvature="0" class="st3" d="M86.2,67.9l0.6,3.5l0.4,2.2l-5.5,0.9v-0.2l-0.1-0.1l-0.5-0.3
		l-0.3-0.1h-0.1l-1.1-0.2h-0.1l-1.3,0.3L78.1,74L78,74.1v0.1v0.2v0.2h-0.1l-0.2-0.1l-0.7-1l-1-1.7l-0.1-0.5l-0.2-0.4l-0.3-1
		l-0.2-0.8L75,68.7l0,0l0.3,0.1l1.9-0.3l0.9-1.5l-0.2-1.1l3.4-0.6l0.2,1.2l0.4,2.1L86.2,67.9"/>
	<path id="Monroe" inkscape:connector-curvature="0" class="st4" d="M91.2,84.8l-0.1,0.3l-0.5,0.4l-0.5,0.4l-0.5,0.2l0,0l0,0l0,0
		l0.1-0.1l0.6-0.6L91.2,84.8L91.2,84.8 M95.5,78.1L95.5,78.1l-0.2,0.4l-0.7,1.8v0.1l0.1,0.2l-0.1,0.2l-0.2,0.3l-1.8,2.5l-0.1,0.1
		l-0.9,0.9l0,0l0,0v-0.1l0.4-0.6l0.3-0.2l0.4-0.6l0.4-0.4l0.6-0.9l0.1-0.2l0.7-1.4l0.8-2L95.5,78.1 M88.3,87l-0.6,0.5L87,88h-0.3
		l-0.2-0.1l0,0l0,0l1-0.6l1.4-0.8l0,0l0.1,0.1l-0.1,0.1L88.3,87 M81.2,89.3L81.2,89.3l0.2-0.4l1.6-0.8l0.4,0.1l0.8,0.2l0.3,0.5l0,0
		h-0.1L84.3,89l-0.1,0.1l-0.7,0.3L79,91l-0.3,0.1l0,0v-0.2v-0.1l0.2-0.2l0.5-0.1h0.1l0.1,0.1h0.1l0.4-0.2l0.2-0.1l0.4-0.4L81.2,89.3
		 M87.2,73.6l0.9,5.5l0.5,2.1l0.1,0.2l0,0L88,82l-0.9,0.4l-0.9,0.2L86,82.5l-0.5-0.3l-0.1-0.1l-0.5-0.7v-0.3v-0.6V80v-0.1l0.1-0.1
		h0.1h0.2v-0.1v-0.1l-0.8-1.3l-1.3-2l-1.4-1.9L87.2,73.6"/>
	<path id="Miami-Dade" inkscape:connector-curvature="0" class="st4" d="M95.5,78.1h-0.3l0.1-0.6l0.4-1.5l0.1-0.2h0.1l0.1,0.4
		l-0.2,0.9L95.5,78.1 M86.9,71.4l1.1-0.2l1.2,0.1l2.8-0.5l1.7-0.4l0.4-0.2l0.4-0.1l0.4-0.1l0.8-0.2l0,0l0.1,0.7l0.1,0.9v0.3v0.6
		l-0.1,0.3l-0.1,0.1l-0.2,0.2v0.2L95.3,73h-0.1l-0.3,0.2l-0.2,0.2v0.1L94.1,76L94,76.4v0.3l0.3,1l0.1,0.1h0.1l0.1,0.1V78l-0.2,0.5
		L94,79.1l0,0l-0.3,0.3l-0.6,0.7l-1.5,0.8l-0.5,0.2l-0.4,0.2L90,81.4h-1.2l0,0l-0.1-0.2l-0.6-2.1l-0.9-5.5L86.9,71.4"/>
	<path id="Broward" inkscape:connector-curvature="0" class="st4" d="M86.1,66.9l6.7-1.1l0.6-0.1l2-0.2l0.2,4.4l-0.8,0.2l-0.4,0.1
		L94,70.3l-0.4,0.2l-1.7,0.4l-2.8,0.5l-1.2-0.1l-1.1,0.2L86.2,68L86.1,66.9"/>
	<path id="Palm_Beach" inkscape:connector-curvature="0" class="st4" d="M84.8,59.1l5.7-0.9h0.1l2.7-0.4l0.7-0.3l0.2,0.4l0.2,0.5
		l0.2,0.4l0.3,0.8l0.2,1.2l0.2,1.1l0.1,0.5l0.1,3v0.2l-2,0.2l-0.6,0.1L86.2,67L84.8,59.1"/>
	<path id="Sarasota" inkscape:connector-curvature="0" class="st2" d="M71,58.3l0.3,2.2L69,60.8l0.1,0.4l0.1,0.8l-1.4,0.1l-2-3.1
		l-0.1-0.2l-0.2-0.2l-0.1-0.2l-0.5-0.6l-0.3-0.3L64,56.9l4.5-0.6l0.3,2.2L71,58.3"/>
	<path id="DeSoto" inkscape:connector-curvature="0" class="st0" d="M76.3,55.5l0.6,3.9l-5.7,0.9l-0.6-3.9l2.2-0.3l1.2-0.2
		L76.3,55.5"/>
	<path id="Glades" inkscape:connector-curvature="0" class="st1" d="M83.6,56l1.2,3.1l-0.3,2.5L81.9,62l-4.5,0.7l-0.5-3.3l3.4-0.5
		l-0.2-1.1l1-1.3L83.6,56"/>
	<path id="Martin" inkscape:connector-curvature="0" class="st3" d="M92,54l2,3.5l-0.7,0.3l-2.7,0.3h-0.1l-5.7,1l1.9-3.5l3-0.5
		l1.5-0.2L91,54.1L92,54"/>
	<path id="St._Lucie" inkscape:connector-curvature="0" class="st2" d="M86,51.4l4.1-0.7l2,3.5l-1,0.2l0.1,0.7l-1.5,0.3l-3,0.5
		L86,51.4"/>
	<path id="Indian_River" inkscape:connector-curvature="0" class="st0" d="M83.2,48.1l4.1-0.7l0.6-0.5l0.1-0.1l2.1,3.6l-4.2,0.7
		l-1.1,0.2l-0.2-1.1l-1.1,0.2L83.2,48.1"/>
	<path id="Okeechobee" inkscape:connector-curvature="0" class="st0" d="M80.5,50.9l3.1-0.5l1.1-0.2l0.2,1.1l1.1-0.2l0.7,4.4
		l-1.9,3.6L83.6,56l-1-1l-1.1-0.9L80.3,52L80.5,50.9"/>
	<path id="Highlands" inkscape:connector-curvature="0" class="st1" d="M75.7,51.6l4.8-0.7L80.3,52l1.2,2.1l1.1,0.9l1,1L81,56.4
		l-1,1.3l0.2,1.1l-3.4,0.5l-0.6-3.9L75.7,51.6"/>
	<path id="Hardee" inkscape:connector-curvature="0" class="st1" d="M70.1,52.4l5.6-0.8l0.6,3.9l-2.1,0.3L73,56l-2.2,0.3L70.1,52.4"
		/>
	<path id="Manatee" inkscape:connector-curvature="0" class="st2" d="M64.5,53.6l5.7-0.8l0.6,3.9l0.2,1.7l-2.3,0.3l-0.3-2.3L63.9,57
		l-0.6-0.6l-0.4-0.7l0.3-0.1l0.4-0.3l0.8-1.2V54L64.5,53.6"/>
	<path id="Pinellas" inkscape:connector-curvature="0" class="st2" d="M62.5,47l0.4,2.6l-0.8,0.2l0,0v0.1l0.1,0.1l0.1,0.1l1.2,0.5
		l0.5-0.2l0.1,0.3l-0.3,0.8l-1,2.4l-0.6-0.8L61,50l0,0l0.1-0.7v-0.6L61,47.8l-0.1-0.2l-0.1-0.1l-0.2-0.2L62.5,47"/>
	<path id="Hillsborough" inkscape:connector-curvature="0" class="st2" d="M62.5,47l6.2-0.9l0.6-0.1l0.6,3.9l0.4,2.8l-5.7,0.8
		l1.1-1.7l0,0l0.3-0.6l0.1-0.3l-0.3-0.6l-0.2-0.2l-1.7-0.6h-0.4l-0.3,0.1l-0.3,0.1L62.5,47"/>
	<path id="Hernando" inkscape:connector-curvature="0" class="st0" d="M61.5,40.1l2.6-0.4l0.1,0.4l1.7-0.3v0.3l0.2,0.2l0.5,0.5
		l0.2,0.1l1.4,0.4l0.4,0.6l-2.2,0.3l0.1,0.6l-4.4,0.6l-0.4,0.1L61.5,40.1"/>
	<path id="Pasco" inkscape:connector-curvature="0" class="st0" d="M68.5,41.9l0.3,2.1l-0.3,1.9l-6.2,0.9l-1.7,0.3l1-3.5l0.4-0.1
		l4.4-0.6l-0.1-0.6L68.5,41.9"/>
	<path id="Osceola" inkscape:connector-curvature="0" class="st2" d="M73.4,43.2l8.9-1.4l0.2,1.3l0.3,2h-0.1l0.5,3.3l0.3,2.3
		l-3.1,0.5l-0.1-0.5l0.1-0.3l-0.6-0.8l-0.3-0.5L77,46.8l-0.8-0.6l-2.6-1.9L73.4,43.2"/>
	<path id="Polk" inkscape:connector-curvature="0" class="st0" d="M73.3,42.9l0.2,1.1l2.6,1.9l0.8,0.6l2.5,2.3l0.3,0.5l0.6,0.9
		l0.1,0.3l0.1,0.5l-4.8,0.6l-5.6,0.8l-0.4-2.7l-0.6-3.9l-0.6,0.1l0.3-1.9l1-0.6L73.3,42.9"/>
	<path id="Orange" inkscape:connector-curvature="0" class="st2" d="M75.2,37.2l-0.4,1v0.3l0.6,0.5l1.1,0.2l3.8-0.6l1.9,3.1
		l-8.9,1.4l-0.8-5.5l0.1-0.1h0.1h0.2L75.2,37.2"/>
	<path id="Seminole" inkscape:connector-curvature="0" class="st0" d="M75.1,37.2l0.3-1.3l0.6,0.5l1.5,0.3h0.2h0.1l0.4-0.2l0.1-0.3
		l0.8,0.7l0.4,0.5l0.7,1.1l-3.8,0.6l-1.1-0.2l-0.6-0.5v-0.3L75.1,37.2"/>
	<path id="Lake_FL" inkscape:connector-curvature="0" class="st0" d="M71.6,31.1l2.1,2l0.8,0.5l0.5,0.3l0.5,0.4l0,0l0.1,0.7
		l-0.1,0.7L75.2,37l-2.4,0.4h-0.2h-0.1l-0.1,0.1l0.8,5.5l-3.4,0.5l-1.1-7.9l3.3-0.5v-1.3L71.6,31.1"/>
	<path id="Sumter" inkscape:connector-curvature="0" class="st4" d="M64.7,36.2l4-0.6l1.1,7.8l-1,0.6l-0.3-2.1l-0.4-0.6L66.7,41
		l-0.2-0.1L66,40.4l-0.1-0.3v-0.3v-0.6v-0.1l0.1-0.2l0.2-0.3l0.2-0.1l0,0l0.3-0.4V38l-1.4-1.3L64.7,36.2"/>
	<path id="Citrus" inkscape:connector-curvature="0" class="st1" d="M62.1,35.5l2.7,0.7l0.5,0.6l1.4,1.3v0.1l-0.1,0.4l0,0l-0.2,0.1
		L66.2,39l-0.1,0.2v0.1v0.6l-2,0.2L64,39.7l-2.5,0.4l-0.2-1.9l-0.1-0.4l-0.1-0.2l-1.4-1.1l0.1-0.1l0.1-0.1l0.3-0.3l0.2-0.1h0.2
		l0.7,0.2l0.7-0.4L62.1,35.5L62.1,35.5"/>
	<path id="Levy" inkscape:connector-curvature="0" class="st1" d="M59.8,29.1l2.9,0.6l0.5,3.4l-1.5,0.2l0.3,2.2l0,0l-0.2,0.1
		l-0.6,0.5l-0.7-0.2h-0.2L60.1,36l-0.3,0.3l-0.1,0.1v0.1v-0.4l-0.1-0.3l-0.7-1.1l-0.3-0.1l-4-1.1l0.9-0.8l0.5-0.9l0.2-0.8l0.4-1.7
		L59.8,29.1"/>
	<path id="Marion" inkscape:connector-curvature="0" class="st0" d="M62.7,29.7l2-0.3l0.2,0.2v0.1l0.8,0.4l0.8-0.3l0.1-0.1l0,0
		l-0.1-0.4l0.3-0.3l0.2-0.1l0.8-0.3l1.8,0.1l0.3,0.7l0.6,0.7l0.5,0.5l0.5,0.5l0.4,2.7v1.3l-3.2,0.5l-4,0.6L62,35.5l-0.3-2.2l1.5-0.2
		L62.7,29.7"/>
	<path id="Volusia" inkscape:connector-curvature="0" class="st0" d="M71.1,30.5l2.6-1.4l0.2,0.3l0.3,1.4l0.9-0.2l0,0l2-0.4
		l-0.3-1.4l0.5-0.7l0.8,1.4l0.7,1.1l0.5,0.8l0.3,0.4l1.1,1.3l2.1,2.5l-2.7,0.5l0.4,2.2h-0.3l-0.7-1.1l-0.4-0.5l-0.8-0.6l-0.1,0.3
		l-0.4,0.2h-0.1h-0.2l-1.4-0.5l-0.6-0.5l0.1-0.7l-0.1-0.7l0,0L75,33.8l-0.5-0.3l-0.8-0.4l-2.1-2L71.1,30.5"/>
	<path id="Brevard" inkscape:connector-curvature="0" class="st0" d="M80.3,38.4h0.3l-0.5-2.3l2.6-0.4l2.1,2.2l0,0l0.1,0.1l0,0
		l0.8,1.5v0.1l-0.4,0.2l-0.1,0.1l-0.1,0.2v0.1l0,0v0.2v0.4v0.4v0.3l0.2,0.7l0.3,1l0.4,1l0.3,0.6l0.2,0.4l0.3,0.5l0,0l0.9,1.3
		l-0.1,0.1L87,47.6l-3.8,0.5l-0.5-3.3h0.1l-0.3-2l-0.2-1.3L80.3,38.4"/>
	<path id="Washington" inkscape:connector-curvature="0" class="st1" d="M22.7,18.9v-0.8l0.1-0.3l0.8-0.1l0.2,0.2v0.4l1.3-0.2
		l0.1-0.9v-0.1V17l1.1-0.1l0.9,0.5l0.3,2.8l-0.6,0.1l0.2,1.7l-0.7,0.1L23,22.4l-1.3,0.4l-0.2,0.3l0.4-0.8l0.4-1.9l-0.2-0.2L22,19.8
		l0.5-0.9H22.7"/>
	<path id="Holmes" inkscape:connector-curvature="0" class="st1" d="M20.2,15.4l5.9-0.7L25.2,17v0.1v0.1l-0.1,0.9l-1.3,0.1v-0.4
		l-0.2-0.2l-0.8,0.1l-0.1,0.4v0.8l-2.2,0.2L20.2,15.4"/>
	<path id="Walton" inkscape:connector-curvature="0" class="st0" d="M18.5,15.6l1.7-0.2l0.3,3.7l2.2-0.2L22.6,19l-0.5,0.9l0.1,0.4
		l0.2,0.2L22,22.4l-0.5,0.7l0.1,1.5L17,23.7l-0.7-7.9L18.5,15.6"/>
	<path id="Okaloosa" inkscape:connector-curvature="0" class="st0" d="M16.3,15.8l0.7,7.9l-4.5,0.4l-0.6-7.8l1.1-0.2L16.3,15.8"/>
	<path id="Santa_Rosa" inkscape:connector-curvature="0" class="st4" d="M7.8,16.6l4.1-0.4l0.6,7.8l-1.3,0.3l-1.8,0.3l-0.8-0.5
		l-1.4-2.5l-0.6-1.4l-0.1-0.4v-0.2l-0.1-1v-0.2l0.2-0.8l0.1-0.1l0.4-0.4L7.8,16.6"/>
	<path id="Escambia" inkscape:connector-curvature="0" class="st1" d="M3,17l4.8-0.5l-0.7,0.6l-0.5,0.5l-0.1,0.1l-0.2,0.8v0.2l0.1,1
		v0.2l0.2,0.5l0.6,1.4l1.4,2.5l0.8,0.5l1.8-0.3l-2.5,0.7H8.6H8.5l-0.4,0.1l-0.3,0.1l-0.4,0.1l-1.7,0.4l-1,0.3l0.7-0.3l0.1-1.4
		l0.2-2.9v-0.2v-0.2L5.6,21l-0.5-0.3l-0.4-0.2H4.5H4.4L4,20.3L2.9,19l-0.2-0.2L3,17"/>
	<path id="Calhoun" inkscape:connector-curvature="0" class="st1" d="M27.9,20.1l1.5-0.2l0.8-0.1l0.8-0.6l1.8-0.2l-0.5,1.2l-0.4,2.4
		l-0.5,1.9l-3,0.3L27.9,20.1"/>
	<path id="Gulf" inkscape:connector-curvature="0" class="st1" d="M28.4,24.8l3-0.3l1.3,2.8l0.1,1.8L32.2,30H32l-1,1l0.1,0.1l-1,0.1
		v-1.3v-0.1l-0.2-0.3l-0.6-0.8L29,28.4l0,0L28.4,24.8"/>
	<path id="Franklin" inkscape:connector-curvature="0" class="st1" d="M38.1,26.1l2.3,0.4l0.1,0.2v0.1v0.1l0,0V27l-0.1,0.2h-0.1
		L40,27.3l-0.5-0.1h-0.1l-0.1-0.1h-0.1l-0.6,0.2l-0.3,0.1l-1.6,1.3L36,29.3l-0.6,0.5l-0.7,0.3l-1.2,0.4L33,30.6l-0.4-0.1h-0.3
		l-0.2,0.1l-1,0.4l0.1-0.2l1-1h0.2l0.6-0.9l-0.1-1.8l0.1-0.6L38.1,26.1"/>
	<path id="Dixie" inkscape:connector-curvature="0" class="st1" d="M56.4,26.2l0.2,3l-0.4,1.7L56,31.7l-0.5,0.9l-0.9,0.8l-0.2-0.7
		L54,32.1l-0.2-0.3l-0.3-0.1h-0.3l-0.5-0.3l-0.9-0.5l-0.3-0.1v-0.1l-0.4-1.8l0.8-2.1L56.4,26.2"/>
	<path id="Gilchrist" inkscape:connector-curvature="0" class="st1" d="M56.7,25.3l0.8-0.7l1.8,1.1l0.5,3.4l-3.2,0.1l-0.2-3
		L56.7,25.3"/>
	<path id="Alachua" inkscape:connector-curvature="0" class="st2" d="M60.6,24.2l1.3,0.1l0.3,0.4h0.1l1.4,0.2h0.6l0.1-0.1h0.1
		l0.5,0.1h0.2l1,0.9l0.1,0.3v0.1l0.4,3.1l0.1,0.4l0,0l-0.1,0.1l-0.9,0.4L65,29.8v-0.1l-0.2-0.2l-2,0.3l-2.9-0.6l-0.5-3.4L60.6,24.2"
		/>
	<path id="Putnam" inkscape:connector-curvature="0" class="st1" d="M71.2,23.8l1.1,2.7l1.4,2.7l-2.6,1.4l-0.5-0.5L70,29.4l-0.3-0.8
		l-1.8-0.1l-0.8,0.3l-0.2,0.1l-0.3,0.3l-0.4-3.1h0.1l0.3-0.1l1-0.7v-0.2l0.1-0.1l1-0.7h0.2L71.2,23.8"/>
	<path id="Flagler" inkscape:connector-curvature="0" class="st2" d="M72.4,26.8l3.4-1.1l1.7,2.9L77,29.3l0.3,1.4l-2,0.4l0,0
		l-0.9,0.2l-0.3-1.4l-0.3-0.4L72.4,26.8"/>
	<path id="St._Johns" inkscape:connector-curvature="0" class="st2" d="M69.7,20.7l0.6-0.3h0.3l0.7,0.2l1.2-0.2l-0.3-1.9l0.6-0.1
		l1.3,3.5l0.9,2.3l0,0l0.1,0.3l0.1,0.2l0.5,0.8l-3.4,1.1l-1.1-2.7L69.7,20.7"/>
	<path id="Clay" inkscape:connector-curvature="0" class="st0" d="M69.6,20.4l1.6,3.4l-2.4,0.4h-0.2l-1,0.7v0.2v0.2l-1,0.7l-0.3,0.1
		l-0.8-5.4l-0.1-0.6l1.1-0.2l2.3-0.4l0.3-0.1h0.3L69.6,20.4"/>
	<path id="Bradford" inkscape:connector-curvature="0" class="st1" d="M64.4,20.9l1-0.2l0.8,5.4h-0.1V26L66,25.7l-1-0.9h-0.2
		l-0.5-0.1h-0.1l-0.1,0.1h-0.6l-1.4-0.2H62l-0.2-0.5l0.5-0.2l0.7-0.4l1.2-1.7l0.3-0.6v-0.1L64.4,20.9"/>
	<path id="Union" inkscape:connector-curvature="0" class="st1" d="M64.4,20.9l0.1,0.2v0.1l-0.3,0.6L63,23.5l-0.7,0.4l-0.5,0.2h-1.3
		l0.4-2.6L64.4,20.9"/>
	<path id="Suwannee" inkscape:connector-curvature="0" class="st1" d="M56.9,19.4l0.7,5.2l-0.9,0.7L56,24.5l-0.4-0.4L55.4,24
		l-1.1-0.7l-0.5-0.2L53.2,23v0.1H53h-0.3L52.6,23l-0.4-0.9L52,21.3v-0.1l0,0l0.6-1.7l0.1-0.5l0,0l0.3-0.2l0.4-0.1h0.9l0.6,0.1
		L56.9,19.4"/>
	<path id="Lafayette" inkscape:connector-curvature="0" class="st1" d="M52,21.1L52,21.1l-0.1,0.1l0.2,0.8l0.4,0.9l0.2,0.2l0.3,0.1
		l0.2-0.1V23l0.6,0.1l0.5,0.2l1.1,0.7l0.2,0.1l0.4,0.4l0.7,0.8l-0.3,0.9L52,26.8l-0.4,0.1L51.3,26l-0.6-4.7L52,21.1"/>
	<path id="Taylor" inkscape:connector-curvature="0" class="st1" d="M50.7,21.3l0.6,4.7l0.3,0.9l0.4-0.1l-0.8,2.1l-0.4-0.1l-1.1-0.4
		l-0.1-0.1l-0.1-0.1l-0.4-0.5v-0.1L49,27.4l-0.1-0.3l-0.6-0.7l-0.5-0.3L47.7,26l-1.2-0.5l-0.7-0.2l-1-0.5l-0.7-0.4l1.5-3l3.9-0.5
		l0.1,0.6L50.7,21.3"/>
	<path id="Wakulla" inkscape:connector-curvature="0" class="st0" d="M35.8,22.7l5.1-0.7l0.1,0.4l1.8-0.2l0.3,2.3l-1.9,0.3l-1,0.5
		L40,25.4v0.4l0.1,0.5l0,0l0.2,0.3l-2.2-0.5l-0.7-0.4l-0.3-0.2l-0.5-0.6l-1-1.7l0.1-0.3L35.8,22.7"/>
	<path id="Liberty" inkscape:connector-curvature="0" class="st1" d="M36.4,21.4l-0.6,1.2l-0.1,0.2l-0.2,0.3l1,1.7l0.5,0.6l0.3,0.2
		L38,26l-5.1,0.6l-0.1,0.6l-1.3-2.8l0.5-1.9l0.4-2.4l0.5-1.2L36.4,21.4"/>
	<path id="Gadsden" inkscape:connector-curvature="0" class="st1" d="M38.8,17.2l1.1-0.1l-0.5,1.2l-0.5,1.5l-0.1,0.1l-0.1,0.2
		l-0.2,0.1L37,20.9l-0.7,0.5L32.8,19l0.6-1.4l0,0L38.8,17.2"/>
	<path id="Leon" inkscape:connector-curvature="0" class="st2" d="M43,16.9l-0.1,2l-0.3,1.2l0.3,2.1l-1.8,0.2L41,22l-5.1,0.7
		l0.6-1.2l0.7-0.5l1.5-0.7v-0.2l0.2-0.1l0.1-0.1l0.5-1.5l0.5-1.2l2.2-0.2L43,16.9"/>
	<path id="Jefferson" inkscape:connector-curvature="0" class="st0" d="M45.9,16.7l1.5-0.1l0.1,0.2l0.1,0.7l-0.3,0.4l-0.9,1
		l-0.7,1.9l-0.1,0.6l-1.5,3h-1l-0.5-4.3l0.2-1.2l0.1-2L45.9,16.7"/>
	<path id="Madison" inkscape:connector-curvature="0" class="st1" d="M50.2,16.5h0.5l0.5,0.2l0.5,1.7L52,19l0.1,0.1l0.6,0.4L52,21.1
		l-1.3,0.2l-1.1,0.2l-0.1-0.6l-3.9,0.5l0.1-0.6l0.6-1.9l0.9-1l0.3-0.4l-0.1-0.7l-0.1-0.2L50.2,16.5"/>
	<path id="Hamilton" inkscape:connector-curvature="0" class="st1" d="M52.6,16.3l5-0.3l-0.3,0.5v0.2v0.4l0.2,0.3l0.6,0.7h0.2
		l0.1,0.3v0.1l-0.3,0.8L58,19.4l-0.6,0.3h-0.5v-0.1L55,18.9l-0.6-0.1h-0.9l-0.4,0.1l-0.3,0.2l0,0l-0.1,0.4l-0.6-0.4L52,19l-0.3-0.6
		l-0.5-1.7l-0.5-0.3L52.6,16.3"/>
	<path id="Columbia" inkscape:connector-curvature="0" class="st0" d="M58.7,15.9l1.4-0.1l0.8,5.7l-0.4,2.6l-1.2,1.6l-1.8-1.1
		l-0.7-5.2v0.1h0.5l0.6-0.3l0.1-0.1l0.3-0.8v-0.1v-0.1L58.2,18l-0.6-0.7L57.4,17v-0.4v-0.2l0.3-0.5H58.7"/>
	<path id="Baker" inkscape:connector-curvature="0" class="st1" d="M60.6,15.7l2.3-0.1l0.3,1.8l0.1,0.3l0.2,0.3l0.2,0.2h0.1l1.3-0.2
		l0.1,1.1l0.2,1.7l-1,0.2l-3.5,0.6l-0.8-5.7L60.6,15.7"/>
	<path id="Duval" inkscape:connector-curvature="0" class="st2" d="M65.3,19.4l2-2.8l0.9-1.3l0.2-0.2l0.1-0.1l0.8-0.3h1.3h0.2
		l0.7,0.7l0.2,0.1l0.2,0.2l0.3,1l0.2,0.7l0.1,0.5l0.1,0.4l0.1,0.3l-0.6,0.1l0.3,1.9l-1.2,0.2l-0.7-0.4h-0.3l-0.6,0.3l-0.1-0.9h-0.3
		l-0.3,0.1l-2.3,0.4l-1.1,0.2L65.3,19.4"/>
	<path id="Nassau" inkscape:connector-curvature="0" class="st2" d="M71.1,12.6l0.4,2.6l-0.7-0.6h-0.2h-1.3l-0.8,0.3L68.4,15
		l-0.2,0.2l-0.9,1.3l-2,2.8l-0.2-1.1l0.1-0.9l0.1-0.9v-0.9l-0.1-0.4l-0.4-0.5l-0.2-0.3V14l0.1-1.4l1.1-0.7l0.5,0.3l1.7,0.4l1.3,0.1
		H70l0.9-0.1L71.1,12.6"/>
	<g>
		<rect x="51" y="96.9" class="st4" width="8.9" height="3.3"/>
		<rect x="42.2" y="96.9" class="st3" width="8.9" height="3.3"/>
		<rect x="33.6" y="96.9" class="st2" width="8.9" height="3.3"/>
		<rect x="24.9" y="96.9" class="st0" width="8.9" height="3.3"/>
		<rect x="16.1" y="96.9" class="st1" width="8.9" height="3.3"/>
	</g>
</g>
<sodipodi:namedview  bordercolor="#666666" borderopacity="1" fit-margin-bottom="0" fit-margin-left="0" fit-margin-right="0" fit-margin-top="0" gridtolerance="10" guidetolerance="10" id="namedview3264" inkscape:current-layer="svg3258" inkscape:cx="8.4866449" inkscape:cy="38.066552" inkscape:pageopacity="0" inkscape:pageshadow="2" inkscape:window-height="716" inkscape:window-maximized="1" inkscape:window-width="1366" inkscape:window-x="-8" inkscape:window-y="-8" inkscape:zoom="4.5491794" objecttolerance="10" pagecolor="#ffffff" showgrid="false">
	</sodipodi:namedview>
<g>
	<path id="Bay_00000069381130966487529450000000113415727025389479_" inkscape:connector-curvature="0" class="st0" d="M122.2,20.1
		l0.5,4.7l0.4,3.5L122,28l-0.3-0.1l-0.1-0.1l-0.3-0.2l-0.4-0.4l-2.4-1.4l-0.2-0.1l-0.1-0.1l-0.1-0.1l-0.2-0.1l-0.4-0.2l-0.2-0.1
		h-0.2H117l-0.2-0.1l-0.2-0.1l-0.7-0.2l-0.1-1.6l0.3-0.3l1.2-0.5l3.4-0.3l0.7-0.1l-0.2-1.7l0.6-0.1L122.2,20.1"/>
	<path id="Jackson_00000070090075273441443830000001164817417416866696_" inkscape:connector-curvature="0" class="st0" d="
		M120.5,14.7l5.3-0.6l1.9,3.5l-0.6,1.4l-1.8,0.2l-0.8,0.6l-0.8,0.1l-1.5,0.2l-0.6,0.1l-0.3-2.8l-0.9-0.5l-1.1,0.1l0.9-2.3
		L120.5,14.7"/>
	<path id="Charlotte_00000155859307655048341610000006267681777215297437_" inkscape:connector-curvature="0" class="st0" d="
		M165.6,60.5l5.7-0.9l0.5,3.3l-5.7,0.8v-0.4l-0.1-0.7l-0.2-1v-0.1l-0.2-0.1l-0.4,0.1l-0.1,0.1l-0.5,0.5l-0.1,0.1l0.3,1.8v0.1
		l-0.5,0.1l-0.2-0.2l0,0l-0.1,0.1l-0.1,0.2h-0.2l-0.1-0.2l-0.1-0.2l0,0l0,0l-1.4-1.8l1.4-0.2l-0.1-0.8l-0.1-0.4L165.6,60.5"/>
	<path id="Lee_00000103979212509343055070000002674944937763336095_" inkscape:connector-curvature="0" class="st1" d="M163.9,65
		l1.3,2.4l0.2,0.1l0.2,0.1l0.7,0.2l0.1-0.2l0.2-0.1l0.6,0.1l0,0l-0.5,0.4l-0.1,0.1h-0.1h-0.2l-0.4-0.1l-0.6-0.3h-0.1h-0.1v-0.1
		l-1.2-2.2L163.9,65 M166,63.8l5.7-0.8l0.5,3.2l0.2,1.1l-0.9,1.5l-1.9,0.3l-0.3-0.1l-0.3-0.6l-0.6-0.5l-1.3-0.8l-1.3-1.9L166,63.8"
		/>
	<path id="Hendry_00000016761504424514152300000004467885543487371941_" inkscape:connector-curvature="0" class="st1" d="
		M171.6,62.7l4.5-0.7l2.6-0.4l0.3-2.5l1.3,7.9l0.2,0.9l-4.5,0.8l-0.4-2.1l-0.2-1.2L172,66L171.6,62.7"/>
	<path id="Collier_00000020372184020175892330000008363070856430203548_" inkscape:connector-curvature="0" class="st0" d="
		M180.5,67.9l0.6,3.5l0.4,2.2l-5.5,0.9v-0.2l-0.1-0.1l-0.5-0.3l-0.3-0.1H175l-1.1-0.2h-0.1l-1.3,0.3l-0.1,0.1l-0.1,0.1v0.1v0.2v0.2
		h-0.1l-0.2-0.1l-0.7-1l-1-1.7l-0.1-0.5l-0.2-0.4l-0.3-1l-0.2-0.8l-0.2-0.4l0,0l0.3,0.1l1.9-0.3l0.9-1.5l-0.2-1.1l3.4-0.6l0.2,1.2
		l0.4,2.1L180.5,67.9"/>
	<path id="Monroe_00000019643560192118694770000013449600149585838526_" inkscape:connector-curvature="0" class="st3" d="
		M185.5,84.8l-0.1,0.3l-0.5,0.4l-0.5,0.4l-0.5,0.2l0,0l0,0l0,0L184,86l0.6-0.6L185.5,84.8L185.5,84.8 M189.8,78.1L189.8,78.1
		l-0.2,0.4l-0.7,1.8v0.1l0.1,0.2l-0.1,0.2l-0.2,0.3l-1.8,2.5l-0.1,0.1l-0.9,0.9l0,0l0,0v-0.1l0.4-0.6l0.3-0.2l0.4-0.6l0.4-0.4
		l0.6-0.9l0.1-0.2l0.7-1.4l0.8-2L189.8,78.1 M182.6,87l-0.6,0.5l-0.7,0.5H181l-0.2-0.1l0,0l0,0l1-0.6l1.4-0.8l0,0l0.1,0.1l-0.1,0.1
		L182.6,87 M175.5,89.3L175.5,89.3l0.2-0.4l1.6-0.8l0.4,0.1l0.8,0.2l0.3,0.5l0,0h-0.1l-0.1,0.1l-0.1,0.1l-0.7,0.3l-4.5,1.6l-0.3,0.1
		l0,0v-0.2v-0.1l0.2-0.2l0.5-0.1h0.1l0.1,0.1h0.1l0.4-0.2l0.2-0.1l0.4-0.4L175.5,89.3 M181.5,73.6l0.9,5.5l0.5,2.1l0.1,0.2l0,0
		l-0.7,0.6l-0.9,0.4l-0.9,0.2l-0.2-0.1l-0.5-0.3l-0.1-0.1l-0.5-0.7v-0.3v-0.6V80v-0.1l0.1-0.1h0.1h0.2v-0.1v-0.1l-0.8-1.3l-1.3-2
		l-1.4-1.9L181.5,73.6"/>
	<path id="Miami-Dade_00000026142041656989334940000017059492057872608942_" inkscape:connector-curvature="0" class="st0" d="
		M189.8,78.1h-0.3l0.1-0.6L190,76l0.1-0.2h0.1l0.1,0.4l-0.2,0.9L189.8,78.1 M181.2,71.4l1.1-0.2l1.2,0.1l2.8-0.5l1.7-0.4l0.4-0.2
		l0.4-0.1l0.4-0.1l0.8-0.2l0,0l0.1,0.7l0.1,0.9v0.3v0.6l-0.1,0.3l-0.1,0.1l-0.2,0.2v0.2l-0.2-0.1h-0.1l-0.3,0.2l-0.2,0.2v0.1
		l-0.6,2.5l-0.1,0.4v0.3l0.3,1l0.1,0.1h0.1l0.1,0.1V78l-0.2,0.5l-0.4,0.6l0,0l-0.3,0.3l-0.6,0.7l-1.5,0.8l-0.5,0.2l-0.4,0.2
		l-0.7,0.1h-1.2l0,0l-0.1-0.2l-0.6-2.1l-0.9-5.5L181.2,71.4"/>
	<path id="Broward_00000111193437171119202370000005782314496162030745_" inkscape:connector-curvature="0" class="st0" d="
		M180.4,66.9l6.7-1.1l0.6-0.1l2-0.2l0.2,4.4l-0.8,0.2l-0.4,0.1l-0.4,0.1l-0.4,0.2l-1.7,0.4l-2.8,0.5l-1.2-0.1l-1.1,0.2l-0.6-3.5
		L180.4,66.9"/>
	<path id="Palm_Beach_00000180353514674695959920000003190368185334068926_" inkscape:connector-curvature="0" class="st2" d="
		M179.1,59.1l5.7-0.9h0.1l2.7-0.4l0.7-0.3l0.2,0.4l0.2,0.5l0.2,0.4l0.3,0.8l0.2,1.2l0.2,1.1l0.1,0.5l0.1,3v0.2l-2,0.2l-0.6,0.1
		l-6.7,1.1L179.1,59.1"/>
	<path id="Sarasota_00000061450342295586585530000010269722589497307784_" inkscape:connector-curvature="0" class="st2" d="
		M165.3,58.3l0.3,2.2l-2.3,0.3l0.1,0.4l0.1,0.8l-1.4,0.1l-2-3.1l-0.1-0.2l-0.2-0.2l-0.1-0.2l-0.5-0.6l-0.3-0.3l-0.6-0.6l4.5-0.6
		l0.3,2.2L165.3,58.3"/>
	<path id="DeSoto_00000119836486049316401620000011501753499779083159_" inkscape:connector-curvature="0" class="st0" d="
		M170.6,55.5l0.6,3.9l-5.7,0.9l-0.6-3.9l2.2-0.3l1.2-0.2L170.6,55.5"/>
	<path id="Glades_00000134231528307194675070000014509306962308093620_" inkscape:connector-curvature="0" class="st3" d="M177.9,56
		l1.2,3.1l-0.3,2.5l-2.6,0.4l-4.5,0.7l-0.5-3.3l3.4-0.5l-0.2-1.1l1-1.3L177.9,56"/>
	<path id="Martin_00000165194743331680931930000014254377400475015079_" inkscape:connector-curvature="0" class="st0" d="M186.3,54
		l2,3.5l-0.7,0.3l-2.7,0.3h-0.1l-5.7,1l1.9-3.5l3-0.5l1.5-0.2l-0.2-0.8L186.3,54"/>
	<path id="St._Lucie_00000097484830845945402400000011510387001898086033_" inkscape:connector-curvature="0" class="st1" d="
		M180.3,51.4l4.1-0.7l2,3.5l-1,0.2l0.1,0.7l-1.5,0.3l-3,0.5L180.3,51.4"/>
	<path id="Indian_River_00000013165728541757694540000017108626843830481567_" inkscape:connector-curvature="0" class="st0" d="
		M177.5,48.1l4.1-0.7l0.6-0.5l0.1-0.1l2.1,3.6l-4.2,0.7l-1.1,0.2l-0.2-1.1l-1.1,0.2L177.5,48.1"/>
	<path id="Okeechobee_00000181774814737125622440000006149687797155868546_" inkscape:connector-curvature="0" class="st1" d="
		M174.8,50.9l3.1-0.5l1.1-0.2l0.2,1.1l1.1-0.2l0.7,4.4l-1.9,3.6l-1.2-3.1l-1-1l-1.1-0.9l-1.2-2.1L174.8,50.9"/>
	<path id="Highlands_00000169552419595000741810000006386060234751463843_" inkscape:connector-curvature="0" class="st0" d="
		M170,51.6l4.8-0.7l-0.2,1.1l1.2,2.1l1.1,0.9l1,1l-2.6,0.4l-1,1.3l0.2,1.1l-3.4,0.5l-0.6-3.9L170,51.6"/>
	<path id="Hardee_00000051367437655075753830000013649390074301504154_" inkscape:connector-curvature="0" class="st0" d="
		M164.4,52.4l5.6-0.8l0.6,3.9l-2.1,0.3l-1.2,0.2l-2.2,0.3L164.4,52.4"/>
	<path id="Manatee_00000158017656150877970210000007860697683988814513_" inkscape:connector-curvature="0" class="st0" d="
		M158.8,53.6l5.7-0.8l0.6,3.9l0.2,1.7l-2.3,0.3l-0.3-2.3l-4.5,0.6l-0.6-0.6l-0.4-0.7l0.3-0.1l0.4-0.3l0.8-1.2V54L158.8,53.6"/>
	<path id="Pinellas_00000116234445973335062500000012208741319577568940_" inkscape:connector-curvature="0" class="st2" d="
		M156.8,47l0.4,2.6l-0.8,0.2l0,0v0.1l0.1,0.1l0.1,0.1l1.2,0.5l0.5-0.2l0.1,0.3l-0.3,0.8l-1,2.4l-0.6-0.8l-1.2-3.1l0,0l0.1-0.7v-0.6
		l-0.1-0.9l-0.1-0.2l-0.1-0.1l-0.2-0.2L156.8,47"/>
	<path id="Hillsborough_00000147218451241972706640000012567479034410215325_" inkscape:connector-curvature="0" class="st1" d="
		M156.8,47l6.2-0.9l0.6-0.1l0.6,3.9l0.4,2.8l-5.7,0.8l1.1-1.7l0,0l0.3-0.6l0.1-0.3l-0.3-0.6l-0.2-0.2l-1.7-0.6h-0.4l-0.3,0.1
		l-0.3,0.1L156.8,47"/>
	<path id="Hernando_00000013173690458203338640000004300895970759860358_" inkscape:connector-curvature="0" class="st1" d="
		M155.8,40.1l2.6-0.4l0.1,0.4l1.7-0.3v0.3l0.2,0.2l0.5,0.5l0.2,0.1l1.4,0.4l0.4,0.6l-2.2,0.3l0.1,0.6l-4.4,0.6l-0.4,0.1L155.8,40.1"
		/>
	<path id="Pasco_00000136413971561191663250000008340909371985624234_" inkscape:connector-curvature="0" class="st1" d="
		M162.8,41.9l0.3,2.1l-0.3,1.9l-6.2,0.9l-1.7,0.3l1-3.5l0.4-0.1l4.4-0.6l-0.1-0.6L162.8,41.9"/>
	<path id="Osceola_00000013186613984859291800000001369363673951185597_" inkscape:connector-curvature="0" class="st1" d="
		M167.7,43.2l8.9-1.4l0.2,1.3l0.3,2H177l0.5,3.3l0.3,2.3l-3.1,0.5l-0.1-0.5l0.1-0.3l-0.6-0.8l-0.3-0.5l-2.5-2.3l-0.8-0.6l-2.6-1.9
		L167.7,43.2"/>
	<path id="Polk_00000029729357732158395960000011576070630782161593_" inkscape:connector-curvature="0" class="st1" d="M167.6,42.9
		l0.2,1.1l2.6,1.9l0.8,0.6l2.5,2.3l0.3,0.5l0.6,0.9l0.1,0.3l0.1,0.5l-4.8,0.6l-5.6,0.8l-0.4-2.7l-0.6-3.9l-0.6,0.1l0.3-1.9l1-0.6
		L167.6,42.9"/>
	<path id="Orange_00000103973241914919663990000012461335510990097327_" inkscape:connector-curvature="0" class="st0" d="
		M169.5,37.2l-0.4,1v0.3l0.6,0.5l1.1,0.2l3.8-0.6l1.9,3.1l-8.9,1.4l-0.8-5.5l0.1-0.1h0.1h0.2L169.5,37.2"/>
	<path id="Seminole_00000121967842164898856250000006695661363233817015_" inkscape:connector-curvature="0" class="st1" d="
		M169.4,37.2l0.3-1.3l0.6,0.5l1.5,0.3h0.2h0.1l0.4-0.2l0.1-0.3l0.8,0.7l0.4,0.5l0.7,1.1l-3.8,0.6l-1.1-0.2l-0.6-0.5v-0.3L169.4,37.2
		"/>
	<path id="Lake_FL_00000174566693979968661110000012847677153452339889_" inkscape:connector-curvature="0" class="st1" d="
		M165.9,31.1l2.1,2l0.8,0.5l0.5,0.3l0.5,0.4l0,0l0.1,0.7l-0.1,0.7l-0.3,1.3l-2.4,0.4h-0.2h-0.1l-0.1,0.1l0.8,5.5l-3.4,0.5l-1.1-7.9
		l3.3-0.5v-1.3L165.9,31.1"/>
	<path id="Sumter_00000044169269545188970700000004577666783337377687_" inkscape:connector-curvature="0" class="st0" d="M159,36.2
		l4-0.6l1.1,7.8l-1,0.6l-0.3-2.1l-0.4-0.6L161,41l-0.2-0.1l-0.5-0.5l-0.1-0.3v-0.3v-0.6v-0.1l0.1-0.2l0.2-0.3l0.2-0.1l0,0l0.3-0.4
		V38l-1.4-1.3L159,36.2"/>
	<path id="Citrus_00000126291698387042650590000013323366111298493093_" inkscape:connector-curvature="0" class="st0" d="
		M156.4,35.5l2.7,0.7l0.5,0.6l1.4,1.3v0.1l-0.1,0.4l0,0l-0.2,0.1l-0.2,0.3l-0.1,0.2v0.1v0.6l-2,0.2l-0.1-0.4l-2.5,0.4l-0.2-1.9
		l-0.1-0.4l-0.1-0.2l-1.4-1.1l0.1-0.1l0.1-0.1l0.3-0.3l0.2-0.1h0.2l0.7,0.2l0.7-0.4L156.4,35.5L156.4,35.5"/>
	<path id="Levy_00000023241195461124540180000001091240554655743925_" inkscape:connector-curvature="0" class="st0" d="M154.1,29.1
		l2.9,0.6l0.5,3.4l-1.5,0.2l0.3,2.2l0,0l-0.2,0.1l-0.6,0.5l-0.7-0.2h-0.2l-0.2,0.1l-0.3,0.3l-0.1,0.1v0.1v-0.4l-0.1-0.3l-0.7-1.1
		l-0.3-0.1l-4-1.1l0.9-0.8l0.5-0.9l0.2-0.8l0.4-1.7L154.1,29.1"/>
	<path id="Marion_00000158732786158967645700000015107235141011477418_" inkscape:connector-curvature="0" class="st1" d="M157,29.7
		l2-0.3l0.2,0.2v0.1l0.8,0.4l0.8-0.3l0.1-0.1l0,0l-0.1-0.4l0.3-0.3l0.2-0.1l0.8-0.3l1.8,0.1l0.3,0.7l0.6,0.7l0.5,0.5l0.5,0.5
		l0.4,2.7v1.3l-3.2,0.5l-4,0.6l-2.7-0.7l-0.3-2.2l1.5-0.2L157,29.7"/>
	<path id="Volusia_00000181071857855521514690000012348464865387037058_" inkscape:connector-curvature="0" class="st1" d="
		M165.4,30.5l2.6-1.4l0.2,0.3l0.3,1.4l0.9-0.2l0,0l2-0.4l-0.3-1.4l0.5-0.7l0.8,1.4l0.7,1.1l0.5,0.8l0.3,0.4l1.1,1.3l2.1,2.5
		l-2.7,0.5l0.4,2.2h-0.3l-0.7-1.1l-0.4-0.5l-0.8-0.6l-0.1,0.3l-0.4,0.2H172h-0.2l-1.4-0.5l-0.6-0.5l0.1-0.7l-0.1-0.7l0,0l-0.5-0.4
		l-0.5-0.3l-0.8-0.4l-2.1-2L165.4,30.5"/>
	<path id="Brevard_00000176752047314076959950000005543831731028353166_" inkscape:connector-curvature="0" class="st1" d="
		M174.6,38.4h0.3l-0.5-2.3l2.6-0.4l2.1,2.2l0,0l0.1,0.1l0,0l0.8,1.5v0.1l-0.4,0.2l-0.1,0.1l-0.1,0.2v0.1l0,0v0.2v0.4v0.4v0.3
		l0.2,0.7l0.3,1l0.4,1l0.3,0.6l0.2,0.4l0.3,0.5l0,0L182,47l-0.1,0.1l-0.6,0.5l-3.8,0.5l-0.5-3.3h0.1l-0.3-2l-0.2-1.3L174.6,38.4"/>
	<path id="Washington_00000060711392032301625800000012541142435883713966_" inkscape:connector-curvature="0" class="st1" d="
		M117,18.9v-0.8l0.1-0.3l0.8-0.1l0.2,0.2v0.4l1.3-0.2l0.1-0.9v-0.1V17l1.1-0.1l0.9,0.5l0.3,2.8l-0.6,0.1l0.2,1.7l-0.7,0.1l-3.4,0.3
		l-1.3,0.4l-0.2,0.3l0.4-0.8l0.4-1.9l-0.2-0.2l-0.1-0.4l0.5-0.9H117"/>
	<path id="Holmes_00000172410146500338592520000017652464948099677851_" inkscape:connector-curvature="0" class="st0" d="
		M114.5,15.4l5.9-0.7l-0.9,2.3v0.1v0.1l-0.1,0.9l-1.3,0.1v-0.4l-0.2-0.2l-0.8,0.1l-0.1,0.4v0.8l-2.2,0.2L114.5,15.4"/>
	<path id="Walton_00000101796141630567321970000013345640775338850987_" inkscape:connector-curvature="0" class="st0" d="
		M112.8,15.6l1.7-0.2l0.3,3.7l2.2-0.2l-0.1,0.1l-0.5,0.9l0.1,0.4l0.2,0.2l-0.4,1.9l-0.5,0.7l0.1,1.5l-4.6-0.9l-0.7-7.9L112.8,15.6"
		/>
	<path id="Okaloosa_00000044177775096060986610000016671054224780824224_" inkscape:connector-curvature="0" class="st1" d="
		M110.6,15.8l0.7,7.9l-4.5,0.4l-0.6-7.8l1.1-0.2L110.6,15.8"/>
	<path id="Santa_Rosa_00000061437472099858201410000006478338506361993380_" inkscape:connector-curvature="0" class="st1" d="
		M102.1,16.6l4.1-0.4l0.6,7.8l-1.3,0.3l-1.8,0.3l-0.8-0.5l-1.4-2.5l-0.6-1.4l-0.1-0.4v-0.2l-0.1-1v-0.2l0.2-0.8l0.1-0.1l0.4-0.4
		L102.1,16.6"/>
	<path id="Escambia_00000121972269034652832360000008108963853817477047_" inkscape:connector-curvature="0" class="st1" d="
		M97.3,17l4.8-0.5l-0.7,0.6l-0.5,0.5l-0.1,0.1l-0.2,0.8v0.2l0.1,1v0.2l0.2,0.5l0.6,1.4l1.4,2.5l0.8,0.5l1.8-0.3l-2.5,0.7h-0.1h-0.1
		l-0.4,0.1l-0.3,0.1l-0.4,0.1l-1.7,0.4l-1,0.3l0.7-0.3l0.1-1.4l0.2-2.9v-0.2v-0.2L99.9,21l-0.5-0.3L99,20.5h-0.2h-0.1l-0.4-0.2
		L97.2,19L97,18.8L97.3,17"/>
	<path id="Calhoun_00000047764640950979258840000006008911437634287795_" inkscape:connector-curvature="0" class="st0" d="
		M122.2,20.1l1.5-0.2l0.8-0.1l0.8-0.6l1.8-0.2l-0.5,1.2l-0.4,2.4l-0.5,1.9l-3,0.3L122.2,20.1"/>
	<path id="Gulf_00000066500607662793516740000007417321200969875074_" inkscape:connector-curvature="0" class="st0" d="M122.7,24.8
		l3-0.3l1.3,2.8l0.1,1.8l-0.6,0.9h-0.2l-1,1l0.1,0.1l-1,0.1v-1.3v-0.1l-0.2-0.3l-0.6-0.8l-0.3-0.3l0,0L122.7,24.8"/>
	<path id="Franklin_00000088113692641028757780000004855430062253307839_" inkscape:connector-curvature="0" class="st3" d="
		M132.4,26.1l2.3,0.4l0.1,0.2v0.1v0.1l0,0V27l-0.1,0.2h-0.1l-0.3,0.1l-0.5-0.1h-0.1l-0.1-0.1h-0.1l-0.6,0.2l-0.3,0.1l-1.6,1.3
		l-0.7,0.6l-0.6,0.5l-0.7,0.3l-1.2,0.4l-0.5,0.1l-0.4-0.1h-0.3l-0.2,0.1l-1,0.4l0.1-0.2l1-1h0.2l0.6-0.9l-0.1-1.8l0.1-0.6
		L132.4,26.1"/>
	<path id="Dixie_00000144304431376305759610000017682020659115655307_" inkscape:connector-curvature="0" class="st0" d="
		M150.7,26.2l0.2,3l-0.4,1.7l-0.2,0.8l-0.5,0.9l-0.9,0.8l-0.2-0.7l-0.4-0.6l-0.2-0.3l-0.3-0.1h-0.3l-0.5-0.3l-0.9-0.5l-0.3-0.1v-0.1
		l-0.4-1.8l0.8-2.1L150.7,26.2"/>
	<path id="Gilchrist_00000068652489430405589880000006110493517546924212_" inkscape:connector-curvature="0" class="st0" d="
		M151,25.3l0.8-0.7l1.8,1.1l0.5,3.4l-3.2,0.1l-0.2-3L151,25.3"/>
	<path id="Alachua_00000115495184938568444250000013276089756731831970_" inkscape:connector-curvature="0" class="st0" d="
		M154.9,24.2l1.3,0.1l0.3,0.4h0.1l1.4,0.2h0.6l0.1-0.1h0.1l0.5,0.1h0.2l1,0.9l0.1,0.3v0.1l0.4,3.1l0.1,0.4l0,0l-0.1,0.1l-0.9,0.4
		l-0.8-0.4v-0.1l-0.2-0.2l-2,0.3l-2.9-0.6l-0.5-3.4L154.9,24.2"/>
	<path id="Putnam_00000016787514972874003880000006756186387817414320_" inkscape:connector-curvature="0" class="st0" d="
		M165.5,23.8l1.1,2.7l1.4,2.7l-2.6,1.4l-0.5-0.5l-0.6-0.7l-0.3-0.8l-1.8-0.1l-0.8,0.3l-0.2,0.1l-0.3,0.3l-0.4-3.1h0.1l0.3-0.1l1-0.7
		v-0.2L162,25l1-0.7h0.2L165.5,23.8"/>
	<path id="Flagler_00000109007889676112762680000001509297702900815801_" inkscape:connector-curvature="0" class="st1" d="
		M166.7,26.8l3.4-1.1l1.7,2.9l-0.5,0.7l0.3,1.4l-2,0.4l0,0l-0.9,0.2l-0.3-1.4l-0.3-0.4L166.7,26.8"/>
	<path id="St._Johns_00000166658839391643419680000016298135913518644919_" inkscape:connector-curvature="0" class="st1" d="
		M164,20.7l0.6-0.3h0.3l0.7,0.2l1.2-0.2l-0.3-1.9l0.6-0.1l1.3,3.5l0.9,2.3l0,0l0.1,0.3l0.1,0.2l0.5,0.8l-3.4,1.1l-1.1-2.7L164,20.7"
		/>
	<path id="Clay_00000170273706855123859300000000345017118685273487_" inkscape:connector-curvature="0" class="st1" d="M163.9,20.4
		l1.6,3.4l-2.4,0.4h-0.2l-1,0.7v0.2v0.2l-1,0.7l-0.3,0.1l-0.8-5.4l-0.1-0.6l1.1-0.2l2.3-0.4l0.3-0.1h0.3L163.9,20.4"/>
	<path id="Bradford_00000089553652816247121600000018327791001197174441_" inkscape:connector-curvature="0" class="st0" d="
		M158.7,20.9l1-0.2l0.8,5.4h-0.1V26l-0.1-0.3l-1-0.9h-0.2l-0.5-0.1h-0.1l-0.1,0.1h-0.6l-1.4-0.2h-0.1l-0.2-0.5l0.5-0.2l0.7-0.4
		l1.2-1.7l0.3-0.6v-0.1L158.7,20.9"/>
	<path id="Union_00000159428348485429133220000010180303675274454975_" inkscape:connector-curvature="0" class="st1" d="
		M158.7,20.9l0.1,0.2v0.1l-0.3,0.6l-1.2,1.7l-0.7,0.4l-0.5,0.2h-1.3l0.4-2.6L158.7,20.9"/>
	<path id="Suwannee_00000160890160544045095430000014695221994759357872_" inkscape:connector-curvature="0" class="st1" d="
		M151.2,19.4l0.7,5.2l-0.9,0.7l-0.7-0.8l-0.4-0.4l-0.2-0.1l-1.1-0.7l-0.5-0.2l-0.6-0.1v0.1h-0.2H147l-0.1-0.1l-0.4-0.9l-0.2-0.8
		v-0.1l0,0l0.6-1.7L147,19l0,0l0.3-0.2l0.4-0.1h0.9l0.6,0.1L151.2,19.4"/>
	<path id="Lafayette_00000062871394012883989950000001548564697883257500_" inkscape:connector-curvature="0" class="st0" d="
		M146.3,21.1L146.3,21.1l-0.1,0.1l0.2,0.8l0.4,0.9l0.2,0.2l0.3,0.1l0.2-0.1V23l0.6,0.1l0.5,0.2l1.1,0.7l0.2,0.1l0.4,0.4l0.7,0.8
		l-0.3,0.9l-4.4,0.6l-0.4,0.1l-0.3-0.9l-0.6-4.7L146.3,21.1"/>
	<path id="Taylor_00000162327278258297220100000005799810573739280775_" inkscape:connector-curvature="0" class="st0" d="M145,21.3
		l0.6,4.7l0.3,0.9l0.4-0.1l-0.8,2.1l-0.4-0.1l-1.1-0.4l-0.1-0.1l-0.1-0.1l-0.4-0.5v-0.1l-0.1-0.2l-0.1-0.3l-0.6-0.7l-0.5-0.3L142,26
		l-1.2-0.5l-0.7-0.2l-1-0.5l-0.7-0.4l1.5-3l3.9-0.5l0.1,0.6L145,21.3"/>
	<path id="Wakulla_00000042000162216026988000000004174839980141809820_" inkscape:connector-curvature="0" class="st1" d="
		M130.1,22.7l5.1-0.7l0.1,0.4l1.8-0.2l0.3,2.3l-1.9,0.3l-1,0.5l-0.2,0.1v0.4l0.1,0.5l0,0l0.2,0.3l-2.2-0.5l-0.7-0.4l-0.3-0.2
		l-0.5-0.6l-1-1.7l0.1-0.3L130.1,22.7"/>
	<path id="Liberty_00000086686445427269889620000005687098749173529475_" inkscape:connector-curvature="0" class="st0" d="
		M130.7,21.4l-0.6,1.2l-0.1,0.2l-0.2,0.3l1,1.7l0.5,0.6l0.3,0.2l0.7,0.4l-5.1,0.6l-0.1,0.6l-1.3-2.8l0.5-1.9l0.4-2.4l0.5-1.2
		L130.7,21.4"/>
	<path id="Gadsden_00000036217125806247458670000008461254367336116119_" inkscape:connector-curvature="0" class="st0" d="
		M133.1,17.2l1.1-0.1l-0.5,1.2l-0.5,1.5l-0.1,0.1l-0.1,0.2l-0.2,0.1l-1.5,0.7l-0.7,0.5l-3.5-2.4l0.6-1.4l0,0L133.1,17.2"/>
	<path id="Leon_00000071519164445031294130000000914167314237216189_" inkscape:connector-curvature="0" class="st1" d="M137.3,16.9
		l-0.1,2l-0.3,1.2l0.3,2.1l-1.8,0.2l-0.1-0.4l-5.1,0.7l0.6-1.2l0.7-0.5l1.5-0.7v-0.2l0.2-0.1l0.1-0.1l0.5-1.5l0.5-1.2l2.2-0.2
		L137.3,16.9"/>
	<path id="Jefferson_00000013188903610846190480000007424677628753959553_" inkscape:connector-curvature="0" class="st4" d="
		M140.2,16.7l1.5-0.1l0.1,0.2l0.1,0.7l-0.3,0.4l-0.9,1l-0.7,1.9l-0.1,0.6l-1.5,3h-1l-0.5-4.3l0.2-1.2l0.1-2L140.2,16.7"/>
	<path id="Madison_00000171712998603243540430000015627562245097781640_" inkscape:connector-curvature="0" class="st0" d="
		M144.5,16.5h0.5l0.5,0.2l0.5,1.7l0.3,0.6l0.1,0.1l0.6,0.4l-0.7,1.6l-1.3,0.2l-1.1,0.2l-0.1-0.6l-3.9,0.5l0.1-0.6l0.6-1.9l0.9-1
		l0.3-0.4l-0.1-0.7l-0.1-0.2L144.5,16.5"/>
	<path id="Hamilton_00000072266709202985915220000008122121994934380969_" inkscape:connector-curvature="0" class="st0" d="
		M146.9,16.3l5-0.3l-0.3,0.5v0.2v0.4l0.2,0.3l0.6,0.7h0.2l0.1,0.3v0.1l-0.3,0.8l-0.1,0.1l-0.6,0.3h-0.5v-0.1l-1.9-0.7l-0.6-0.1h-0.9
		l-0.4,0.1l-0.3,0.2l0,0l-0.1,0.4l-0.6-0.4l-0.1-0.1l-0.3-0.6l-0.5-1.7l-0.5-0.3L146.9,16.3"/>
	<path id="Columbia_00000168086094484260379450000002440776421214597506_" inkscape:connector-curvature="0" class="st1" d="
		M153,15.9l1.4-0.1l0.8,5.7l-0.4,2.6l-1.2,1.6l-1.8-1.1l-0.7-5.2v0.1h0.5l0.6-0.3l0.1-0.1l0.3-0.8v-0.1v-0.1l-0.1-0.1l-0.6-0.7
		l-0.2-0.3v-0.4v-0.2l0.3-0.5H153"/>
	<path id="Baker_00000173141837584592460320000016159903758954187686_" inkscape:connector-curvature="0" class="st1" d="
		M154.9,15.7l2.3-0.1l0.3,1.8l0.1,0.3l0.2,0.3l0.2,0.2h0.1l1.3-0.2l0.1,1.1l0.2,1.7l-1,0.2l-3.5,0.6l-0.8-5.7L154.9,15.7"/>
	<path id="Duval_00000002374776375113648650000012709420618709645203_" inkscape:connector-curvature="0" class="st1" d="
		M159.6,19.4l2-2.8l0.9-1.3l0.2-0.2l0.1-0.1l0.8-0.3h1.3h0.2l0.7,0.7l0.2,0.1l0.2,0.2l0.3,1l0.2,0.7l0.1,0.5l0.1,0.4l0.1,0.3
		l-0.6,0.1l0.3,1.9l-1.2,0.2l-0.7-0.4h-0.3l-0.6,0.3l-0.1-0.9h-0.3l-0.3,0.1l-2.3,0.4l-1.1,0.2L159.6,19.4"/>
	<path id="Nassau_00000141454447839045343180000011996040243870982548_" inkscape:connector-curvature="0" class="st1" d="
		M165.4,12.6l0.4,2.6l-0.7-0.6h-0.2h-1.3l-0.8,0.3l-0.1,0.1l-0.2,0.2l-0.9,1.3l-2,2.8l-0.2-1.1l0.1-0.9l0.1-0.9v-0.9l-0.1-0.4
		l-0.4-0.5l-0.2-0.3V14l0.1-1.4l1.1-0.7l0.5,0.3l1.7,0.4l1.3,0.1h0.7l0.9-0.1H165.4"/>
</g>
<g>
	<path d="M13.3,100.6v-0.4c-0.2,0-0.3-0.1-0.4-0.1s-0.2-0.1-0.3-0.3s-0.1-0.3-0.1-0.5l0.4-0.1c0,0.2,0.1,0.3,0.1,0.4
		c0.1,0.1,0.2,0.2,0.4,0.2v-1.1c-0.1,0-0.3-0.1-0.4-0.2c-0.1-0.1-0.2-0.1-0.3-0.3s-0.1-0.2-0.1-0.4c0-0.2,0.1-0.5,0.3-0.6
		c0.1-0.1,0.3-0.2,0.5-0.2v-0.2h0.2v0.2c0.2,0,0.4,0.1,0.5,0.2c0.2,0.1,0.2,0.3,0.3,0.5L13.9,98c0-0.1-0.1-0.2-0.1-0.3
		s-0.2-0.1-0.3-0.1v1c0.2,0,0.3,0.1,0.4,0.1c0.1,0,0.2,0.1,0.3,0.2s0.1,0.2,0.2,0.2s0.1,0.2,0.1,0.3c0,0.2-0.1,0.4-0.2,0.6
		s-0.4,0.2-0.6,0.3v0.4H13.3z M13.3,97.5c-0.1,0-0.2,0.1-0.3,0.2s-0.1,0.2-0.1,0.3c0,0.1,0,0.2,0.1,0.3s0.2,0.1,0.3,0.2V97.5z
		 M13.5,100c0.1,0,0.2-0.1,0.3-0.2s0.1-0.2,0.1-0.4c0-0.1,0-0.2-0.1-0.3s-0.2-0.1-0.4-0.2V100z"/>
</g>
<g>
	<path d="M62.3,100.6v-0.4c-0.2,0-0.3-0.1-0.4-0.1s-0.2-0.1-0.3-0.3s-0.1-0.3-0.1-0.5l0.4-0.1c0,0.2,0.1,0.3,0.1,0.4
		c0.1,0.1,0.2,0.2,0.4,0.2v-1.1c-0.1,0-0.3-0.1-0.4-0.2c-0.1-0.1-0.2-0.1-0.3-0.3s-0.1-0.2-0.1-0.4c0-0.2,0.1-0.5,0.3-0.6
		c0.1-0.1,0.3-0.2,0.5-0.2v-0.2h0.2v0.2c0.2,0,0.4,0.1,0.5,0.2c0.2,0.1,0.2,0.3,0.3,0.5L63,98c0-0.1-0.1-0.2-0.1-0.3
		s-0.2-0.1-0.3-0.1v1c0.2,0,0.3,0.1,0.4,0.1c0.1,0,0.2,0.1,0.3,0.2s0.1,0.2,0.2,0.2s0.1,0.2,0.1,0.3c0,0.2-0.1,0.4-0.2,0.6
		s-0.4,0.2-0.6,0.3v0.4H62.3z M62.3,97.5c-0.1,0-0.2,0.1-0.3,0.2s-0.1,0.2-0.1,0.3c0,0.1,0,0.2,0.1,0.3s0.2,0.1,0.3,0.2V97.5z
		 M62.6,100c0.1,0,0.2-0.1,0.3-0.2s0.1-0.2,0.1-0.4c0-0.1,0-0.2-0.1-0.3s-0.2-0.1-0.4-0.2V100z"/>
	<path d="M64.6,100.6v-0.4c-0.2,0-0.3-0.1-0.4-0.1s-0.2-0.1-0.3-0.3s-0.1-0.3-0.1-0.5l0.4-0.1c0,0.2,0.1,0.3,0.1,0.4
		c0.1,0.1,0.2,0.2,0.4,0.2v-1.1c-0.1,0-0.3-0.1-0.4-0.2c-0.1-0.1-0.2-0.1-0.3-0.3s-0.1-0.2-0.1-0.4c0-0.2,0.1-0.5,0.3-0.6
		c0.1-0.1,0.3-0.2,0.5-0.2v-0.2h0.2v0.2c0.2,0,0.4,0.1,0.5,0.2c0.2,0.1,0.2,0.3,0.3,0.5L65.2,98c0-0.1-0.1-0.2-0.1-0.3
		s-0.2-0.1-0.3-0.1v1c0.2,0,0.3,0.1,0.4,0.1c0.1,0,0.2,0.1,0.3,0.2s0.1,0.2,0.2,0.2s0.1,0.2,0.1,0.3c0,0.2-0.1,0.4-0.2,0.6
		s-0.4,0.2-0.6,0.3v0.4H64.6z M64.6,97.5c-0.1,0-0.2,0.1-0.3,0.2s-0.1,0.2-0.1,0.3c0,0.1,0,0.2,0.1,0.3s0.2,0.1,0.3,0.2V97.5z
		 M64.8,100c0.1,0,0.2-0.1,0.3-0.2s0.1-0.2,0.1-0.4c0-0.1,0-0.2-0.1-0.3S65,99,64.8,98.9V100z"/>
	<path d="M66.8,100.6v-0.4c-0.2,0-0.3-0.1-0.4-0.1s-0.2-0.1-0.3-0.3s-0.1-0.3-0.1-0.5l0.4-0.1c0,0.2,0.1,0.3,0.1,0.4
		c0.1,0.1,0.2,0.2,0.4,0.2v-1.1c-0.1,0-0.3-0.1-0.4-0.2c-0.1-0.1-0.2-0.1-0.3-0.3S66,98.2,66,98.1c0-0.2,0.1-0.5,0.3-0.6
		c0.1-0.1,0.3-0.2,0.5-0.2v-0.2H67v0.2c0.2,0,0.4,0.1,0.5,0.2c0.2,0.1,0.2,0.3,0.3,0.5L67.4,98c0-0.1-0.1-0.2-0.1-0.3
		s-0.2-0.1-0.3-0.1v1c0.2,0,0.3,0.1,0.4,0.1c0.1,0,0.2,0.1,0.3,0.2s0.1,0.2,0.2,0.2s0.1,0.2,0.1,0.3c0,0.2-0.1,0.4-0.2,0.6
		s-0.4,0.2-0.6,0.3v0.4H66.8z M66.8,97.5c-0.1,0-0.2,0.1-0.3,0.2s-0.1,0.2-0.1,0.3c0,0.1,0,0.2,0.1,0.3s0.2,0.1,0.3,0.2V97.5z
		 M67,100c0.1,0,0.2-0.1,0.3-0.2s0.1-0.2,0.1-0.4c0-0.1,0-0.2-0.1-0.3S67.2,99,67,98.9V100z"/>
</g>
<g>
	<path d="M13.6,9.1H13l-0.2-0.6h-0.9l-0.2,0.6h-0.5l0.9-2.9h0.5L13.6,9.1z M12.7,8l-0.3-1.1L12,8H12.7z"/>
	<path d="M14.2,9.1l-0.7-2.1h0.5l0.3,1.1l0.1,0.4l0.1-0.4l0.3-1.1h0.5l-0.7,2.1H14.2z"/>
	<path d="M16.5,8.5l0.4,0.1c-0.1,0.2-0.2,0.4-0.3,0.5s-0.3,0.2-0.5,0.2c-0.3,0-0.4-0.1-0.6-0.3c-0.2-0.2-0.2-0.5-0.2-0.8
		c0-0.3,0.1-0.6,0.2-0.8C15.8,7.1,15.9,7,16.2,7c0.2,0,0.4,0.1,0.6,0.3C16.9,7.5,17,7.8,17,8.2l0,0.1h-1.1c0,0.2,0,0.3,0.1,0.4
		c0.1,0.1,0.2,0.1,0.3,0.1C16.4,8.8,16.4,8.7,16.5,8.5z M16.5,7.9c0-0.2,0-0.3-0.1-0.4s-0.1-0.1-0.2-0.1c-0.1,0-0.2,0-0.2,0.1
		c-0.1,0.1-0.1,0.2-0.1,0.4H16.5z"/>
	<path d="M17.8,9.1h-0.5V7.1h0.4v0.3c0.1-0.1,0.1-0.2,0.2-0.3S18,7,18.1,7c0.1,0,0.2,0,0.3,0.1l-0.1,0.5c-0.1-0.1-0.1-0.1-0.2-0.1
		c-0.1,0-0.1,0-0.2,0.1s-0.1,0.1-0.1,0.3c0,0.1,0,0.3,0,0.7V9.1z"/>
	<path d="M18.9,7.7l-0.4-0.1c0-0.2,0.1-0.4,0.2-0.5S19.1,7,19.3,7c0.2,0,0.3,0,0.4,0.1c0.1,0.1,0.2,0.1,0.2,0.2
		C20,7.4,20,7.6,20,7.8l0,0.6c0,0.2,0,0.3,0,0.4c0,0.1,0,0.2,0.1,0.3h-0.4l-0.1-0.2c-0.1,0.1-0.2,0.2-0.2,0.2s-0.2,0.1-0.3,0.1
		c-0.2,0-0.3-0.1-0.4-0.2c-0.1-0.1-0.2-0.3-0.2-0.4c0-0.1,0-0.2,0.1-0.3s0.1-0.2,0.2-0.2s0.2-0.1,0.4-0.1c0.2,0,0.4-0.1,0.4-0.1
		c0-0.1,0-0.2,0-0.2c0,0,0-0.1-0.1-0.1c0,0-0.1,0-0.2,0c-0.1,0-0.1,0-0.2,0.1S19,7.6,18.9,7.7z M19.5,8.1c-0.1,0-0.1,0.1-0.3,0.1
		c-0.1,0-0.2,0.1-0.3,0.1s-0.1,0.1-0.1,0.2c0,0.1,0,0.1,0.1,0.2c0,0.1,0.1,0.1,0.2,0.1c0.1,0,0.1,0,0.2-0.1c0.1,0,0.1-0.1,0.1-0.2
		s0-0.2,0-0.3V8.1z"/>
	<path d="M20.4,9.3l0.5,0.1c0,0.1,0,0.1,0.1,0.2s0.1,0,0.2,0c0.1,0,0.2,0,0.2,0c0,0,0.1-0.1,0.1-0.1s0-0.2,0-0.3V8.8
		c-0.1,0.1-0.1,0.2-0.2,0.3S21.1,9.1,21,9.1c-0.2,0-0.3-0.1-0.5-0.3c-0.1-0.2-0.2-0.5-0.2-0.8c0-0.4,0.1-0.6,0.2-0.8
		C20.7,7.1,20.9,7,21,7c0.1,0,0.2,0,0.3,0.1s0.2,0.1,0.2,0.3V7.1H22v1.9c0,0.3,0,0.5-0.1,0.6s-0.1,0.2-0.3,0.3S21.4,10,21.2,10
		c-0.2,0-0.3,0-0.4-0.1s-0.2-0.1-0.3-0.2S20.4,9.5,20.4,9.3L20.4,9.3z M20.8,8.1c0,0.2,0,0.4,0.1,0.5c0.1,0.1,0.2,0.2,0.3,0.2
		c0.1,0,0.2-0.1,0.3-0.2c0.1-0.1,0.1-0.3,0.1-0.5c0-0.2,0-0.4-0.1-0.5c-0.1-0.1-0.2-0.2-0.3-0.2c-0.1,0-0.2,0.1-0.3,0.2
		C20.8,7.7,20.8,7.8,20.8,8.1z"/>
	<path d="M23.4,8.5l0.4,0.1c-0.1,0.2-0.2,0.4-0.3,0.5s-0.3,0.2-0.5,0.2c-0.3,0-0.4-0.1-0.6-0.3c-0.2-0.2-0.2-0.5-0.2-0.8
		c0-0.3,0.1-0.6,0.2-0.8C22.7,7.1,22.9,7,23.1,7c0.2,0,0.4,0.1,0.6,0.3c0.2,0.2,0.2,0.5,0.2,0.9l0,0.1h-1.1c0,0.2,0,0.3,0.1,0.4
		c0.1,0.1,0.2,0.1,0.3,0.1C23.3,8.8,23.4,8.7,23.4,8.5z M23.4,7.9c0-0.2,0-0.3-0.1-0.4s-0.1-0.1-0.2-0.1c-0.1,0-0.2,0-0.2,0.1
		c-0.1,0.1-0.1,0.2-0.1,0.4H23.4z"/>
	<path d="M25.2,9.1V6.3h0.8c0.3,0,0.5,0,0.6,0c0.1,0,0.3,0.1,0.3,0.3S27,6.9,27,7.2c0,0.2,0,0.4-0.1,0.5S26.7,7.9,26.6,8
		S26.2,8.1,26,8.1h-0.3v1.1H25.2z M25.6,6.8v0.8h0.3c0.2,0,0.3,0,0.4,0s0.1-0.1,0.2-0.1c0-0.1,0.1-0.1,0.1-0.2c0-0.1,0-0.2-0.1-0.2
		c0-0.1-0.1-0.1-0.2-0.1c-0.1,0-0.2,0-0.4,0H25.6z"/>
	<path d="M27.8,9.1h-0.5V7.1h0.4v0.3c0.1-0.1,0.1-0.2,0.2-0.3S28.1,7,28.1,7c0.1,0,0.2,0,0.3,0.1l-0.1,0.5c-0.1-0.1-0.1-0.1-0.2-0.1
		c-0.1,0-0.1,0-0.2,0.1s-0.1,0.1-0.1,0.3c0,0.1,0,0.3,0,0.7V9.1z"/>
	<path d="M28.5,8.1c0-0.2,0-0.4,0.1-0.6s0.2-0.3,0.3-0.4C29.1,7.1,29.2,7,29.4,7c0.3,0,0.5,0.1,0.6,0.3c0.2,0.2,0.2,0.5,0.2,0.8
		c0,0.2,0,0.4-0.1,0.6C30.1,8.8,30,9,29.8,9.1c-0.1,0.1-0.3,0.1-0.4,0.1c-0.3,0-0.5-0.1-0.6-0.3S28.5,8.4,28.5,8.1z M29,8.1
		c0,0.2,0,0.4,0.1,0.5c0.1,0.1,0.2,0.2,0.3,0.2c0.1,0,0.2-0.1,0.3-0.2c0.1-0.1,0.1-0.3,0.1-0.5c0-0.2,0-0.4-0.1-0.5
		c-0.1-0.1-0.2-0.2-0.3-0.2c-0.1,0-0.2,0.1-0.3,0.2S29,7.9,29,8.1z"/>
	<path d="M30.6,7.1H31v0.3c0.1-0.1,0.1-0.2,0.2-0.3C31.4,7,31.5,7,31.6,7c0.2,0,0.4,0.1,0.5,0.3s0.2,0.4,0.2,0.8
		c0,0.4-0.1,0.6-0.2,0.8s-0.3,0.3-0.5,0.3c-0.1,0-0.2,0-0.3-0.1S31.2,9,31.1,8.9v1h-0.5V7.1z M31.1,8.1c0,0.2,0,0.4,0.1,0.5
		c0.1,0.1,0.2,0.2,0.3,0.2c0.1,0,0.2-0.1,0.3-0.2c0.1-0.1,0.1-0.3,0.1-0.5c0-0.2,0-0.4-0.1-0.5c-0.1-0.1-0.2-0.2-0.3-0.2
		c-0.1,0-0.2,0.1-0.3,0.2S31.1,7.9,31.1,8.1z"/>
	<path d="M33.6,8.5l0.4,0.1C34,8.8,33.9,8.9,33.8,9s-0.3,0.2-0.5,0.2c-0.3,0-0.4-0.1-0.6-0.3c-0.2-0.2-0.2-0.5-0.2-0.8
		c0-0.3,0.1-0.6,0.2-0.8C32.9,7.1,33.1,7,33.3,7c0.2,0,0.4,0.1,0.6,0.3c0.2,0.2,0.2,0.5,0.2,0.9l0,0.1H33c0,0.2,0,0.3,0.1,0.4
		c0.1,0.1,0.2,0.1,0.3,0.1C33.5,8.8,33.6,8.7,33.6,8.5z M33.7,7.9c0-0.2,0-0.3-0.1-0.4s-0.1-0.1-0.2-0.1c-0.1,0-0.2,0-0.2,0.1
		C33,7.6,33,7.8,33,7.9H33.7z"/>
	<path d="M34.9,9.1h-0.5V7.1h0.4v0.3c0.1-0.1,0.1-0.2,0.2-0.3S35.2,7,35.3,7c0.1,0,0.2,0,0.3,0.1l-0.1,0.5c-0.1-0.1-0.1-0.1-0.2-0.1
		c-0.1,0-0.1,0-0.2,0.1S35,7.7,34.9,7.8c0,0.1,0,0.3,0,0.7V9.1z"/>
	<path d="M36.5,7.1v0.4h-0.3v0.8c0,0.2,0,0.3,0,0.3c0,0.1,0.1,0.1,0.1,0.1c0,0,0.1,0,0.2-0.1l0,0.4c-0.1,0.1-0.2,0.1-0.4,0.1
		c-0.1,0-0.2,0-0.3-0.1S35.8,9,35.8,8.9c0-0.1,0-0.2,0-0.5V7.5h-0.2V7.1h0.2V6.6l0.5-0.3v0.7H36.5z"/>
	<path d="M36.6,7.1h0.5l0.4,1.5l0.4-1.5h0.5l-0.6,2l-0.1,0.4c-0.1,0.1-0.1,0.3-0.2,0.3c0,0.1-0.1,0.1-0.2,0.2S37.1,10,37,10
		c-0.1,0-0.2,0-0.3,0l0-0.4c0.1,0,0.1,0,0.2,0c0.1,0,0.2,0,0.2-0.1c0.1-0.1,0.1-0.2,0.1-0.3L36.6,7.1z"/>
	<path d="M40.1,9.1V6.8h-0.7V6.3h1.9v0.5h-0.7v2.4H40.1z"/>
	<path d="M41.7,7.7l-0.4-0.1c0-0.2,0.1-0.4,0.2-0.5S41.8,7,42,7c0.2,0,0.3,0,0.4,0.1c0.1,0.1,0.2,0.1,0.2,0.2c0,0.1,0.1,0.3,0.1,0.5
		l0,0.6c0,0.2,0,0.3,0,0.4c0,0.1,0,0.2,0.1,0.3h-0.4l-0.1-0.2c-0.1,0.1-0.2,0.2-0.2,0.2s-0.2,0.1-0.3,0.1c-0.2,0-0.3-0.1-0.4-0.2
		c-0.1-0.1-0.2-0.3-0.2-0.4c0-0.1,0-0.2,0.1-0.3s0.1-0.2,0.2-0.2s0.2-0.1,0.4-0.1c0.2,0,0.4-0.1,0.4-0.1c0-0.1,0-0.2,0-0.2
		c0,0,0-0.1-0.1-0.1c0,0-0.1,0-0.2,0c-0.1,0-0.1,0-0.2,0.1S41.7,7.6,41.7,7.7z M42.3,8.1c-0.1,0-0.1,0.1-0.3,0.1
		c-0.1,0-0.2,0.1-0.3,0.1s-0.1,0.1-0.1,0.2c0,0.1,0,0.1,0.1,0.2c0,0.1,0.1,0.1,0.2,0.1c0.1,0,0.1,0,0.2-0.1c0.1,0,0.1-0.1,0.1-0.2
		s0-0.2,0-0.3V8.1z"/>
	<path d="M42.9,9.1l0.6-1.1l-0.6-1h0.6l0.3,0.5l0.3-0.5h0.5l-0.6,1l0.6,1.1h-0.6l-0.3-0.6l-0.3,0.6H42.9z"/>
	<path d="M45.9,9.1V6.3h0.8c0.3,0,0.5,0,0.6,0c0.1,0,0.3,0.1,0.3,0.3s0.1,0.3,0.1,0.6c0,0.2,0,0.4-0.1,0.5S47.4,7.9,47.3,8
		S47,8.1,46.7,8.1h-0.3v1.1H45.9z M46.4,6.8v0.8h0.3c0.2,0,0.3,0,0.4,0s0.1-0.1,0.2-0.1c0-0.1,0.1-0.1,0.1-0.2c0-0.1,0-0.2-0.1-0.2
		c0-0.1-0.1-0.1-0.2-0.1c-0.1,0-0.2,0-0.4,0H46.4z"/>
	<path d="M48.4,7.7L48,7.6c0-0.2,0.1-0.4,0.2-0.5S48.5,7,48.7,7c0.2,0,0.3,0,0.4,0.1c0.1,0.1,0.2,0.1,0.2,0.2c0,0.1,0.1,0.3,0.1,0.5
		l0,0.6c0,0.2,0,0.3,0,0.4c0,0.1,0,0.2,0.1,0.3h-0.4l-0.1-0.2C49,9,48.9,9.1,48.8,9.1s-0.2,0.1-0.3,0.1c-0.2,0-0.3-0.1-0.4-0.2
		C48,8.9,48,8.8,48,8.6c0-0.1,0-0.2,0.1-0.3s0.1-0.2,0.2-0.2s0.2-0.1,0.4-0.1c0.2,0,0.4-0.1,0.4-0.1c0-0.1,0-0.2,0-0.2
		c0,0,0-0.1-0.1-0.1c0,0-0.1,0-0.2,0c-0.1,0-0.1,0-0.2,0.1S48.4,7.6,48.4,7.7z M49,8.1c-0.1,0-0.1,0.1-0.3,0.1
		c-0.1,0-0.2,0.1-0.3,0.1s-0.1,0.1-0.1,0.2c0,0.1,0,0.1,0.1,0.2c0,0.1,0.1,0.1,0.2,0.1c0.1,0,0.1,0,0.2-0.1c0.1,0,0.1-0.1,0.1-0.2
		s0-0.2,0-0.3V8.1z"/>
	<path d="M49.7,7.1h0.5l0.4,1.5L51,7.1h0.5l-0.6,2l-0.1,0.4c-0.1,0.1-0.1,0.3-0.2,0.3c0,0.1-0.1,0.1-0.2,0.2S50.2,10,50.1,10
		c-0.1,0-0.2,0-0.3,0l0-0.4c0.1,0,0.1,0,0.2,0c0.1,0,0.2,0,0.2-0.1c0.1-0.1,0.1-0.2,0.1-0.3L49.7,7.1z"/>
	<path d="M51.7,7.1h0.4v0.3c0.1-0.1,0.2-0.2,0.2-0.2S52.5,7,52.6,7c0.1,0,0.2,0,0.3,0.1s0.1,0.1,0.2,0.2c0.1-0.1,0.2-0.2,0.2-0.2
		S53.5,7,53.6,7c0.1,0,0.2,0,0.3,0.1c0.1,0.1,0.1,0.1,0.2,0.2s0.1,0.3,0.1,0.5v1.3h-0.5V7.9c0-0.2,0-0.3-0.1-0.4s-0.1-0.1-0.2-0.1
		c-0.1,0-0.2,0-0.2,0.1c-0.1,0.1-0.1,0.3-0.1,0.6v1h-0.5V8c0-0.2,0-0.4,0-0.4c0-0.1-0.1-0.1-0.2-0.1c-0.1,0-0.1,0-0.2,0.1
		s-0.1,0.1-0.1,0.2s0,0.2,0,0.4v1h-0.5V7.1z"/>
	<path d="M55.6,8.5l0.4,0.1C56,8.8,55.9,8.9,55.8,9s-0.3,0.2-0.5,0.2c-0.3,0-0.4-0.1-0.6-0.3c-0.2-0.2-0.2-0.5-0.2-0.8
		c0-0.3,0.1-0.6,0.2-0.8C54.9,7.1,55.1,7,55.3,7c0.2,0,0.4,0.1,0.6,0.3c0.2,0.2,0.2,0.5,0.2,0.9l0,0.1H55c0,0.2,0,0.3,0.1,0.4
		c0.1,0.1,0.2,0.1,0.3,0.1C55.5,8.8,55.6,8.7,55.6,8.5z M55.7,7.9c0-0.2,0-0.3-0.1-0.4s-0.1-0.1-0.2-0.1c-0.1,0-0.2,0-0.2,0.1
		C55,7.6,55,7.8,55,7.9H55.7z"/>
	<path d="M58,9.1h-0.5V8.1c0-0.2,0-0.4,0-0.4c0-0.1,0-0.1-0.1-0.2c0,0-0.1-0.1-0.2-0.1c-0.1,0-0.1,0-0.2,0.1S57,7.6,57,7.7
		c0,0.1,0,0.2,0,0.5v0.9h-0.5V7.1h0.4v0.3C57,7.2,57,7.2,57.1,7.1S57.3,7,57.4,7c0.1,0,0.2,0,0.3,0.1s0.2,0.2,0.2,0.3
		C58,7.5,58,7.6,58,7.8V9.1z"/>
	<path d="M59.3,7.1v0.4h-0.3v0.8c0,0.2,0,0.3,0,0.3c0,0.1,0.1,0.1,0.1,0.1c0,0,0.1,0,0.2-0.1l0,0.4c-0.1,0.1-0.2,0.1-0.4,0.1
		c-0.1,0-0.2,0-0.3-0.1S58.5,9,58.5,8.9c0-0.1,0-0.2,0-0.5V7.5h-0.2V7.1h0.2V6.6l0.5-0.3v0.7H59.3z"/>
</g>
<g>
	<path d="M105.9,9.1V6.3h0.8c0.3,0,0.5,0,0.6,0c0.1,0,0.3,0.1,0.3,0.3c0.1,0.1,0.1,0.3,0.1,0.6c0,0.2,0,0.4-0.1,0.5
		s-0.2,0.2-0.3,0.3s-0.3,0.1-0.6,0.1h-0.3v1.1H105.9z M106.4,6.8v0.8h0.3c0.2,0,0.3,0,0.4,0s0.1-0.1,0.2-0.1c0-0.1,0.1-0.1,0.1-0.2
		c0-0.1,0-0.2-0.1-0.2c0-0.1-0.1-0.1-0.2-0.1c-0.1,0-0.2,0-0.4,0H106.4z"/>
	<path d="M109.1,8.5l0.4,0.1c-0.1,0.2-0.2,0.4-0.3,0.5c-0.1,0.1-0.3,0.2-0.5,0.2c-0.3,0-0.4-0.1-0.6-0.3C108,8.7,108,8.5,108,8.1
		c0-0.3,0.1-0.6,0.2-0.8c0.1-0.2,0.3-0.3,0.5-0.3c0.2,0,0.4,0.1,0.6,0.3c0.2,0.2,0.2,0.5,0.2,0.9l0,0.1h-1.1c0,0.2,0,0.3,0.1,0.4
		s0.2,0.1,0.3,0.1C108.9,8.8,109,8.7,109.1,8.5z M109.1,7.9c0-0.2,0-0.3-0.1-0.4c-0.1-0.1-0.1-0.1-0.2-0.1c-0.1,0-0.2,0-0.2,0.1
		c-0.1,0.1-0.1,0.2-0.1,0.4H109.1z"/>
	<path d="M110.3,9.1h-0.5V7.1h0.4v0.3c0.1-0.1,0.1-0.2,0.2-0.3s0.1-0.1,0.2-0.1c0.1,0,0.2,0,0.3,0.1l-0.1,0.5
		c-0.1-0.1-0.1-0.1-0.2-0.1c-0.1,0-0.1,0-0.2,0.1c0,0-0.1,0.1-0.1,0.3c0,0.1,0,0.3,0,0.7V9.1z"/>
	<path d="M112.1,9.1V6.3h0.8c0.3,0,0.5,0,0.6,0c0.1,0,0.3,0.1,0.3,0.3c0.1,0.1,0.1,0.3,0.1,0.6c0,0.2,0,0.4-0.1,0.5
		s-0.2,0.2-0.3,0.3s-0.3,0.1-0.6,0.1h-0.3v1.1H112.1z M112.6,6.8v0.8h0.3c0.2,0,0.3,0,0.4,0s0.1-0.1,0.2-0.1c0-0.1,0.1-0.1,0.1-0.2
		c0-0.1,0-0.2-0.1-0.2c0-0.1-0.1-0.1-0.2-0.1c-0.1,0-0.2,0-0.4,0H112.6z"/>
	<path d="M115.4,9.1V8.8c-0.1,0.1-0.1,0.2-0.2,0.3s-0.2,0.1-0.3,0.1c-0.1,0-0.2,0-0.3-0.1c-0.1-0.1-0.2-0.1-0.2-0.3
		c0-0.1-0.1-0.3-0.1-0.5V7.1h0.5v1c0,0.3,0,0.4,0,0.5s0,0.1,0.1,0.2c0,0,0.1,0.1,0.2,0.1c0.1,0,0.1,0,0.2-0.1s0.1-0.1,0.1-0.2
		c0-0.1,0-0.3,0-0.5V7.1h0.5v2.1H115.4z"/>
	<path d="M116.3,7.1h0.4v0.3c0.1-0.1,0.1-0.2,0.2-0.3s0.2-0.1,0.3-0.1c0.2,0,0.4,0.1,0.5,0.3c0.1,0.2,0.2,0.4,0.2,0.8
		c0,0.4-0.1,0.6-0.2,0.8s-0.3,0.3-0.5,0.3c-0.1,0-0.2,0-0.3-0.1c-0.1,0-0.2-0.1-0.2-0.2v1h-0.5V7.1z M116.7,8.1c0,0.2,0,0.4,0.1,0.5
		s0.2,0.2,0.3,0.2c0.1,0,0.2-0.1,0.3-0.2s0.1-0.3,0.1-0.5c0-0.2,0-0.4-0.1-0.5s-0.2-0.2-0.3-0.2c-0.1,0-0.2,0.1-0.3,0.2
		C116.8,7.7,116.7,7.9,116.7,8.1z"/>
	<path d="M118.3,6.8V6.3h0.5v0.5H118.3z M118.3,9.1V7.1h0.5v2.1H118.3z"/>
	<path d="M119.2,9.1V6.3h0.5v2.9H119.2z"/>
	<path d="M121,9.1V6.3h1.6v0.5h-1.1v0.7h1v0.5h-1v1.2H121z"/>
	<path d="M124.1,9.1V8.8c-0.1,0.1-0.1,0.2-0.2,0.3s-0.2,0.1-0.3,0.1c-0.1,0-0.2,0-0.3-0.1c-0.1-0.1-0.2-0.1-0.2-0.3
		c0-0.1-0.1-0.3-0.1-0.5V7.1h0.5v1c0,0.3,0,0.4,0,0.5s0,0.1,0.1,0.2c0,0,0.1,0.1,0.2,0.1c0.1,0,0.1,0,0.2-0.1s0.1-0.1,0.1-0.2
		c0-0.1,0-0.3,0-0.5V7.1h0.5v2.1H124.1z"/>
	<path d="M126.6,9.1h-0.5V8.1c0-0.2,0-0.4,0-0.4c0-0.1,0-0.1-0.1-0.2c0,0-0.1-0.1-0.2-0.1c-0.1,0-0.1,0-0.2,0.1
		c-0.1,0-0.1,0.1-0.1,0.2c0,0.1,0,0.2,0,0.5v0.9H125V7.1h0.4v0.3c0.1-0.1,0.2-0.2,0.3-0.3C125.8,7,125.9,7,126,7
		c0.1,0,0.2,0,0.3,0.1c0.1,0.1,0.2,0.2,0.2,0.3c0,0.1,0.1,0.3,0.1,0.5V9.1z"/>
	<path d="M128.6,9.1h-0.4V8.8c-0.1,0.1-0.2,0.2-0.2,0.3s-0.2,0.1-0.3,0.1c-0.2,0-0.4-0.1-0.5-0.3c-0.1-0.2-0.2-0.5-0.2-0.8
		c0-0.4,0.1-0.6,0.2-0.8c0.1-0.2,0.3-0.3,0.5-0.3c0.1,0,0.2,0,0.3,0.1c0.1,0,0.2,0.1,0.2,0.2v-1h0.5V9.1z M127.4,8.1
		c0,0.2,0,0.3,0,0.4c0,0.1,0.1,0.2,0.1,0.2c0.1,0,0.1,0.1,0.2,0.1c0.1,0,0.2-0.1,0.3-0.2c0.1-0.1,0.1-0.3,0.1-0.5
		c0-0.2,0-0.4-0.1-0.5c-0.1-0.1-0.2-0.2-0.3-0.2c-0.1,0-0.2,0.1-0.3,0.2C127.4,7.7,127.4,7.8,127.4,8.1z"/>
	<path d="M129,6.8V6.3h0.5v0.5H129z M129,9.1V7.1h0.5v2.1H129z"/>
	<path d="M131.5,9.1H131V8.1c0-0.2,0-0.4,0-0.4c0-0.1,0-0.1-0.1-0.2c0,0-0.1-0.1-0.2-0.1c-0.1,0-0.1,0-0.2,0.1
		c-0.1,0-0.1,0.1-0.1,0.2c0,0.1,0,0.2,0,0.5v0.9h-0.5V7.1h0.4v0.3c0.1-0.1,0.2-0.2,0.3-0.3c0.1-0.1,0.2-0.1,0.3-0.1
		c0.1,0,0.2,0,0.3,0.1c0.1,0.1,0.2,0.2,0.2,0.3c0,0.1,0.1,0.3,0.1,0.5V9.1z"/>
	<path d="M131.9,9.3l0.5,0.1c0,0.1,0,0.1,0.1,0.2c0,0,0.1,0,0.2,0c0.1,0,0.2,0,0.2,0c0,0,0.1-0.1,0.1-0.1s0-0.2,0-0.3V8.8
		c-0.1,0.1-0.1,0.2-0.2,0.3c-0.1,0.1-0.2,0.1-0.3,0.1c-0.2,0-0.3-0.1-0.5-0.3c-0.1-0.2-0.2-0.5-0.2-0.8c0-0.4,0.1-0.6,0.2-0.8
		c0.1-0.2,0.3-0.3,0.5-0.3c0.1,0,0.2,0,0.3,0.1c0.1,0.1,0.2,0.1,0.2,0.3V7.1h0.4v1.9c0,0.3,0,0.5-0.1,0.6s-0.1,0.2-0.3,0.3
		c-0.1,0.1-0.3,0.1-0.5,0.1c-0.2,0-0.3,0-0.4-0.1c-0.1,0-0.2-0.1-0.3-0.2C131.9,9.6,131.9,9.5,131.9,9.3L131.9,9.3z M132.3,8.1
		c0,0.2,0,0.4,0.1,0.5c0.1,0.1,0.2,0.2,0.3,0.2c0.1,0,0.2-0.1,0.3-0.2c0.1-0.1,0.1-0.3,0.1-0.5c0-0.2,0-0.4-0.1-0.5
		c-0.1-0.1-0.2-0.2-0.3-0.2s-0.2,0.1-0.3,0.2C132.4,7.7,132.3,7.8,132.3,8.1z"/>
	<path d="M136.9,9.1h-0.5l-0.2-0.6h-0.9L135,9.1h-0.5l0.9-2.9h0.5L136.9,9.1z M136,8l-0.3-1.1L135.4,8H136z"/>
	<path d="M137.1,7.1h0.4v0.3c0.1-0.1,0.2-0.2,0.2-0.2C137.8,7,137.9,7,138,7c0.1,0,0.2,0,0.3,0.1s0.1,0.1,0.2,0.2
		c0.1-0.1,0.2-0.2,0.2-0.2C138.8,7,138.9,7,139,7c0.1,0,0.2,0,0.3,0.1c0.1,0.1,0.1,0.1,0.2,0.2c0,0.1,0.1,0.3,0.1,0.5v1.3h-0.5V7.9
		c0-0.2,0-0.3-0.1-0.4c0-0.1-0.1-0.1-0.2-0.1c-0.1,0-0.2,0-0.2,0.1c-0.1,0.1-0.1,0.3-0.1,0.6v1h-0.5V8c0-0.2,0-0.4,0-0.4
		c0-0.1-0.1-0.1-0.2-0.1c-0.1,0-0.1,0-0.2,0.1c-0.1,0-0.1,0.1-0.1,0.2c0,0.1,0,0.2,0,0.4v1h-0.5V7.1z"/>
	<path d="M139.9,8.1c0-0.2,0-0.4,0.1-0.6c0.1-0.2,0.2-0.3,0.3-0.4c0.1-0.1,0.3-0.1,0.4-0.1c0.3,0,0.5,0.1,0.6,0.3
		c0.2,0.2,0.2,0.5,0.2,0.8c0,0.2,0,0.4-0.1,0.6c-0.1,0.2-0.2,0.3-0.3,0.4c-0.1,0.1-0.3,0.1-0.4,0.1c-0.3,0-0.5-0.1-0.6-0.3
		C140,8.7,139.9,8.4,139.9,8.1z M140.4,8.1c0,0.2,0,0.4,0.1,0.5s0.2,0.2,0.3,0.2c0.1,0,0.2-0.1,0.3-0.2c0.1-0.1,0.1-0.3,0.1-0.5
		c0-0.2,0-0.4-0.1-0.5c-0.1-0.1-0.2-0.2-0.3-0.2s-0.2,0.1-0.3,0.2C140.4,7.7,140.4,7.9,140.4,8.1z"/>
	<path d="M143.2,9.1V8.8c-0.1,0.1-0.1,0.2-0.2,0.3s-0.2,0.1-0.3,0.1c-0.1,0-0.2,0-0.3-0.1c-0.1-0.1-0.2-0.1-0.2-0.3
		c0-0.1-0.1-0.3-0.1-0.5V7.1h0.5v1c0,0.3,0,0.4,0,0.5s0,0.1,0.1,0.2c0,0,0.1,0.1,0.2,0.1c0.1,0,0.1,0,0.2-0.1s0.1-0.1,0.1-0.2
		c0-0.1,0-0.3,0-0.5V7.1h0.5v2.1H143.2z"/>
	<path d="M145.6,9.1h-0.5V8.1c0-0.2,0-0.4,0-0.4c0-0.1,0-0.1-0.1-0.2c0,0-0.1-0.1-0.2-0.1c-0.1,0-0.1,0-0.2,0.1
		c-0.1,0-0.1,0.1-0.1,0.2c0,0.1,0,0.2,0,0.5v0.9H144V7.1h0.4v0.3c0.1-0.1,0.2-0.2,0.3-0.3C144.8,7,144.9,7,145,7
		c0.1,0,0.2,0,0.3,0.1c0.1,0.1,0.2,0.2,0.2,0.3c0,0.1,0.1,0.3,0.1,0.5V9.1z"/>
	<path d="M146.8,7.1v0.4h-0.3v0.8c0,0.2,0,0.3,0,0.3c0,0.1,0.1,0.1,0.1,0.1c0,0,0.1,0,0.2-0.1l0,0.4c-0.1,0.1-0.2,0.1-0.4,0.1
		c-0.1,0-0.2,0-0.3-0.1c-0.1-0.1-0.1-0.1-0.1-0.2c0-0.1,0-0.2,0-0.5V7.5h-0.2V7.1h0.2V6.6l0.5-0.3v0.7H146.8z"/>
</g>
</svg>
