<?xml version="1.0" encoding="utf-8"?>
<!-- Generator: Adobe Illustrator 26.5.0, SVG Export Plug-In . SVG Version: 6.00 Build 0)  -->
<svg version="1.1"
	 id="svg3258" xmlns:rdf="http://www.w3.org/1999/02/22-rdf-syntax-ns#" xmlns:cc="http://creativecommons.org/ns#" xmlns:inkscape="http://www.inkscape.org/namespaces/inkscape" xmlns:svg="http://www.w3.org/2000/svg" xmlns:sodipodi="http://sodipodi.sourceforge.net/DTD/sodipodi-0.dtd" xmlns:dc="http://purl.org/dc/elements/1.1/" sodipodi:docname="fl.svg"
	 xmlns="http://www.w3.org/2000/svg" xmlns:xlink="http://www.w3.org/1999/xlink" x="0px" y="0px" viewBox="0 0 96.4 82.4"
	 style="enable-background:new 0 0 96.4 82.4;" xml:space="preserve">
<style type="text/css">
	.st0{fill:#F59F3F;stroke:#FFFFFF;stroke-width:0.1;stroke-miterlimit:10;}
	.st1{fill:#FFC685;stroke:#FFFFFF;stroke-width:0.1;stroke-miterlimit:10;}
	.st2{fill:#ED6F20;stroke:#FFFFFF;stroke-width:0.1;stroke-miterlimit:10;}
	.st3{fill:#C85422;stroke:#FFFFFF;stroke-width:0.1;stroke-miterlimit:10;}
	.st4{fill:#9E3D22;stroke:#FFFFFF;stroke-width:0.1;stroke-miterlimit:10;}
</style>
<sodipodi:namedview  bordercolor="#666666" borderopacity="1" fit-margin-bottom="0" fit-margin-left="0" fit-margin-right="0" fit-margin-top="0" gridtolerance="10" guidetolerance="10" id="namedview3264" inkscape:current-layer="svg3258" inkscape:cx="8.4866449" inkscape:cy="38.066552" inkscape:pageopacity="0" inkscape:pageshadow="2" inkscape:window-height="716" inkscape:window-maximized="1" inkscape:window-width="1366" inkscape:window-x="-8" inkscape:window-y="-8" inkscape:zoom="4.5491794" objecttolerance="10" pagecolor="#ffffff" showgrid="false">
	</sodipodi:namedview>
<path id="Bay" inkscape:connector-curvature="0" class="st0" d="M27.2,10l0.5,4.7l0.4,3.5L27,17.9l-0.3-0.1l-0.1-0.1l-0.3-0.2
	l-0.4-0.4l-2.4-1.4l-0.2-0.1l-0.1-0.1l-0.1-0.1l-0.2-0.1l-0.4-0.2L22.3,15l-0.2,0H22l-0.2-0.1l-0.2-0.1l-0.7-0.2L20.8,13l0.3-0.3
	l1.2-0.5l3.4-0.3l0.7-0.1l-0.2-1.7l0.6-0.1L27.2,10"/>
<path id="Jackson" inkscape:connector-curvature="0" class="st1" d="M25.5,4.6L30.8,4l1.9,3.5l-0.6,1.4l-1.8,0.2l-0.8,0.6l-0.8,0.1
	L27.2,10l-0.6,0.1l-0.3-2.8l-0.9-0.5l-1.1,0.1l0.9-2.3L25.5,4.6"/>
<path id="Charlotte" inkscape:connector-curvature="0" class="st2" d="M70.6,50.4l5.7-0.9l0.5,3.3l-5.7,0.8v-0.4L71,52.5l-0.2-1
	v-0.1l-0.2-0.1l-0.4,0.1l-0.1,0.1L69.6,52l-0.1,0.1l0.3,1.8V54l-0.5,0.1l-0.2-0.2l0,0L69,54l-0.1,0.2h-0.2L68.6,54l-0.1-0.2l0,0l0,0
	L67.1,52l1.4-0.2L68.4,51l-0.1-0.4L70.6,50.4"/>
<path id="Lee" inkscape:connector-curvature="0" class="st2" d="M68.9,54.9l1.3,2.4l0.2,0.1l0.2,0.1l0.7,0.2l0.1-0.2l0.2-0.1
	l0.6,0.1l0,0l-0.5,0.4L71.6,58h-0.1h-0.2l-0.4-0.1l-0.6-0.3h-0.1h-0.1v-0.1l-1.2-2.2V54.9 M71,53.7l5.7-0.8l0.5,3.2l0.2,1.1
	l-0.9,1.5L74.6,59l-0.3-0.1L74,58.3l-0.6-0.5L72.1,57l-1.3-1.9L71,53.7"/>
<path id="Hendry" inkscape:connector-curvature="0" class="st1" d="M76.6,52.6l4.5-0.7l2.6-0.4L84,49l1.3,7.9l0.2,0.9L81,58.6
	l-0.4-2.1l-0.2-1.2L77,55.9L76.6,52.6"/>
<path id="Collier" inkscape:connector-curvature="0" class="st3" d="M85.5,57.8l0.6,3.5l0.4,2.2L81,64.4v-0.2l-0.1-0.1l-0.5-0.3
	l-0.3-0.1H80l-1.1-0.2h-0.1l-1.3,0.3l-0.1,0.1L77.3,64v0.1v0.2v0.2h-0.1L77,64.4l-0.7-1l-1-1.7l-0.1-0.5L75,60.8l-0.3-1L74.5,59
	l-0.2-0.4l0,0l0.3,0.1l1.9-0.3l0.9-1.5l-0.2-1.1l3.4-0.6l0.2,1.2l0.4,2.1L85.5,57.8"/>
<path id="Monroe" inkscape:connector-curvature="0" class="st4" d="M90.5,74.7L90.4,75l-0.5,0.4l-0.5,0.4L88.9,76l0,0l0,0l0,0
	l0.1-0.1l0.6-0.6L90.5,74.7L90.5,74.7 M94.8,68L94.8,68l-0.2,0.4l-0.7,1.8v0.1l0.1,0.2l-0.1,0.2L93.7,71l-1.8,2.5l-0.1,0.1l-0.9,0.9
	l0,0l0,0v-0.1l0.4-0.6l0.3-0.2L92,73l0.4-0.4l0.6-0.9l0.1-0.2l0.7-1.4l0.8-2L94.8,68 M87.6,76.9L87,77.4l-0.7,0.5H86l-0.2-0.1l0,0
	l0,0l1-0.6l1.4-0.8l0,0l0.1,0.1l-0.1,0.1L87.6,76.9 M80.5,79.2L80.5,79.2l0.2-0.4l1.6-0.8l0.4,0.1l0.8,0.2l0.3,0.5l0,0h-0.1
	l-0.1,0.1L83.5,79l-0.7,0.3l-4.5,1.6L78,81l0,0v-0.2v-0.1l0.2-0.2l0.5-0.1h0.1l0.1,0.1H79l0.4-0.2l0.2-0.1l0.4-0.4L80.5,79.2
	 M86.5,63.5l0.9,5.5l0.5,2.1l0.1,0.2l0,0l-0.7,0.6l-0.9,0.4l-0.9,0.2l-0.2-0.1l-0.5-0.3L84.7,72l-0.5-0.7V71v-0.6v-0.5v-0.1l0.1-0.1
	h0.1h0.2v-0.1v-0.1l-0.8-1.3l-1.3-2l-1.4-1.9L86.5,63.5"/>
<path id="Miami-Dade" inkscape:connector-curvature="0" class="st4" d="M94.8,68h-0.3l0.1-0.6l0.4-1.5l0.1-0.2h0.1l0.1,0.4L95.1,67
	L94.8,68 M86.2,61.3l1.1-0.2l1.2,0.1l2.8-0.5l1.7-0.4l0.4-0.2l0.4-0.1l0.4-0.1l0.8-0.2l0,0l0.1,0.7l0.1,0.9v0.3v0.6l-0.1,0.3
	L95,62.6l-0.2,0.2V63l-0.2-0.1h-0.1l-0.3,0.2L94,63.3v0.1l-0.6,2.5l-0.1,0.4v0.3l0.3,1l0.1,0.1h0.1l0.1,0.1v0.1l-0.2,0.5L93.3,69
	l0,0L93,69.3L92.4,70l-1.5,0.8L90.4,71L90,71.2l-0.7,0.1h-1.2l0,0L88,71.1L87.4,69l-0.9-5.5L86.2,61.3"/>
<path id="Broward" inkscape:connector-curvature="0" class="st4" d="M85.4,56.8l6.7-1.1l0.6-0.1l2-0.2l0.2,4.4L94.1,60l-0.4,0.1
	l-0.4,0.1l-0.4,0.2l-1.7,0.4l-2.8,0.5l-1.2-0.1l-1.1,0.2l-0.6-3.5L85.4,56.8"/>
<path id="Palm_Beach" inkscape:connector-curvature="0" class="st4" d="M84.1,49l5.7-0.9h0.1l2.7-0.4l0.7-0.3l0.2,0.4l0.2,0.5
	l0.2,0.4l0.3,0.8l0.2,1.2l0.2,1.1l0.1,0.5l0.1,3v0.2l-2,0.2l-0.6,0.1l-6.7,1.1L84.1,49"/>
<path id="Sarasota" inkscape:connector-curvature="0" class="st2" d="M70.3,48.2l0.3,2.2l-2.3,0.3l0.1,0.4l0.1,0.8L67.1,52l-2-3.1
	L65,48.7l-0.2-0.2l-0.1-0.2l-0.5-0.6l-0.3-0.3l-0.6-0.6l4.5-0.6l0.3,2.2L70.3,48.2"/>
<path id="DeSoto" inkscape:connector-curvature="0" class="st0" d="M75.6,45.4l0.6,3.9l-5.7,0.9l-0.6-3.9l2.2-0.3l1.2-0.2L75.6,45.4
	"/>
<path id="Glades" inkscape:connector-curvature="0" class="st1" d="M82.9,45.9l1.2,3.1l-0.3,2.5l-2.6,0.4l-4.5,0.7l-0.5-3.3l3.4-0.5
	l-0.2-1.1l1-1.3L82.9,45.9"/>
<path id="Martin" inkscape:connector-curvature="0" class="st3" d="M91.3,43.9l2,3.5l-0.7,0.3L89.9,48h-0.1l-5.7,1l1.9-3.5l3-0.5
	l1.5-0.2L90.3,44L91.3,43.9"/>
<path id="St._Lucie" inkscape:connector-curvature="0" class="st2" d="M85.3,41.3l4.1-0.7l2,3.5l-1,0.2l0.1,0.7L89,45.3l-3,0.5
	L85.3,41.3"/>
<path id="Indian_River" inkscape:connector-curvature="0" class="st0" d="M82.5,38l4.1-0.7l0.6-0.5l0.1-0.1l2.1,3.6L85.2,41
	l-1.1,0.2l-0.2-1.1l-1.1,0.2L82.5,38"/>
<path id="Okeechobee" inkscape:connector-curvature="0" class="st0" d="M79.8,40.8l3.1-0.5l1.1-0.2l0.2,1.1l1.1-0.2l0.7,4.4L84.1,49
	l-1.2-3.1l-1-1L80.8,44l-1.2-2.1L79.8,40.8"/>
<path id="Highlands" inkscape:connector-curvature="0" class="st1" d="M75,41.5l4.8-0.7l-0.2,1.1l1.2,2.1l1.1,0.9l1,1l-2.6,0.4
	l-1,1.3l0.2,1.1l-3.4,0.5l-0.6-3.9L75,41.5"/>
<path id="Hardee" inkscape:connector-curvature="0" class="st1" d="M69.4,42.3l5.6-0.8l0.6,3.9l-2.1,0.3l-1.2,0.2l-2.2,0.3
	L69.4,42.3"/>
<path id="Manatee" inkscape:connector-curvature="0" class="st2" d="M63.8,43.5l5.7-0.8l0.6,3.9l0.2,1.7L68,48.6l-0.3-2.3l-4.5,0.6
	l-0.6-0.6l-0.4-0.7l0.3-0.1l0.4-0.3l0.8-1.2v-0.1L63.8,43.5"/>
<path id="Pinellas" inkscape:connector-curvature="0" class="st2" d="M61.8,36.9l0.4,2.6l-0.8,0.2l0,0v0.1l0.1,0.1l0.1,0.1l1.2,0.5
	l0.5-0.2l0.1,0.3l-0.3,0.8l-1,2.4L61.5,43l-1.2-3.1l0,0l0.1-0.7v-0.6l-0.1-0.9l-0.1-0.2l-0.1-0.1l-0.2-0.2L61.8,36.9"/>
<path id="Hillsborough" inkscape:connector-curvature="0" class="st2" d="M61.8,36.9L68,36l0.6-0.1l0.6,3.9l0.4,2.8l-5.7,0.8
	l1.1-1.7l0,0l0.3-0.6l0.1-0.3l-0.3-0.6L64.9,40l-1.7-0.6h-0.4l-0.3,0.1l-0.3,0.1L61.8,36.9"/>
<path id="Hernando" inkscape:connector-curvature="0" class="st0" d="M60.8,30l2.6-0.4l0.1,0.4l1.7-0.3V30l0.2,0.2l0.5,0.5l0.2,0.1
	l1.4,0.4l0.4,0.6l-2.2,0.3l0.1,0.6l-4.4,0.6L61,33.4L60.8,30"/>
<path id="Pasco" inkscape:connector-curvature="0" class="st0" d="M67.8,31.8l0.3,2.1l-0.3,1.9l-6.2,0.9L59.9,37l1-3.5l0.4-0.1
	l4.4-0.6l-0.1-0.6L67.8,31.8"/>
<path id="Osceola" inkscape:connector-curvature="0" class="st2" d="M72.7,33.1l8.9-1.4l0.2,1.3l0.3,2H82l0.5,3.3l0.3,2.3l-3.1,0.5
	l-0.1-0.5l0.1-0.3l-0.6-0.8L78.8,39l-2.5-2.3l-0.8-0.6l-2.6-1.9L72.7,33.1"/>
<path id="Polk" inkscape:connector-curvature="0" class="st0" d="M72.6,32.8l0.2,1.1l2.6,1.9l0.8,0.6l2.5,2.3l0.3,0.5l0.6,0.9
	l0.1,0.3l0.1,0.5L75,41.5l-5.6,0.8L69,39.6l-0.6-3.9l-0.6,0.1l0.3-1.9l1-0.6L72.6,32.8"/>
<path id="Orange" inkscape:connector-curvature="0" class="st2" d="M74.5,27.1l-0.4,1v0.3l0.6,0.5l1.1,0.2l3.8-0.6l1.9,3.1L72.6,33
	l-0.8-5.5l0.1-0.1H72h0.2L74.5,27.1"/>
<path id="Seminole" inkscape:connector-curvature="0" class="st0" d="M74.4,27.1l0.3-1.3l0.6,0.5l1.5,0.3H77h0.1l0.4-0.2l0.1-0.3
	l0.8,0.7l0.4,0.5l0.7,1.1L75.7,29l-1.1-0.2L74,28.3V28L74.4,27.1"/>
<path id="Lake_FL" inkscape:connector-curvature="0" class="st0" d="M70.9,21l2.1,2l0.8,0.5l0.5,0.3l0.5,0.4l0,0l0.1,0.7l-0.1,0.7
	l-0.3,1.3l-2.4,0.4h-0.2h-0.1l-0.1,0.1l0.8,5.5l-3.4,0.5L68,25.5l3.3-0.5v-1.3L70.9,21"/>
<path id="Sumter" inkscape:connector-curvature="0" class="st4" d="M64,26.1l4-0.6l1.1,7.8l-1,0.6l-0.3-2.1l-0.4-0.6L66,30.9
	l-0.2-0.1l-0.5-0.5L65.2,30v-0.3v-0.6V29l0.1-0.2l0.2-0.3l0.2-0.1l0,0L66,28v-0.1l-1.4-1.3L64,26.1"/>
<path id="Citrus" inkscape:connector-curvature="0" class="st1" d="M61.4,25.4l2.7,0.7l0.5,0.6L66,28v0.1l-0.1,0.4l0,0l-0.2,0.1
	l-0.2,0.3l-0.1,0.2v0.1v0.6l-2,0.2l-0.1-0.4L60.8,30l-0.2-1.9l-0.1-0.4l-0.1-0.2L59,26.4l0.1-0.1l0.1-0.1l0.3-0.3l0.2-0.1h0.2
	l0.7,0.2l0.7-0.4L61.4,25.4L61.4,25.4"/>
<path id="Levy" inkscape:connector-curvature="0" class="st1" d="M59.1,19l2.9,0.6l0.5,3.4L61,23.2l0.3,2.2l0,0l-0.2,0.1L60.5,26
	l-0.7-0.2h-0.2l-0.2,0.1l-0.3,0.3L59,26.3v0.1V26l-0.1-0.3l-0.7-1.1l-0.3-0.1l-4-1.1l0.9-0.8l0.5-0.9l0.2-0.8l0.4-1.7L59.1,19"/>
<path id="Marion" inkscape:connector-curvature="0" class="st0" d="M62,19.6l2-0.3l0.2,0.2v0.1L65,20l0.8-0.3l0.1-0.1l0,0l-0.1-0.4
	l0.3-0.3l0.2-0.1l0.8-0.3l1.8,0.1l0.3,0.7l0.6,0.7l0.5,0.5l0.5,0.5l0.4,2.7V25L68,25.5l-4,0.6l-2.7-0.7L61,23.2l1.5-0.2L62,19.6"/>
<path id="Volusia" inkscape:connector-curvature="0" class="st0" d="M70.4,20.4L73,19l0.2,0.3l0.3,1.4l0.9-0.2l0,0l2-0.4l-0.3-1.4
	l0.5-0.7l0.8,1.4l0.7,1.1l0.5,0.8l0.3,0.4L80,23l2.1,2.5L79.4,26l0.4,2.2h-0.3l-0.7-1.1l-0.4-0.5L77.6,26l-0.1,0.3l-0.4,0.2H77h-0.2
	L75.4,26l-0.6-0.5l0.1-0.7l-0.1-0.7l0,0l-0.5-0.4l-0.5-0.3L73,23l-2.1-2L70.4,20.4"/>
<path id="Brevard" inkscape:connector-curvature="0" class="st0" d="M79.6,28.3h0.3L79.4,26l2.6-0.4l2.1,2.2l0,0l0.1,0.1l0,0
	l0.8,1.5v0.1l-0.4,0.2l-0.1,0.1L84.4,30v0.1l0,0v0.2v0.4v0.4v0.3l0.2,0.7l0.3,1l0.4,1l0.3,0.6l0.2,0.4l0.3,0.5l0,0l0.9,1.3L86.9,37
	l-0.6,0.5L82.5,38L82,34.7h0.1l-0.3-2l-0.2-1.3L79.6,28.3"/>
<path id="Washington" inkscape:connector-curvature="0" class="st1" d="M22,8.8V8l0.1-0.3l0.8-0.1l0.2,0.2v0.4L24.4,8l0.1-0.9V7V6.9
	l1.1-0.1l0.9,0.5l0.3,2.8l-0.6,0.1l0.2,1.7L25.7,12l-3.4,0.3L21,12.7L20.8,13l0.4-0.8l0.4-1.9l-0.2-0.2l-0.1-0.4l0.5-0.9L22,8.8"/>
<path id="Holmes" inkscape:connector-curvature="0" class="st1" d="M19.5,5.3l5.9-0.7l-0.9,2.3V7v0.1L24.4,8l-1.3,0.1V7.7l-0.2-0.2
	l-0.8,0.1L22,8v0.8L19.8,9L19.5,5.3"/>
<path id="Walton" inkscape:connector-curvature="0" class="st0" d="M17.8,5.5l1.7-0.2L19.8,9L22,8.8l-0.1,0.1l-0.5,0.9l0.1,0.4
	l0.2,0.2l-0.4,1.9L20.8,13l0.1,1.5l-4.6-0.9l-0.7-7.9L17.8,5.5"/>
<path id="Okaloosa" inkscape:connector-curvature="0" class="st0" d="M15.6,5.7l0.7,7.9L11.8,14l-0.6-7.8L12.3,6L15.6,5.7"/>
<path id="Santa_Rosa" inkscape:connector-curvature="0" class="st4" d="M7.1,6.5l4.1-0.4l0.6,7.8l-1.3,0.3l-1.8,0.3L7.9,14l-1.4-2.5
	l-0.6-1.4L5.8,9.7V9.5l-0.1-1V8.3l0.2-0.8L6,7.4L6.4,7L7.1,6.5"/>
<path id="Escambia" inkscape:connector-curvature="0" class="st1" d="M2.3,6.9l4.8-0.5L6.4,7L5.9,7.5L5.8,7.6L5.6,8.4v0.2l0.1,1v0.2
	l0.2,0.5l0.6,1.4l1.4,2.5l0.8,0.5l1.8-0.3L8,15.1H7.9H7.8l-0.4,0.1l-0.3,0.1l-0.4,0.1L5,15.8l-1,0.3l0.7-0.3l0.1-1.4L5,11.5v-0.2
	v-0.2l-0.1-0.2l-0.5-0.3L4,10.4H3.8H3.7l-0.4-0.2L2.2,8.9L2,8.7L2.3,6.9"/>
<path id="Calhoun" inkscape:connector-curvature="0" class="st1" d="M27.2,10l1.5-0.2l0.8-0.1l0.8-0.6l1.8-0.2l-0.5,1.2l-0.4,2.4
	l-0.5,1.9l-3,0.3L27.2,10"/>
<path id="Gulf" inkscape:connector-curvature="0" class="st1" d="M27.7,14.7l3-0.3l1.3,2.8l0.1,1.8l-0.6,0.9h-0.2l-1,1l0.1,0.1
	l-1,0.1v-1.3v-0.1l-0.2-0.3l-0.6-0.8l-0.3-0.3l0,0L27.7,14.7"/>
<path id="Franklin" inkscape:connector-curvature="0" class="st1" d="M37.4,16l2.3,0.4l0.1,0.2v0.1v0.1l0,0v0.1l-0.1,0.2h-0.1
	l-0.3,0.1l-0.5-0.1h-0.1L38.6,17l-0.1,0l-0.6,0.2l-0.3,0.1L36,18.6l-0.7,0.6l-0.6,0.5L34,20l-1.2,0.4l-0.5,0.1l-0.4-0.1h-0.3
	l-0.2,0.1l-1,0.4l0.1-0.2l1-1h0.2l0.6-0.9L32.2,17l0.1-0.6L37.4,16"/>
<path id="Dixie" inkscape:connector-curvature="0" class="st1" d="M55.7,16.1l0.2,3l-0.4,1.7l-0.2,0.8l-0.5,0.9l-0.9,0.8l-0.2-0.7
	L53.3,22l-0.2-0.3l-0.3-0.1h-0.3L52,21.3l-0.9-0.5l-0.3-0.1v-0.1l-0.4-1.8l0.8-2.1L55.7,16.1"/>
<path id="Gilchrist" inkscape:connector-curvature="0" class="st1" d="M56,15.2l0.8-0.7l1.8,1.1l0.5,3.4l-3.2,0.1l-0.2-3L56,15.2"/>
<path id="Alachua" inkscape:connector-curvature="0" class="st2" d="M59.9,14.1l1.3,0.1l0.3,0.4h0.1l1.4,0.2h0.6l0.1-0.1h0.1
	l0.5,0.1h0.2l1,0.9l0.1,0.3v0.1l0.4,3.1l0.1,0.4l0,0L66,19.7l-0.9,0.4l-0.8-0.4v-0.1l-0.2-0.2l-2,0.3l-2.9-0.6l-0.5-3.4L59.9,14.1"
	/>
<path id="Putnam" inkscape:connector-curvature="0" class="st1" d="M70.5,13.7l1.1,2.7l1.4,2.7l-2.6,1.4L69.9,20l-0.6-0.7L69,18.5
	l-1.8-0.1l-0.8,0.3l-0.2,0.1l-0.3,0.3L65.5,16h0.1l0.3-0.1l1-0.7V15l0.1-0.1l1-0.7h0.2L70.5,13.7"/>
<path id="Flagler" inkscape:connector-curvature="0" class="st2" d="M71.7,16.7l3.4-1.1l1.7,2.9l-0.5,0.7l0.3,1.4l-2,0.4l0,0
	l-0.9,0.2l-0.3-1.4l-0.3-0.4L71.7,16.7"/>
<path id="St._Johns" inkscape:connector-curvature="0" class="st2" d="M69,10.6l0.6-0.3h0.3l0.7,0.2l1.2-0.2l-0.3-1.9l0.6-0.1
	l1.3,3.5l0.9,2.3l0,0l0.1,0.3l0.1,0.2l0.5,0.8l-3.4,1.1l-1.1-2.7L69,10.6"/>
<path id="Clay" inkscape:connector-curvature="0" class="st0" d="M68.9,10.3l1.6,3.4l-2.4,0.4h-0.2l-1,0.7V15v0.2l-1,0.7L65.6,16
	l-0.8-5.4L64.7,10l1.1-0.2l2.3-0.4l0.3-0.1h0.3L68.9,10.3"/>
<path id="Bradford" inkscape:connector-curvature="0" class="st1" d="M63.7,10.8l1-0.2l0.8,5.4h-0.1v-0.1l-0.1-0.3l-1-0.9h-0.2
	l-0.5-0.1h-0.1l-0.1,0.1h-0.6l-1.4-0.2h-0.1L61.1,14l0.5-0.2l0.7-0.4l1.2-1.7l0.3-0.6V11L63.7,10.8"/>
<path id="Union" inkscape:connector-curvature="0" class="st1" d="M63.7,10.8l0.1,0.2v0.1l-0.3,0.6l-1.2,1.7l-0.7,0.4L61.1,14h-1.3
	l0.4-2.6L63.7,10.8"/>
<path id="Suwannee" inkscape:connector-curvature="0" class="st1" d="M56.2,9.3l0.7,5.2L56,15.2l-0.7-0.8L54.9,14l-0.2-0.1l-1.1-0.7
	L53.1,13l-0.6-0.1V13h-0.2H52l-0.1-0.1L51.5,12l-0.2-0.8v-0.1l0,0l0.6-1.7L52,8.9l0,0l0.3-0.2l0.4-0.1h0.9l0.6,0.1L56.2,9.3"/>
<path id="Lafayette" inkscape:connector-curvature="0" class="st1" d="M51.3,11L51.3,11l-0.1,0.1l0.2,0.8l0.4,0.9L52,13l0.3,0.1
	l0.2-0.1v-0.1l0.6,0.1l0.5,0.2l1.1,0.7l0.2,0.1l0.4,0.4l0.7,0.8l-0.3,0.9l-4.4,0.6l-0.4,0.1l-0.3-0.9L50,11.2L51.3,11"/>
<path id="Taylor" inkscape:connector-curvature="0" class="st1" d="M50,11.2l0.6,4.7l0.3,0.9l0.4-0.1l-0.8,2.1l-0.4-0.1L49,18.3
	l-0.1-0.1l-0.1-0.1l-0.4-0.5v-0.1l-0.1-0.2L48.2,17l-0.6-0.7L47.1,16L47,15.9l-1.2-0.5l-0.7-0.2l-1-0.5l-0.7-0.4l1.5-3l3.9-0.5
	l0.1,0.6L50,11.2"/>
<path id="Wakulla" inkscape:connector-curvature="0" class="st0" d="M35.1,12.6l5.1-0.7l0.1,0.4l1.8-0.2l0.3,2.3l-1.9,0.3l-1,0.5
	l-0.2,0.1v0.4l0.1,0.5l0,0l0.2,0.3L37.4,16l-0.7-0.4l-0.3-0.2l-0.5-0.6l-1-1.7l0.1-0.3L35.1,12.6"/>
<path id="Liberty" inkscape:connector-curvature="0" class="st1" d="M35.7,11.3l-0.6,1.2L35,12.7L34.8,13l1,1.7l0.5,0.6l0.3,0.2
	l0.7,0.4l-5.1,0.6l-0.1,0.6l-1.3-2.8l0.5-1.9l0.4-2.4l0.5-1.2L35.7,11.3"/>
<path id="Gadsden" inkscape:connector-curvature="0" class="st1" d="M38.1,7.1L39.2,7l-0.5,1.2l-0.5,1.5l-0.1,0.1L38,10l-0.2,0.1
	l-1.5,0.7l-0.7,0.5l-3.5-2.4l0.6-1.4l0,0L38.1,7.1"/>
<path id="Leon" inkscape:connector-curvature="0" class="st2" d="M42.3,6.8l-0.1,2L41.9,10l0.3,2.1l-1.8,0.2l-0.1-0.4l-5.1,0.7
	l0.6-1.2l0.7-0.5l1.5-0.7l0-0.2l0.2-0.1l0.1-0.1l0.5-1.5l0.5-1.2l2.2-0.2L42.3,6.8"/>
<path id="Jefferson" inkscape:connector-curvature="0" class="st0" d="M45.2,6.6l1.5-0.1l0.1,0.2l0.1,0.7l-0.3,0.4l-0.9,1L45,10.7
	l-0.1,0.6l-1.5,3h-1L41.9,10l0.2-1.2l0.1-2L45.2,6.6"/>
<path id="Madison" inkscape:connector-curvature="0" class="st1" d="M49.5,6.4H50l0.5,0.2L51,8.3l0.3,0.6L51.4,9L52,9.4L51.3,11
	L50,11.2l-1.1,0.2l-0.1-0.6l-3.9,0.5l0.1-0.6l0.6-1.9l0.9-1l0.3-0.4l-0.1-0.7l-0.1-0.2L49.5,6.4"/>
<path id="Hamilton" inkscape:connector-curvature="0" class="st1" d="M51.9,6.2l5-0.3l-0.3,0.5v0.2V7l0.2,0.3L57.4,8l0.2,0l0.1,0.3
	v0.1l-0.3,0.8l-0.1,0.1l-0.6,0.3h-0.5V9.5l-1.9-0.7l-0.6-0.1h-0.9l-0.4,0.1L52.1,9l0,0L52,9.4L51.4,9l-0.1-0.1L51,8.3l-0.5-1.7
	L50,6.3L51.9,6.2"/>
<path id="Columbia" inkscape:connector-curvature="0" class="st0" d="M58,5.8l1.4-0.1l0.8,5.7L59.8,14l-1.2,1.6l-1.8-1.1l-0.7-5.2
	v0.1h0.5l0.6-0.3L57.3,9l0.3-0.8V8.1l0-0.1l-0.1-0.1l-0.6-0.7l-0.2-0.3V6.5V6.3L57,5.8H58"/>
<path id="Baker" inkscape:connector-curvature="0" class="st1" d="M59.9,5.6l2.3-0.1l0.3,1.8l0.1,0.3l0.2,0.3L63,8.1h0.1l1.3-0.2
	L64.5,9l0.2,1.7l-1,0.2l-3.5,0.6l-0.8-5.7L59.9,5.6"/>
<path id="Duval" inkscape:connector-curvature="0" class="st2" d="M64.6,9.3l2-2.8l0.9-1.3L67.7,5l0.1-0.1l0.8-0.3h1.3h0.2l0.7,0.7
	L71,5.4l0.2,0.2l0.3,1l0.2,0.7l0.1,0.5l0.1,0.4L72,8.5l-0.6,0.1l0.3,1.9l-1.2,0.2l-0.7-0.4h-0.3l-0.6,0.3l-0.1-0.9h-0.3l-0.3,0.1
	l-2.3,0.4l-1.1,0.2L64.6,9.3"/>
<path id="Nassau" inkscape:connector-curvature="0" class="st2" d="M70.4,2.5l0.4,2.6l-0.7-0.6h-0.2h-1.3l-0.8,0.3l-0.1,0.1
	l-0.2,0.2l-0.9,1.3l-2,2.8l-0.2-1.1l0.1-0.9l0.1-0.9V5.4L64.5,5l-0.4-0.5l-0.2-0.3V3.9L64,2.5l1.1-0.7l0.5,0.3l1.7,0.4l1.3,0.1h0.7
	l0.9-0.1H70.4"/>
<g>
	<rect x="31.1" y="71.3" class="st4" width="6.2" height="2.3"/>
	<rect x="25" y="71.3" class="st3" width="6.2" height="2.3"/>
	<rect x="19" y="71.3" class="st2" width="6.2" height="2.3"/>
	<rect x="12.9" y="71.3" class="st0" width="6.2" height="2.3"/>
	<rect x="6.8" y="71.3" class="st1" width="6.2" height="2.3"/>
</g>
<g>
	<path d="M4.7,75.3v-0.2c-0.1,0-0.2,0-0.3-0.1l0-0.1c0.1,0,0.2,0.1,0.3,0.1C4.9,75,5,74.9,5,74.8c0-0.1-0.1-0.2-0.2-0.2
		c-0.2-0.1-0.3-0.2-0.3-0.3c0-0.2,0.1-0.3,0.3-0.3v-0.2h0.1v0.2c0.1,0,0.2,0,0.3,0.1l0,0.1C5.1,74,5,74,4.8,74
		c-0.2,0-0.2,0.1-0.2,0.2c0,0.1,0.1,0.2,0.2,0.2c0.2,0.1,0.3,0.2,0.3,0.4c0,0.2-0.1,0.3-0.3,0.3v0.2H4.7z"/>
	<path d="M6.2,74H5.7l0,0.3c0,0,0.1,0,0.1,0c0.1,0,0.2,0,0.3,0.1c0.1,0.1,0.2,0.2,0.2,0.3c0,0.3-0.2,0.4-0.5,0.4
		c-0.1,0-0.3,0-0.3-0.1l0-0.1C5.5,75,5.6,75,5.7,75c0.2,0,0.3-0.1,0.3-0.3c0-0.2-0.1-0.3-0.4-0.3c-0.1,0-0.1,0-0.2,0l0.1-0.6h0.6V74
		z"/>
	<path d="M7.3,74.5c0,0.4-0.2,0.7-0.5,0.7c-0.3,0-0.4-0.2-0.4-0.7c0-0.4,0.2-0.7,0.5-0.7C7.2,73.8,7.3,74.1,7.3,74.5z M6.6,74.5
		c0,0.3,0.1,0.5,0.3,0.5c0.2,0,0.3-0.2,0.3-0.5c0-0.3-0.1-0.5-0.3-0.5C6.7,73.9,6.6,74.1,6.6,74.5z"/>
	<path d="M8.3,74.5c0,0.4-0.2,0.7-0.5,0.7c-0.3,0-0.4-0.2-0.4-0.7c0-0.4,0.2-0.7,0.5-0.7C8.2,73.8,8.3,74.1,8.3,74.5z M7.6,74.5
		c0,0.3,0.1,0.5,0.3,0.5c0.2,0,0.3-0.2,0.3-0.5c0-0.3-0.1-0.5-0.3-0.5C7.8,73.9,7.6,74.1,7.6,74.5z"/>
</g>
<g>
	<path d="M35.1,75.3v-0.2c-0.1,0-0.2,0-0.3-0.1l0-0.1c0.1,0,0.2,0.1,0.3,0.1c0.1,0,0.2-0.1,0.2-0.2c0-0.1-0.1-0.2-0.2-0.2
		c-0.2-0.1-0.3-0.2-0.3-0.3c0-0.2,0.1-0.3,0.3-0.3v-0.2h0.1v0.2c0.1,0,0.2,0,0.3,0.1l0,0.1c0,0-0.1-0.1-0.3-0.1
		C35,74,35,74.1,35,74.2c0,0.1,0.1,0.2,0.2,0.2c0.2,0.1,0.3,0.2,0.3,0.4c0,0.2-0.1,0.3-0.3,0.3v0.2H35.1z"/>
	<path d="M35.8,74.9c0.1,0,0.2,0.1,0.3,0.1c0.2,0,0.3-0.1,0.3-0.3c0-0.2-0.2-0.3-0.3-0.3h-0.1v-0.1H36c0.1,0,0.3-0.1,0.3-0.2
		c0-0.1-0.1-0.2-0.2-0.2c-0.1,0-0.2,0-0.3,0.1l0-0.1c0.1,0,0.2-0.1,0.3-0.1c0.3,0,0.4,0.2,0.4,0.3c0,0.1-0.1,0.2-0.2,0.3v0
		c0.2,0,0.3,0.2,0.3,0.3c0,0.2-0.2,0.4-0.5,0.4c-0.1,0-0.3,0-0.3-0.1L35.8,74.9z"/>
	<path d="M37.6,74.5c0,0.4-0.2,0.7-0.5,0.7c-0.3,0-0.4-0.2-0.4-0.7c0-0.4,0.2-0.7,0.5-0.7C37.5,73.8,37.6,74.1,37.6,74.5z
		 M36.9,74.5c0,0.3,0.1,0.5,0.3,0.5c0.2,0,0.3-0.2,0.3-0.5c0-0.3-0.1-0.5-0.3-0.5C37,73.9,36.9,74.1,36.9,74.5z"/>
	<path d="M38.7,74.5c0,0.4-0.2,0.7-0.5,0.7c-0.3,0-0.4-0.2-0.4-0.7c0-0.4,0.2-0.7,0.5-0.7C38.5,73.8,38.7,74.1,38.7,74.5z M38,74.5
		c0,0.3,0.1,0.5,0.3,0.5c0.2,0,0.3-0.2,0.3-0.5c0-0.3-0.1-0.5-0.3-0.5C38.1,73.9,38,74.1,38,74.5z"/>
	<path d="M39.7,74.5c0,0.4-0.2,0.7-0.5,0.7c-0.3,0-0.4-0.2-0.4-0.7c0-0.4,0.2-0.7,0.5-0.7C39.5,73.8,39.7,74.1,39.7,74.5z M39,74.5
		c0,0.3,0.1,0.5,0.3,0.5c0.2,0,0.3-0.2,0.3-0.5c0-0.3-0.1-0.5-0.3-0.5C39.1,73.9,39,74.1,39,74.5z"/>
</g>
</svg>
