<?xml version="1.0" encoding="utf-8"?>
<!-- Generator: Adobe Illustrator 26.5.0, SVG Export Plug-In . SVG Version: 6.00 Build 0)  -->
<svg version="1.1" id="graphic" xmlns="http://www.w3.org/2000/svg" xmlns:xlink="http://www.w3.org/1999/xlink" x="0px" y="0px"
	 viewBox="0 0 582.8 628" style="enable-background:new 0 0 582.8 628;" xml:space="preserve">
<style type="text/css">
	.st0{fill:#EEEEEE;fill-opacity:0;}
	.st1{enable-background:new    ;}
	.st2{fill:#FDA65D;}
	.st3{fill:#E26A2C;}
	.st4{fill:#FFD6A3;}
	.st5{opacity:0.5;fill:none;stroke:#EBEBEB;stroke-width:2;enable-background:new    ;}
	.st6{fill-opacity:0;}
	.st7{opacity:0.8;fill:none;stroke:#CCCCCC;stroke-dasharray:2,2;enable-background:new    ;}
	.st8{opacity:0.5;fill:none;stroke:#EAEAEA;stroke-width:2;enable-background:new    ;}
	.st9{opacity:0.5;fill:none;stroke:#E1E1E1;stroke-width:2;enable-background:new    ;}
	.st10{fill:none;stroke:#FF8F4A;stroke-width:2;stroke-miterlimit:10;}
	.st11{fill:none;stroke:#FF731D;stroke-width:2;stroke-miterlimit:10;}
	.st12{fill:none;stroke:#FFAB77;stroke-width:2;stroke-miterlimit:10;}
	.st13{fill:#FFAB77;}
	.st14{fill:#FF8F4A;}
	.st15{fill:#FF731D;}
</style>
<g>
	<g transform="translate(0, 0)">
		<g>
			<polygon class="st0" points="1.9,25.2 1.9,25.2 1.9,25.2 			"/>
		</g>
		<g transform="translate(0, 0)">
			<g transform="translate(153.1990234375,579)">
				<g class="st1">
					<path d="M-52.8,8.2v-10h1.1V7h4v1.2H-52.8z"/>
					<path d="M-46.9,4.6c0-1.3,0.3-2.2,0.8-2.8s1.2-1,2-1c0.8,0,1.5,0.3,2,1s0.8,1.6,0.8,2.8c0,1.3-0.3,2.3-0.8,2.9s-1.2,1-2,1
						c-0.8,0-1.5-0.3-2-1C-46.6,6.8-46.9,5.8-46.9,4.6z M-45.9,4.6c0,0.9,0.2,1.6,0.5,2.1c0.3,0.5,0.8,0.7,1.3,0.7
						c0.5,0,0.9-0.2,1.2-0.7c0.3-0.5,0.5-1.2,0.5-2.1c0-0.9-0.2-1.6-0.5-2.1c-0.3-0.5-0.8-0.7-1.3-0.7c-0.5,0-0.9,0.2-1.2,0.7
						S-45.9,3.6-45.9,4.6z"/>
					<path d="M-39,8.2L-40.9,1h1l0.9,4.2l0.4,1.6l0.3-1.5l0.9-4.3h1l0.9,4.2l0.3,1.4l0.3-1.4l1-4.2h1l-1.9,7.3h-1.1l-1-4.3l-0.2-1.2
						L-38,8.2H-39z"/>
					<path d="M-28.5,8.2v-10h3.1c0.7,0,1.3,0.1,1.6,0.2c0.5,0.2,0.9,0.5,1.1,1s0.4,1,0.4,1.7c0,0.9-0.2,1.6-0.7,2.2
						s-1.3,0.9-2.4,0.9h-2.1v4.1H-28.5z M-27.4,3h2.1c0.7,0,1.2-0.2,1.5-0.5c0.3-0.3,0.5-0.8,0.5-1.4c0-0.4-0.1-0.7-0.2-1
						s-0.3-0.5-0.6-0.6s-0.6-0.2-1.2-0.2h-2.1V3z"/>
					<path d="M-21.4,4.6c0-1.3,0.3-2.2,0.8-2.8s1.2-1,2-1c0.8,0,1.5,0.3,2,1s0.8,1.6,0.8,2.8c0,1.3-0.3,2.3-0.8,2.9s-1.2,1-2,1
						c-0.8,0-1.5-0.3-2-1C-21.1,6.8-21.4,5.8-21.4,4.6z M-20.4,4.6c0,0.9,0.2,1.6,0.5,2.1c0.3,0.5,0.8,0.7,1.3,0.7
						c0.5,0,0.9-0.2,1.2-0.7c0.3-0.5,0.5-1.2,0.5-2.1c0-0.9-0.2-1.6-0.5-2.1c-0.3-0.5-0.8-0.7-1.3-0.7c-0.5,0-0.9,0.2-1.2,0.7
						S-20.4,3.6-20.4,4.6z"/>
					<path d="M-13,8.2L-15.2,1h1.1l1.3,4.3c0.1,0.5,0.3,1,0.4,1.5c0.1-0.4,0.2-0.8,0.4-1.4l1.3-4.4h1L-12,8.2H-13z"/>
					<path d="M-4.8,5.9l1,0.2c-0.2,0.8-0.5,1.4-0.9,1.8c-0.5,0.4-1,0.6-1.7,0.6c-0.8,0-1.5-0.3-2-1C-9,6.8-9.2,5.9-9.2,4.6
						c0-1.3,0.3-2.2,0.8-2.9c0.5-0.7,1.2-1,2-1c0.8,0,1.4,0.3,1.9,1s0.8,1.6,0.8,2.8l0,0.3h-4.4c0,0.8,0.2,1.4,0.6,1.8
						s0.7,0.6,1.2,0.6C-5.6,7.4-5.1,6.9-4.8,5.9z M-8.1,3.9h3.3c0-0.6-0.2-1.1-0.4-1.4C-5.5,2-5.9,1.8-6.4,1.8
						c-0.5,0-0.8,0.2-1.2,0.6C-7.9,2.7-8.1,3.2-8.1,3.9z"/>
					<path d="M-2.5,8.2V1h0.9v1.1c0.2-0.5,0.4-0.8,0.6-1c0.2-0.2,0.4-0.2,0.7-0.2c0.3,0,0.7,0.1,1,0.4L0.4,2.3
						C0.2,2.2-0.1,2.1-0.3,2.1c-0.2,0-0.4,0.1-0.6,0.2s-0.3,0.4-0.4,0.6c-0.1,0.5-0.2,1-0.2,1.5v3.8H-2.5z"/>
					<path d="M3.6,7.1l0.1,1.1C3.4,8.3,3.2,8.3,3,8.3c-0.4,0-0.6-0.1-0.8-0.2C1.9,8,1.8,7.8,1.7,7.5S1.6,6.8,1.6,6.1V1.9H0.8V1h0.7
						v-1.8l1-0.7V1h1v1h-1v4.2c0,0.4,0,0.6,0.1,0.8c0.1,0.2,0.2,0.2,0.5,0.2C3.2,7.2,3.4,7.1,3.6,7.1z"/>
					<path d="M4.5,11L4.4,9.9C4.6,9.9,4.8,10,5,10c0.2,0,0.4,0,0.5-0.1s0.3-0.2,0.3-0.4C5.9,9.4,6,9,6.2,8.2L4,1h1.1l1.2,4.2
						c0.2,0.5,0.3,1.1,0.4,1.7C6.8,6.3,7,5.7,7.1,5.2L8.4,1h1L7.2,8.3c-0.3,1-0.5,1.6-0.7,1.9c-0.2,0.3-0.4,0.6-0.6,0.7
						s-0.5,0.2-0.7,0.2C4.9,11.2,4.7,11.1,4.5,11z"/>
					<path d="M13.6,8.2v-10h2.8c0.7,0,1.2,0.1,1.6,0.2c0.5,0.2,0.9,0.5,1.2,0.9s0.6,1,0.8,1.6c0.2,0.6,0.3,1.4,0.3,2.3
						c0,1.1-0.2,2.1-0.5,2.9c-0.3,0.8-0.8,1.4-1.3,1.7c-0.5,0.3-1.2,0.5-2,0.5H13.6z M14.7,7h1.8c0.7,0,1.2-0.1,1.6-0.3
						c0.4-0.2,0.6-0.6,0.8-1.1c0.3-0.7,0.4-1.5,0.4-2.4c0-1-0.1-1.8-0.4-2.4c-0.3-0.6-0.6-1-1.1-1.2c-0.3-0.1-0.8-0.2-1.4-0.2h-1.7
						V7z"/>
					<path d="M21.7-0.4v-1.4h1v1.4H21.7z M21.7,8.2V1h1v7.3H21.7z"/>
					<path d="M23.9,6l1-0.2C25,6.4,25.1,6.7,25.4,7c0.3,0.2,0.6,0.4,1.1,0.4c0.4,0,0.8-0.1,1-0.3c0.2-0.2,0.4-0.5,0.4-0.8
						c0-0.3-0.1-0.5-0.3-0.7c-0.1-0.1-0.5-0.2-1-0.4c-0.8-0.2-1.3-0.4-1.6-0.6s-0.5-0.4-0.6-0.7s-0.2-0.6-0.2-1
						c0-0.6,0.2-1.1,0.6-1.5s0.9-0.6,1.6-0.6c0.4,0,0.8,0.1,1.2,0.2s0.6,0.4,0.8,0.6s0.3,0.7,0.4,1.2l-1,0.2
						c-0.1-0.8-0.5-1.2-1.3-1.2c-0.4,0-0.8,0.1-1,0.3S25,2.5,25,2.7c0,0.3,0.1,0.5,0.3,0.6c0.1,0.1,0.5,0.2,1.1,0.4
						c0.8,0.3,1.4,0.5,1.6,0.6c0.2,0.2,0.4,0.4,0.6,0.6c0.1,0.3,0.2,0.6,0.2,1c0,0.7-0.2,1.3-0.7,1.7c-0.4,0.4-1,0.6-1.8,0.6
						C25,8.4,24.1,7.6,23.9,6z"/>
					<path d="M32.3,7.1l0.1,1.1c-0.3,0.1-0.5,0.1-0.8,0.1c-0.4,0-0.6-0.1-0.8-0.2c-0.2-0.1-0.4-0.3-0.4-0.6s-0.1-0.7-0.1-1.4V1.9
						h-0.7V1h0.7v-1.8l1-0.7V1h1v1h-1v4.2c0,0.4,0,0.6,0.1,0.8c0.1,0.2,0.2,0.2,0.5,0.2C31.9,7.2,32.1,7.1,32.3,7.1z"/>
					<path d="M33.2,8.2V1h0.9v1.1c0.2-0.5,0.4-0.8,0.6-1c0.2-0.2,0.4-0.2,0.7-0.2c0.3,0,0.7,0.1,1,0.4l-0.3,1.1
						c-0.3-0.2-0.5-0.3-0.7-0.3c-0.2,0-0.4,0.1-0.6,0.2s-0.3,0.4-0.4,0.6c-0.1,0.5-0.2,1-0.2,1.5v3.8H33.2z"/>
					<path d="M37.1-0.4v-1.4h1v1.4H37.1z M37.1,8.2V1h1v7.3H37.1z"/>
					<path d="M43.5,5.6l1,0.2c-0.1,0.9-0.4,1.5-0.9,2s-1,0.7-1.7,0.7c-0.8,0-1.4-0.3-1.9-1c-0.5-0.6-0.8-1.6-0.8-2.8
						c0-1.3,0.3-2.2,0.8-2.8c0.5-0.6,1.2-0.9,2-0.9c0.6,0,1.1,0.2,1.6,0.6s0.7,1,0.8,1.7l-1,0.2c-0.1-0.5-0.3-0.9-0.5-1.1
						c-0.2-0.2-0.5-0.4-0.9-0.4c-0.5,0-0.9,0.2-1.2,0.7c-0.3,0.4-0.5,1.1-0.5,2.1c0,1,0.2,1.7,0.5,2.1s0.7,0.7,1.2,0.7
						c0.4,0,0.7-0.1,1-0.4C43.3,6.6,43.4,6.2,43.5,5.6z"/>
					<path d="M47.6,7.1l0.1,1.1c-0.3,0.1-0.5,0.1-0.8,0.1c-0.4,0-0.6-0.1-0.8-0.2c-0.2-0.1-0.4-0.3-0.4-0.6s-0.1-0.7-0.1-1.4V1.9
						h-0.7V1h0.7v-1.8l1-0.7V1h1v1h-1v4.2c0,0.4,0,0.6,0.1,0.8c0.1,0.2,0.2,0.2,0.5,0.2C47.3,7.2,47.4,7.1,47.6,7.1z"/>
					<path d="M48.1,6l1-0.2c0.1,0.5,0.2,0.9,0.5,1.1c0.3,0.2,0.6,0.4,1.1,0.4c0.4,0,0.8-0.1,1-0.3c0.2-0.2,0.4-0.5,0.4-0.8
						c0-0.3-0.1-0.5-0.3-0.7c-0.1-0.1-0.5-0.2-1-0.4c-0.8-0.2-1.3-0.4-1.6-0.6s-0.5-0.4-0.6-0.7s-0.2-0.6-0.2-1
						c0-0.6,0.2-1.1,0.6-1.5s0.9-0.6,1.6-0.6c0.4,0,0.8,0.1,1.2,0.2s0.6,0.4,0.8,0.6s0.3,0.7,0.4,1.2l-1,0.2
						c-0.1-0.8-0.5-1.2-1.3-1.2c-0.4,0-0.8,0.1-1,0.3s-0.3,0.4-0.3,0.7c0,0.3,0.1,0.5,0.3,0.6c0.1,0.1,0.5,0.2,1.1,0.4
						c0.8,0.3,1.4,0.5,1.6,0.6c0.2,0.2,0.4,0.4,0.6,0.6c0.1,0.3,0.2,0.6,0.2,1c0,0.7-0.2,1.3-0.7,1.7c-0.4,0.4-1,0.6-1.8,0.6
						C49.2,8.4,48.4,7.6,48.1,6z"/>
				</g>
				<g class="st1">
					<path d="M218.7,8.2v-10h1.1v4.1h4.3v-4.1h1.1v10H224V3.5h-4.3v4.7H218.7z"/>
					<path d="M226.8-0.4v-1.4h1v1.4H226.8z M226.8,8.2V1h1v7.3H226.8z"/>
					<path d="M229.2,8.8l1,0.2c0,0.4,0.2,0.7,0.4,0.9c0.2,0.2,0.5,0.3,1,0.3c0.4,0,0.8-0.1,1.1-0.3c0.3-0.2,0.4-0.5,0.5-0.9
						c0.1-0.3,0.1-0.8,0.1-1.6c-0.2,0.3-0.5,0.5-0.7,0.7c-0.3,0.2-0.6,0.2-0.9,0.2c-0.7,0-1.3-0.3-1.8-0.9c-0.5-0.7-0.8-1.6-0.8-2.8
						c0-0.8,0.1-1.5,0.4-2c0.2-0.6,0.5-1,0.9-1.3c0.4-0.3,0.8-0.4,1.3-0.4c0.4,0,0.7,0.1,1,0.3c0.3,0.2,0.5,0.4,0.8,0.8V1h0.9v6.3
						c0,1.1-0.1,1.9-0.3,2.4c-0.2,0.5-0.5,0.9-0.9,1.1c-0.4,0.3-0.9,0.4-1.5,0.4c-0.8,0-1.4-0.2-1.8-0.6
						C229.4,10.1,229.2,9.5,229.2,8.8z M230,4.5c0,1,0.2,1.7,0.5,2.1c0.3,0.4,0.7,0.7,1.2,0.7c0.5,0,0.8-0.2,1.2-0.6
						c0.3-0.4,0.5-1.1,0.5-2c0-0.9-0.2-1.6-0.5-2s-0.7-0.7-1.2-0.7c-0.4,0-0.8,0.2-1.1,0.7S230,3.6,230,4.5z"/>
					<path d="M235.8,8.2v-10h1v3.6c0.2-0.3,0.5-0.6,0.8-0.7c0.3-0.2,0.6-0.2,1-0.2c0.6,0,1.1,0.2,1.5,0.6c0.4,0.4,0.5,1.1,0.5,2.2
						v4.6h-1V3.6c0-0.6-0.1-1.1-0.3-1.4c-0.2-0.3-0.5-0.4-0.9-0.4c-0.4,0-0.8,0.2-1.1,0.5s-0.5,1-0.5,1.9v4H235.8z"/>
					<path d="M245.5,8.2v-10h3.1c0.7,0,1.3,0.1,1.6,0.2c0.5,0.2,0.9,0.5,1.1,1c0.3,0.5,0.4,1,0.4,1.7c0,0.9-0.2,1.6-0.7,2.2
						c-0.5,0.6-1.3,0.9-2.4,0.9h-2.1v4.1H245.5z M246.6,3h2.1c0.7,0,1.2-0.2,1.5-0.5c0.3-0.3,0.5-0.8,0.5-1.4c0-0.4-0.1-0.7-0.2-1
						c-0.2-0.3-0.3-0.5-0.6-0.6c-0.2-0.1-0.6-0.2-1.2-0.2h-2.1V3z"/>
					<path d="M252.6,4.6c0-1.3,0.3-2.2,0.8-2.8s1.2-1,2-1c0.8,0,1.5,0.3,2,1s0.8,1.6,0.8,2.8c0,1.3-0.3,2.3-0.8,2.9
						c-0.5,0.6-1.2,1-2,1c-0.8,0-1.5-0.3-2-1C252.9,6.8,252.6,5.8,252.6,4.6z M253.6,4.6c0,0.9,0.2,1.6,0.5,2.1
						c0.3,0.5,0.8,0.7,1.3,0.7c0.5,0,0.9-0.2,1.2-0.7c0.3-0.5,0.5-1.2,0.5-2.1c0-0.9-0.2-1.6-0.5-2.1c-0.3-0.5-0.8-0.7-1.3-0.7
						c-0.5,0-0.9,0.2-1.2,0.7C253.8,3,253.6,3.6,253.6,4.6z"/>
					<path d="M261,8.2L258.8,1h1.1l1.3,4.3c0.1,0.5,0.3,1,0.4,1.5c0.1-0.4,0.2-0.8,0.4-1.4l1.3-4.4h1L262,8.2H261z"/>
					<path d="M269.2,5.9l1,0.2c-0.2,0.8-0.5,1.4-0.9,1.8c-0.5,0.4-1,0.6-1.7,0.6c-0.8,0-1.5-0.3-2-1c-0.5-0.6-0.8-1.6-0.8-2.8
						c0-1.3,0.3-2.2,0.8-2.9c0.5-0.7,1.2-1,2-1c0.8,0,1.4,0.3,1.9,1c0.5,0.6,0.8,1.6,0.8,2.8l0,0.3h-4.4c0,0.8,0.2,1.4,0.6,1.8
						c0.3,0.4,0.7,0.6,1.2,0.6C268.4,7.4,268.9,6.9,269.2,5.9z M265.9,3.9h3.3c0-0.6-0.2-1.1-0.4-1.4c-0.3-0.5-0.7-0.7-1.2-0.7
						c-0.5,0-0.8,0.2-1.2,0.6C266.1,2.7,265.9,3.2,265.9,3.9z"/>
					<path d="M271.5,8.2V1h0.9v1.1c0.2-0.5,0.4-0.8,0.6-1c0.2-0.2,0.4-0.2,0.7-0.2c0.3,0,0.7,0.1,1,0.4l-0.3,1.1
						c-0.2-0.2-0.5-0.3-0.7-0.3c-0.2,0-0.4,0.1-0.6,0.2s-0.3,0.4-0.4,0.6c-0.1,0.5-0.2,1-0.2,1.5v3.8H271.5z"/>
					<path d="M277.6,7.1l0.1,1.1c-0.3,0.1-0.5,0.1-0.8,0.1c-0.4,0-0.6-0.1-0.8-0.2c-0.2-0.1-0.4-0.3-0.4-0.6
						c-0.1-0.2-0.1-0.7-0.1-1.4V1.9h-0.7V1h0.7v-1.8l1-0.7V1h1v1h-1v4.2c0,0.4,0,0.6,0.1,0.8c0.1,0.2,0.2,0.2,0.5,0.2
						C277.2,7.2,277.4,7.1,277.6,7.1z"/>
					<path d="M278.5,11l-0.1-1.2c0.2,0.1,0.4,0.1,0.6,0.1c0.2,0,0.4,0,0.5-0.1c0.1-0.1,0.3-0.2,0.3-0.4c0-0.1,0.2-0.5,0.4-1.2L278,1
						h1.1l1.2,4.2c0.2,0.5,0.3,1.1,0.4,1.7c0.1-0.6,0.3-1.1,0.4-1.7l1.3-4.2h1l-2.3,7.4c-0.3,1-0.5,1.6-0.7,1.9
						c-0.2,0.3-0.4,0.6-0.6,0.7s-0.5,0.2-0.7,0.2C278.9,11.2,278.7,11.1,278.5,11z"/>
					<path d="M287.6,8.2v-10h2.8c0.7,0,1.2,0.1,1.6,0.2c0.5,0.2,0.9,0.5,1.2,0.9c0.4,0.4,0.6,1,0.8,1.6c0.2,0.6,0.3,1.4,0.3,2.3
						c0,1.1-0.2,2.1-0.5,2.9c-0.3,0.8-0.8,1.4-1.3,1.7c-0.5,0.3-1.2,0.5-2,0.5H287.6z M288.6,7h1.8c0.7,0,1.2-0.1,1.6-0.3
						c0.4-0.2,0.6-0.6,0.8-1.1c0.3-0.7,0.4-1.5,0.4-2.4c0-1-0.1-1.8-0.4-2.4c-0.3-0.6-0.6-1-1.1-1.2c-0.3-0.1-0.8-0.2-1.4-0.2h-1.7
						V7z"/>
					<path d="M295.7-0.4v-1.4h1v1.4H295.7z M295.7,8.2V1h1v7.3H295.7z"/>
					<path d="M297.9,6l1-0.2c0.1,0.5,0.2,0.9,0.5,1.1c0.3,0.2,0.6,0.4,1.1,0.4c0.4,0,0.8-0.1,1-0.3c0.2-0.2,0.4-0.5,0.4-0.8
						c0-0.3-0.1-0.5-0.3-0.7c-0.1-0.1-0.5-0.2-1-0.4c-0.8-0.2-1.3-0.4-1.6-0.6c-0.3-0.2-0.5-0.4-0.6-0.7c-0.1-0.3-0.2-0.6-0.2-1
						c0-0.6,0.2-1.1,0.6-1.5s0.9-0.6,1.6-0.6c0.4,0,0.8,0.1,1.2,0.2s0.6,0.4,0.8,0.6s0.3,0.7,0.4,1.2l-1,0.2
						c-0.1-0.8-0.5-1.2-1.3-1.2c-0.4,0-0.8,0.1-1,0.3c-0.2,0.2-0.3,0.4-0.3,0.7c0,0.3,0.1,0.5,0.3,0.6c0.1,0.1,0.5,0.2,1.1,0.4
						c0.8,0.3,1.4,0.5,1.6,0.6c0.2,0.2,0.4,0.4,0.6,0.6c0.1,0.3,0.2,0.6,0.2,1c0,0.7-0.2,1.3-0.7,1.7c-0.4,0.4-1,0.6-1.8,0.6
						C298.9,8.4,298.1,7.6,297.9,6z"/>
					<path d="M306.3,7.1l0.1,1.1c-0.3,0.1-0.5,0.1-0.8,0.1c-0.4,0-0.6-0.1-0.8-0.2c-0.2-0.1-0.4-0.3-0.4-0.6
						c-0.1-0.2-0.1-0.7-0.1-1.4V1.9h-0.7V1h0.7v-1.8l1-0.7V1h1v1h-1v4.2c0,0.4,0,0.6,0.1,0.8c0.1,0.2,0.2,0.2,0.5,0.2
						C305.9,7.2,306.1,7.1,306.3,7.1z"/>
					<path d="M307.2,8.2V1h0.9v1.1c0.2-0.5,0.4-0.8,0.6-1c0.2-0.2,0.4-0.2,0.7-0.2c0.3,0,0.7,0.1,1,0.4l-0.3,1.1
						c-0.2-0.2-0.5-0.3-0.7-0.3c-0.2,0-0.4,0.1-0.6,0.2s-0.3,0.4-0.4,0.6c-0.1,0.5-0.2,1-0.2,1.5v3.8H307.2z"/>
					<path d="M311-0.4v-1.4h1v1.4H311z M311,8.2V1h1v7.3H311z"/>
					<path d="M317.5,5.6l1,0.2c-0.1,0.9-0.4,1.5-0.9,2s-1,0.7-1.7,0.7c-0.8,0-1.4-0.3-1.9-1c-0.5-0.6-0.8-1.6-0.8-2.8
						c0-1.3,0.3-2.2,0.8-2.8c0.5-0.6,1.2-0.9,2-0.9c0.6,0,1.1,0.2,1.6,0.6c0.4,0.4,0.7,1,0.8,1.7l-1,0.2c-0.1-0.5-0.3-0.9-0.5-1.1
						c-0.2-0.2-0.5-0.4-0.9-0.4c-0.5,0-0.9,0.2-1.2,0.7c-0.3,0.4-0.5,1.1-0.5,2.1c0,1,0.2,1.7,0.5,2.1c0.3,0.4,0.7,0.7,1.2,0.7
						c0.4,0,0.7-0.1,1-0.4C317.2,6.6,317.4,6.2,317.5,5.6z"/>
					<path d="M321.6,7.1l0.1,1.1c-0.3,0.1-0.5,0.1-0.8,0.1c-0.4,0-0.6-0.1-0.8-0.2c-0.2-0.1-0.4-0.3-0.4-0.6
						c-0.1-0.2-0.1-0.7-0.1-1.4V1.9h-0.7V1h0.7v-1.8l1-0.7V1h1v1h-1v4.2c0,0.4,0,0.6,0.1,0.8c0.1,0.2,0.2,0.2,0.5,0.2
						C321.2,7.2,321.4,7.1,321.6,7.1z"/>
					<path d="M322.1,6l1-0.2c0.1,0.5,0.2,0.9,0.5,1.1c0.3,0.2,0.6,0.4,1.1,0.4c0.4,0,0.8-0.1,1-0.3c0.2-0.2,0.4-0.5,0.4-0.8
						c0-0.3-0.1-0.5-0.3-0.7c-0.1-0.1-0.5-0.2-1-0.4c-0.8-0.2-1.3-0.4-1.6-0.6c-0.3-0.2-0.5-0.4-0.6-0.7c-0.1-0.3-0.2-0.6-0.2-1
						c0-0.6,0.2-1.1,0.6-1.5s0.9-0.6,1.6-0.6c0.4,0,0.8,0.1,1.2,0.2s0.6,0.4,0.8,0.6s0.3,0.7,0.4,1.2l-1,0.2
						c-0.1-0.8-0.5-1.2-1.3-1.2c-0.4,0-0.8,0.1-1,0.3c-0.2,0.2-0.3,0.4-0.3,0.7c0,0.3,0.1,0.5,0.3,0.6c0.1,0.1,0.5,0.2,1.1,0.4
						c0.8,0.3,1.4,0.5,1.6,0.6c0.2,0.2,0.4,0.4,0.6,0.6c0.1,0.3,0.2,0.6,0.2,1c0,0.7-0.2,1.3-0.7,1.7c-0.4,0.4-1,0.6-1.8,0.6
						C323.2,8.4,322.4,7.6,322.1,6z"/>
				</g>
			</g>
			<g transform="translate(153.1990234375,7)">
				<g>
					<g id="Nevada" transform="translate(-4.199999809265137, 421.08526611328125)">
						<path d="M1.9,25.2"/>
						<g>
							<g class="st1">
								<path d="M-33.4,26.8v-2.5c-1.2-0.4-1.8-1.3-1.8-2.6c0-0.7,0.2-1.2,0.5-1.6s0.8-0.7,1.3-0.7v-0.6h0.7v0.6
									c0.5,0.1,0.9,0.3,1.2,0.6s0.5,0.8,0.6,1.4l-1.2,0.2c-0.1-0.5-0.3-0.8-0.6-0.9v2.3c0.7,0.2,1.3,0.5,1.5,0.9
									c0.3,0.4,0.5,1,0.5,1.6c0,0.7-0.2,1.3-0.5,1.8s-0.8,0.8-1.5,0.9v1.1h-0.7v-1.1c-1.2-0.2-1.8-1-2-2.5l1.3-0.2
									c0.1,0.3,0.1,0.6,0.3,0.8S-33.6,26.7-33.4,26.8z M-33.4,20.6c-0.2,0.1-0.3,0.2-0.4,0.4s-0.2,0.4-0.2,0.6
									c0,0.5,0.2,0.8,0.6,1V20.6z M-32.7,26.9c0.2-0.1,0.4-0.2,0.6-0.4s0.2-0.5,0.2-0.8c0-0.6-0.3-0.9-0.8-1.1V26.9z"/>
								<path d="M-26.4,28h-1.3v-6.2c-0.5,0.6-1.1,1-1.7,1.2v-1.5c0.4-0.2,0.8-0.4,1.2-0.8s0.7-0.8,0.8-1.4h1.1V28z"/>
								<path d="M-19.8,26.5V28h-4.7c0.1-0.6,0.2-1.1,0.5-1.6c0.3-0.5,0.8-1.2,1.5-2.1c0.6-0.7,1-1.1,1.1-1.4c0.2-0.3,0.3-0.7,0.3-1
									c0-0.4-0.1-0.7-0.3-0.8s-0.4-0.3-0.7-0.3c-0.6,0-0.9,0.4-1,1.3l-1.3-0.2c0.1-0.9,0.3-1.5,0.7-1.9s0.9-0.6,1.6-0.6
									c0.7,0,1.3,0.2,1.7,0.7c0.4,0.5,0.6,1,0.6,1.7c0,0.4,0,0.7-0.1,1s-0.2,0.7-0.4,1c-0.2,0.3-0.5,0.8-1,1.3
									c-0.4,0.5-0.7,0.8-0.8,1c-0.1,0.2-0.2,0.3-0.3,0.5H-19.8z"/>
								<path d="M-18.7,26.4h1.3v1.2c0,0.7-0.1,1.2-0.2,1.5c-0.2,0.4-0.5,0.7-1,0.9l-0.3-0.7c0.3-0.1,0.5-0.3,0.6-0.4
									S-18,28.4-18,28h-0.7V26.4z"/>
								<path d="M-16.2,21.1v-1.5h4.6v1.2c-0.4,0.5-0.8,1.1-1.2,1.9s-0.7,1.7-0.9,2.7s-0.3,1.8-0.3,2.6h-1.3c0-1.2,0.2-2.4,0.6-3.7
									s0.9-2.3,1.5-3.3H-16.2z"/>
								<path d="M-10.7,26l1.3-0.2c0.1,0.6,0.3,1,0.8,1c0.3,0,0.5-0.2,0.7-0.5c0.2-0.3,0.3-1,0.4-1.9c-0.2,0.2-0.4,0.4-0.6,0.5
									c-0.2,0.1-0.4,0.2-0.7,0.2c-0.5,0-1-0.3-1.4-0.8c-0.4-0.5-0.6-1.2-0.6-2c0-0.9,0.2-1.6,0.7-2.1c0.4-0.5,1-0.8,1.6-0.8
									c0.7,0,1.3,0.3,1.8,1s0.7,1.8,0.7,3.3c0,1.6-0.2,2.7-0.7,3.4s-1.1,1-1.9,1c-0.5,0-1-0.2-1.3-0.5S-10.6,26.8-10.7,26z
									 M-7.6,22.5c0-0.5-0.1-1-0.3-1.2c-0.2-0.3-0.4-0.4-0.7-0.4c-0.2,0-0.5,0.1-0.6,0.4c-0.2,0.2-0.2,0.6-0.2,1.2s0.1,1,0.3,1.2
									c0.2,0.3,0.4,0.4,0.7,0.4c0.3,0,0.5-0.1,0.7-0.4C-7.7,23.3-7.6,23-7.6,22.5z"/>
								<path d="M-4.1,23.4c-0.3-0.2-0.6-0.4-0.7-0.7C-5,22.4-5.1,22-5.1,21.6c0-0.7,0.2-1.2,0.6-1.6s0.9-0.6,1.5-0.6
									c0.7,0,1.2,0.2,1.6,0.6s0.5,0.9,0.5,1.6c0,0.4-0.1,0.8-0.3,1.1c-0.2,0.3-0.4,0.5-0.7,0.7c0.4,0.2,0.7,0.5,0.9,0.8
									c0.2,0.4,0.3,0.8,0.3,1.3c0,0.5-0.1,1-0.3,1.4s-0.5,0.7-0.8,0.9s-0.7,0.3-1.2,0.3c-0.7,0-1.2-0.2-1.7-0.7
									C-5,27-5.3,26.4-5.3,25.6c0-0.5,0.1-1,0.3-1.3C-4.7,23.9-4.5,23.6-4.1,23.4z M-3.9,25.4c0,0.5,0.1,0.8,0.3,1.1
									c0.2,0.2,0.4,0.4,0.7,0.4s0.5-0.1,0.7-0.4c0.2-0.2,0.3-0.6,0.3-1.1c0-0.4-0.1-0.7-0.3-1c-0.2-0.2-0.4-0.4-0.7-0.4
									c-0.3,0-0.5,0.1-0.7,0.4C-3.8,24.7-3.9,25-3.9,25.4z M-3.8,21.7c0,0.3,0.1,0.6,0.2,0.8s0.4,0.3,0.6,0.3
									c0.2,0,0.4-0.1,0.6-0.3s0.2-0.4,0.2-0.8c0-0.3-0.1-0.6-0.2-0.8c-0.2-0.2-0.4-0.3-0.6-0.3c-0.2,0-0.5,0.1-0.6,0.3
									C-3.7,21.2-3.8,21.4-3.8,21.7z"/>
							</g>
						</g>
					</g>
					<g id="Nevada_00000062166868539935539160000003688974888601040545_" transform="translate(276.801953125,531.48)">
						<path class="st2" d="M1.9,25.2"/>
						<g class="st1">
							<path d="M5.4,26.6v-2.5c-1.2-0.4-1.8-1.3-1.8-2.6c0-0.7,0.2-1.2,0.5-1.6s0.8-0.7,1.3-0.7v-0.6h0.7v0.6
								c0.5,0.1,0.9,0.3,1.2,0.6s0.5,0.8,0.6,1.4l-1.2,0.2c-0.1-0.5-0.3-0.8-0.6-0.9v2.3c0.7,0.2,1.3,0.5,1.5,0.9
								c0.3,0.4,0.5,1,0.5,1.6c0,0.7-0.2,1.3-0.5,1.8S6.7,27.9,6.1,28v1.1H5.4V28c-1.2-0.2-1.8-1-2-2.5l1.3-0.2
								c0.1,0.3,0.1,0.6,0.3,0.8S5.3,26.5,5.4,26.6z M5.4,20.5c-0.2,0.1-0.3,0.2-0.4,0.4s-0.2,0.4-0.2,0.6c0,0.5,0.2,0.8,0.6,1V20.5
								z M6.1,26.7c0.2-0.1,0.4-0.2,0.6-0.4s0.2-0.5,0.2-0.8c0-0.6-0.3-0.9-0.8-1.1V26.7z"/>
							<path d="M10.1,23.3c-0.3-0.2-0.6-0.4-0.7-0.7c-0.2-0.3-0.3-0.7-0.3-1.1c0-0.7,0.2-1.2,0.6-1.6s0.9-0.6,1.5-0.6
								c0.7,0,1.2,0.2,1.6,0.6s0.5,0.9,0.5,1.6c0,0.4-0.1,0.8-0.3,1.1c-0.2,0.3-0.4,0.5-0.7,0.7c0.4,0.2,0.7,0.5,0.9,0.8
								c0.2,0.4,0.3,0.8,0.3,1.3c0,0.5-0.1,1-0.3,1.4s-0.5,0.7-0.8,0.9s-0.7,0.3-1.2,0.3c-0.7,0-1.2-0.2-1.7-0.7
								c-0.4-0.5-0.7-1.1-0.7-1.9c0-0.5,0.1-1,0.3-1.3C9.5,23.7,9.7,23.5,10.1,23.3z M10.3,25.3c0,0.5,0.1,0.8,0.3,1.1
								c0.2,0.2,0.4,0.4,0.7,0.4s0.5-0.1,0.7-0.4c0.2-0.2,0.3-0.6,0.3-1.1c0-0.4-0.1-0.7-0.3-1c-0.2-0.2-0.4-0.4-0.7-0.4
								c-0.3,0-0.5,0.1-0.7,0.4C10.4,24.6,10.3,24.9,10.3,25.3z M10.4,21.6c0,0.3,0.1,0.6,0.2,0.8s0.4,0.3,0.6,0.3
								c0.2,0,0.4-0.1,0.6-0.3s0.2-0.4,0.2-0.8c0-0.3-0.1-0.6-0.2-0.8c-0.2-0.2-0.4-0.3-0.6-0.3c-0.2,0-0.5,0.1-0.6,0.3
								C10.5,21,10.4,21.3,10.4,21.6z"/>
							<path d="M14.4,21v-1.5H19v1.2c-0.4,0.5-0.8,1.1-1.2,1.9s-0.7,1.7-0.9,2.7s-0.3,1.8-0.3,2.6h-1.3c0-1.2,0.2-2.4,0.6-3.7
								s0.9-2.3,1.5-3.3H14.4z"/>
							<path d="M19.9,25.6l1.3-0.2c0,0.4,0.1,0.7,0.3,0.9s0.4,0.3,0.7,0.3c0.3,0,0.5-0.1,0.7-0.4s0.3-0.6,0.3-1.1
								c0-0.4-0.1-0.7-0.3-1c-0.2-0.2-0.4-0.4-0.7-0.4c-0.2,0-0.4,0-0.6,0.1l0.1-1.3c0.3,0,0.6-0.1,0.8-0.3c0.2-0.2,0.3-0.5,0.3-0.8
								c0-0.3-0.1-0.5-0.2-0.7c-0.1-0.2-0.3-0.3-0.6-0.3c-0.2,0-0.4,0.1-0.6,0.3s-0.3,0.5-0.3,0.9L20,21.5c0.1-0.8,0.4-1.4,0.8-1.7
								s0.8-0.5,1.4-0.5c0.6,0,1.2,0.2,1.5,0.7s0.6,1,0.6,1.5c0,0.4-0.1,0.7-0.3,1c-0.2,0.3-0.4,0.6-0.8,0.8c0.4,0.1,0.7,0.3,1,0.7
								s0.4,0.8,0.4,1.3c0,0.8-0.2,1.4-0.7,1.9s-1,0.8-1.7,0.8c-0.6,0-1.1-0.2-1.6-0.6S19.9,26.4,19.9,25.6z"/>
							<path d="M28.8,27.9h-1.3v-6.2c-0.5,0.6-1.1,1-1.7,1.2v-1.5c0.4-0.2,0.8-0.4,1.2-0.8s0.7-0.8,0.8-1.4h1.1V27.9z"/>
						</g>
					</g>
					<g id="Florida" transform="translate(-4.199999809265137, 441.60614013671875)">
						<path class="st2" d="M1.9,25.2"/>
						<g>
							<g class="st1">
								<path d="M-30.4,38.7v-2.5c-1.2-0.4-1.8-1.3-1.8-2.6c0-0.7,0.2-1.2,0.5-1.6s0.8-0.7,1.3-0.7v-0.6h0.7v0.6
									c0.5,0.1,0.9,0.3,1.2,0.6s0.5,0.8,0.6,1.4l-1.2,0.2c-0.1-0.5-0.3-0.8-0.6-0.9v2.3c0.7,0.2,1.3,0.5,1.5,0.9
									c0.3,0.4,0.5,1,0.5,1.6c0,0.7-0.2,1.3-0.5,1.8s-0.8,0.8-1.5,0.9v1.1h-0.7v-1.1c-1.2-0.2-1.8-1-2-2.5l1.3-0.2
									c0.1,0.3,0.1,0.6,0.3,0.8S-30.6,38.6-30.4,38.7z M-30.4,32.6c-0.2,0.1-0.3,0.2-0.4,0.4s-0.2,0.4-0.2,0.6
									c0,0.5,0.2,0.8,0.6,1V32.6z M-29.7,38.8c0.2-0.1,0.4-0.2,0.6-0.4s0.2-0.5,0.2-0.8c0-0.6-0.3-0.9-0.8-1.1V38.8z"/>
								<path d="M-23.4,40h-1.3v-6.2c-0.5,0.6-1.1,1-1.7,1.2v-1.5c0.4-0.2,0.8-0.4,1.2-0.8s0.7-0.8,0.8-1.4h1.1V40z"/>
								<path d="M-16.9,38.5V40h-4.7c0.1-0.6,0.2-1.1,0.5-1.6c0.3-0.5,0.8-1.2,1.5-2.1c0.6-0.7,1-1.1,1.1-1.4c0.2-0.3,0.3-0.7,0.3-1
									c0-0.4-0.1-0.7-0.3-0.8s-0.4-0.3-0.7-0.3c-0.6,0-0.9,0.4-1,1.3l-1.3-0.2c0.1-0.9,0.3-1.5,0.7-1.9s0.9-0.6,1.6-0.6
									c0.7,0,1.3,0.2,1.7,0.7c0.4,0.5,0.6,1,0.6,1.7c0,0.4,0,0.7-0.1,1s-0.2,0.7-0.4,1c-0.2,0.3-0.5,0.8-1,1.3
									c-0.4,0.5-0.7,0.8-0.8,1c-0.1,0.2-0.2,0.3-0.3,0.5H-16.9z"/>
								<path d="M-15.7,38.3h1.3v1.2c0,0.7-0.1,1.2-0.2,1.5c-0.2,0.4-0.5,0.7-1,0.9l-0.3-0.7c0.3-0.1,0.5-0.3,0.6-0.4
									s0.2-0.5,0.2-0.8h-0.7V38.3z"/>
								<path d="M-10.9,31.4c0.7,0,1.2,0.3,1.7,1c0.4,0.7,0.6,1.8,0.6,3.4c0,1.6-0.2,2.8-0.6,3.4c-0.4,0.6-1,1-1.7,1
									c-0.7,0-1.2-0.3-1.7-1c-0.4-0.6-0.6-1.8-0.6-3.4c0-1.6,0.2-2.7,0.6-3.4C-12.2,31.7-11.6,31.4-10.9,31.4z M-10.9,32.7
									c-0.3,0-0.5,0.2-0.6,0.5c-0.2,0.4-0.2,1.2-0.2,2.5s0.1,2.1,0.2,2.5c0.2,0.3,0.4,0.5,0.6,0.5c0.3,0,0.5-0.2,0.6-0.5
									c0.2-0.4,0.2-1.2,0.2-2.5c0-1.3-0.1-2.1-0.2-2.5C-10.4,32.9-10.7,32.7-10.9,32.7z"/>
								<path d="M-5.1,40v-1.7H-8v-1.4l3.1-5.4h1.1v5.4h0.9v1.4h-0.9V40H-5.1z M-5.1,36.8v-2.9l-1.6,2.9H-5.1z"/>
								<path d="M2.3,38.5V40h-4.7c0.1-0.6,0.2-1.1,0.5-1.6c0.3-0.5,0.8-1.2,1.5-2.1c0.6-0.7,1-1.1,1.1-1.4c0.2-0.3,0.3-0.7,0.3-1
									c0-0.4-0.1-0.7-0.3-0.8S0.3,32.7,0,32.7c-0.6,0-0.9,0.4-1,1.3l-1.3-0.2C-2.2,33-2,32.4-1.6,32s0.9-0.6,1.6-0.6
									c0.7,0,1.3,0.2,1.7,0.7c0.4,0.5,0.6,1,0.6,1.7c0,0.4,0,0.7-0.1,1s-0.2,0.7-0.4,1c-0.2,0.3-0.5,0.8-1,1.3
									c-0.4,0.5-0.7,0.8-0.8,1c-0.1,0.2-0.2,0.3-0.3,0.5H2.3z"/>
							</g>
						</g>
					</g>
					
						<g id="Florida_00000081614806278237437930000009307337081005347007_" transform="translate(276.801953125,482.07787538304393)">
						<path class="st3" d="M1.9,25.2"/>
						<g class="st1">
							<path d="M5.4,27.5v-2.5c-1.2-0.4-1.8-1.3-1.8-2.6c0-0.7,0.2-1.2,0.5-1.6s0.8-0.7,1.3-0.7v-0.6h0.7v0.6
								c0.5,0.1,0.9,0.3,1.2,0.6s0.5,0.8,0.6,1.4l-1.2,0.2c-0.1-0.5-0.3-0.8-0.6-0.9v2.3c0.7,0.2,1.3,0.5,1.5,0.9
								c0.3,0.4,0.5,1,0.5,1.6c0,0.7-0.2,1.3-0.5,1.8s-0.8,0.8-1.5,0.9V30H5.4V29c-1.2-0.2-1.8-1-2-2.5l1.3-0.2
								c0.1,0.3,0.1,0.6,0.3,0.8S5.2,27.4,5.4,27.5z M5.4,21.4c-0.2,0.1-0.3,0.2-0.4,0.4s-0.2,0.4-0.2,0.6c0,0.5,0.2,0.8,0.6,1V21.4
								z M6.1,27.6c0.2-0.1,0.4-0.2,0.6-0.4s0.2-0.5,0.2-0.8c0-0.6-0.3-0.9-0.8-1.1V27.6z"/>
							<path d="M12.4,28.8h-1.3v-6.2c-0.5,0.6-1.1,1-1.7,1.2v-1.5c0.4-0.2,0.8-0.4,1.2-0.8s0.7-0.8,0.8-1.4h1.1V28.8z"/>
							<path d="M16.7,20.2c0.7,0,1.2,0.3,1.7,1c0.4,0.7,0.6,1.8,0.6,3.4c0,1.6-0.2,2.8-0.6,3.4c-0.4,0.6-1,1-1.7,1
								c-0.7,0-1.2-0.3-1.7-1c-0.4-0.6-0.6-1.8-0.6-3.4c0-1.6,0.2-2.7,0.6-3.4C15.5,20.5,16,20.2,16.7,20.2z M16.7,21.6
								c-0.3,0-0.5,0.2-0.6,0.5c-0.2,0.4-0.2,1.2-0.2,2.5s0.1,2.1,0.2,2.5c0.2,0.3,0.4,0.5,0.6,0.5c0.3,0,0.5-0.2,0.6-0.5
								c0.2-0.4,0.2-1.2,0.2-2.5c0-1.3-0.1-2.1-0.2-2.5C17.2,21.7,17,21.6,16.7,21.6z"/>
							<path d="M20.2,27.2h1.3v1.2c0,0.7-0.1,1.2-0.2,1.5c-0.2,0.4-0.5,0.7-1,0.9L20,30.1c0.3-0.1,0.5-0.3,0.6-0.4s0.2-0.5,0.2-0.8
								h-0.7V27.2z"/>
							<path d="M22.7,26.6l1.3-0.2c0,0.4,0.2,0.7,0.3,0.9s0.4,0.3,0.6,0.3c0.3,0,0.5-0.1,0.7-0.4C25.9,27,26,26.5,26,26
								c0-0.5-0.1-0.9-0.3-1.2c-0.2-0.3-0.4-0.4-0.8-0.4c-0.4,0-0.7,0.2-1,0.6l-1.1-0.2l0.7-4.5h3.6v1.5h-2.5l-0.2,1.5
								c0.3-0.2,0.6-0.3,0.9-0.3c0.6,0,1,0.2,1.4,0.7c0.5,0.6,0.7,1.3,0.7,2.2c0,0.8-0.2,1.4-0.6,2.1S25.8,29,25,29
								c-0.6,0-1.1-0.2-1.6-0.6S22.7,27.4,22.7,26.6z"/>
							<path d="M28.1,26.6l1.3-0.2c0,0.4,0.2,0.7,0.3,0.9s0.4,0.3,0.6,0.3c0.3,0,0.5-0.1,0.7-0.4c0.2-0.3,0.3-0.7,0.3-1.3
								c0-0.5-0.1-0.9-0.3-1.2c-0.2-0.3-0.4-0.4-0.8-0.4c-0.4,0-0.7,0.2-1,0.6l-1.1-0.2l0.7-4.5h3.6v1.5H30l-0.2,1.5
								c0.3-0.2,0.6-0.3,0.9-0.3c0.6,0,1,0.2,1.4,0.7c0.5,0.6,0.7,1.3,0.7,2.2c0,0.8-0.2,1.4-0.6,2.1s-1,0.9-1.8,0.9
								c-0.6,0-1.1-0.2-1.6-0.6S28.2,27.4,28.1,26.6z"/>
							<path d="M37,28.8h-1.3v-6.2c-0.5,0.6-1.1,1-1.7,1.2v-1.5c0.4-0.2,0.8-0.4,1.2-0.8s0.7-0.8,0.8-1.4H37V28.8z"/>
						</g>
					</g>
					<g id="New_York" transform="translate(-4.2,53.880888661899874)">
						<path class="st3" d="M1.9,25.2"/>
						<g class="st1">
							<path d="M-33.4,28.6v-2.5c-1.2-0.4-1.8-1.3-1.8-2.6c0-0.7,0.2-1.2,0.5-1.6s0.8-0.7,1.3-0.7v-0.6h0.7v0.6
								c0.5,0.1,0.9,0.3,1.2,0.6s0.5,0.8,0.6,1.4l-1.2,0.2c-0.1-0.5-0.3-0.8-0.6-0.9v2.3c0.7,0.2,1.3,0.5,1.5,0.9
								c0.3,0.4,0.5,1,0.5,1.6c0,0.7-0.2,1.3-0.5,1.8s-0.8,0.8-1.5,0.9V31h-0.7V30c-1.2-0.2-1.8-1-2-2.5l1.3-0.2
								c0.1,0.3,0.1,0.6,0.3,0.8S-33.6,28.5-33.4,28.6z M-33.4,22.4c-0.2,0.1-0.3,0.2-0.4,0.4s-0.2,0.4-0.2,0.6c0,0.5,0.2,0.8,0.6,1
								V22.4z M-32.7,28.6c0.2-0.1,0.4-0.2,0.6-0.4s0.2-0.5,0.2-0.8c0-0.6-0.3-0.9-0.8-1.1V28.6z"/>
							<path d="M-25.3,28.3v1.5H-30c0.1-0.6,0.2-1.1,0.5-1.6c0.3-0.5,0.8-1.2,1.5-2.1c0.6-0.7,1-1.1,1.1-1.4c0.2-0.3,0.3-0.7,0.3-1
								c0-0.4-0.1-0.7-0.3-0.8s-0.4-0.3-0.7-0.3c-0.6,0-0.9,0.4-1,1.3l-1.3-0.2c0.1-0.9,0.3-1.5,0.7-1.9s0.9-0.6,1.6-0.6
								c0.7,0,1.3,0.2,1.7,0.7c0.4,0.5,0.6,1,0.6,1.7c0,0.4,0,0.7-0.1,1s-0.2,0.7-0.4,1c-0.2,0.3-0.5,0.8-1,1.3
								c-0.4,0.5-0.7,0.8-0.8,1c-0.1,0.2-0.2,0.3-0.3,0.5H-25.3z"/>
							<path d="M-19.8,23.3l-1.3,0.2c-0.1-0.6-0.3-1-0.8-1c-0.3,0-0.5,0.2-0.7,0.5s-0.3,1-0.4,1.9c0.2-0.2,0.4-0.4,0.6-0.5
								c0.2-0.1,0.4-0.2,0.7-0.2c0.6,0,1,0.3,1.4,0.8c0.4,0.5,0.6,1.2,0.6,2c0,0.9-0.2,1.6-0.7,2.1c-0.4,0.5-1,0.8-1.6,0.8
								c-0.7,0-1.3-0.3-1.8-1c-0.5-0.7-0.7-1.8-0.7-3.3c0-1.6,0.2-2.7,0.7-3.4c0.5-0.7,1.1-1,1.9-1c0.5,0,1,0.2,1.3,0.5
								C-20.1,22.1-19.9,22.6-19.8,23.3z M-22.9,26.9c0,0.5,0.1,1,0.3,1.2c0.2,0.3,0.4,0.4,0.7,0.4c0.3,0,0.5-0.1,0.6-0.4
								c0.2-0.2,0.2-0.6,0.2-1.2c0-0.6-0.1-1-0.3-1.2c-0.2-0.3-0.4-0.4-0.7-0.4c-0.3,0-0.5,0.1-0.7,0.4
								C-22.8,26.1-22.9,26.5-22.9,26.9z"/>
							<path d="M-18.7,28.2h1.3v1.2c0,0.7-0.1,1.2-0.2,1.5c-0.2,0.4-0.5,0.7-1,0.9l-0.3-0.7c0.3-0.1,0.5-0.3,0.6-0.4
								s0.2-0.5,0.2-0.8h-0.7V28.2z"/>
							<path d="M-16.2,27.6l1.3-0.2c0,0.4,0.1,0.7,0.3,0.9c0.2,0.2,0.4,0.3,0.7,0.3c0.3,0,0.5-0.1,0.7-0.4c0.2-0.3,0.3-0.6,0.3-1.1
								c0-0.4-0.1-0.7-0.3-1c-0.2-0.2-0.4-0.4-0.7-0.4c-0.2,0-0.4,0-0.6,0.1l0.1-1.3c0.3,0,0.6-0.1,0.8-0.3c0.2-0.2,0.3-0.5,0.3-0.8
								c0-0.3-0.1-0.5-0.2-0.7c-0.1-0.2-0.3-0.3-0.6-0.3s-0.4,0.1-0.6,0.3c-0.2,0.2-0.3,0.5-0.3,0.9l-1.2-0.3
								c0.1-0.8,0.4-1.4,0.8-1.7c0.4-0.4,0.8-0.5,1.4-0.5c0.6,0,1.2,0.2,1.5,0.7c0.4,0.5,0.6,1,0.6,1.5c0,0.4-0.1,0.7-0.3,1
								c-0.2,0.3-0.4,0.6-0.8,0.8c0.4,0.1,0.7,0.3,1,0.7s0.4,0.8,0.4,1.3c0,0.8-0.2,1.4-0.7,1.9c-0.5,0.5-1,0.8-1.7,0.8
								c-0.6,0-1.1-0.2-1.6-0.6C-15.9,28.9-16.2,28.3-16.2,27.6z"/>
							<path d="M-6.1,28.3v1.5h-4.7c0.1-0.6,0.2-1.1,0.5-1.6c0.3-0.5,0.8-1.2,1.5-2.1c0.6-0.7,1-1.1,1.1-1.4c0.2-0.3,0.3-0.7,0.3-1
								c0-0.4-0.1-0.7-0.3-0.8s-0.4-0.3-0.7-0.3c-0.6,0-0.9,0.4-1,1.3l-1.3-0.2c0.1-0.9,0.3-1.5,0.7-1.9s0.9-0.6,1.6-0.6
								c0.7,0,1.3,0.2,1.7,0.7c0.4,0.5,0.6,1,0.6,1.7c0,0.4,0,0.7-0.1,1s-0.2,0.7-0.4,1c-0.2,0.3-0.5,0.8-1,1.3
								c-0.4,0.5-0.7,0.8-0.8,1c-0.1,0.2-0.2,0.3-0.3,0.5H-6.1z"/>
							<path d="M-0.7,23.3L-2,23.5c-0.1-0.6-0.3-1-0.8-1c-0.3,0-0.5,0.2-0.7,0.5s-0.3,1-0.4,1.9c0.2-0.2,0.4-0.4,0.6-0.5
								c0.2-0.1,0.4-0.2,0.7-0.2c0.6,0,1,0.3,1.4,0.8c0.4,0.5,0.6,1.2,0.6,2c0,0.9-0.2,1.6-0.7,2.1c-0.4,0.5-1,0.8-1.6,0.8
								c-0.7,0-1.3-0.3-1.8-1c-0.5-0.7-0.7-1.8-0.7-3.3c0-1.6,0.2-2.7,0.7-3.4c0.5-0.7,1.1-1,1.9-1c0.5,0,1,0.2,1.3,0.5
								C-1,22.1-0.8,22.6-0.7,23.3z M-3.7,26.9c0,0.5,0.1,1,0.3,1.2c0.2,0.3,0.4,0.4,0.7,0.4c0.3,0,0.5-0.1,0.6-0.4
								c0.2-0.2,0.3-0.6,0.3-1.2c0-0.6-0.1-1-0.3-1.2c-0.2-0.3-0.4-0.4-0.7-0.4c-0.3,0-0.5,0.1-0.7,0.4C-3.6,26.1-3.7,26.5-3.7,26.9
								z"/>
						</g>
					</g>
					<g id="New_York_00000059310142916823092650000008547670966171825815_" transform="translate(276.801953125,0)">
						<path class="st4" d="M1.9,25.2"/>
						<g class="st1">
							<path d="M5.4,32.6v-2.5c-1.2-0.4-1.8-1.3-1.8-2.6c0-0.7,0.2-1.2,0.5-1.6s0.8-0.7,1.3-0.7v-0.6h0.7v0.6
								c0.5,0.1,0.9,0.3,1.2,0.6s0.5,0.8,0.6,1.4l-1.2,0.2c-0.1-0.5-0.3-0.8-0.6-0.9v2.3c0.7,0.2,1.3,0.5,1.5,0.9
								c0.3,0.4,0.5,1,0.5,1.6c0,0.7-0.2,1.3-0.5,1.8s-0.8,0.8-1.5,0.9V35H5.4V34c-1.2-0.2-1.8-1-2-2.5l1.3-0.2
								c0.1,0.3,0.1,0.6,0.3,0.8S5.3,32.5,5.4,32.6z M5.4,26.4c-0.2,0.1-0.3,0.2-0.4,0.4s-0.2,0.4-0.2,0.6c0,0.5,0.2,0.8,0.6,1V26.4
								z M6.1,32.7c0.2-0.1,0.4-0.2,0.6-0.4s0.2-0.5,0.2-0.8c0-0.6-0.3-0.9-0.8-1.1V32.7z"/>
							<path d="M13.5,32.3v1.5H8.8c0.1-0.6,0.2-1.1,0.5-1.6c0.3-0.5,0.8-1.2,1.5-2.1c0.6-0.7,1-1.1,1.1-1.4c0.2-0.3,0.3-0.7,0.3-1
								c0-0.4-0.1-0.7-0.3-0.8s-0.4-0.3-0.7-0.3c-0.6,0-0.9,0.4-1,1.3l-1.3-0.2c0.1-0.9,0.3-1.5,0.7-1.9s0.9-0.6,1.6-0.6
								c0.7,0,1.3,0.2,1.7,0.7c0.4,0.5,0.6,1,0.6,1.7c0,0.4,0,0.7-0.1,1s-0.2,0.7-0.4,1c-0.2,0.3-0.5,0.8-1,1.3
								c-0.4,0.5-0.7,0.8-0.8,1c-0.1,0.2-0.2,0.3-0.3,0.5H13.5z"/>
							<path d="M15.6,29.2c-0.3-0.2-0.6-0.4-0.7-0.7c-0.2-0.3-0.2-0.7-0.2-1.1c0-0.7,0.2-1.2,0.6-1.6s0.9-0.6,1.5-0.6
								c0.7,0,1.2,0.2,1.6,0.6s0.5,0.9,0.5,1.6c0,0.4-0.1,0.8-0.3,1.1c-0.2,0.3-0.4,0.5-0.7,0.7c0.4,0.2,0.7,0.5,0.9,0.8
								c0.2,0.4,0.3,0.8,0.3,1.3c0,0.5-0.1,1-0.3,1.4s-0.5,0.7-0.8,0.9S17.2,34,16.8,34c-0.7,0-1.2-0.2-1.7-0.7
								c-0.4-0.5-0.7-1.1-0.7-1.9c0-0.5,0.1-1,0.3-1.3C14.9,29.7,15.2,29.4,15.6,29.2z M15.7,31.2c0,0.5,0.1,0.8,0.3,1.1
								c0.2,0.2,0.4,0.4,0.7,0.4s0.5-0.1,0.7-0.4c0.2-0.2,0.3-0.6,0.3-1.1c0-0.4-0.1-0.7-0.3-1c-0.2-0.2-0.4-0.4-0.7-0.4
								c-0.3,0-0.5,0.1-0.7,0.4C15.8,30.5,15.7,30.8,15.7,31.2z M15.9,27.5c0,0.3,0.1,0.6,0.2,0.8s0.4,0.3,0.6,0.3
								c0.2,0,0.4-0.1,0.6-0.3s0.2-0.4,0.2-0.8c0-0.3-0.1-0.6-0.2-0.8c-0.2-0.2-0.4-0.3-0.6-0.3c-0.2,0-0.5,0.1-0.6,0.3
								C16,27,15.9,27.2,15.9,27.5z"/>
							<path d="M20.2,32.2h1.3v1.2c0,0.7-0.1,1.2-0.2,1.5c-0.2,0.4-0.5,0.7-1,0.9l-0.3-0.7c0.3-0.1,0.5-0.3,0.6-0.4s0.2-0.5,0.2-0.8
								h-0.7V32.2z"/>
							<path d="M22.6,31.6l1.3-0.2c0,0.4,0.1,0.7,0.3,0.9c0.2,0.2,0.4,0.3,0.7,0.3c0.3,0,0.5-0.1,0.7-0.4c0.2-0.3,0.3-0.6,0.3-1.1
								c0-0.4-0.1-0.7-0.3-1c-0.2-0.2-0.4-0.4-0.7-0.4c-0.2,0-0.4,0-0.6,0.1l0.1-1.3c0.3,0,0.6-0.1,0.8-0.3c0.2-0.2,0.3-0.5,0.3-0.8
								c0-0.3-0.1-0.5-0.2-0.7c-0.1-0.2-0.3-0.3-0.6-0.3s-0.4,0.1-0.6,0.3c-0.2,0.2-0.3,0.5-0.3,0.9l-1.2-0.3
								c0.1-0.8,0.4-1.4,0.8-1.7c0.4-0.4,0.8-0.5,1.4-0.5c0.6,0,1.2,0.2,1.5,0.7c0.4,0.5,0.6,1,0.6,1.5c0,0.4-0.1,0.7-0.3,1
								c-0.2,0.3-0.4,0.6-0.8,0.8c0.4,0.1,0.7,0.3,1,0.7s0.4,0.8,0.4,1.3c0,0.8-0.2,1.4-0.7,1.9c-0.5,0.5-1,0.8-1.7,0.8
								c-0.6,0-1.1-0.2-1.6-0.6C22.9,32.9,22.7,32.3,22.6,31.6z"/>
							<path d="M31.6,33.8h-1.3v-6.2c-0.5,0.6-1.1,1-1.7,1.2v-1.5c0.4-0.2,0.8-0.4,1.2-0.8s0.7-0.8,0.8-1.4h1.1V33.8z"/>
							<path d="M36.5,33.8h-1.3v-6.2c-0.5,0.6-1.1,1-1.7,1.2v-1.5c0.4-0.2,0.8-0.4,1.2-0.8s0.7-0.8,0.8-1.4h1.1V33.8z"/>
						</g>
					</g>
				</g>
				<g>
					<path class="st5" d="M1.9,504.6l272.6-6.3"/>
					<rect x="138.2" y="501.5" class="st6" width="1" height="1"/>
				</g>
				<g>
					<path class="st5" d="M1.9,409.5l272.6,29.6"/>
					<rect x="138.2" y="424.3" class="st6" width="1" height="1"/>
				</g>
				<g>
					<path class="st5" d="M1.9,424.9l272.6-0.1"/>
					<rect x="138.2" y="424.9" class="st6" width="1" height="1"/>
				</g>
				<g>
					<path class="st5" d="M1.9,396.8l272.6,24.5"/>
					<rect x="138.2" y="409" class="st6" width="1" height="1"/>
				</g>
				<g>
					<path class="st5" d="M1.9,401.4l272.6,14.7"/>
					<rect x="138.2" y="408.8" class="st6" width="1" height="1"/>
				</g>
				<g>
					<path class="st5" d="M1.9,408.3l272.6-6.7"/>
					<rect x="138.2" y="405" class="st6" width="1" height="1"/>
				</g>
				<g>
					<path class="st5" d="M1.9,437.8l272.6-54"/>
					<rect x="138.2" y="410.8" class="st6" width="1" height="1"/>
				</g>
				<g>
					<path class="st5" d="M1.9,345.5l272.6,38.2"/>
					<rect x="138.2" y="364.5" class="st6" width="1" height="1"/>
				</g>
				<g>
					<path class="st5" d="M1.9,530.9l272.6-149.6"/>
					<rect x="138.2" y="456.1" class="st6" width="1" height="1"/>
				</g>
				<g>
					<path class="st5" d="M1.9,480.3l272.6-125.6"/>
					<rect x="138.2" y="417.5" class="st6" width="1" height="1"/>
				</g>
				<g>
					<path class="st5" d="M1.9,373l272.6-81.4"/>
					<rect x="138.2" y="332.3" class="st6" width="1" height="1"/>
				</g>
				<path class="st7" d="M1.4,25.2"/>
				<path class="st7" d="M1.4,556.7"/>
				<path class="st7" d="M274.4,25.2"/>
				<path class="st7" d="M274.4,556.7"/>
				<line class="st7" x1="1.4" y1="556.7" x2="1.4" y2="25.2"/>
				<line class="st7" x1="274.4" y1="556.7" x2="274.4" y2="25.2"/>
				<g>
					<path class="st5" d="M1.9,451.3l272.6-27.8"/>
					<rect x="138.2" y="437.4" class="st6" width="1" height="1"/>
				</g>
				<g>
					<path class="st5" d="M1.9,426.4l272.6,15.7"/>
					<rect x="138.2" y="434.3" class="st6" width="1" height="1"/>
				</g>
				<g>
					<path class="st5" d="M1.9,395.9l272.6,67"/>
					<rect x="138.2" y="429.4" class="st6" width="1" height="1"/>
				</g>
				<g>
					<path class="st5" d="M1.9,448.2l272.6,42"/>
					<rect x="138.2" y="469.2" class="st6" width="1" height="1"/>
				</g>
				<g>
					<path class="st5" d="M1.9,487.4l272.6-7.3"/>
					<rect x="138.2" y="483.7" class="st6" width="1" height="1"/>
				</g>
				<g>
					<path class="st5" d="M1.9,481.3l272.6,10.6"/>
					<rect x="138.2" y="486.6" class="st6" width="1" height="1"/>
				</g>
				<g>
					<path class="st5" d="M1.9,510l272.6-20.2"/>
					<rect x="138.2" y="499.9" class="st6" width="1" height="1"/>
				</g>
				<g>
					<path class="st5" d="M1.9,508.7l272.6-8.6"/>
					<rect x="138.2" y="504.4" class="st6" width="1" height="1"/>
				</g>
				<g>
					<path class="st8" d="M1.9,521l272.6,2.8"/>
					<rect x="138.2" y="522.4" class="st6" width="1" height="1"/>
				</g>
				<g>
					<path class="st9" d="M1.9,533.1l272.6-6.6"/>
					<rect x="138.2" y="529.8" class="st6" width="1" height="1"/>
				</g>
				<g>
					<path class="st5" d="M1.9,180.1l272.6,87"/>
					<rect x="138.2" y="223.6" class="st6" width="1" height="1"/>
				</g>
				<g>
					<path class="st5" d="M1.9,220.7L274.5,245"/>
					<rect x="138.2" y="232.9" class="st6" width="1" height="1"/>
				</g>
				<g>
					<path class="st5" d="M1.9,234.5l272.6,70.9"/>
					<rect x="138.2" y="269.9" class="st6" width="1" height="1"/>
				</g>
				<g>
					<path class="st5" d="M1.9,316.3l272.6-201.4"/>
					<rect x="138.2" y="215.6" class="st6" width="1" height="1"/>
				</g>
				<g>
					<path class="st5" d="M1.9,286.4l272.6,67.8"/>
					<rect x="138.2" y="320.3" class="st6" width="1" height="1"/>
				</g>
				<g>
					<path class="st5" d="M1.9,403.6l272.6-221.1"/>
					<rect x="138.2" y="293.1" class="st6" width="1" height="1"/>
				</g>
				<g>
					<path class="st5" d="M1.9,278.3l272.6,93.9"/>
					<rect x="138.2" y="325.3" class="st6" width="1" height="1"/>
				</g>
				<g>
					<path class="st5" d="M1.9,301.4l272.6,52.3"/>
					<rect x="138.2" y="327.5" class="st6" width="1" height="1"/>
				</g>
				<g>
					<path class="st5" d="M1.9,321.2l272.6,12.5"/>
					<rect x="138.2" y="327.4" class="st6" width="1" height="1"/>
				</g>
				<g>
					<path class="st5" d="M1.9,271.2L274.5,408"/>
					<rect x="138.2" y="339.6" class="st6" width="1" height="1"/>
				</g>
				<g>
					<path class="st5" d="M1.9,396.2l272.6-113.1"/>
					<rect x="138.2" y="339.6" class="st6" width="1" height="1"/>
				</g>
				<g>
					<path class="st5" d="M1.9,417.7l272.6-119.1"/>
					<rect x="138.2" y="358.2" class="st6" width="1" height="1"/>
				</g>
				<g>
					<path class="st5" d="M1.9,368.8l272.6-6.7"/>
					<rect x="138.2" y="365.5" class="st6" width="1" height="1"/>
				</g>
				<g>
					<path class="st5" d="M1.9,376.7l272.6-16"/>
					<rect x="138.2" y="368.7" class="st6" width="1" height="1"/>
				</g>
				<g>
					<path class="st5" d="M1.9,398.9l272.6-35.2"/>
					<rect x="138.2" y="381.3" class="st6" width="1" height="1"/>
				</g>
				<g>
					<path class="st5" d="M1.9,410l272.6-29.8"/>
					<rect x="138.2" y="395.1" class="st6" width="1" height="1"/>
				</g>
				<g>
					<path class="st5" d="M1.9,415.5l272.6-38.8"/>
					<rect x="138.2" y="396.1" class="st6" width="1" height="1"/>
				</g>
				<g>
					<path class="st5" d="M1.9,416.5l272.6-30"/>
					<rect x="138.2" y="401.5" class="st6" width="1" height="1"/>
				</g>
				<g>
					<path class="st5" d="M1.9,426l272.6-30.1"/>
					<rect x="138.2" y="410.9" class="st6" width="1" height="1"/>
				</g>
				<g>
					<path class="st5" d="M1.9,438.9l272.6-30.4"/>
					<rect x="138.2" y="423.7" class="st6" width="1" height="1"/>
				</g>
				<g>
					<path class="st5" d="M1.9,419.1l272.6,21"/>
					<rect x="138.2" y="429.6" class="st6" width="1" height="1"/>
				</g>
				<g>
					<path class="st5" d="M1.9,465.3l272.6-22.4"/>
					<rect x="138.2" y="454.1" class="st6" width="1" height="1"/>
				</g>
				<g>
					<path class="st5" d="M1.9,456.3l272.6,19.3"/>
					<rect x="138.2" y="465.9" class="st6" width="1" height="1"/>
				</g>
				<g>
					<path class="st10" d="M1.9,446.3l272.6,110.4"/>
					<rect x="138.2" y="501.5" class="st6" width="1" height="1"/>
				</g>
				<g>
					<path class="st11" d="M1.9,466.8l272.6,40.5"/>
					<rect x="138.2" y="487.1" class="st6" width="1" height="1"/>
				</g>
				<g>
					<path class="st12" d="M1.9,79.1l272.6-53.9"/>
					<ellipse class="st13" cx="1.9" cy="79.1" rx="3.1" ry="3"/>
					<ellipse class="st14" cx="1.4" cy="445.8" rx="3.1" ry="3"/>
					<ellipse class="st15" cx="1.4" cy="466.4" rx="3.1" ry="3"/>
					<ellipse class="st15" cx="274.5" cy="507.3" rx="3.1" ry="3"/>
					<ellipse class="st14" cx="274.4" cy="556.7" rx="3.1" ry="3"/>
					<ellipse class="st13" cx="274.4" cy="25.2" rx="3.1" ry="3"/>
					<rect x="138.2" y="52.2" class="st6" width="1" height="1"/>
				</g>
			</g>
		</g>
	</g>
</g>
<g>
	<path class="st13" d="M106.3,78.5v-8.6h1.4l2.9,5.7v-5.7h1.3v8.6h-1.4l-2.8-5.6v5.6H106.3z"/>
	<path class="st13" d="M116.4,76.5l1.3,0.3c-0.2,0.6-0.5,1.1-0.8,1.4s-0.8,0.5-1.4,0.5c-0.8,0-1.3-0.3-1.7-0.8
		c-0.5-0.6-0.7-1.4-0.7-2.5c0-1,0.2-1.9,0.7-2.5c0.4-0.5,0.9-0.8,1.6-0.8c0.7,0,1.3,0.3,1.7,0.8c0.5,0.6,0.7,1.5,0.7,2.7l0,0.2h-3.4
		c0,0.5,0.1,0.9,0.3,1.1s0.5,0.4,0.8,0.4C116,77.4,116.2,77.1,116.4,76.5z M116.5,74.8c0-0.5-0.1-0.9-0.3-1.1s-0.4-0.4-0.7-0.4
		c-0.3,0-0.5,0.1-0.7,0.4c-0.2,0.3-0.3,0.6-0.3,1.1H116.5z"/>
	<path class="st13" d="M119.9,78.5l-1.6-6.2h1.3l1,4.1l0.9-4.1h1.3l0.9,4.1l1-4.1h1.3l-1.7,6.2h-1.3l-0.9-4l-0.9,4H119.9z"/>
	<path class="st13" d="M131,78.5v-3.6l-2.6-5h1.7l1.7,3.4l1.6-3.4h1.6l-2.6,5v3.6H131z"/>
	<path class="st13" d="M134.6,75.3c0-0.6,0.1-1.2,0.4-1.7c0.2-0.5,0.6-0.9,0.9-1.1c0.4-0.3,0.8-0.4,1.3-0.4c0.8,0,1.5,0.3,1.9,1
		c0.5,0.6,0.7,1.4,0.7,2.3c0,0.6-0.1,1.2-0.4,1.7s-0.6,0.9-1,1.2c-0.4,0.3-0.8,0.4-1.3,0.4c-0.8,0-1.4-0.3-1.9-0.9
		S134.6,76.4,134.6,75.3z M136,75.4c0,0.6,0.1,1.1,0.4,1.4s0.5,0.5,0.9,0.5c0.3,0,0.6-0.2,0.9-0.5s0.4-0.8,0.4-1.4
		c0-0.6-0.1-1.1-0.4-1.4s-0.5-0.5-0.9-0.5c-0.3,0-0.6,0.2-0.9,0.5C136.2,74.3,136,74.7,136,75.4z"/>
	<path class="st13" d="M142.3,78.5h-1.4v-6.2h1.3v0.9c0.2-0.4,0.4-0.7,0.6-0.8s0.4-0.2,0.6-0.2c0.3,0,0.6,0.1,0.9,0.3l-0.4,1.4
		c-0.2-0.2-0.4-0.3-0.6-0.3c-0.2,0-0.4,0.1-0.5,0.2c-0.1,0.1-0.2,0.4-0.3,0.8c-0.1,0.4-0.1,1-0.1,2V78.5z"/>
	<path class="st13" d="M144.8,78.5v-8.6h1.4v4.6l1.6-2.2h1.7l-1.7,2.3l1.9,3.9H148l-1.3-2.8l-0.6,0.8v2H144.8z"/>
</g>
<g>
	<path class="st13" d="M433.8,29.6V21h1.4l2.9,5.7V21h1.3v8.6H438l-2.8-5.6v5.6H433.8z"/>
	<path class="st13" d="M443.8,27.6l1.3,0.3c-0.2,0.6-0.5,1.1-0.8,1.4c-0.4,0.3-0.8,0.5-1.4,0.5c-0.8,0-1.3-0.3-1.7-0.8
		c-0.5-0.6-0.7-1.4-0.7-2.5c0-1,0.2-1.9,0.7-2.5c0.4-0.5,0.9-0.8,1.6-0.8c0.7,0,1.3,0.3,1.7,0.8c0.5,0.6,0.7,1.5,0.7,2.7l0,0.2h-3.4
		c0,0.5,0.1,0.9,0.3,1.1s0.5,0.4,0.8,0.4C443.4,28.5,443.7,28.2,443.8,27.6z M443.9,25.9c0-0.5-0.1-0.9-0.3-1.1s-0.4-0.4-0.7-0.4
		c-0.3,0-0.5,0.1-0.7,0.4c-0.2,0.3-0.3,0.6-0.3,1.1H443.9z"/>
	<path class="st13" d="M447.3,29.6l-1.6-6.2h1.3l1,4.1l0.9-4.1h1.3l0.9,4.1l1-4.1h1.3l-1.7,6.2h-1.3l-0.9-4l-0.9,4H447.3z"/>
	<path class="st13" d="M458.4,29.6v-3.6l-2.6-5h1.7l1.7,3.4l1.6-3.4h1.6l-2.6,5v3.6H458.4z"/>
	<path class="st13" d="M462.1,26.4c0-0.6,0.1-1.2,0.4-1.7c0.2-0.5,0.6-0.9,0.9-1.1c0.4-0.3,0.8-0.4,1.3-0.4c0.8,0,1.5,0.3,1.9,1
		c0.5,0.6,0.7,1.4,0.7,2.3c0,0.6-0.1,1.2-0.4,1.7s-0.6,0.9-1,1.2c-0.4,0.3-0.8,0.4-1.3,0.4c-0.8,0-1.4-0.3-1.9-0.9
		S462.1,27.4,462.1,26.4z M463.5,26.5c0,0.6,0.1,1.1,0.4,1.4c0.2,0.3,0.5,0.5,0.9,0.5c0.3,0,0.6-0.2,0.9-0.5s0.4-0.8,0.4-1.4
		c0-0.6-0.1-1.1-0.4-1.4s-0.5-0.5-0.9-0.5c-0.3,0-0.6,0.2-0.9,0.5C463.6,25.4,463.5,25.8,463.5,26.5z"/>
	<path class="st13" d="M469.7,29.6h-1.4v-6.2h1.3v0.9c0.2-0.4,0.4-0.7,0.6-0.8s0.4-0.2,0.6-0.2c0.3,0,0.6,0.1,0.9,0.3l-0.4,1.4
		c-0.2-0.2-0.4-0.3-0.6-0.3c-0.2,0-0.4,0.1-0.5,0.2c-0.1,0.1-0.2,0.4-0.3,0.8c-0.1,0.4-0.1,1-0.1,2V29.6z"/>
	<path class="st13" d="M472.2,29.6V21h1.4v4.6l1.6-2.2h1.7l-1.7,2.3l1.9,3.9h-1.5l-1.3-2.8l-0.6,0.8v2H472.2z"/>
</g>
<g>
	<path class="st15" d="M433.8,506.9v-8.6h4.8v1.5h-3.4v2h3v1.5h-3v3.7H433.8z"/>
	<path class="st15" d="M439.8,506.9v-8.6h1.4v8.6H439.8z"/>
	<path class="st15" d="M442.2,503.7c0-0.6,0.1-1.2,0.4-1.7s0.6-0.9,0.9-1.1c0.4-0.3,0.8-0.4,1.3-0.4c0.8,0,1.5,0.3,1.9,1
		s0.7,1.4,0.7,2.3c0,0.6-0.1,1.2-0.4,1.7s-0.6,0.9-1,1.2c-0.4,0.3-0.8,0.4-1.3,0.4c-0.8,0-1.4-0.3-1.9-0.9S442.2,504.8,442.2,503.7z
		 M443.6,503.8c0,0.6,0.1,1.1,0.4,1.4c0.2,0.3,0.5,0.5,0.9,0.5c0.3,0,0.6-0.2,0.9-0.5c0.2-0.3,0.4-0.8,0.4-1.4
		c0-0.6-0.1-1.1-0.4-1.4s-0.5-0.5-0.9-0.5c-0.3,0-0.6,0.2-0.9,0.5C443.7,502.7,443.6,503.2,443.6,503.8z"/>
	<path class="st15" d="M449.8,506.9h-1.4v-6.2h1.3v0.9c0.2-0.4,0.4-0.7,0.6-0.8s0.4-0.2,0.6-0.2c0.3,0,0.6,0.1,0.9,0.3l-0.4,1.4
		c-0.2-0.2-0.4-0.3-0.6-0.3c-0.2,0-0.4,0.1-0.5,0.2s-0.2,0.4-0.3,0.8c-0.1,0.4-0.1,1-0.1,2V506.9z"/>
	<path class="st15" d="M452.4,499.9v-1.5h1.4v1.5H452.4z M452.4,506.9v-6.2h1.4v6.2H452.4z"/>
	<path class="st15" d="M459.8,506.9h-1.3V506c-0.2,0.4-0.5,0.6-0.7,0.8s-0.6,0.3-0.9,0.3c-0.6,0-1.1-0.3-1.5-0.9
		c-0.4-0.6-0.6-1.4-0.6-2.4c0-1.1,0.2-1.9,0.6-2.4c0.4-0.5,0.9-0.8,1.5-0.8c0.3,0,0.6,0.1,0.8,0.2c0.2,0.1,0.5,0.4,0.7,0.7v-3.1h1.4
		V506.9z M456.2,503.7c0,0.6,0,1,0.1,1.3c0.1,0.3,0.2,0.5,0.4,0.6c0.2,0.1,0.4,0.2,0.6,0.2c0.3,0,0.6-0.2,0.8-0.5
		c0.2-0.3,0.3-0.8,0.3-1.5c0-0.7-0.1-1.2-0.3-1.5c-0.2-0.3-0.5-0.5-0.8-0.5c-0.3,0-0.6,0.2-0.8,0.5
		C456.3,502.6,456.2,503.1,456.2,503.7z"/>
	<path class="st15" d="M462.1,502.6l-1.2-0.3c0.1-0.6,0.4-1.1,0.7-1.4s0.8-0.4,1.5-0.4c0.6,0,1,0.1,1.3,0.2s0.5,0.4,0.6,0.7
		s0.2,0.8,0.2,1.5l0,1.9c0,0.5,0,0.9,0.1,1.2c0,0.3,0.1,0.5,0.2,0.8h-1.3l-0.2-0.7c-0.2,0.3-0.5,0.5-0.7,0.6s-0.5,0.2-0.8,0.2
		c-0.5,0-0.9-0.2-1.2-0.5c-0.3-0.3-0.5-0.8-0.5-1.3c0-0.4,0.1-0.7,0.2-0.9s0.3-0.5,0.5-0.6s0.6-0.3,1.1-0.4c0.6-0.1,1.1-0.3,1.3-0.4
		c0-0.3,0-0.6-0.1-0.7c0-0.1-0.1-0.2-0.3-0.3c-0.1-0.1-0.3-0.1-0.6-0.1c-0.2,0-0.4,0.1-0.6,0.2S462.2,502.3,462.1,502.6z
		 M463.9,503.9c-0.2,0.1-0.4,0.2-0.8,0.2c-0.4,0.1-0.7,0.2-0.8,0.4c-0.1,0.1-0.2,0.3-0.2,0.5c0,0.2,0.1,0.4,0.2,0.6
		c0.1,0.2,0.3,0.2,0.5,0.2c0.2,0,0.4-0.1,0.6-0.2c0.2-0.1,0.3-0.3,0.4-0.5c0.1-0.2,0.1-0.5,0.1-1V503.9z"/>
</g>
<g>
	<path class="st14" d="M433.8,554.9v-8.6h1.4l2.9,5.7v-5.7h1.3v8.6H438l-2.8-5.6v5.6H433.8z"/>
	<path class="st14" d="M443.8,553l1.3,0.3c-0.2,0.6-0.5,1.1-0.8,1.4c-0.4,0.3-0.8,0.5-1.4,0.5c-0.8,0-1.3-0.3-1.7-0.8
		c-0.5-0.6-0.7-1.4-0.7-2.5c0-1,0.2-1.9,0.7-2.5c0.4-0.5,0.9-0.8,1.6-0.8c0.7,0,1.3,0.3,1.7,0.8c0.5,0.6,0.7,1.5,0.7,2.7l0,0.2h-3.4
		c0,0.5,0.1,0.9,0.3,1.1c0.2,0.3,0.5,0.4,0.8,0.4C443.4,553.8,443.7,553.6,443.8,553z M443.9,551.3c0-0.5-0.1-0.9-0.3-1.1
		c-0.2-0.2-0.4-0.4-0.7-0.4c-0.3,0-0.5,0.1-0.7,0.4c-0.2,0.3-0.3,0.6-0.3,1.1H443.9z"/>
	<path class="st14" d="M447.8,554.9l-2.1-6.2h1.4l1,3.2l0.3,1.1l0.3-1.1l1-3.2h1.4l-2,6.2H447.8z"/>
	<path class="st14" d="M452.8,550.6l-1.2-0.3c0.1-0.6,0.4-1.1,0.7-1.4s0.8-0.4,1.5-0.4c0.6,0,1,0.1,1.3,0.2s0.5,0.4,0.6,0.7
		s0.2,0.8,0.2,1.5l0,1.9c0,0.5,0,0.9,0.1,1.2c0,0.3,0.1,0.5,0.2,0.8h-1.3l-0.2-0.7c-0.2,0.3-0.5,0.5-0.7,0.6s-0.5,0.2-0.8,0.2
		c-0.5,0-0.9-0.2-1.2-0.5c-0.3-0.3-0.5-0.8-0.5-1.3c0-0.4,0.1-0.7,0.2-0.9s0.3-0.5,0.5-0.6s0.6-0.3,1.1-0.4c0.6-0.1,1.1-0.3,1.3-0.4
		c0-0.3,0-0.6-0.1-0.7c0-0.1-0.1-0.2-0.3-0.3c-0.1-0.1-0.3-0.1-0.6-0.1c-0.2,0-0.4,0.1-0.6,0.2S452.9,550.3,452.8,550.6z
		 M454.6,551.9c-0.2,0.1-0.4,0.2-0.8,0.2c-0.4,0.1-0.7,0.2-0.8,0.4c-0.1,0.1-0.2,0.3-0.2,0.5c0,0.2,0.1,0.4,0.2,0.6
		c0.1,0.2,0.3,0.2,0.5,0.2c0.2,0,0.4-0.1,0.6-0.2c0.2-0.1,0.3-0.3,0.4-0.5c0.1-0.2,0.1-0.5,0.1-1V551.9z"/>
	<path class="st14" d="M462,554.9h-1.3V554c-0.2,0.4-0.5,0.6-0.7,0.8s-0.6,0.3-0.9,0.3c-0.6,0-1.1-0.3-1.5-0.9
		c-0.4-0.6-0.6-1.4-0.6-2.4c0-1.1,0.2-1.9,0.6-2.4c0.4-0.5,0.9-0.8,1.5-0.8c0.3,0,0.6,0.1,0.8,0.2c0.2,0.1,0.5,0.4,0.7,0.7v-3.1h1.4
		V554.9z M458.4,551.7c0,0.6,0,1,0.1,1.3c0.1,0.3,0.2,0.5,0.4,0.6c0.2,0.1,0.4,0.2,0.6,0.2c0.3,0,0.6-0.2,0.8-0.5
		c0.2-0.3,0.3-0.8,0.3-1.5c0-0.7-0.1-1.2-0.3-1.5c-0.2-0.3-0.5-0.5-0.8-0.5c-0.3,0-0.6,0.2-0.8,0.5
		C458.5,550.6,458.4,551.1,458.4,551.7z"/>
	<path class="st14" d="M464.3,550.6l-1.2-0.3c0.1-0.6,0.4-1.1,0.7-1.4s0.8-0.4,1.5-0.4c0.6,0,1,0.1,1.3,0.2s0.5,0.4,0.6,0.7
		s0.2,0.8,0.2,1.5l0,1.9c0,0.5,0,0.9,0.1,1.2c0,0.3,0.1,0.5,0.2,0.8h-1.3l-0.2-0.7c-0.2,0.3-0.5,0.5-0.7,0.6s-0.5,0.2-0.8,0.2
		c-0.5,0-0.9-0.2-1.2-0.5c-0.3-0.3-0.5-0.8-0.5-1.3c0-0.4,0.1-0.7,0.2-0.9s0.3-0.5,0.5-0.6s0.6-0.3,1.1-0.4c0.6-0.1,1.1-0.3,1.3-0.4
		c0-0.3,0-0.6-0.1-0.7c0-0.1-0.1-0.2-0.3-0.3c-0.1-0.1-0.3-0.1-0.6-0.1c-0.2,0-0.4,0.1-0.6,0.2S464.4,550.3,464.3,550.6z
		 M466.1,551.9c-0.2,0.1-0.4,0.2-0.8,0.2c-0.4,0.1-0.7,0.2-0.8,0.4c-0.1,0.1-0.2,0.3-0.2,0.5c0,0.2,0.1,0.4,0.2,0.6
		c0.1,0.2,0.3,0.2,0.5,0.2c0.2,0,0.4-0.1,0.6-0.2c0.2-0.1,0.3-0.3,0.4-0.5c0.1-0.2,0.1-0.5,0.1-1V551.9z"/>
</g>
<g>
	<path class="st14" d="M114,443.6V435h1.4l2.9,5.7V435h1.3v8.6h-1.4l-2.8-5.6v5.6H114z"/>
	<path class="st14" d="M124,441.6l1.3,0.3c-0.2,0.6-0.5,1.1-0.8,1.4s-0.8,0.5-1.4,0.5c-0.8,0-1.3-0.3-1.7-0.8
		c-0.5-0.6-0.7-1.4-0.7-2.5c0-1,0.2-1.9,0.7-2.5c0.4-0.5,0.9-0.8,1.6-0.8c0.7,0,1.3,0.3,1.7,0.8c0.5,0.6,0.7,1.5,0.7,2.7l0,0.2H122
		c0,0.5,0.1,0.9,0.3,1.1c0.2,0.3,0.5,0.4,0.8,0.4C123.6,442.5,123.9,442.2,124,441.6z M124.1,439.9c0-0.5-0.1-0.9-0.3-1.1
		c-0.2-0.2-0.4-0.4-0.7-0.4c-0.3,0-0.5,0.1-0.7,0.4c-0.2,0.3-0.3,0.6-0.3,1.1H124.1z"/>
	<path class="st14" d="M127.9,443.6l-2.1-6.2h1.4l1,3.2l0.3,1.1l0.3-1.1l1-3.2h1.4l-2,6.2H127.9z"/>
	<path class="st14" d="M133,439.2l-1.2-0.3c0.1-0.6,0.4-1.1,0.7-1.4s0.8-0.4,1.5-0.4c0.6,0,1,0.1,1.3,0.2s0.5,0.4,0.6,0.7
		s0.2,0.8,0.2,1.5l0,1.9c0,0.5,0,0.9,0.1,1.2c0,0.3,0.1,0.5,0.2,0.8h-1.3l-0.2-0.7c-0.2,0.3-0.5,0.5-0.7,0.6s-0.5,0.2-0.8,0.2
		c-0.5,0-0.9-0.2-1.2-0.5c-0.3-0.3-0.5-0.8-0.5-1.3c0-0.4,0.1-0.7,0.2-0.9s0.3-0.5,0.5-0.6s0.6-0.3,1.1-0.4c0.6-0.1,1.1-0.3,1.3-0.4
		c0-0.3,0-0.6-0.1-0.7c0-0.1-0.1-0.2-0.3-0.3c-0.1-0.1-0.3-0.1-0.6-0.1c-0.2,0-0.4,0.1-0.6,0.2S133.1,438.9,133,439.2z M134.8,440.6
		c-0.2,0.1-0.4,0.2-0.8,0.2c-0.4,0.1-0.7,0.2-0.8,0.4c-0.1,0.1-0.2,0.3-0.2,0.5c0,0.2,0.1,0.4,0.2,0.6c0.1,0.2,0.3,0.2,0.5,0.2
		c0.2,0,0.4-0.1,0.6-0.2c0.2-0.1,0.3-0.3,0.4-0.5c0.1-0.2,0.1-0.5,0.1-1V440.6z"/>
	<path class="st14" d="M142.1,443.6h-1.3v-0.9c-0.2,0.4-0.5,0.6-0.7,0.8s-0.6,0.3-0.9,0.3c-0.6,0-1.1-0.3-1.5-0.9
		c-0.4-0.6-0.6-1.4-0.6-2.4c0-1.1,0.2-1.9,0.6-2.4c0.4-0.5,0.9-0.8,1.5-0.8c0.3,0,0.6,0.1,0.8,0.2s0.5,0.4,0.7,0.7V435h1.4V443.6z
		 M138.5,440.3c0,0.6,0,1,0.1,1.3c0.1,0.3,0.2,0.5,0.4,0.6c0.2,0.1,0.4,0.2,0.6,0.2c0.3,0,0.6-0.2,0.8-0.5s0.3-0.8,0.3-1.5
		c0-0.7-0.1-1.2-0.3-1.5c-0.2-0.3-0.5-0.5-0.8-0.5c-0.3,0-0.6,0.2-0.8,0.5C138.7,439.2,138.5,439.7,138.5,440.3z"/>
	<path class="st14" d="M144.5,439.2l-1.2-0.3c0.1-0.6,0.4-1.1,0.7-1.4s0.8-0.4,1.5-0.4c0.6,0,1,0.1,1.3,0.2s0.5,0.4,0.6,0.7
		s0.2,0.8,0.2,1.5l0,1.9c0,0.5,0,0.9,0.1,1.2c0,0.3,0.1,0.5,0.2,0.8h-1.3l-0.2-0.7c-0.2,0.3-0.5,0.5-0.7,0.6s-0.5,0.2-0.8,0.2
		c-0.5,0-0.9-0.2-1.2-0.5c-0.3-0.3-0.5-0.8-0.5-1.3c0-0.4,0.1-0.7,0.2-0.9s0.3-0.5,0.5-0.6s0.6-0.3,1.1-0.4c0.6-0.1,1.1-0.3,1.3-0.4
		c0-0.3,0-0.6-0.1-0.7c0-0.1-0.1-0.2-0.3-0.3c-0.1-0.1-0.3-0.1-0.6-0.1c-0.2,0-0.4,0.1-0.6,0.2S144.6,438.9,144.5,439.2z
		 M146.3,440.6c-0.2,0.1-0.4,0.2-0.8,0.2c-0.4,0.1-0.7,0.2-0.8,0.4c-0.1,0.1-0.2,0.3-0.2,0.5c0,0.2,0.1,0.4,0.2,0.6
		c0.1,0.2,0.3,0.2,0.5,0.2c0.2,0,0.4-0.1,0.6-0.2c0.2-0.1,0.3-0.3,0.4-0.5c0.1-0.2,0.1-0.5,0.1-1V440.6z"/>
</g>
<g>
	<path class="st15" d="M116.9,476.5v-8.6h4.8v1.5h-3.4v2h3v1.5h-3v3.7H116.9z"/>
	<path class="st15" d="M122.9,476.5v-8.6h1.4v8.6H122.9z"/>
	<path class="st15" d="M125.3,473.3c0-0.6,0.1-1.2,0.4-1.7s0.6-0.9,0.9-1.1c0.4-0.3,0.8-0.4,1.3-0.4c0.8,0,1.5,0.3,1.9,1
		s0.7,1.4,0.7,2.3c0,0.6-0.1,1.2-0.4,1.7s-0.6,0.9-1,1.2c-0.4,0.3-0.8,0.4-1.3,0.4c-0.8,0-1.4-0.3-1.9-0.9S125.3,474.4,125.3,473.3z
		 M126.7,473.4c0,0.6,0.1,1.1,0.4,1.4s0.5,0.5,0.9,0.5c0.3,0,0.6-0.2,0.9-0.5c0.2-0.3,0.4-0.8,0.4-1.4c0-0.6-0.1-1.1-0.4-1.4
		s-0.5-0.5-0.9-0.5c-0.3,0-0.6,0.2-0.9,0.5C126.9,472.3,126.7,472.8,126.7,473.4z"/>
	<path class="st15" d="M133,476.5h-1.4v-6.2h1.3v0.9c0.2-0.4,0.4-0.7,0.6-0.8s0.4-0.2,0.6-0.2c0.3,0,0.6,0.1,0.9,0.3l-0.4,1.4
		c-0.2-0.2-0.4-0.3-0.6-0.3c-0.2,0-0.4,0.1-0.5,0.2s-0.2,0.4-0.3,0.8c-0.1,0.4-0.1,1-0.1,2V476.5z"/>
	<path class="st15" d="M135.5,469.5v-1.5h1.4v1.5H135.5z M135.5,476.5v-6.2h1.4v6.2H135.5z"/>
	<path class="st15" d="M142.9,476.5h-1.3v-0.9c-0.2,0.4-0.5,0.6-0.7,0.8s-0.6,0.3-0.9,0.3c-0.6,0-1.1-0.3-1.5-0.9
		c-0.4-0.6-0.6-1.4-0.6-2.4c0-1.1,0.2-1.9,0.6-2.4c0.4-0.5,0.9-0.8,1.5-0.8c0.3,0,0.6,0.1,0.8,0.2s0.5,0.4,0.7,0.7v-3.1h1.4V476.5z
		 M139.3,473.3c0,0.6,0,1,0.1,1.3c0.1,0.3,0.2,0.5,0.4,0.6c0.2,0.1,0.4,0.2,0.6,0.2c0.3,0,0.6-0.2,0.8-0.5s0.3-0.8,0.3-1.5
		c0-0.7-0.1-1.2-0.3-1.5c-0.2-0.3-0.5-0.5-0.8-0.5c-0.3,0-0.6,0.2-0.8,0.5C139.4,472.2,139.3,472.7,139.3,473.3z"/>
	<path class="st15" d="M145.3,472.2l-1.2-0.3c0.1-0.6,0.4-1.1,0.7-1.4s0.8-0.4,1.5-0.4c0.6,0,1,0.1,1.3,0.2s0.5,0.4,0.6,0.7
		s0.2,0.8,0.2,1.5l0,1.9c0,0.5,0,0.9,0.1,1.2c0,0.3,0.1,0.5,0.2,0.8h-1.3l-0.2-0.7c-0.2,0.3-0.5,0.5-0.7,0.6s-0.5,0.2-0.8,0.2
		c-0.5,0-0.9-0.2-1.2-0.5c-0.3-0.3-0.5-0.8-0.5-1.3c0-0.4,0.1-0.7,0.2-0.9s0.3-0.5,0.5-0.6s0.6-0.3,1.1-0.4c0.6-0.1,1.1-0.3,1.3-0.4
		c0-0.3,0-0.6-0.1-0.7c0-0.1-0.1-0.2-0.3-0.3c-0.1-0.1-0.3-0.1-0.6-0.1c-0.2,0-0.4,0.1-0.6,0.2S145.3,471.9,145.3,472.2z
		 M147.1,473.5c-0.2,0.1-0.4,0.2-0.8,0.2c-0.4,0.1-0.7,0.2-0.8,0.4c-0.1,0.1-0.2,0.3-0.2,0.5c0,0.2,0.1,0.4,0.2,0.6
		c0.1,0.2,0.3,0.2,0.5,0.2c0.2,0,0.4-0.1,0.6-0.2c0.2-0.1,0.3-0.3,0.4-0.5c0.1-0.2,0.1-0.5,0.1-1V473.5z"/>
</g>
<g>
	<path d="M458.1,607.6l0.6-0.1c0,0.3,0.1,0.6,0.2,0.7s0.3,0.3,0.5,0.4s0.4,0.2,0.7,0.2c0.4,0,0.7-0.1,0.9-0.3s0.3-0.4,0.3-0.7
		c0-0.2,0-0.3-0.1-0.4s-0.2-0.2-0.3-0.3c-0.1-0.1-0.5-0.2-1-0.3c-0.4-0.1-0.8-0.3-0.9-0.4s-0.3-0.3-0.4-0.5s-0.2-0.4-0.2-0.7
		c0-0.5,0.1-0.8,0.4-1.1s0.7-0.4,1.2-0.4c0.3,0,0.7,0.1,0.9,0.2s0.5,0.3,0.6,0.6s0.2,0.6,0.2,0.9l-0.6,0.1c0-0.4-0.1-0.6-0.3-0.8
		s-0.5-0.3-0.8-0.3c-0.4,0-0.6,0.1-0.8,0.2s-0.3,0.4-0.3,0.6c0,0.2,0.1,0.4,0.2,0.5c0.1,0.1,0.4,0.3,0.9,0.4c0.5,0.1,0.8,0.2,1,0.3
		c0.3,0.1,0.5,0.3,0.6,0.6c0.1,0.2,0.2,0.5,0.2,0.9c0,0.3-0.1,0.6-0.2,0.9s-0.4,0.5-0.6,0.6s-0.6,0.2-1,0.2c-0.6,0-1-0.2-1.4-0.5
		S458.1,608.2,458.1,607.6z"/>
	<path d="M462.4,607.4c0-0.7,0.2-1.3,0.5-1.6s0.7-0.5,1.1-0.5c0.5,0,0.8,0.2,1.1,0.5s0.5,0.9,0.5,1.6c0,0.7-0.1,1.3-0.4,1.7
		s-0.7,0.5-1.1,0.5c-0.5,0-0.8-0.2-1.1-0.5S462.4,608.1,462.4,607.4z M463,607.4c0,0.5,0.1,0.9,0.3,1.2c0.2,0.3,0.4,0.4,0.7,0.4
		c0.3,0,0.5-0.1,0.7-0.4c0.2-0.3,0.3-0.7,0.3-1.2c0-0.5-0.1-0.9-0.3-1.2c-0.2-0.3-0.4-0.4-0.7-0.4c-0.3,0-0.5,0.1-0.7,0.4
		C463.1,606.4,463,606.8,463,607.4z"/>
	<path d="M468.5,609.4v-0.6c-0.1,0.2-0.3,0.4-0.5,0.5s-0.4,0.2-0.6,0.2c-0.3,0-0.5-0.1-0.7-0.2s-0.3-0.3-0.4-0.5s-0.1-0.5-0.1-0.9
		v-2.6h0.6v2.3c0,0.4,0,0.7,0.1,0.9s0.1,0.3,0.2,0.3s0.2,0.1,0.4,0.1c0.3,0,0.5-0.1,0.7-0.3c0.2-0.2,0.2-0.6,0.2-1.1v-2.2h0.6v4.1
		H468.5z"/>
	<path d="M469.9,609.4v-4.1h0.5v0.6c0.1-0.3,0.3-0.5,0.4-0.6s0.2-0.1,0.4-0.1c0.2,0,0.4,0.1,0.6,0.2l-0.2,0.7
		c-0.1-0.1-0.3-0.2-0.4-0.2c-0.1,0-0.2,0-0.3,0.1s-0.2,0.2-0.2,0.4c-0.1,0.3-0.1,0.6-0.1,0.9v2.2H469.9z"/>
	<path d="M474.3,607.9l0.6,0.1c-0.1,0.5-0.2,0.9-0.5,1.1s-0.6,0.4-0.9,0.4c-0.4,0-0.8-0.2-1.1-0.5s-0.4-0.9-0.4-1.6
		c0-0.7,0.1-1.3,0.4-1.6s0.7-0.5,1.1-0.5c0.4,0,0.6,0.1,0.9,0.3s0.4,0.5,0.5,1l-0.6,0.1c-0.1-0.3-0.1-0.5-0.3-0.6s-0.3-0.2-0.5-0.2
		c-0.3,0-0.5,0.1-0.7,0.4s-0.3,0.7-0.3,1.2c0,0.6,0.1,1,0.3,1.2s0.4,0.4,0.7,0.4c0.2,0,0.4-0.1,0.6-0.3S474.3,608.3,474.3,607.9z"/>
	<path d="M477.7,608.1l0.6,0.1c-0.1,0.4-0.3,0.8-0.5,1s-0.6,0.3-1,0.3c-0.5,0-0.9-0.2-1.2-0.5s-0.4-0.9-0.4-1.6
		c0-0.7,0.2-1.3,0.5-1.6s0.7-0.6,1.1-0.6c0.4,0,0.8,0.2,1.1,0.6s0.4,0.9,0.4,1.6l0,0.2h-2.5c0,0.5,0.1,0.8,0.3,1.1s0.4,0.4,0.7,0.4
		C477.2,609,477.5,608.7,477.7,608.1z M475.8,607h1.9c0-0.4-0.1-0.6-0.2-0.8c-0.2-0.3-0.4-0.4-0.7-0.4c-0.3,0-0.5,0.1-0.7,0.3
		S475.8,606.6,475.8,607z"/>
	<path d="M479.2,606.1v-0.8h0.7v0.8H479.2z M479.2,609.4v-0.8h0.7v0.8H479.2z"/>
	<path d="M482.8,609.4v-5.7h3.4v0.7h-2.8v1.8h2.6v0.7h-2.6v1.9h2.9v0.7H482.8z"/>
	<path d="M489.3,609.4v-0.5c-0.1,0.2-0.2,0.4-0.4,0.5s-0.3,0.2-0.5,0.2c-0.4,0-0.7-0.2-1-0.6s-0.4-0.9-0.4-1.6
		c0-0.5,0.1-0.9,0.2-1.2c0.1-0.3,0.3-0.6,0.5-0.7c0.2-0.2,0.5-0.2,0.7-0.2c0.2,0,0.4,0,0.5,0.2c0.2,0.1,0.3,0.2,0.4,0.4v-2.1h0.6
		v5.7H489.3z M487.4,607.4c0,0.5,0.1,0.9,0.3,1.2s0.4,0.4,0.7,0.4c0.2,0,0.5-0.1,0.6-0.4s0.3-0.6,0.3-1.1c0-0.6-0.1-1-0.3-1.3
		s-0.4-0.4-0.7-0.4c-0.2,0-0.5,0.1-0.6,0.4S487.4,606.8,487.4,607.4z"/>
	<path d="M492.9,609.4v-0.6c-0.1,0.2-0.3,0.4-0.5,0.5s-0.4,0.2-0.6,0.2c-0.3,0-0.5-0.1-0.7-0.2s-0.3-0.3-0.4-0.5s-0.1-0.5-0.1-0.9
		v-2.6h0.6v2.3c0,0.4,0,0.7,0.1,0.9s0.1,0.3,0.2,0.3s0.2,0.1,0.4,0.1c0.3,0,0.5-0.1,0.7-0.3c0.2-0.2,0.2-0.6,0.2-1.1v-2.2h0.6v4.1
		H492.9z"/>
	<path d="M496.6,607.9l0.6,0.1c-0.1,0.5-0.2,0.9-0.5,1.1s-0.6,0.4-0.9,0.4c-0.4,0-0.8-0.2-1.1-0.5s-0.4-0.9-0.4-1.6
		c0-0.7,0.1-1.3,0.4-1.6s0.7-0.5,1.1-0.5c0.4,0,0.6,0.1,0.9,0.3s0.4,0.5,0.5,1l-0.6,0.1c-0.1-0.3-0.1-0.5-0.3-0.6s-0.3-0.2-0.5-0.2
		c-0.3,0-0.5,0.1-0.7,0.4s-0.3,0.7-0.3,1.2c0,0.6,0.1,1,0.3,1.2s0.4,0.4,0.7,0.4c0.2,0,0.4-0.1,0.6-0.3S496.5,608.3,496.6,607.9z"/>
	<path d="M499.8,608.9c-0.2,0.2-0.4,0.4-0.6,0.5s-0.4,0.2-0.6,0.2c-0.4,0-0.6-0.1-0.8-0.3s-0.3-0.5-0.3-0.9c0-0.2,0-0.5,0.1-0.6
		s0.2-0.3,0.4-0.4s0.4-0.2,0.8-0.2c0.5-0.1,0.8-0.2,1-0.2l0-0.2c0-0.3-0.1-0.5-0.2-0.6c-0.1-0.2-0.4-0.2-0.7-0.2
		c-0.3,0-0.5,0.1-0.6,0.2s-0.2,0.3-0.3,0.6l-0.6-0.1c0.1-0.4,0.2-0.8,0.5-1s0.6-0.3,1.1-0.3c0.4,0,0.6,0.1,0.8,0.2s0.3,0.3,0.4,0.5
		s0.1,0.5,0.1,0.9v0.9c0,0.7,0,1.1,0,1.2s0.1,0.3,0.1,0.5H500C499.9,609.3,499.9,609.1,499.8,608.9z M499.8,607.4
		c-0.2,0.1-0.5,0.2-0.9,0.3c-0.2,0-0.4,0.1-0.5,0.1s-0.2,0.1-0.2,0.2s-0.1,0.2-0.1,0.3c0,0.2,0.1,0.4,0.2,0.5s0.3,0.2,0.5,0.2
		c0.2,0,0.4-0.1,0.6-0.2s0.3-0.2,0.4-0.4s0.1-0.4,0.1-0.8V607.4z"/>
	<path d="M502.6,608.8l0.1,0.6c-0.2,0-0.3,0.1-0.4,0.1c-0.2,0-0.4,0-0.5-0.1s-0.2-0.2-0.3-0.3s-0.1-0.4-0.1-0.8v-2.4H501v-0.5h0.4
		v-1l0.6-0.4v1.4h0.6v0.5H502v2.4c0,0.2,0,0.4,0.1,0.4c0,0.1,0.1,0.1,0.3,0.1C502.4,608.8,502.5,608.8,502.6,608.8z"/>
	<path d="M503.1,604.5v-0.8h0.6v0.8H503.1z M503.1,609.4v-4.1h0.6v4.1H503.1z"/>
	<path d="M504.3,607.4c0-0.7,0.2-1.3,0.5-1.6s0.7-0.5,1.1-0.5c0.5,0,0.8,0.2,1.1,0.5s0.5,0.9,0.5,1.6c0,0.7-0.1,1.3-0.4,1.7
		s-0.7,0.5-1.1,0.5c-0.5,0-0.8-0.2-1.1-0.5S504.3,608.1,504.3,607.4z M504.9,607.4c0,0.5,0.1,0.9,0.3,1.2c0.2,0.3,0.4,0.4,0.7,0.4
		c0.3,0,0.5-0.1,0.7-0.4c0.2-0.3,0.3-0.7,0.3-1.2c0-0.5-0.1-0.9-0.3-1.2c-0.2-0.3-0.4-0.4-0.7-0.4c-0.3,0-0.5,0.1-0.7,0.4
		C505,606.4,504.9,606.8,504.9,607.4z"/>
	<path d="M508.2,609.4v-4.1h0.5v0.6c0.1-0.2,0.3-0.4,0.5-0.5s0.4-0.2,0.6-0.2c0.2,0,0.4,0,0.5,0.1c0.2,0.1,0.3,0.2,0.4,0.3
		c0.1,0.1,0.2,0.3,0.2,0.5s0.1,0.5,0.1,0.9v2.6h-0.6v-2.5c0-0.3,0-0.5-0.1-0.7c-0.1-0.1-0.1-0.2-0.2-0.3s-0.2-0.1-0.4-0.1
		c-0.3,0-0.5,0.1-0.7,0.3c-0.2,0.2-0.2,0.6-0.2,1.1v2.3H508.2z"/>
	<path d="M513.7,609.4v-5.7h0.6v5.1h2.3v0.7H513.7z"/>
	<path d="M519.5,608.9c-0.2,0.2-0.4,0.4-0.6,0.5s-0.4,0.2-0.6,0.2c-0.4,0-0.6-0.1-0.8-0.3s-0.3-0.5-0.3-0.9c0-0.2,0-0.5,0.1-0.6
		s0.2-0.3,0.4-0.4s0.4-0.2,0.8-0.2c0.5-0.1,0.8-0.2,1-0.2l0-0.2c0-0.3-0.1-0.5-0.2-0.6c-0.1-0.2-0.4-0.2-0.7-0.2
		c-0.3,0-0.5,0.1-0.6,0.2s-0.2,0.3-0.3,0.6l-0.6-0.1c0.1-0.4,0.2-0.8,0.5-1s0.6-0.3,1.1-0.3c0.4,0,0.6,0.1,0.8,0.2s0.3,0.3,0.4,0.5
		s0.1,0.5,0.1,0.9v0.9c0,0.7,0,1.1,0,1.2s0.1,0.3,0.1,0.5h-0.6C519.6,609.3,519.6,609.1,519.5,608.9z M519.5,607.4
		c-0.2,0.1-0.5,0.2-0.9,0.3c-0.2,0-0.4,0.1-0.5,0.1s-0.2,0.1-0.2,0.2s-0.1,0.2-0.1,0.3c0,0.2,0.1,0.4,0.2,0.5s0.3,0.2,0.5,0.2
		c0.2,0,0.4-0.1,0.6-0.2s0.3-0.2,0.4-0.4s0.1-0.4,0.1-0.8V607.4z"/>
	<path d="M521.6,609.4l-1-4.1h0.6l0.5,2.4l0.2,0.9l0.2-0.9l0.5-2.4h0.6l0.5,2.4l0.2,0.8l0.2-0.8l0.6-2.4h0.6l-1.1,4.1h-0.6L523,607
		l-0.1-0.7l-0.7,3.2H521.6z"/>
	<path d="M531,607.4l0.6,0.2c-0.1,0.6-0.4,1.1-0.7,1.4s-0.8,0.5-1.3,0.5c-0.4,0-0.8-0.1-1.1-0.3c-0.3-0.2-0.6-0.6-0.8-1
		s-0.3-1-0.3-1.7c0-0.6,0.1-1.2,0.3-1.6c0.2-0.4,0.5-0.8,0.8-1s0.7-0.3,1.1-0.3c0.5,0,0.8,0.1,1.2,0.4c0.3,0.3,0.6,0.7,0.7,1.2
		l-0.6,0.2c-0.2-0.8-0.6-1.2-1.3-1.2c-0.3,0-0.6,0.1-0.8,0.2s-0.4,0.4-0.5,0.7s-0.2,0.8-0.2,1.3c0,0.8,0.1,1.4,0.4,1.8
		c0.3,0.4,0.6,0.6,1.1,0.6c0.3,0,0.6-0.1,0.9-0.4S530.9,607.9,531,607.4z"/>
	<path d="M534.6,608.1l0.6,0.1c-0.1,0.4-0.3,0.8-0.5,1s-0.6,0.3-1,0.3c-0.5,0-0.9-0.2-1.2-0.5s-0.4-0.9-0.4-1.6
		c0-0.7,0.2-1.3,0.5-1.6s0.7-0.6,1.1-0.6c0.4,0,0.8,0.2,1.1,0.6s0.4,0.9,0.4,1.6l0,0.2h-2.5c0,0.5,0.1,0.8,0.3,1.1s0.4,0.4,0.7,0.4
		C534.1,609,534.4,608.7,534.6,608.1z M532.7,607h1.9c0-0.4-0.1-0.6-0.2-0.8c-0.2-0.3-0.4-0.4-0.7-0.4c-0.3,0-0.5,0.1-0.7,0.3
		S532.7,606.6,532.7,607z"/>
	<path d="M535.9,609.4v-4.1h0.5v0.6c0.1-0.2,0.3-0.4,0.5-0.5s0.4-0.2,0.6-0.2c0.2,0,0.4,0,0.5,0.1c0.2,0.1,0.3,0.2,0.4,0.3
		c0.1,0.1,0.2,0.3,0.2,0.5s0.1,0.5,0.1,0.9v2.6h-0.6v-2.5c0-0.3,0-0.5-0.1-0.7c-0.1-0.1-0.1-0.2-0.2-0.3s-0.2-0.1-0.4-0.1
		c-0.3,0-0.5,0.1-0.7,0.3c-0.2,0.2-0.2,0.6-0.2,1.1v2.3H535.9z"/>
	<path d="M540.9,608.8l0.1,0.6c-0.2,0-0.3,0.1-0.4,0.1c-0.2,0-0.4,0-0.5-0.1s-0.2-0.2-0.3-0.3s-0.1-0.4-0.1-0.8v-2.4h-0.4v-0.5h0.4
		v-1l0.6-0.4v1.4h0.6v0.5h-0.6v2.4c0,0.2,0,0.4,0.1,0.4c0,0.1,0.1,0.1,0.3,0.1C540.7,608.8,540.7,608.8,540.9,608.8z"/>
	<path d="M543.7,608.1l0.6,0.1c-0.1,0.4-0.3,0.8-0.5,1s-0.6,0.3-1,0.3c-0.5,0-0.9-0.2-1.2-0.5s-0.4-0.9-0.4-1.6
		c0-0.7,0.2-1.3,0.5-1.6s0.7-0.6,1.1-0.6c0.4,0,0.8,0.2,1.1,0.6s0.4,0.9,0.4,1.6l0,0.2h-2.5c0,0.5,0.1,0.8,0.3,1.1s0.4,0.4,0.7,0.4
		C543.3,609,543.6,608.7,543.7,608.1z M541.8,607h1.9c0-0.4-0.1-0.6-0.2-0.8c-0.2-0.3-0.4-0.4-0.7-0.4c-0.3,0-0.5,0.1-0.7,0.3
		S541.8,606.6,541.8,607z"/>
	<path d="M545,609.4v-4.1h0.5v0.6c0.1-0.3,0.3-0.5,0.4-0.6s0.2-0.1,0.4-0.1c0.2,0,0.4,0.1,0.6,0.2l-0.2,0.7
		c-0.1-0.1-0.3-0.2-0.4-0.2c-0.1,0-0.2,0-0.3,0.1s-0.2,0.2-0.2,0.4c-0.1,0.3-0.1,0.6-0.1,0.9v2.2H545z"/>
</g>
</svg>
