<?xml version="1.0" encoding="utf-8"?>
<!-- Generator: Adobe Illustrator 26.5.0, SVG Export Plug-In . SVG Version: 6.00 Build 0)  -->
<svg version="1.1" id="overlay" xmlns="http://www.w3.org/2000/svg" xmlns:xlink="http://www.w3.org/1999/xlink" x="0px" y="0px"
	 viewBox="0 0 814 600" style="enable-background:new 0 0 814 600;" xml:space="preserve">
<style type="text/css">
	.st0{display:none;fill:none;stroke:#FF0000;}
	.st1{fill:none;stroke:#EEEEEE;stroke-width:1.5;stroke-linecap:square;}
	.st2{enable-background:new    ;}
	.st3{fill:#AAAAAA;}
	.st4{fill:none;stroke:#EEEEEE;stroke-width:1.5;}
	.st5{opacity:0.8;}
	.st6{fill:#FF8F4A;}
	.st7{fill:#C9CACC;}
	.st8{fill:#FFAB77;}
	.st9{opacity:0.7;fill:#C9CACC;}
	.st10{fill:#FF731D;}
	.st11{fill:none;stroke:#A9ABAE;stroke-miterlimit:5.9816;stroke-dasharray:2,2;}
</style>
<g>
	<g transform="translate(0,14)">
		<g>
			<rect x="10.5" y="28" class="st0" width="775" height="540"/>
			<g>
				<g>
					<g>
						<g>
							<line class="st1" x1="89.1" y1="483.8" x2="775.3" y2="483.8"/>
						</g>
						<g>
							<g transform="translate(764.8176879882812, 455.81805419921875)">
								<g class="st2">
									<path class="st3" d="M-2.4,47.1c-0.9-0.1-1.6-0.4-2.1-1l0.5-0.6c0.5,0.5,1.2,0.8,1.9,0.8c0.9,0,1.4-0.5,1.4-1.4
										c0-1.8-3.5-1.7-3.5-4c0-1.1,0.7-1.9,1.8-2.1v-1.3h0.8v1.2c0.8,0.1,1.4,0.5,1.8,1l-0.6,0.6c-0.4-0.4-0.9-0.7-1.5-0.7
										c-0.8,0-1.2,0.5-1.2,1.2c0,1.6,3.5,1.6,3.5,4c0,1.2-0.8,2.1-1.9,2.3v1.3h-0.8v-1.3H-2.4z"/>
									<path class="st3" d="M1.6,44.9c0-1,0.8-1.8,1.5-2.2l0,0c-0.6-0.4-1.1-1-1.1-1.9c0-1.2,1-2.1,2.3-2.1c1.4,0,2.3,0.9,2.3,2.1
										c0,0.8-0.6,1.6-1.1,1.9l0,0c0.7,0.4,1.4,1,1.4,2.1c0,1.2-1,2.1-2.6,2.1C2.7,47.1,1.6,46.2,1.6,44.9z M5.8,44.9
										c0-1-1-1.4-2.2-1.9c-0.6,0.4-1.1,1-1.1,1.7c0,0.9,0.7,1.5,1.7,1.5C5.2,46.3,5.8,45.8,5.8,44.9z M5.6,40.9
										c0-0.8-0.5-1.4-1.4-1.4c-0.7,0-1.3,0.5-1.3,1.3c0,1,0.9,1.4,1.9,1.7C5.3,42.1,5.6,41.5,5.6,40.9z"/>
									<path class="st3" d="M7.9,42.9c0-2.7,1-4.1,2.6-4.1s2.6,1.4,2.6,4.1s-1,4.2-2.6,4.2C8.9,47.1,7.9,45.6,7.9,42.9z M12,42.9
										c0-2.4-0.6-3.3-1.6-3.3s-1.6,0.9-1.6,3.3c0,2.4,0.6,3.4,1.6,3.4S12,45.3,12,42.9z"/>
									<path class="st3" d="M14.7,38.7h1.1v4.1l0,0l3.4-4.1h1.2l-2.6,3.2l3,5.1h-1.2l-2.5-4.3l-1.4,1.7V47h-1.1L14.7,38.7
										L14.7,38.7z"/>
								</g>
							</g>
							<g transform="translate(627.5753784179688, 455.81805419921875)">
								<g class="st2">
									<path class="st3" d="M-2.4,47.1c-0.9-0.1-1.6-0.4-2.1-1l0.5-0.6c0.5,0.5,1.2,0.8,1.9,0.8c0.9,0,1.4-0.5,1.4-1.4
										c0-1.8-3.5-1.7-3.5-4c0-1.1,0.7-1.9,1.8-2.1v-1.3h0.8v1.2c0.8,0.1,1.4,0.5,1.8,1l-0.6,0.6c-0.4-0.4-0.9-0.7-1.5-0.7
										c-0.8,0-1.2,0.5-1.2,1.2c0,1.6,3.5,1.6,3.5,4c0,1.2-0.8,2.1-1.9,2.3v1.3h-0.8v-1.3H-2.4z"/>
									<path class="st3" d="M5.6,39.8h-4v-0.9h5.2v0.6c-1.9,2.4-2.4,4.3-2.5,7.4H3.2C3.4,43.9,4,42,5.6,39.8z"/>
									<path class="st3" d="M7.9,42.9c0-2.7,1-4.1,2.6-4.1s2.6,1.4,2.6,4.1s-1,4.2-2.6,4.2C8.9,47.1,7.9,45.6,7.9,42.9z M12,42.9
										c0-2.4-0.6-3.3-1.6-3.3s-1.6,0.9-1.6,3.3c0,2.4,0.6,3.4,1.6,3.4S12,45.3,12,42.9z"/>
									<path class="st3" d="M14.7,38.7h1.1v4.1l0,0l3.4-4.1h1.2l-2.6,3.2l3,5.1h-1.2l-2.5-4.3l-1.4,1.7V47h-1.1L14.7,38.7
										L14.7,38.7z"/>
								</g>
							</g>
							<g transform="translate(490.3331298828125, 455.81805419921875)">
								<g class="st2">
									<path class="st3" d="M-2.4,47.1c-0.9-0.1-1.6-0.4-2.1-1l0.5-0.6c0.5,0.5,1.2,0.8,1.9,0.8c0.9,0,1.4-0.5,1.4-1.4
										c0-1.8-3.5-1.7-3.5-4c0-1.1,0.7-1.9,1.8-2.1v-1.3h0.8v1.2c0.8,0.1,1.4,0.5,1.8,1l-0.6,0.6c-0.4-0.4-0.9-0.7-1.5-0.7
										c-0.8,0-1.2,0.5-1.2,1.2c0,1.6,3.5,1.6,3.5,4c0,1.2-0.8,2.1-1.9,2.3v1.3h-0.8v-1.3H-2.4z"/>
									<path class="st3" d="M1.7,43.2c0-3.2,1.5-4.5,3.1-4.5c0.9,0,1.5,0.4,1.9,0.9l-0.6,0.7c-0.3-0.4-0.8-0.6-1.3-0.6
										c-1.1,0-2.1,0.9-2.1,3.4c0.5-0.6,1.2-1,1.9-1c1.4,0,2.3,0.8,2.3,2.5c0,1.5-1.1,2.6-2.4,2.6C2.9,47.1,1.7,45.8,1.7,43.2z
										 M2.7,43.9c0.1,1.6,0.8,2.4,1.8,2.4c0.8,0,1.4-0.7,1.4-1.8c0-1-0.5-1.7-1.5-1.7C3.8,42.8,3.2,43.1,2.7,43.9z"/>
									<path class="st3" d="M7.9,42.9c0-2.7,1-4.1,2.6-4.1s2.6,1.4,2.6,4.1s-1,4.2-2.6,4.2C8.9,47.1,7.9,45.6,7.9,42.9z M12,42.9
										c0-2.4-0.6-3.3-1.6-3.3s-1.6,0.9-1.6,3.3c0,2.4,0.6,3.4,1.6,3.4S12,45.3,12,42.9z"/>
									<path class="st3" d="M14.7,38.7h1.1v4.1l0,0l3.4-4.1h1.2l-2.6,3.2l3,5.1h-1.2l-2.5-4.3l-1.4,1.7V47h-1.1L14.7,38.7
										L14.7,38.7z"/>
								</g>
							</g>
							<g transform="translate(353.09088134765625, 455.81805419921875)">
								<g class="st2">
									<path class="st3" d="M-2.4,47.1c-0.9-0.1-1.6-0.4-2.1-1l0.5-0.6c0.5,0.5,1.2,0.8,1.9,0.8c0.9,0,1.4-0.5,1.4-1.4
										c0-1.8-3.5-1.7-3.5-4c0-1.1,0.7-1.9,1.8-2.1v-1.3h0.8v1.2c0.8,0.1,1.4,0.5,1.8,1l-0.6,0.6c-0.4-0.4-0.9-0.7-1.6-0.7
										c-0.8,0-1.2,0.5-1.2,1.2c0,1.6,3.5,1.6,3.5,4c0,1.2-0.8,2.1-1.9,2.3v1.3h-0.8V47.1z"/>
									<path class="st3" d="M1.4,46l0.5-0.7c0.5,0.5,1.1,0.9,2,0.9c1,0,1.8-0.7,1.8-1.8S5,42.6,4,42.6c-0.6,0-0.9,0.2-1.4,0.5
										L2,42.8l0.3-3.9h4v0.9H3.2L3,42.2c0.4-0.2,0.7-0.3,1.2-0.3c1.4,0,2.5,0.8,2.5,2.5S5.4,47.1,4,47.1
										C2.7,47.1,1.9,46.6,1.4,46z"/>
									<path class="st3" d="M7.9,42.9c0-2.7,1-4.1,2.6-4.1s2.6,1.4,2.6,4.1s-1,4.2-2.6,4.2C8.9,47.1,7.9,45.6,7.9,42.9z M12,42.9
										c0-2.4-0.6-3.3-1.6-3.3s-1.6,0.9-1.6,3.3c0,2.4,0.6,3.4,1.6,3.4S12,45.3,12,42.9z"/>
									<path class="st3" d="M14.7,38.7h1.1v4.1l0,0l3.4-4.1h1.2l-2.6,3.2l3,5.1h-1.2l-2.5-4.3l-1.4,1.7V47h-1.1L14.7,38.7
										L14.7,38.7z"/>
								</g>
							</g>
							<g transform="translate(215.8486328125, 455.81805419921875)">
								<g class="st2">
									<path class="st3" d="M-2.4,47.1c-0.9-0.1-1.6-0.4-2.1-1l0.5-0.6c0.5,0.5,1.2,0.8,1.9,0.8c0.9,0,1.4-0.5,1.4-1.4
										c0-1.8-3.5-1.7-3.5-4c0-1.1,0.7-1.9,1.8-2.1v-1.3h0.8v1.2c0.8,0.1,1.4,0.5,1.8,1l-0.6,0.6c-0.4-0.4-0.9-0.7-1.6-0.7
										c-0.8,0-1.2,0.5-1.2,1.2c0,1.6,3.5,1.6,3.5,4c0,1.2-0.8,2.1-1.9,2.3v1.3h-0.8V47.1z"/>
									<path class="st3" d="M4.9,44.7H1.3V44l3.4-5.1h1.2v5H7v0.8H5.9v2.2h-1V44.7z M4.9,43.9v-2.3c0-0.4,0-1.1,0.1-1.5H4.9
										c-0.2,0.4-0.4,0.7-0.7,1.1l-1.9,2.7H4.9z"/>
									<path class="st3" d="M7.9,42.9c0-2.7,1-4.1,2.6-4.1s2.6,1.4,2.6,4.1s-1,4.2-2.6,4.2C8.9,47.1,7.9,45.6,7.9,42.9z M12,42.9
										c0-2.4-0.6-3.3-1.6-3.3s-1.6,0.9-1.6,3.3c0,2.4,0.6,3.4,1.6,3.4S12,45.3,12,42.9z"/>
									<path class="st3" d="M14.6,38h1v6l0,0l2.6-3.2h1.2l-2,2.5l2.3,3.7h-1.1l-1.8-3l-1.1,1.3v1.6h-1L14.6,38L14.6,38z"/>
								</g>
							</g>
							<g transform="translate(78.60636901855469, 455.81805419921875)">
								<g class="st2">
									<path class="st3" d="M-2.4,47.1c-0.9-0.1-1.6-0.4-2.1-1l0.5-0.6c0.5,0.5,1.2,0.8,1.9,0.8c0.9,0,1.4-0.5,1.4-1.4
										c0-1.8-3.5-1.7-3.5-4c0-1.1,0.7-1.9,1.8-2.1v-1.3h0.8v1.2c0.8,0.1,1.4,0.5,1.8,1l-0.6,0.6c-0.4-0.4-0.9-0.7-1.6-0.7
										c-0.8,0-1.2,0.5-1.2,1.2c0,1.6,3.5,1.6,3.5,4c0,1.2-0.8,2.1-1.9,2.3v1.3h-0.8V47.1z"/>
									<path class="st3" d="M1.4,46l0.5-0.7C2.4,45.8,3,46.2,4,46.2s1.7-0.6,1.7-1.5c0-1-0.7-1.6-2.6-1.6v-0.8
										c1.7,0,2.3-0.7,2.3-1.5S4.9,39.5,4,39.5c-0.7,0-1.2,0.3-1.7,0.8l-0.6-0.7c0.6-0.6,1.4-1,2.3-1c1.4,0,2.4,0.7,2.4,2
										c0,1-0.6,1.6-1.4,1.9l0,0c1,0.2,1.7,0.9,1.7,2c0,1.4-1.2,2.3-2.7,2.3C2.8,47.1,1.9,46.6,1.4,46z"/>
									<path class="st3" d="M7.9,42.9c0-2.7,1-4.1,2.6-4.1s2.6,1.4,2.6,4.1s-1,4.2-2.6,4.2C8.9,47.1,7.9,45.6,7.9,42.9z M12,42.9
										c0-2.4-0.6-3.3-1.6-3.3s-1.6,0.9-1.6,3.3c0,2.4,0.6,3.4,1.6,3.4S12,45.3,12,42.9z"/>
									<path class="st3" d="M14.7,38.7h1.1v4.1l0,0l3.4-4.1h1.2l-2.6,3.2l3,5.1h-1.2l-2.5-4.3l-1.4,1.7V47h-1.1L14.7,38.7
										L14.7,38.7z"/>
								</g>
							</g>
							<g transform="translate(696.196533203125, 455.81805419921875)">
								<g class="st2">
									<path class="st3" d="M-2.4,47.1c-0.9-0.1-1.6-0.4-2.1-1l0.5-0.6c0.5,0.5,1.2,0.8,1.9,0.8c0.9,0,1.4-0.5,1.4-1.4
										c0-1.8-3.5-1.7-3.5-4c0-1.1,0.7-1.9,1.8-2.1v-1.3h0.8v1.2c0.8,0.1,1.4,0.5,1.8,1l-0.6,0.6c-0.4-0.4-0.9-0.7-1.5-0.7
										c-0.8,0-1.2,0.5-1.2,1.2c0,1.6,3.5,1.6,3.5,4c0,1.2-0.8,2.1-1.9,2.3v1.3h-0.8v-1.3H-2.4z"/>
									<path class="st3" d="M5.6,39.8h-4v-0.9h5.2v0.6c-1.9,2.4-2.4,4.3-2.5,7.4H3.2C3.4,43.9,4,42,5.6,39.8z"/>
									<path class="st3" d="M7.7,46l0.5-0.7c0.5,0.5,1.1,0.9,2,0.9c1,0,1.8-0.7,1.8-1.8s-0.7-1.8-1.7-1.8c-0.6,0-0.9,0.2-1.4,0.5
										l-0.6-0.4l0.3-3.9h4v0.9H9.5l-0.2,2.4c0.4-0.2,0.7-0.3,1.2-0.3c1.4,0,2.5,0.8,2.5,2.5S11.7,47,10.3,47
										C9,47.1,8.2,46.6,7.7,46z"/>
									<path class="st3" d="M14.7,38.7h1.1v4.1l0,0l3.4-4.1h1.2l-2.6,3.2l3,5.1h-1.2l-2.5-4.3l-1.4,1.7V47h-1.1L14.7,38.7
										L14.7,38.7z"/>
								</g>
							</g>
							<g transform="translate(558.9542846679688, 455.81805419921875)">
								<g class="st2">
									<path class="st3" d="M-2.4,47.1c-0.9-0.1-1.6-0.4-2.1-1l0.5-0.6c0.5,0.5,1.2,0.8,1.9,0.8c0.9,0,1.4-0.5,1.4-1.4
										c0-1.8-3.5-1.7-3.5-4c0-1.1,0.7-1.9,1.8-2.1v-1.3h0.8v1.2c0.8,0.1,1.4,0.5,1.8,1l-0.6,0.6c-0.4-0.4-0.9-0.7-1.5-0.7
										c-0.8,0-1.2,0.5-1.2,1.2c0,1.6,3.5,1.6,3.5,4c0,1.2-0.8,2.1-1.9,2.3v1.3h-0.8v-1.3H-2.4z"/>
									<path class="st3" d="M1.7,43.2c0-3.2,1.5-4.5,3.1-4.5c0.9,0,1.5,0.4,1.9,0.9l-0.6,0.7c-0.3-0.4-0.8-0.6-1.3-0.6
										c-1.1,0-2.1,0.9-2.1,3.4c0.5-0.6,1.2-1,1.9-1c1.4,0,2.3,0.8,2.3,2.5c0,1.5-1.1,2.6-2.4,2.6C2.9,47.1,1.7,45.8,1.7,43.2z
										 M2.7,43.9c0.1,1.6,0.8,2.4,1.8,2.4c0.8,0,1.4-0.7,1.4-1.8c0-1-0.5-1.7-1.5-1.7C3.8,42.8,3.2,43.1,2.7,43.9z"/>
									<path class="st3" d="M7.7,46l0.5-0.7c0.5,0.5,1.1,0.9,2,0.9c1,0,1.8-0.7,1.8-1.8s-0.7-1.8-1.7-1.8c-0.6,0-0.9,0.2-1.4,0.5
										l-0.6-0.4l0.3-3.9h4v0.9H9.5l-0.2,2.4c0.4-0.2,0.7-0.3,1.2-0.3c1.4,0,2.5,0.8,2.5,2.5S11.7,47,10.3,47
										C9,47.1,8.2,46.6,7.7,46z"/>
									<path class="st3" d="M14.7,38.7h1.1v4.1l0,0l3.4-4.1h1.2l-2.6,3.2l3,5.1h-1.2l-2.5-4.3l-1.4,1.7V47h-1.1L14.7,38.7
										L14.7,38.7z"/>
								</g>
							</g>
							<g transform="translate(421.7120056152344, 455.81805419921875)">
								<g class="st2">
									<path class="st3" d="M-2.4,47.1c-0.9-0.1-1.6-0.4-2.1-1l0.5-0.6c0.5,0.5,1.2,0.8,1.9,0.8c0.9,0,1.4-0.5,1.4-1.4
										c0-1.8-3.5-1.7-3.5-4c0-1.1,0.7-1.9,1.8-2.1v-1.3h0.8v1.2c0.8,0.1,1.4,0.5,1.8,1l-0.6,0.6c-0.4-0.4-0.9-0.7-1.5-0.7
										c-0.8,0-1.2,0.5-1.2,1.2c0,1.6,3.5,1.6,3.5,4c0,1.2-0.8,2.1-1.9,2.3v1.3h-0.8v-1.3H-2.4z"/>
									<path class="st3" d="M1.4,46l0.5-0.7c0.5,0.5,1.1,0.9,2,0.9c1,0,1.8-0.7,1.8-1.8S5,42.6,4,42.6c-0.6,0-0.9,0.2-1.4,0.5
										L2,42.8l0.3-3.9h4v0.9H3.2L3,42.2c0.4-0.2,0.7-0.3,1.2-0.3c1.4,0,2.5,0.8,2.5,2.5S5.4,47.1,4,47.1
										C2.7,47.1,1.9,46.6,1.4,46z"/>
									<path class="st3" d="M7.7,46l0.5-0.7c0.5,0.5,1.1,0.9,2,0.9c1,0,1.8-0.7,1.8-1.8s-0.7-1.8-1.7-1.8c-0.6,0-0.9,0.2-1.4,0.5
										l-0.6-0.4l0.3-3.9h4v0.9H9.5l-0.2,2.4c0.4-0.2,0.7-0.3,1.2-0.3c1.4,0,2.5,0.8,2.5,2.5S11.7,47,10.3,47
										C9,47.1,8.2,46.6,7.7,46z"/>
									<path class="st3" d="M14.7,38.7h1.1v4.1l0,0l3.4-4.1h1.2l-2.6,3.2l3,5.1h-1.2l-2.5-4.3l-1.4,1.7V47h-1.1L14.7,38.7
										L14.7,38.7z"/>
								</g>
							</g>
							<g transform="translate(284.4697570800781, 455.81805419921875)">
								<g class="st2">
									<path class="st3" d="M-2.4,47.1c-0.9-0.1-1.6-0.4-2.1-1l0.5-0.6c0.5,0.5,1.2,0.8,1.9,0.8c0.9,0,1.4-0.5,1.4-1.4
										c0-1.8-3.5-1.7-3.5-4c0-1.1,0.7-1.9,1.8-2.1v-1.3h0.8v1.2c0.8,0.1,1.4,0.5,1.8,1l-0.6,0.6c-0.4-0.4-0.9-0.7-1.6-0.7
										c-0.8,0-1.2,0.5-1.2,1.2c0,1.6,3.5,1.6,3.5,4c0,1.2-0.8,2.1-1.9,2.3v1.3h-0.8V47.1z"/>
									<path class="st3" d="M4.9,44.7H1.3V44l3.4-5.1h1.2v5H7v0.8H5.9v2.2h-1V44.7z M4.9,43.9v-2.3c0-0.4,0-1.1,0.1-1.5H4.9
										c-0.2,0.4-0.4,0.7-0.7,1.1l-1.9,2.7H4.9z"/>
									<path class="st3" d="M7.7,46l0.5-0.7c0.5,0.5,1.1,0.9,2,0.9c1,0,1.8-0.7,1.8-1.8s-0.7-1.8-1.7-1.8c-0.6,0-0.9,0.2-1.4,0.5
										l-0.6-0.4l0.3-3.9h4v0.9H9.5l-0.2,2.4c0.4-0.2,0.7-0.3,1.2-0.3c1.4,0,2.5,0.8,2.5,2.5S11.7,47,10.3,47
										C9,47.1,8.2,46.6,7.7,46z"/>
									<path class="st3" d="M14.7,38.7h1.1v4.1l0,0l3.4-4.1h1.2l-2.6,3.2l3,5.1h-1.2l-2.5-4.3l-1.4,1.7V47h-1.1L14.7,38.7
										L14.7,38.7z"/>
								</g>
							</g>
							<g transform="translate(147.2274932861328, 455.81805419921875)">
								<g>
									<g class="st2">
										<path class="st3" d="M-2.4,47.1c-0.9-0.1-1.6-0.4-2.1-1l0.5-0.6c0.5,0.5,1.2,0.8,1.9,0.8c0.9,0,1.4-0.5,1.4-1.4
											c0-1.8-3.5-1.7-3.5-4c0-1.1,0.7-1.9,1.8-2.1v-1.3h0.8v1.2c0.8,0.1,1.4,0.5,1.8,1l-0.6,0.6c-0.4-0.4-0.9-0.7-1.6-0.7
											c-0.8,0-1.2,0.5-1.2,1.2c0,1.6,3.5,1.6,3.5,4c0,1.2-0.8,2.1-1.9,2.3v1.3h-0.8V47.1z"/>
										<path class="st3" d="M1.4,46l0.5-0.7C2.4,45.8,3,46.2,4,46.2s1.7-0.6,1.7-1.5c0-1-0.7-1.6-2.6-1.6v-0.8
											c1.7,0,2.3-0.7,2.3-1.5S4.9,39.5,4,39.5c-0.7,0-1.2,0.3-1.7,0.8l-0.6-0.7c0.6-0.6,1.4-1,2.3-1c1.4,0,2.4,0.7,2.4,2
											c0,1-0.6,1.6-1.5,1.9l0,0c1,0.2,1.7,0.9,1.7,2c0,1.4-1.2,2.3-2.7,2.3C2.8,47.1,1.9,46.6,1.4,46z"/>
										<path class="st3" d="M7.7,46l0.5-0.7c0.5,0.5,1.1,0.9,2,0.9c1,0,1.8-0.7,1.8-1.8s-0.7-1.8-1.7-1.8c-0.6,0-0.9,0.2-1.4,0.5
											l-0.6-0.4l0.3-3.9h4v0.9H9.5l-0.2,2.4c0.4-0.2,0.7-0.3,1.2-0.3c1.4,0,2.5,0.8,2.5,2.5S11.7,47,10.3,47
											C9,47.1,8.2,46.6,7.7,46z"/>
										<path class="st3" d="M14.7,38.7h1.1v4.1l0,0l3.4-4.1h1.2l-2.6,3.2l3,5.1h-1.2l-2.5-4.3l-1.4,1.7V47h-1.1L14.7,38.7z"/>
									</g>
								</g>
							</g>
						</g>
					</g>
				</g>
				<g>
					<g>
						<g>
							<line class="st1" x1="89.1" y1="483.8" x2="89.1" y2="35.2"/>
						</g>
						<g>
							<g transform="translate(78.60636596679687,7.2)">
								<path class="st4" d="M10.5,28"/>
								<g class="st2">
									<path class="st3" d="M-24.7,28.4c0-3.2,1.5-4.5,3.1-4.5c0.9,0,1.5,0.4,1.9,0.9l-0.6,0.7c-0.3-0.4-0.8-0.6-1.3-0.6
										c-1.1,0-2.1,0.9-2.1,3.4c0.5-0.6,1.2-1,1.9-1c1.4,0,2.3,0.8,2.3,2.5c0,1.5-1.1,2.6-2.4,2.6C-23.5,32.3-24.7,31-24.7,28.4z
										 M-23.7,29.1c0.1,1.6,0.8,2.4,1.8,2.4c0.8,0,1.4-0.7,1.4-1.8c0-1-0.5-1.7-1.5-1.7C-22.6,28-23.2,28.3-23.7,29.1z"/>
									<path class="st3" d="M-18.2,31.5c0-0.5,0.3-0.8,0.8-0.8c0.4,0,0.8,0.3,0.8,0.8s-0.3,0.8-0.8,0.8
										C-17.9,32.3-18.2,32-18.2,31.5z"/>
									<path class="st3" d="M-15.4,28.1c0-2.7,1-4.1,2.6-4.1s2.6,1.4,2.6,4.1s-1,4.2-2.6,4.2S-15.4,30.8-15.4,28.1z M-11.2,28.1
										c0-2.4-0.6-3.3-1.6-3.3s-1.6,0.9-1.6,3.3s0.6,3.4,1.6,3.4S-11.2,30.5-11.2,28.1z"/>
									<path class="st3" d="M-9.1,28.1c0-2.7,1-4.1,2.6-4.1s2.6,1.4,2.6,4.1s-1,4.2-2.6,4.2S-9.1,30.8-9.1,28.1z M-5,28.1
										c0-2.4-0.6-3.3-1.6-3.3s-1.6,0.9-1.6,3.3s0.6,3.4,1.6,3.4S-5,30.5-5,28.1z"/>
								</g>
							</g>
							<g transform="translate(78.60636901855469, 96.92361450195312)">
								<g class="st2">
									<path class="st3" d="M-25,31.2l0.5-0.7c0.5,0.5,1.1,0.9,2,0.9c1,0,1.8-0.7,1.8-1.8c0-1.1-0.7-1.8-1.7-1.8
										c-0.6,0-0.9,0.2-1.4,0.5l-0.6-0.4l0.3-3.9h4v1h-3.1l-0.2,2.4c0.4-0.2,0.7-0.3,1.2-0.3c1.4,0,2.5,0.8,2.5,2.5
										s-1.3,2.7-2.7,2.7C-23.7,32.3-24.5,31.8-25,31.2z"/>
									<path class="st3" d="M-18.2,31.5c0-0.5,0.3-0.8,0.8-0.8c0.4,0,0.8,0.3,0.8,0.8s-0.3,0.8-0.8,0.8
										C-17.9,32.3-18.2,32-18.2,31.5z"/>
									<path class="st3" d="M-15.4,28.1c0-2.7,1-4.1,2.6-4.1s2.6,1.4,2.6,4.1s-1,4.2-2.6,4.2S-15.4,30.8-15.4,28.1z M-11.2,28.1
										c0-2.4-0.6-3.3-1.6-3.3s-1.6,0.9-1.6,3.3s0.6,3.4,1.6,3.4S-11.2,30.5-11.2,28.1z"/>
									<path class="st3" d="M-9.1,28.1c0-2.7,1-4.1,2.6-4.1s2.6,1.4,2.6,4.1s-1,4.2-2.6,4.2S-9.1,30.8-9.1,28.1z M-5,28.1
										c0-2.4-0.6-3.3-1.6-3.3s-1.6,0.9-1.6,3.3s0.6,3.4,1.6,3.4S-5,30.5-5,28.1z"/>
								</g>
							</g>
							<g transform="translate(78.60636901855469, 186.64723205566406)">
								<g class="st2">
									<path class="st3" d="M-21.5,29.9h-3.6v-0.7l3.4-5.1h1.2v5h1.1v0.8h-1.1v2.2h-1V29.9z M-21.5,29.1v-2.3c0-0.4,0-1.1,0.1-1.5
										h-0.1c-0.2,0.4-0.4,0.7-0.7,1.1l-1.9,2.7C-24.1,29.1-21.5,29.1-21.5,29.1z"/>
									<path class="st3" d="M-18.2,31.5c0-0.5,0.3-0.8,0.8-0.8c0.4,0,0.8,0.3,0.8,0.8s-0.3,0.8-0.8,0.8
										C-17.9,32.3-18.2,32-18.2,31.5z"/>
									<path class="st3" d="M-15.4,28.1c0-2.7,1-4.1,2.6-4.1s2.6,1.4,2.6,4.1s-1,4.2-2.6,4.2S-15.4,30.8-15.4,28.1z M-11.2,28.1
										c0-2.4-0.6-3.3-1.6-3.3s-1.6,0.9-1.6,3.3s0.6,3.4,1.6,3.4S-11.2,30.5-11.2,28.1z"/>
									<path class="st3" d="M-9.1,28.1c0-2.7,1-4.1,2.6-4.1s2.6,1.4,2.6,4.1s-1,4.2-2.6,4.2S-9.1,30.8-9.1,28.1z M-5,28.1
										c0-2.4-0.6-3.3-1.6-3.3s-1.6,0.9-1.6,3.3s0.6,3.4,1.6,3.4S-5,30.5-5,28.1z"/>
								</g>
							</g>
							<g transform="translate(78.60636901855469, 276.370849609375)">
								<g class="st2">
									<path class="st3" d="M-25,31.2l0.5-0.7c0.5,0.5,1.1,0.9,2.1,0.9s1.7-0.6,1.7-1.5c0-1-0.7-1.6-2.6-1.6v-0.8
										c1.7,0,2.3-0.7,2.3-1.5s-0.5-1.3-1.4-1.3c-0.7,0-1.2,0.3-1.7,0.8l-0.6-0.7c0.6-0.6,1.4-1,2.3-1c1.4,0,2.4,0.7,2.4,2
										c0,1-0.6,1.6-1.4,1.9l0,0c1,0.2,1.7,0.9,1.7,2c0,1.4-1.2,2.3-2.7,2.3C-23.6,32.3-24.5,31.8-25,31.2z"/>
									<path class="st3" d="M-18.2,31.5c0-0.5,0.3-0.8,0.8-0.8c0.4,0,0.8,0.3,0.8,0.8s-0.3,0.8-0.8,0.8
										C-17.9,32.3-18.2,32-18.2,31.5z"/>
									<path class="st3" d="M-15.4,28.1c0-2.7,1-4.1,2.6-4.1s2.6,1.4,2.6,4.1s-1,4.2-2.6,4.2S-15.4,30.8-15.4,28.1z M-11.2,28.1
										c0-2.4-0.6-3.3-1.6-3.3s-1.6,0.9-1.6,3.3s0.6,3.4,1.6,3.4S-11.2,30.5-11.2,28.1z"/>
									<path class="st3" d="M-9.1,28.1c0-2.7,1-4.1,2.6-4.1s2.6,1.4,2.6,4.1s-1,4.2-2.6,4.2S-9.1,30.8-9.1,28.1z M-5,28.1
										c0-2.4-0.6-3.3-1.6-3.3s-1.6,0.9-1.6,3.3s0.6,3.4,1.6,3.4S-5,30.5-5,28.1z"/>
								</g>
							</g>
							<g transform="translate(78.60636901855469, 366.0944519042969)">
								<g class="st2">
									<path class="st3" d="M-24.8,31.5c2.4-2.3,3.8-3.8,3.8-5.1c0-0.9-0.5-1.6-1.5-1.6c-0.7,0-1.2,0.4-1.7,1l-0.6-0.6
										c0.7-0.8,1.4-1.2,2.4-1.2c1.5,0,2.4,0.9,2.4,2.4c0,1.6-1.4,3-3.4,5c0.4,0,0.9-0.1,1.3-0.1h2.4v0.9h-5.2v-0.7H-24.8z"/>
									<path class="st3" d="M-18.2,31.5c0-0.5,0.3-0.8,0.8-0.8c0.4,0,0.8,0.3,0.8,0.8s-0.3,0.8-0.8,0.8
										C-17.9,32.3-18.2,32-18.2,31.5z"/>
									<path class="st3" d="M-15.4,28.1c0-2.7,1-4.1,2.6-4.1s2.6,1.4,2.6,4.1s-1,4.2-2.6,4.2S-15.4,30.8-15.4,28.1z M-11.2,28.1
										c0-2.4-0.6-3.3-1.6-3.3s-1.6,0.9-1.6,3.3s0.6,3.4,1.6,3.4S-11.2,30.5-11.2,28.1z"/>
									<path class="st3" d="M-9.1,28.1c0-2.7,1-4.1,2.6-4.1s2.6,1.4,2.6,4.1s-1,4.2-2.6,4.2S-9.1,30.8-9.1,28.1z M-5,28.1
										c0-2.4-0.6-3.3-1.6-3.3s-1.6,0.9-1.6,3.3s0.6,3.4,1.6,3.4S-5,30.5-5,28.1z"/>
								</g>
							</g>
							<g transform="translate(78.60636901855469, 455.81805419921875)">
								<g class="st2">
									<path class="st3" d="M-24.3,31.3h1.8v-5.9H-24v-0.7c0.7-0.1,1.3-0.3,1.7-0.6h0.8v7.2h1.7v0.9h-4.5V31.3z"/>
									<path class="st3" d="M-18.2,31.5c0-0.5,0.3-0.8,0.8-0.8c0.4,0,0.8,0.3,0.8,0.8s-0.3,0.8-0.8,0.8
										C-17.9,32.3-18.2,32-18.2,31.5z"/>
									<path class="st3" d="M-15.4,28.1c0-2.7,1-4.1,2.6-4.1s2.6,1.4,2.6,4.1s-1,4.2-2.6,4.2S-15.4,30.8-15.4,28.1z M-11.2,28.1
										c0-2.4-0.6-3.3-1.6-3.3s-1.6,0.9-1.6,3.3s0.6,3.4,1.6,3.4S-11.2,30.5-11.2,28.1z"/>
									<path class="st3" d="M-9.1,28.1c0-2.7,1-4.1,2.6-4.1s2.6,1.4,2.6,4.1s-1,4.2-2.6,4.2S-9.1,30.8-9.1,28.1z M-5,28.1
										c0-2.4-0.6-3.3-1.6-3.3s-1.6,0.9-1.6,3.3s0.6,3.4,1.6,3.4S-5,30.5-5,28.1z"/>
								</g>
							</g>
							<g transform="translate(78.60636901855469, 52.061805725097656)">
								<g class="st2">
									<path class="st3" d="M-25,31.2l0.5-0.7c0.5,0.5,1.1,0.9,2,0.9c1,0,1.8-0.7,1.8-1.8c0-1.1-0.7-1.8-1.7-1.8
										c-0.6,0-0.9,0.2-1.4,0.5l-0.6-0.4l0.3-3.9h4v1h-3.1l-0.2,2.4c0.4-0.2,0.7-0.3,1.2-0.3c1.4,0,2.5,0.8,2.5,2.5
										s-1.3,2.7-2.7,2.7C-23.7,32.3-24.5,31.8-25,31.2z"/>
									<path class="st3" d="M-18.2,31.5c0-0.5,0.3-0.8,0.8-0.8c0.4,0,0.8,0.3,0.8,0.8s-0.3,0.8-0.8,0.8
										C-17.9,32.3-18.2,32-18.2,31.5z"/>
									<path class="st3" d="M-15.6,31.2l0.5-0.7c0.5,0.5,1.1,0.9,2,0.9c1,0,1.8-0.7,1.8-1.8c0-1.1-0.7-1.8-1.7-1.8
										c-0.6,0-0.9,0.2-1.4,0.5l-0.6-0.4l0.3-3.9h4v1h-3.1l-0.2,2.4c0.4-0.2,0.7-0.3,1.2-0.3c1.4,0,2.5,0.8,2.5,2.5
										s-1.3,2.7-2.7,2.7C-14.3,32.3-15,31.8-15.6,31.2z"/>
									<path class="st3" d="M-9.1,28.1c0-2.7,1-4.1,2.6-4.1s2.6,1.4,2.6,4.1s-1,4.2-2.6,4.2S-9.1,30.8-9.1,28.1z M-5,28.1
										c0-2.4-0.6-3.3-1.6-3.3s-1.6,0.9-1.6,3.3s0.6,3.4,1.6,3.4S-5,30.5-5,28.1z"/>
								</g>
							</g>
							<g transform="translate(78.60636901855469, 141.78541564941406)">
								<g class="st2">
									<path class="st3" d="M-21.5,29.9h-3.6v-0.7l3.4-5.1h1.2v5h1.1v0.8h-1.1v2.2h-1V29.9z M-21.5,29.1v-2.3c0-0.4,0-1.1,0.1-1.5
										h-0.1c-0.2,0.4-0.4,0.7-0.7,1.1l-1.9,2.7C-24.1,29.1-21.5,29.1-21.5,29.1z"/>
									<path class="st3" d="M-18.2,31.5c0-0.5,0.3-0.8,0.8-0.8c0.4,0,0.8,0.3,0.8,0.8s-0.3,0.8-0.8,0.8
										C-17.9,32.3-18.2,32-18.2,31.5z"/>
									<path class="st3" d="M-15.6,31.2l0.5-0.7c0.5,0.5,1.1,0.9,2,0.9c1,0,1.8-0.7,1.8-1.8c0-1.1-0.7-1.8-1.7-1.8
										c-0.6,0-0.9,0.2-1.4,0.5l-0.6-0.4l0.3-3.9h4v1h-3.1l-0.2,2.4c0.4-0.2,0.7-0.3,1.2-0.3c1.4,0,2.5,0.8,2.5,2.5
										s-1.3,2.7-2.7,2.7C-14.3,32.3-15,31.8-15.6,31.2z"/>
									<path class="st3" d="M-9.1,28.1c0-2.7,1-4.1,2.6-4.1s2.6,1.4,2.6,4.1s-1,4.2-2.6,4.2S-9.1,30.8-9.1,28.1z M-5,28.1
										c0-2.4-0.6-3.3-1.6-3.3s-1.6,0.9-1.6,3.3s0.6,3.4,1.6,3.4S-5,30.5-5,28.1z"/>
								</g>
							</g>
							<g transform="translate(78.60636901855469, 231.509033203125)">
								<g class="st2">
									<path class="st3" d="M-25,31.2l0.5-0.7c0.5,0.5,1.1,0.9,2.1,0.9s1.7-0.6,1.7-1.5c0-1-0.7-1.6-2.6-1.6v-0.8
										c1.7,0,2.3-0.7,2.3-1.5s-0.5-1.3-1.4-1.3c-0.7,0-1.2,0.3-1.7,0.8l-0.6-0.7c0.6-0.6,1.4-1,2.3-1c1.4,0,2.4,0.7,2.4,2
										c0,1-0.6,1.6-1.4,1.9l0,0c1,0.2,1.7,0.9,1.7,2c0,1.4-1.2,2.3-2.7,2.3C-23.6,32.3-24.5,31.8-25,31.2z"/>
									<path class="st3" d="M-18.2,31.5c0-0.5,0.3-0.8,0.8-0.8c0.4,0,0.8,0.3,0.8,0.8s-0.3,0.8-0.8,0.8
										C-17.9,32.3-18.2,32-18.2,31.5z"/>
									<path class="st3" d="M-15.6,31.2l0.5-0.7c0.5,0.5,1.1,0.9,2,0.9c1,0,1.8-0.7,1.8-1.8c0-1.1-0.7-1.8-1.7-1.8
										c-0.6,0-0.9,0.2-1.4,0.5l-0.6-0.4l0.3-3.9h4v1h-3.1l-0.2,2.4c0.4-0.2,0.7-0.3,1.2-0.3c1.4,0,2.5,0.8,2.5,2.5
										s-1.3,2.7-2.7,2.7C-14.3,32.3-15,31.8-15.6,31.2z"/>
									<path class="st3" d="M-9.1,28.1c0-2.7,1-4.1,2.6-4.1s2.6,1.4,2.6,4.1s-1,4.2-2.6,4.2S-9.1,30.8-9.1,28.1z M-5,28.1
										c0-2.4-0.6-3.3-1.6-3.3s-1.6,0.9-1.6,3.3s0.6,3.4,1.6,3.4S-5,30.5-5,28.1z"/>
								</g>
							</g>
							<g transform="translate(78.60636901855469, 321.2326354980469)">
								<g class="st2">
									<path class="st3" d="M-24.8,31.5c2.4-2.3,3.8-3.8,3.8-5.1c0-0.9-0.5-1.6-1.5-1.6c-0.7,0-1.2,0.4-1.7,1l-0.6-0.6
										c0.7-0.8,1.4-1.2,2.4-1.2c1.5,0,2.4,0.9,2.4,2.4c0,1.6-1.4,3-3.4,5c0.4,0,0.9-0.1,1.3-0.1h2.4v0.9h-5.2v-0.7H-24.8z"/>
									<path class="st3" d="M-18.2,31.5c0-0.5,0.3-0.8,0.8-0.8c0.4,0,0.8,0.3,0.8,0.8s-0.3,0.8-0.8,0.8
										C-17.9,32.3-18.2,32-18.2,31.5z"/>
									<path class="st3" d="M-15.6,31.2l0.5-0.7c0.5,0.5,1.1,0.9,2,0.9c1,0,1.8-0.7,1.8-1.8c0-1.1-0.7-1.8-1.7-1.8
										c-0.6,0-0.9,0.2-1.4,0.5l-0.6-0.4l0.3-3.9h4v1h-3.1l-0.2,2.4c0.4-0.2,0.7-0.3,1.2-0.3c1.4,0,2.5,0.8,2.5,2.5
										s-1.3,2.7-2.7,2.7C-14.3,32.3-15,31.8-15.6,31.2z"/>
									<path class="st3" d="M-9.1,28.1c0-2.7,1-4.1,2.6-4.1s2.6,1.4,2.6,4.1s-1,4.2-2.6,4.2S-9.1,30.8-9.1,28.1z M-5,28.1
										c0-2.4-0.6-3.3-1.6-3.3s-1.6,0.9-1.6,3.3s0.6,3.4,1.6,3.4S-5,30.5-5,28.1z"/>
								</g>
							</g>
							<g transform="translate(78.60636901855469, 410.9562683105469)">
								<g class="st2">
									<path class="st3" d="M-24.3,31.3h1.8v-5.9H-24v-0.7c0.7-0.1,1.3-0.3,1.7-0.6h0.8v7.2h1.7v0.9h-4.5V31.3z"/>
									<path class="st3" d="M-18.2,31.5c0-0.5,0.3-0.8,0.8-0.8c0.4,0,0.8,0.3,0.8,0.8s-0.3,0.8-0.8,0.8
										C-17.9,32.3-18.2,32-18.2,31.5z"/>
									<path class="st3" d="M-15.6,31.2l0.5-0.7c0.5,0.5,1.1,0.9,2,0.9c1,0,1.8-0.7,1.8-1.8c0-1.1-0.7-1.8-1.7-1.8
										c-0.6,0-0.9,0.2-1.4,0.5l-0.6-0.4l0.3-3.9h4v1h-3.1l-0.2,2.4c0.4-0.2,0.7-0.3,1.2-0.3c1.4,0,2.5,0.8,2.5,2.5
										s-1.3,2.7-2.7,2.7C-14.3,32.3-15,31.8-15.6,31.2z"/>
									<path class="st3" d="M-9.1,28.1c0-2.7,1-4.1,2.6-4.1s2.6,1.4,2.6,4.1s-1,4.2-2.6,4.2S-9.1,30.8-9.1,28.1z M-5,28.1
										c0-2.4-0.6-3.3-1.6-3.3s-1.6,0.9-1.6,3.3s0.6,3.4,1.6,3.4S-5,30.5-5,28.1z"/>
								</g>
							</g>
						</g>
						<g>
							<g class="st2">
								<path d="M22.7,295.3v-5.8h1.1v4.5H27v-3.8h1.1v3.8h3.7v-4.7h1.1v6H22.7z"/>
								<path d="M26.4,282.7v3.1h6.5v1.3h-6.5v1h-1l-0.1-1h-1c-1.6,0-2.5-0.8-2.5-2.3c0-0.5,0.1-1,0.3-1.4l1,0.3
									c-0.2,0.3-0.2,0.6-0.2,1c0,0.7,0.5,1.2,1.5,1.2h1v-3.1h-1.2c-1.5,0-2.5-0.7-2.5-2.2c0-0.5,0.1-0.9,0.2-1.2l1,0.3
									c-0.1,0.3-0.2,0.6-0.2,0.8c0,0.7,0.5,1,1.5,1h1.2v-1.6h1v1.6h6.5v1.3L26.4,282.7L26.4,282.7z"/>
								<path d="M29.1,279.1c-2.5,0-3.9-1.6-3.9-3.5s1.4-3.5,3.9-3.5s3.9,1.6,3.9,3.5S31.6,279.1,29.1,279.1z M29.1,273.5
									c-1.7,0-2.9,0.9-2.9,2.2c0,1.3,1.2,2.1,2.9,2.1c1.7,0,2.8-0.9,2.8-2.1C31.9,274.4,30.8,273.5,29.1,273.5z"/>
								<path d="M25.3,270.2v-1l1.4-0.1l0,0c-0.9-0.5-1.5-1.3-1.5-2.1c0-0.3,0-0.6,0.2-0.8l1.1,0.3c-0.1,0.2-0.1,0.4-0.1,0.7
									c0,0.6,0.4,1.4,1.7,1.9h4.8v1.3h-7.6V270.2z"/>
								<path d="M30.5,264.7h-4.1v1.1h-1l-0.1-1.2l-2.4-0.2v-1.1h2.4v-2h1v2h4.2c0.9,0,1.4-0.3,1.4-1.2c0-0.3,0-0.6-0.2-0.9l0.9-0.3
									c0.2,0.4,0.3,0.9,0.3,1.4C33,264.1,32,264.7,30.5,264.7z"/>
								<path d="M22.7,256.5v-1.3h10.1v1.3H22.7z"/>
								<path d="M25.3,252.5v-1l1.1-0.1l0,0c-0.7-0.7-1.3-1.5-1.3-2.5c0-1.6,1-2.3,2.9-2.3h4.7v1.3h-4.6c-1.4,0-2,0.4-2,1.4
									c0,0.8,0.4,1.3,1.1,2h5.4v1.3L25.3,252.5L25.3,252.5z"/>
								<path d="M29.1,244.6c-2.4,0-3.9-1.5-3.9-3.2c0-0.9,0.3-1.4,0.9-2.1l-1.3,0.1h-2.9v-1.3h11v1l-0.9,0.1l0,0
									c0.6,0.6,1.1,1.4,1.1,2.3C33,243.4,31.6,244.6,29.1,244.6z M30.9,239.4H27c-0.6,0.6-0.8,1.2-0.8,1.8c0,1.2,1.1,2.1,2.8,2.1
									c1.8,0,2.8-0.7,2.8-2C31.9,240.6,31.6,240,30.9,239.4z"/>
								<path d="M29.1,236.1c-2.4,0-3.9-1.6-3.9-3.4c0-1.9,1.4-3,3.5-3c0.3,0,0.5,0,0.8,0.1v5c1.5-0.1,2.6-1,2.6-2.5
									c0-0.7-0.2-1.4-0.6-1.9l0.8-0.4c0.5,0.6,0.8,1.4,0.8,2.5C33,234.5,31.6,236.1,29.1,236.1z M28.4,230.9
									c-1.5,0-2.3,0.7-2.3,1.8c0,1,0.8,2,2.3,2.1V230.9z"/>
								<path d="M28.9,226.6l-3.6,2.3v-1.4l1.6-1c0.4-0.2,0.8-0.5,1.2-0.7v-0.1c-0.4-0.2-0.8-0.4-1.2-0.7l-1.6-0.9v-1.3l3.7,2.3
									l3.8-2.4v1.4l-1.7,1.1c-0.4,0.3-0.9,0.5-1.3,0.8v0.1c0.4,0.2,0.9,0.5,1.3,0.8l1.7,1v1.3L28.9,226.6z"/>
								<path d="M28.5,218.1c-2.7,0-4.9-0.8-7-2l0.4-0.8c2,1.2,4.3,1.8,6.6,1.8s4.7-0.6,6.6-1.8l0.4,0.8
									C33.5,217.3,31.2,218.1,28.5,218.1z"/>
								<path d="M22.5,205.9V205l10.5,5.6v0.9L22.5,205.9z M25.7,214.1c-2,0-3.2-0.9-3.2-2.3c0-1.4,1.2-2.3,3.2-2.3s3.2,0.9,3.2,2.3
									C28.9,213.2,27.8,214.1,25.7,214.1z M25.7,210.5c-1.6,0-2.4,0.5-2.4,1.3s0.8,1.3,2.4,1.3s2.4-0.6,2.4-1.3
									S27.3,210.5,25.7,210.5z M29.8,207.1c-2,0-3.2-0.9-3.2-2.3c0-1.4,1.2-2.3,3.2-2.3s3.2,0.9,3.2,2.3
									C33,206.2,31.8,207.1,29.8,207.1z M29.8,203.4c-1.6,0-2.4,0.5-2.4,1.3s0.8,1.3,2.4,1.3s2.4-0.6,2.4-1.3
									S31.4,203.4,29.8,203.4z"/>
								<path d="M35.2,201.4c-2-1.2-4.3-1.8-6.6-1.8s-4.7,0.6-6.6,1.8l-0.4-0.8c2.1-1.3,4.3-2,7-2s4.9,0.8,7,2L35.2,201.4z"/>
							</g>
						</g>
					</g>
				</g>
			</g>
		</g>
	</g>
</g>
<g class="st5">
	<g>
		<path id="dot-0_00000183935756988549459150000009659309702448220315_" vector-effect="non-scaling-stroke" class="st6" d="
			M338.9,54.6c0,3.3-2.7,6-6,6s-6-2.7-6-6s2.7-6,6-6S338.9,51.3,338.9,54.6"/>
		<g id="dot-1_00000101783389425781516030000007953917414942776759_" vector-effect="non-scaling-stroke">
			<path class="st7" d="M734.5,219.7c0,3.3-2.7,6-6,6s-6-2.7-6-6s2.7-6,6-6S734.5,216.4,734.5,219.7"/>
		</g>
		<g id="dot-2_00000145776389024896651540000010056950032523187131_" vector-effect="non-scaling-stroke">
			<path class="st7" d="M650.6,218.8c0,3.3-2.7,6-6,6s-6-2.7-6-6s2.7-6,6-6S650.6,215.5,650.6,218.8"/>
		</g>
		<g id="dot-3_00000159431767342226508430000000807960586146625686_" vector-effect="non-scaling-stroke">
			<path class="st8" d="M542.7,140.7c0,3.3-2.7,6-6,6s-6-2.7-6-6s2.7-6,6-6S542.7,137.4,542.7,140.7"/>
		</g>
		<g id="dot-4_00000109013251812541971040000000521438516300130452_" vector-effect="non-scaling-stroke">
			<path class="st7" d="M462,224.2c0,3.3-2.7,6-6,6s-6-2.7-6-6s2.7-6,6-6S462,220.9,462,224.2"/>
		</g>
		<g id="dot-5_00000092449824626358294250000016749853788663435697_" vector-effect="non-scaling-stroke">
			<path class="st7" d="M462.4,259.2c0,3.3-2.7,6-6,6s-6-2.7-6-6c0-3.3,2.7-6,6-6S462.4,255.9,462.4,259.2"/>
		</g>
		<g id="dot-6_00000155831023626953461550000002861543713223934891_" vector-effect="non-scaling-stroke">
			<path class="st7" d="M611.1,217.9c0,3.3-2.7,6-6,6s-6-2.7-6-6s2.7-6,6-6S611.1,214.6,611.1,217.9"/>
		</g>
		<path id="dot-7_00000071531890783022005670000004936044721588585657_" vector-effect="non-scaling-stroke" class="st7" d="
			M282.9,204.4c0,3.3-2.7,6-6,6s-6-2.7-6-6s2.7-6,6-6S282.9,201.1,282.9,204.4"/>
		<g id="dot-8_00000087390159239418759340000003771161816669745833_" vector-effect="non-scaling-stroke">
			<path class="st7" d="M521,227.7c0,3.3-2.7,6-6,6s-6-2.7-6-6s2.7-6,6-6S521,224.5,521,227.7"/>
		</g>
		<g id="dot-9_00000043459276961345047550000006049981093769411201_" vector-effect="non-scaling-stroke">
			<path class="st7" d="M718.3,313.9c0,3.3-2.7,6-6,6s-6-2.7-6-6s2.7-6,6-6S718.3,310.6,718.3,313.9"/>
		</g>
		<path id="dot-10_00000132060715141124373700000006154731502112762279_" vector-effect="non-scaling-stroke" class="st7" d="
			M379.4,240.3c0,3.3-2.7,6-6,6s-6-2.7-6-6s2.7-6,6-6S379.4,237,379.4,240.3"/>
		<g id="dot-11_00000182487593729717522860000017654898224096808086_" vector-effect="non-scaling-stroke">
			<path class="st7" d="M652.5,318.4c0,3.3-2.7,6-6,6s-6-2.7-6-6s2.7-6,6-6S652.5,315.1,652.5,318.4"/>
		</g>
		<g id="dot-12_00000170249997059046479790000003715643310904048262_" vector-effect="non-scaling-stroke">
			<path class="st7" d="M679.6,230.4c0,3.3-2.7,6-6,6s-6-2.7-6-6s2.7-6,6-6S679.6,227.1,679.6,230.4"/>
		</g>
		<g id="dot-13_00000010276472182473711090000011493999726924888463_" vector-effect="non-scaling-stroke">
			<path class="st7" d="M594.9,253.8c0,3.3-2.7,6-6,6s-6-2.7-6-6s2.7-6,6-6S594.9,250.5,594.9,253.8"/>
		</g>
		<g id="dot-14_00000062878262044624559940000013431850200136649901_" vector-effect="non-scaling-stroke">
			<path class="st7" d="M587.2,335.4c0,3.3-2.7,6-6,6s-6-2.7-6-6s2.7-6,6-6S587.2,332.1,587.2,335.4"/>
		</g>
		<path id="dot-15_00000007387070975373616290000006732850105976021425_" vector-effect="non-scaling-stroke" class="st7" d="
			M405.5,278.9c0,3.3-2.7,6-6,6s-6-2.7-6-6s2.7-6,6-6S405.5,275.6,405.5,278.9"/>
		<g id="dot-16_00000183214424640567647820000012671647245613105818_" vector-effect="non-scaling-stroke">
			<path class="st7" d="M517,287c0,3.3-2.7,6-6,6s-6-2.7-6-6s2.7-6,6-6S517,283.7,517,287"/>
		</g>
		<g id="dot-17_00000093893807030254667370000015381082971161908623_" vector-effect="non-scaling-stroke">
			<path class="st7" d="M672.4,317.5c0,3.3-2.7,6-6,6s-6-2.7-6-6s2.7-6,6-6S672.4,314.2,672.4,317.5"/>
		</g>
		<g id="dot-18_00000085954613480389401140000003748412700155313028_" vector-effect="non-scaling-stroke">
			<path class="st7" d="M513.2,285.2c0,3.3-2.7,6-6,6s-6-2.7-6-6s2.7-6,6-6S513.2,281.9,513.2,285.2"/>
		</g>
		<path id="dot-19_00000003089588759405692660000004579948311159324346_" vector-effect="non-scaling-stroke" class="st7" d="
			M409.2,278c0,3.3-2.7,6-6,6s-6-2.7-6-6s2.7-6,6-6S409.2,274.7,409.2,278"/>
		<path id="dot-20_00000031184882213216100470000000917276496908074152_" vector-effect="non-scaling-stroke" class="st7" d="
			M297.9,284.3c0,3.3-2.7,6-6,6s-6-2.7-6-6s2.7-6,6-6S297.9,281,297.9,284.3"/>
		<g id="dot-21_00000010309517968008707100000016988183992576632501_" vector-effect="non-scaling-stroke">
			<path class="st7" d="M531.1,269c0,3.3-2.7,6-6,6s-6-2.7-6-6s2.7-6,6-6S531.1,265.7,531.1,269"/>
		</g>
		<path id="dot-22_00000063630500578849699280000013860444395282152860_" vector-effect="non-scaling-stroke" class="st7" d="
			M437.5,252c0,3.3-2.7,6-6,6s-6-2.7-6-6s2.7-6,6-6S437.5,248.7,437.5,252"/>
		<path id="dot-23_00000106851901257283564990000005908143225658313094_" vector-effect="non-scaling-stroke" class="st7" d="
			M437,261.8c0,3.3-2.7,6-6,6s-6-2.7-6-6s2.7-6,6-6S437,258.6,437,261.8"/>
		<path id="dot-24_00000034081720307065960940000012219468252217474218_" vector-effect="non-scaling-stroke" class="st7" d="
			M416.9,292.4c0,3.3-2.7,6-6,6s-6-2.7-6-6s2.7-6,6-6S416.9,289.1,416.9,292.4"/>
		<path id="dot-25_00000008845529427987617570000003164153251722111134_" vector-effect="non-scaling-stroke" class="st7" d="
			M255.3,239.4c0,3.3-2.7,6-6,6s-6-2.7-6-6s2.7-6,6-6S255.3,236.1,255.3,239.4"/>
		<path id="dot-26_00000078764316737341580120000014379641013859350403_" vector-effect="non-scaling-stroke" class="st9" d="
			M482.9,322.9c0,3.3-2.7,6-6,6s-6-2.7-6-6s2.7-6,6-6S482.9,319.6,482.9,322.9"/>
		<path id="dot-27_00000029730807112746985230000004901329429075433894_" vector-effect="non-scaling-stroke" class="st7" d="
			M326.3,288.8c0,3.3-2.7,6-6,6s-6-2.7-6-6s2.7-6,6-6S326.3,285.5,326.3,288.8"/>
		<path id="dot-28_00000058577150847880106750000015681292172786945689_" vector-effect="non-scaling-stroke" class="st7" d="
			M371.8,295c0,3.3-2.7,6-6,6s-6-2.7-6-6s2.7-6,6-6S371.8,291.7,371.8,295"/>
		<path id="dot-29_00000006684940388305887250000000437124597520916667_" vector-effect="non-scaling-stroke" class="st7" d="
			M236.4,229.5c0,3.3-2.7,6-6,6s-6-2.7-6-6s2.7-6,6-6S236.4,226.2,236.4,229.5"/>
		<g id="dot-30_00000000198616778455183660000001684067565577301384_" vector-effect="non-scaling-stroke">
			<path class="st7" d="M657.9,329.1c0,3.3-2.7,6-6,6s-6-2.7-6-6s2.7-6,6-6S657.9,325.8,657.9,329.1"/>
		</g>
		<path id="dot-31_00000041981020091230664800000009500432966620077985_" vector-effect="non-scaling-stroke" class="st7" d="
			M419.1,348c0,3.3-2.7,6-6,6s-6-2.7-6-6s2.7-6,6-6S419.1,344.7,419.1,348"/>
		<path id="dot-32_00000034060071700755064220000005484613396874363058_" vector-effect="non-scaling-stroke" class="st7" d="
			M390.3,316.6c0,3.3-2.7,6-6,6s-6-2.7-6-6s2.7-6,6-6S390.3,313.3,390.3,316.6"/>
		<g id="dot-33_00000069383002012622342670000001470933665868925608_" vector-effect="non-scaling-stroke">
			<path class="st7" d="M532.5,322.9c0,3.3-2.7,6-6,6s-6-2.7-6-6s2.7-6,6-6S532.5,319.6,532.5,322.9"/>
		</g>
		<path id="dot-34_00000123414014210577351460000000377739399901042109_" vector-effect="non-scaling-stroke" class="st7" d="
			M268.9,264.5c0,3.3-2.7,6-6,6s-6-2.7-6-6s2.7-6,6-6C266.2,258.6,268.9,261.2,268.9,264.5"/>
		<g id="dot-35_00000036955740559609457860000014348643445564529328_" vector-effect="non-scaling-stroke">
			<path class="st7" d="M467.9,318.4c0,3.3-2.7,6-6,6s-6-2.7-6-6s2.7-6,6-6S467.9,315.1,467.9,318.4"/>
		</g>
		<path id="dot-36_00000106864160118363063900000012835411427768205755_" vector-effect="non-scaling-stroke" class="st7" d="
			M390.2,292.4c0,3.3-2.7,6-6,6s-6-2.7-6-6s2.7-6,6-6S390.2,289.1,390.2,292.4"/>
		<path id="dot-37_00000061467027773388803520000017081830266943028405_" vector-effect="non-scaling-stroke" class="st7" d="
			M328.9,294.1c0,3.3-2.7,6-6,6s-6-2.7-6-6s2.7-6,6-6S328.9,290.9,328.9,294.1"/>
		<g id="dot-38_00000150102005164819071250000003676679179980114574_" vector-effect="non-scaling-stroke">
			<path class="st7" d="M518.7,298.6c0,3.3-2.7,6-6,6s-6-2.7-6-6s2.7-6,6-6C516,292.7,518.7,295.3,518.7,298.6"/>
		</g>
		<path id="dot-39_00000069371924637109548370000008249527963831759522_" vector-effect="non-scaling-stroke" class="st7" d="
			M216.9,244.8c0,3.3-2.7,6-6,6s-6-2.7-6-6s2.7-6,6-6S216.9,241.5,216.9,244.8"/>
		<path id="dot-40_00000147193775214964833920000006143913102600241843_" vector-effect="non-scaling-stroke" class="st7" d="
			M244.9,290.6c0,3.3-2.7,6-6,6s-6-2.7-6-6s2.7-6,6-6S244.9,287.3,244.9,290.6"/>
		<path id="dot-41_00000163793917895734543850000010472661292079582398_" vector-effect="non-scaling-stroke" class="st7" d="
			M369.1,308.5c0,3.3-2.7,6-6,6s-6-2.7-6-6s2.7-6,6-6S369.1,305.2,369.1,308.5"/>
		<path id="dot-42_00000031198622026696265230000015610367506615283347_" vector-effect="non-scaling-stroke" class="st7" d="
			M343.2,357.8c0,3.3-2.7,6-6,6s-6-2.7-6-6s2.7-6,6-6S343.2,354.6,343.2,357.8"/>
		<g id="dot-43_00000085956876123816353860000013840288372635131318_" vector-effect="non-scaling-stroke">
			<path class="st10" d="M298.5,358.7c0,3.3-2.7,6-6,6s-6-2.7-6-6s2.7-6,6-6S298.5,355.5,298.5,358.7"/>
		</g>
		<path id="dot-44_00000085962634545812904020000006903896278573452437_" vector-effect="non-scaling-stroke" class="st7" d="
			M156.4,262.7c0,3.3-2.7,6-6,6s-6-2.7-6-6s2.7-6,6-6S156.4,259.4,156.4,262.7"/>
		<path id="dot-45_00000032646336029244056780000017561637161348497280_" vector-effect="non-scaling-stroke" class="st7" d="
			M351.9,381.2c0,3.3-2.7,6-6,6s-6-2.7-6-6s2.7-6,6-6S351.9,377.9,351.9,381.2"/>
		<path id="dot-46_00000090982347007721592830000000260396990696021930_" vector-effect="non-scaling-stroke" class="st7" d="
			M366,356.1c0,3.3-2.7,6-6,6s-6-2.7-6-6s2.7-6,6-6S366,352.8,366,356.1"/>
		<path id="dot-47_00000014595019691540676910000001524079058727672225_" vector-effect="non-scaling-stroke" class="st7" d="
			M258.2,326.4c0,3.3-2.7,6-6,6s-6-2.7-6-6s2.7-6,6-6S258.2,323.2,258.2,326.4"/>
		<path id="dot-48_00000097484885753435443670000004333576110417822906_" vector-effect="non-scaling-stroke" class="st7" d="
			M406.5,334.5c0,3.3-2.7,6-6,6s-6-2.7-6-6s2.7-6,6-6S406.5,331.2,406.5,334.5"/>
		<path id="dot-49_00000041288312723023714630000014292097217647822486_" vector-effect="non-scaling-stroke" class="st7" d="
			M292.4,382.1c0,3.3-2.7,6-6,6s-6-2.7-6-6s2.7-6,6-6S292.4,378.8,292.4,382.1"/>
	</g>
</g>
<g id="axes-highlights">
	<g>
		<g transform="translate(0, 14)">
		</g>
	</g>
</g>
<line class="st11" x1="437.5" y1="48.9" x2="437.5" y2="498.1"/>
<line class="st11" x1="89" y1="293.4" x2="775.2" y2="293.4"/>
<g>
	<path d="M108.7,69.9v-8.6h1.4v3.4h2.8v-3.4h1.4v8.6h-1.4v-3.8h-2.8v3.8H108.7z"/>
	<path d="M115.8,62.8v-1.5h1.4v1.5H115.8z M115.8,69.9v-6.2h1.4v6.2H115.8z"/>
	<path d="M118.4,70.3l1.5,0.2c0,0.2,0.1,0.4,0.2,0.5s0.3,0.1,0.6,0.1c0.3,0,0.5,0,0.7-0.1c0.1-0.1,0.2-0.2,0.3-0.4s0.1-0.5,0.1-0.9
		v-0.9c-0.2,0.3-0.4,0.6-0.7,0.8s-0.5,0.3-0.8,0.3c-0.6,0-1-0.3-1.4-0.8c-0.4-0.6-0.7-1.4-0.7-2.4c0-1.1,0.2-1.9,0.6-2.4
		s0.9-0.8,1.5-0.8c0.3,0,0.6,0.1,0.9,0.3s0.5,0.4,0.7,0.8v-0.9h1.3v5.6c0,0.9-0.1,1.5-0.2,1.9s-0.4,0.7-0.8,0.9s-0.8,0.3-1.4,0.3
		c-0.6,0-1-0.1-1.3-0.2s-0.6-0.4-0.8-0.7s-0.3-0.6-0.3-1V70.3z M119.6,66.7c0,0.7,0.1,1.2,0.3,1.5c0.2,0.3,0.5,0.5,0.8,0.5
		c0.3,0,0.6-0.2,0.8-0.5c0.2-0.3,0.3-0.8,0.3-1.4c0-0.6-0.1-1.1-0.3-1.4s-0.5-0.5-0.8-0.5c-0.3,0-0.6,0.2-0.8,0.5
		S119.6,66,119.6,66.7z"/>
	<path d="M125.9,61.3v3.2c0.2-0.3,0.5-0.5,0.7-0.7s0.5-0.2,0.8-0.2c0.4,0,0.7,0.1,1,0.3c0.3,0.2,0.5,0.5,0.6,0.9
		c0.1,0.3,0.1,0.8,0.1,1.5v3.7h-1.4v-3.3c0-0.8,0-1.2-0.1-1.4c-0.1-0.3-0.4-0.4-0.7-0.4c-0.3,0-0.6,0.1-0.8,0.4s-0.3,0.8-0.3,1.6
		v3.1h-1.4v-8.6H125.9z"/>
	<path d="M133.3,69.9v-8.6h5.2v1.5h-3.8v1.9h3.5v1.4h-3.5v2.3h3.9v1.5H133.3z"/>
	<path d="M139.3,63.7h0.8v-0.5c0-0.6,0.1-1,0.2-1.2c0.1-0.3,0.3-0.5,0.5-0.6s0.5-0.2,0.9-0.2c0.4,0,0.8,0.1,1.1,0.2l-0.2,1.1
		c-0.2-0.1-0.4-0.1-0.6-0.1c-0.2,0-0.3,0.1-0.4,0.2s-0.1,0.3-0.1,0.6v0.4h1V65h-1v4.9H140V65h-0.8V63.7z"/>
	<path d="M142.6,63.7h0.8v-0.5c0-0.6,0.1-1,0.2-1.2c0.1-0.3,0.3-0.5,0.5-0.6s0.5-0.2,0.9-0.2c0.4,0,0.8,0.1,1.1,0.2l-0.2,1.1
		c-0.2-0.1-0.4-0.1-0.6-0.1c-0.2,0-0.3,0.1-0.4,0.2s-0.1,0.3-0.1,0.6v0.4h1V65h-1v4.9h-1.4V65h-0.8V63.7z"/>
	<path d="M146.1,66.7c0-0.6,0.1-1.2,0.4-1.7c0.2-0.5,0.6-0.9,0.9-1.1c0.4-0.3,0.8-0.4,1.3-0.4c0.8,0,1.5,0.3,1.9,1
		c0.5,0.6,0.7,1.4,0.7,2.3c0,0.6-0.1,1.2-0.4,1.7s-0.6,0.9-1,1.2c-0.4,0.3-0.8,0.4-1.3,0.4c-0.8,0-1.4-0.3-1.9-0.9
		S146.1,67.8,146.1,66.7z M147.5,66.8c0,0.6,0.1,1.1,0.4,1.4s0.5,0.5,0.9,0.5c0.3,0,0.6-0.2,0.9-0.5s0.4-0.8,0.4-1.4
		c0-0.6-0.1-1.1-0.4-1.4s-0.5-0.5-0.9-0.5c-0.3,0-0.6,0.2-0.9,0.5C147.6,65.7,147.5,66.2,147.5,66.8z"/>
	<path d="M153.7,69.9h-1.4v-6.2h1.3v0.9c0.2-0.4,0.4-0.7,0.6-0.8s0.4-0.2,0.6-0.2c0.3,0,0.6,0.1,0.9,0.3l-0.4,1.4
		c-0.2-0.2-0.4-0.3-0.6-0.3c-0.2,0-0.4,0.1-0.5,0.2c-0.1,0.1-0.2,0.4-0.3,0.8c-0.1,0.4-0.1,1-0.1,2V69.9z"/>
	<path d="M158.6,63.7V65h-0.9v2.5c0,0.5,0,0.9,0,0.9c0.1,0.2,0.2,0.2,0.3,0.2c0.1,0,0.3-0.1,0.5-0.2l0.1,1.3
		c-0.3,0.2-0.7,0.2-1.1,0.2c-0.3,0-0.6-0.1-0.8-0.2c-0.2-0.2-0.3-0.4-0.4-0.7c-0.1-0.2-0.1-0.7-0.1-1.4V65h-0.6v-1.3h0.6v-1.2l1.4-1
		v2.2H158.6z"/>
	<path d="M159.5,68.3h1.3v1.2c0,0.7-0.1,1.2-0.2,1.5c-0.2,0.4-0.5,0.7-1,0.9l-0.3-0.7c0.3-0.1,0.5-0.3,0.6-0.4s0.2-0.5,0.2-0.8h-0.7
		V68.3z"/>
	<path d="M108.8,84.3v-8.5h1.4v7.1h3.5v1.5H108.8z"/>
	<path d="M114.4,81.1c0-0.6,0.1-1.2,0.4-1.7c0.2-0.5,0.6-0.9,0.9-1.1c0.4-0.3,0.8-0.4,1.3-0.4c0.8,0,1.5,0.3,1.9,1
		c0.5,0.6,0.7,1.4,0.7,2.3c0,0.6-0.1,1.2-0.4,1.7s-0.6,0.9-1,1.2c-0.4,0.3-0.8,0.4-1.3,0.4c-0.8,0-1.4-0.3-1.9-0.9
		S114.4,82.2,114.4,81.1z M115.8,81.2c0,0.6,0.1,1.1,0.4,1.4s0.5,0.5,0.9,0.5c0.3,0,0.6-0.2,0.9-0.5s0.4-0.8,0.4-1.4
		c0-0.6-0.1-1.1-0.4-1.4s-0.5-0.5-0.9-0.5c-0.3,0-0.6,0.2-0.9,0.5C115.9,80.1,115.8,80.6,115.8,81.2z"/>
	<path d="M121.7,84.3l-1.6-6.2h1.3l1,4.1l0.9-4.1h1.3l0.9,4.1l1-4.1h1.3l-1.7,6.2h-1.3l-0.9-4l-0.9,4H121.7z"/>
	<path d="M137.1,84.3h-1.5l-0.6-1.9h-2.8l-0.6,1.9h-1.5l2.7-8.6h1.5L137.1,84.3z M134.5,80.9l-1-3.2l-1,3.2H134.5z"/>
	<path d="M138.9,84.3l-2.1-6.2h1.4l1,3.2l0.3,1.1l0.3-1.1l1-3.2h1.4l-2,6.2H138.9z"/>
	<path d="M142.9,84.7l1.5,0.2c0,0.2,0.1,0.4,0.2,0.5s0.3,0.1,0.6,0.1c0.3,0,0.5,0,0.7-0.1c0.1-0.1,0.2-0.2,0.3-0.4s0.1-0.5,0.1-0.9
		v-0.9c-0.2,0.3-0.4,0.6-0.7,0.8s-0.5,0.3-0.8,0.3c-0.6,0-1-0.3-1.4-0.8c-0.4-0.6-0.7-1.4-0.7-2.4c0-1.1,0.2-1.9,0.6-2.4
		s0.9-0.8,1.5-0.8c0.3,0,0.6,0.1,0.9,0.3s0.5,0.4,0.7,0.8v-0.9h1.3v5.6c0,0.9-0.1,1.5-0.2,1.9s-0.4,0.7-0.8,0.9s-0.8,0.3-1.4,0.3
		c-0.6,0-1-0.1-1.3-0.2s-0.6-0.4-0.8-0.7s-0.3-0.6-0.3-1V84.7z M144.1,81.1c0,0.7,0.1,1.2,0.3,1.5c0.2,0.3,0.5,0.5,0.8,0.5
		c0.3,0,0.6-0.2,0.8-0.5c0.2-0.3,0.3-0.8,0.3-1.4c0-0.6-0.1-1.1-0.3-1.4s-0.5-0.5-0.8-0.5c-0.3,0-0.6,0.2-0.8,0.5
		S144.1,80.4,144.1,81.1z"/>
	<path d="M149,84.3v-1.6h1.3v1.6H149z"/>
	<path d="M157.8,81.1v-1.5h3.1v3.4c-0.3,0.4-0.7,0.7-1.3,0.9s-1.1,0.4-1.7,0.4c-0.7,0-1.3-0.2-1.8-0.5s-1-0.9-1.3-1.5
		s-0.5-1.5-0.5-2.4c0-0.9,0.2-1.8,0.5-2.4s0.7-1.2,1.2-1.5s1.1-0.5,1.8-0.5c0.8,0,1.5,0.2,2,0.6s0.8,1.1,1,1.9l-1.4,0.3
		c-0.1-0.4-0.3-0.8-0.6-1s-0.6-0.4-1-0.4c-0.6,0-1.1,0.2-1.5,0.7s-0.6,1.2-0.6,2.2c0,1,0.2,1.8,0.6,2.4c0.3,0.5,0.8,0.7,1.4,0.7
		c0.3,0,0.6-0.1,0.9-0.2s0.6-0.3,0.8-0.5v-1.1H157.8z"/>
	<path d="M162.1,75.7h2.6c0.7,0,1.1,0.1,1.5,0.2c0.3,0.1,0.6,0.4,0.9,0.7c0.3,0.3,0.5,0.8,0.7,1.4c0.2,0.6,0.2,1.2,0.2,2.1
		c0,0.7-0.1,1.4-0.3,1.9c-0.2,0.5-0.4,1-0.6,1.3c-0.3,0.3-0.6,0.6-0.9,0.7c-0.4,0.2-0.8,0.2-1.4,0.2h-2.7V75.7z M163.5,77.2v5.7h1.1
		c0.5,0,0.8,0,1-0.1s0.4-0.2,0.5-0.4c0.1-0.2,0.2-0.4,0.3-0.8s0.1-0.9,0.1-1.5c0-0.6,0-1.1-0.1-1.5s-0.2-0.7-0.4-0.9
		s-0.4-0.3-0.7-0.4c-0.2-0.1-0.6-0.1-1.2-0.1H163.5z"/>
	<path d="M169.2,84.3v-8.6h2.3c0.9,0,1.4,0,1.7,0.1c0.4,0.1,0.8,0.4,1,0.8s0.4,1,0.4,1.7c0,0.6-0.1,1.1-0.4,1.6s-0.5,0.7-0.9,0.9
		s-1,0.3-1.8,0.3h-0.9v3.2H169.2z M170.7,77.2v2.4h0.8c0.5,0,0.9,0,1.1-0.1c0.2-0.1,0.3-0.2,0.5-0.4c0.1-0.2,0.2-0.4,0.2-0.7
		c0-0.3-0.1-0.5-0.2-0.7c-0.1-0.2-0.3-0.3-0.5-0.4c-0.2-0.1-0.6-0.1-1.2-0.1H170.7z"/>
</g>
<g>
	<path d="M707.3,69.9v-8.6h1.4v3.4h2.8v-3.4h1.4v8.6h-1.4v-3.8h-2.8v3.8H707.3z"/>
	<path d="M714.4,62.8v-1.5h1.4v1.5H714.4z M714.4,69.9v-6.2h1.4v6.2H714.4z"/>
	<path d="M717,70.3l1.5,0.2c0,0.2,0.1,0.4,0.2,0.5s0.3,0.1,0.6,0.1c0.3,0,0.5,0,0.7-0.1c0.1-0.1,0.2-0.2,0.3-0.4s0.1-0.5,0.1-0.9
		v-0.9c-0.2,0.3-0.4,0.6-0.7,0.8s-0.5,0.3-0.8,0.3c-0.6,0-1-0.3-1.4-0.8c-0.4-0.6-0.7-1.4-0.7-2.4c0-1.1,0.2-1.9,0.6-2.4
		s0.9-0.8,1.5-0.8c0.3,0,0.6,0.1,0.9,0.3s0.5,0.4,0.7,0.8v-0.9h1.3v5.6c0,0.9-0.1,1.5-0.2,1.9s-0.4,0.7-0.8,0.9s-0.8,0.3-1.4,0.3
		c-0.6,0-1-0.1-1.3-0.2s-0.6-0.4-0.8-0.7s-0.3-0.6-0.3-1V70.3z M718.2,66.7c0,0.7,0.1,1.2,0.3,1.5c0.2,0.3,0.5,0.5,0.8,0.5
		c0.3,0,0.6-0.2,0.8-0.5c0.2-0.3,0.3-0.8,0.3-1.4c0-0.6-0.1-1.1-0.3-1.4s-0.5-0.5-0.8-0.5c-0.3,0-0.6,0.2-0.8,0.5
		S718.2,66,718.2,66.7z"/>
	<path d="M724.5,61.3v3.2c0.2-0.3,0.5-0.5,0.7-0.7s0.5-0.2,0.8-0.2c0.4,0,0.7,0.1,1,0.3c0.3,0.2,0.5,0.5,0.6,0.9
		c0.1,0.3,0.1,0.8,0.1,1.5v3.7h-1.4v-3.3c0-0.8,0-1.2-0.1-1.4c-0.1-0.3-0.4-0.4-0.7-0.4c-0.3,0-0.6,0.1-0.8,0.4
		c-0.2,0.3-0.3,0.8-0.3,1.6v3.1h-1.4v-8.6H724.5z"/>
	<path d="M731.9,69.9v-8.6h5.2v1.5h-3.8v1.9h3.5v1.4h-3.5v2.3h3.9v1.5H731.9z"/>
	<path d="M737.9,63.7h0.8v-0.5c0-0.6,0.1-1,0.2-1.2c0.1-0.3,0.3-0.5,0.5-0.6c0.2-0.1,0.5-0.2,0.9-0.2c0.4,0,0.8,0.1,1.1,0.2
		l-0.2,1.1c-0.2-0.1-0.4-0.1-0.6-0.1c-0.2,0-0.3,0.1-0.4,0.2s-0.1,0.3-0.1,0.6v0.4h1V65h-1v4.9h-1.4V65h-0.8V63.7z"/>
	<path d="M741.2,63.7h0.8v-0.5c0-0.6,0.1-1,0.2-1.2c0.1-0.3,0.3-0.5,0.5-0.6c0.2-0.1,0.5-0.2,0.9-0.2c0.4,0,0.8,0.1,1.1,0.2
		l-0.2,1.1c-0.2-0.1-0.4-0.1-0.6-0.1c-0.2,0-0.3,0.1-0.4,0.2s-0.1,0.3-0.1,0.6v0.4h1V65h-1v4.9h-1.4V65h-0.8V63.7z"/>
	<path d="M744.7,66.7c0-0.6,0.1-1.2,0.4-1.7c0.2-0.5,0.6-0.9,0.9-1.1c0.4-0.3,0.8-0.4,1.3-0.4c0.8,0,1.5,0.3,1.9,1
		c0.5,0.6,0.7,1.4,0.7,2.3c0,0.6-0.1,1.2-0.4,1.7s-0.6,0.9-1,1.2c-0.4,0.3-0.8,0.4-1.3,0.4c-0.8,0-1.4-0.3-1.9-0.9
		S744.7,67.8,744.7,66.7z M746.1,66.8c0,0.6,0.1,1.1,0.4,1.4c0.2,0.3,0.5,0.5,0.9,0.5c0.3,0,0.6-0.2,0.9-0.5
		c0.2-0.3,0.4-0.8,0.4-1.4c0-0.6-0.1-1.1-0.4-1.4c-0.2-0.3-0.5-0.5-0.9-0.5c-0.3,0-0.6,0.2-0.9,0.5S746.1,66.2,746.1,66.8z"/>
	<path d="M752.3,69.9H751v-6.2h1.3v0.9c0.2-0.4,0.4-0.7,0.6-0.8s0.4-0.2,0.6-0.2c0.3,0,0.6,0.1,0.9,0.3l-0.4,1.4
		c-0.2-0.2-0.4-0.3-0.6-0.3c-0.2,0-0.4,0.1-0.5,0.2c-0.1,0.1-0.2,0.4-0.3,0.8c-0.1,0.4-0.1,1-0.1,2V69.9z"/>
	<path d="M757.2,63.7V65h-0.9v2.5c0,0.5,0,0.9,0,0.9c0.1,0.2,0.2,0.2,0.3,0.2c0.1,0,0.3-0.1,0.5-0.2l0.1,1.3
		c-0.3,0.2-0.7,0.2-1.1,0.2c-0.3,0-0.6-0.1-0.8-0.2c-0.2-0.2-0.3-0.4-0.4-0.7c-0.1-0.2-0.1-0.7-0.1-1.4V65h-0.6v-1.3h0.6v-1.2l1.4-1
		v2.2H757.2z"/>
	<path d="M758.1,68.3h1.3v1.2c0,0.7-0.1,1.2-0.2,1.5c-0.2,0.4-0.5,0.7-1,0.9l-0.3-0.7c0.3-0.1,0.5-0.3,0.6-0.4s0.2-0.5,0.2-0.8h-0.7
		V68.3z"/>
	<path d="M707.3,84.3v-8.6h1.4v3.4h2.8v-3.4h1.4v8.6h-1.4v-3.8h-2.8v3.8H707.3z"/>
	<path d="M714.4,77.2v-1.5h1.4v1.5H714.4z M714.4,84.3v-6.2h1.4v6.2H714.4z"/>
	<path d="M717,84.7l1.5,0.2c0,0.2,0.1,0.4,0.2,0.5s0.3,0.1,0.6,0.1c0.3,0,0.5,0,0.7-0.1c0.1-0.1,0.2-0.2,0.3-0.4s0.1-0.5,0.1-0.9
		v-0.9c-0.2,0.3-0.4,0.6-0.7,0.8s-0.5,0.3-0.8,0.3c-0.6,0-1-0.3-1.4-0.8c-0.4-0.6-0.7-1.4-0.7-2.4c0-1.1,0.2-1.9,0.6-2.4
		s0.9-0.8,1.5-0.8c0.3,0,0.6,0.1,0.9,0.3s0.5,0.4,0.7,0.8v-0.9h1.3v5.6c0,0.9-0.1,1.5-0.2,1.9s-0.4,0.7-0.8,0.9s-0.8,0.3-1.4,0.3
		c-0.6,0-1-0.1-1.3-0.2s-0.6-0.4-0.8-0.7s-0.3-0.6-0.3-1V84.7z M718.2,81.1c0,0.7,0.1,1.2,0.3,1.5c0.2,0.3,0.5,0.5,0.8,0.5
		c0.3,0,0.6-0.2,0.8-0.5c0.2-0.3,0.3-0.8,0.3-1.4c0-0.6-0.1-1.1-0.3-1.4s-0.5-0.5-0.8-0.5c-0.3,0-0.6,0.2-0.8,0.5
		S718.2,80.4,718.2,81.1z"/>
	<path d="M724.5,75.7v3.2c0.2-0.3,0.5-0.5,0.7-0.7s0.5-0.2,0.8-0.2c0.4,0,0.7,0.1,1,0.3c0.3,0.2,0.5,0.5,0.6,0.9
		c0.1,0.3,0.1,0.8,0.1,1.5v3.7h-1.4V81c0-0.8,0-1.2-0.1-1.4c-0.1-0.3-0.4-0.4-0.7-0.4c-0.3,0-0.6,0.1-0.8,0.4
		c-0.2,0.3-0.3,0.8-0.3,1.6v3.1h-1.4v-8.6H724.5z"/>
	<path d="M737.9,84.3h-1.5l-0.6-1.9h-2.8l-0.6,1.9h-1.5l2.7-8.6h1.5L737.9,84.3z M735.3,80.9l-1-3.2l-1,3.2H735.3z"/>
	<path d="M739.7,84.3l-2.1-6.2h1.4l1,3.2l0.3,1.1l0.3-1.1l1-3.2h1.4l-2,6.2H739.7z"/>
	<path d="M743.6,84.7l1.5,0.2c0,0.2,0.1,0.4,0.2,0.5s0.3,0.1,0.6,0.1c0.3,0,0.5,0,0.7-0.1c0.1-0.1,0.2-0.2,0.3-0.4s0.1-0.5,0.1-0.9
		v-0.9c-0.2,0.3-0.4,0.6-0.7,0.8s-0.5,0.3-0.8,0.3c-0.6,0-1-0.3-1.4-0.8c-0.4-0.6-0.7-1.4-0.7-2.4c0-1.1,0.2-1.9,0.6-2.4
		s0.9-0.8,1.5-0.8c0.3,0,0.6,0.1,0.9,0.3s0.5,0.4,0.7,0.8v-0.9h1.3v5.6c0,0.9-0.1,1.5-0.2,1.9s-0.4,0.7-0.8,0.9s-0.8,0.3-1.4,0.3
		c-0.6,0-1-0.1-1.3-0.2s-0.6-0.4-0.8-0.7s-0.3-0.6-0.3-1V84.7z M744.8,81.1c0,0.7,0.1,1.2,0.3,1.5c0.2,0.3,0.5,0.5,0.8,0.5
		c0.3,0,0.6-0.2,0.8-0.5c0.2-0.3,0.3-0.8,0.3-1.4c0-0.6-0.1-1.1-0.3-1.4s-0.5-0.5-0.8-0.5c-0.3,0-0.6,0.2-0.8,0.5
		S744.8,80.4,744.8,81.1z"/>
	<path d="M749.8,84.3v-1.6h1.3v1.6H749.8z"/>
	<path d="M758.5,81.1v-1.5h3.1v3.4c-0.3,0.4-0.7,0.7-1.3,0.9s-1.1,0.4-1.7,0.4c-0.7,0-1.3-0.2-1.8-0.5s-1-0.9-1.3-1.5
		S755,80.9,755,80c0-0.9,0.2-1.8,0.5-2.4s0.7-1.2,1.2-1.5s1.1-0.5,1.8-0.5c0.8,0,1.5,0.2,2,0.6s0.8,1.1,1,1.9l-1.4,0.3
		c-0.1-0.4-0.3-0.8-0.6-1s-0.6-0.4-1-0.4c-0.6,0-1.1,0.2-1.5,0.7s-0.6,1.2-0.6,2.2c0,1,0.2,1.8,0.6,2.4c0.3,0.5,0.8,0.7,1.4,0.7
		c0.3,0,0.6-0.1,0.9-0.2s0.6-0.3,0.8-0.5v-1.1H758.5z"/>
	<path d="M762.9,75.7h2.6c0.7,0,1.1,0.1,1.5,0.2s0.6,0.4,0.9,0.7s0.5,0.8,0.7,1.4c0.2,0.6,0.2,1.2,0.2,2.1c0,0.7-0.1,1.4-0.3,1.9
		c-0.2,0.5-0.4,1-0.6,1.3s-0.6,0.6-0.9,0.7s-0.8,0.2-1.4,0.2h-2.7V75.7z M764.3,77.2v5.7h1.1c0.5,0,0.8,0,1-0.1s0.4-0.2,0.5-0.4
		c0.1-0.2,0.2-0.4,0.3-0.8s0.1-0.9,0.1-1.5c0-0.6,0-1.1-0.1-1.5s-0.2-0.7-0.4-0.9s-0.4-0.3-0.7-0.4c-0.2-0.1-0.6-0.1-1.2-0.1H764.3z
		"/>
	<path d="M770,84.3v-8.6h2.3c0.9,0,1.4,0,1.7,0.1c0.4,0.1,0.8,0.4,1,0.8s0.4,1,0.4,1.7c0,0.6-0.1,1.1-0.4,1.6s-0.5,0.7-0.9,0.9
		s-1,0.3-1.8,0.3h-0.9v3.2H770z M771.4,77.2v2.4h0.8c0.5,0,0.9,0,1.1-0.1c0.2-0.1,0.3-0.2,0.5-0.4c0.1-0.2,0.2-0.4,0.2-0.7
		c0-0.3-0.1-0.5-0.2-0.7c-0.1-0.2-0.3-0.3-0.5-0.4c-0.2-0.1-0.6-0.1-1.2-0.1H771.4z"/>
</g>
<g>
	<path d="M707.4,464.5V456h1.4v7.1h3.5v1.5H707.4z"/>
	<path d="M713,461.3c0-0.6,0.1-1.2,0.4-1.7s0.6-0.9,0.9-1.1c0.4-0.3,0.8-0.4,1.3-0.4c0.8,0,1.5,0.3,1.9,1s0.7,1.4,0.7,2.3
		c0,0.6-0.1,1.2-0.4,1.7s-0.6,0.9-1,1.2c-0.4,0.3-0.8,0.4-1.3,0.4c-0.8,0-1.4-0.3-1.9-0.9S713,462.4,713,461.3z M714.4,461.4
		c0,0.6,0.1,1.1,0.4,1.4c0.2,0.3,0.5,0.5,0.9,0.5c0.3,0,0.6-0.2,0.9-0.5c0.2-0.3,0.4-0.8,0.4-1.4c0-0.6-0.1-1.1-0.4-1.4
		c-0.2-0.3-0.5-0.5-0.9-0.5c-0.3,0-0.6,0.2-0.9,0.5S714.4,460.8,714.4,461.4z"/>
	<path d="M720.3,464.5l-1.6-6.2h1.3l1,4.1l0.9-4.1h1.3l0.9,4.1l1-4.1h1.3l-1.7,6.2h-1.3l-0.9-4l-0.9,4H720.3z"/>
	<path d="M729.7,464.5v-8.6h5.2v1.5h-3.8v1.9h3.5v1.4h-3.5v2.3h3.9v1.5H729.7z"/>
	<path d="M735.7,458.3h0.8v-0.5c0-0.6,0.1-1,0.2-1.2c0.1-0.3,0.3-0.5,0.5-0.6c0.2-0.1,0.5-0.2,0.9-0.2c0.4,0,0.8,0.1,1.1,0.2
		l-0.2,1.1c-0.2-0.1-0.4-0.1-0.6-0.1c-0.2,0-0.3,0.1-0.4,0.2c-0.1,0.1-0.1,0.3-0.1,0.6v0.4h1v1.3h-1v4.9h-1.4v-4.9h-0.8V458.3z"/>
	<path d="M739,458.3h0.8v-0.5c0-0.6,0.1-1,0.2-1.2c0.1-0.3,0.3-0.5,0.5-0.6c0.2-0.1,0.5-0.2,0.9-0.2c0.4,0,0.8,0.1,1.1,0.2l-0.2,1.1
		c-0.2-0.1-0.4-0.1-0.6-0.1c-0.2,0-0.3,0.1-0.4,0.2c-0.1,0.1-0.1,0.3-0.1,0.6v0.4h1v1.3h-1v4.9h-1.4v-4.9H739V458.3z"/>
	<path d="M742.5,461.3c0-0.6,0.1-1.2,0.4-1.7s0.6-0.9,0.9-1.1c0.4-0.3,0.8-0.4,1.3-0.4c0.8,0,1.5,0.3,1.9,1s0.7,1.4,0.7,2.3
		c0,0.6-0.1,1.2-0.4,1.7s-0.6,0.9-1,1.2c-0.4,0.3-0.8,0.4-1.3,0.4c-0.8,0-1.4-0.3-1.9-0.9S742.5,462.4,742.5,461.3z M743.9,461.4
		c0,0.6,0.1,1.1,0.4,1.4c0.2,0.3,0.5,0.5,0.9,0.5c0.3,0,0.6-0.2,0.9-0.5c0.2-0.3,0.4-0.8,0.4-1.4c0-0.6-0.1-1.1-0.4-1.4
		c-0.2-0.3-0.5-0.5-0.9-0.5c-0.3,0-0.6,0.2-0.9,0.5S743.9,460.8,743.9,461.4z"/>
	<path d="M750.1,464.5h-1.4v-6.2h1.3v0.9c0.2-0.4,0.4-0.7,0.6-0.8s0.4-0.2,0.6-0.2c0.3,0,0.6,0.1,0.9,0.3l-0.4,1.4
		c-0.2-0.2-0.4-0.3-0.6-0.3c-0.2,0-0.4,0.1-0.5,0.2c-0.1,0.1-0.2,0.4-0.3,0.8c-0.1,0.4-0.1,1-0.1,2V464.5z"/>
	<path d="M755,458.3v1.3h-0.9v2.5c0,0.5,0,0.9,0,0.9c0.1,0.2,0.2,0.2,0.3,0.2c0.1,0,0.3-0.1,0.5-0.2l0.1,1.3
		c-0.3,0.2-0.7,0.2-1.1,0.2c-0.3,0-0.6-0.1-0.8-0.2s-0.3-0.4-0.4-0.7c-0.1-0.2-0.1-0.7-0.1-1.4v-2.7h-0.6v-1.3h0.6V457l1.4-1v2.2
		H755z"/>
	<path d="M755.9,462.9h1.3v1.2c0,0.7-0.1,1.2-0.2,1.5c-0.2,0.4-0.5,0.7-1,0.9l-0.3-0.7c0.3-0.1,0.5-0.3,0.6-0.4s0.2-0.5,0.2-0.8
		h-0.7V462.9z"/>
	<path d="M707.3,478.9v-8.6h1.4v3.4h2.8v-3.4h1.4v8.6h-1.4v-3.8h-2.8v3.8H707.3z"/>
	<path d="M714.4,471.8v-1.5h1.4v1.5H714.4z M714.4,478.9v-6.2h1.4v6.2H714.4z"/>
	<path d="M717,479.3l1.5,0.2c0,0.2,0.1,0.4,0.2,0.5s0.3,0.1,0.6,0.1c0.3,0,0.5,0,0.7-0.1c0.1-0.1,0.2-0.2,0.3-0.4s0.1-0.5,0.1-0.9
		v-0.9c-0.2,0.3-0.4,0.6-0.7,0.8s-0.5,0.3-0.8,0.3c-0.6,0-1-0.3-1.4-0.8c-0.4-0.6-0.7-1.4-0.7-2.4c0-1.1,0.2-1.9,0.6-2.4
		c0.4-0.5,0.9-0.8,1.5-0.8c0.3,0,0.6,0.1,0.9,0.3s0.5,0.4,0.7,0.8v-0.9h1.3v5.6c0,0.9-0.1,1.5-0.2,1.9s-0.4,0.7-0.8,0.9
		s-0.8,0.3-1.4,0.3c-0.6,0-1-0.1-1.3-0.2s-0.6-0.4-0.8-0.7s-0.3-0.6-0.3-1V479.3z M718.2,475.7c0,0.7,0.1,1.2,0.3,1.5
		c0.2,0.3,0.5,0.5,0.8,0.5c0.3,0,0.6-0.2,0.8-0.5c0.2-0.3,0.3-0.8,0.3-1.4c0-0.6-0.1-1.1-0.3-1.4c-0.2-0.3-0.5-0.5-0.8-0.5
		c-0.3,0-0.6,0.2-0.8,0.5C718.3,474.6,718.2,475,718.2,475.7z"/>
	<path d="M724.5,470.3v3.2c0.2-0.3,0.5-0.5,0.7-0.7s0.5-0.2,0.8-0.2c0.4,0,0.7,0.1,1,0.3s0.5,0.5,0.6,0.9c0.1,0.3,0.1,0.8,0.1,1.5
		v3.7h-1.4v-3.3c0-0.8,0-1.2-0.1-1.4c-0.1-0.3-0.4-0.4-0.7-0.4c-0.3,0-0.6,0.1-0.8,0.4c-0.2,0.3-0.3,0.8-0.3,1.6v3.1h-1.4v-8.6
		H724.5z"/>
	<path d="M737.9,478.9h-1.5l-0.6-1.9h-2.8l-0.6,1.9h-1.5l2.7-8.6h1.5L737.9,478.9z M735.3,475.5l-1-3.2l-1,3.2H735.3z"/>
	<path d="M739.7,478.9l-2.1-6.2h1.4l1,3.2l0.3,1.1l0.3-1.1l1-3.2h1.4l-2,6.2H739.7z"/>
	<path d="M743.6,479.3l1.5,0.2c0,0.2,0.1,0.4,0.2,0.5s0.3,0.1,0.6,0.1c0.3,0,0.5,0,0.7-0.1c0.1-0.1,0.2-0.2,0.3-0.4s0.1-0.5,0.1-0.9
		v-0.9c-0.2,0.3-0.4,0.6-0.7,0.8s-0.5,0.3-0.8,0.3c-0.6,0-1-0.3-1.4-0.8c-0.4-0.6-0.7-1.4-0.7-2.4c0-1.1,0.2-1.9,0.6-2.4
		c0.4-0.5,0.9-0.8,1.5-0.8c0.3,0,0.6,0.1,0.9,0.3s0.5,0.4,0.7,0.8v-0.9h1.3v5.6c0,0.9-0.1,1.5-0.2,1.9s-0.4,0.7-0.8,0.9
		s-0.8,0.3-1.4,0.3c-0.6,0-1-0.1-1.3-0.2s-0.6-0.4-0.8-0.7s-0.3-0.6-0.3-1V479.3z M744.8,475.7c0,0.7,0.1,1.2,0.3,1.5
		c0.2,0.3,0.5,0.5,0.8,0.5c0.3,0,0.6-0.2,0.8-0.5c0.2-0.3,0.3-0.8,0.3-1.4c0-0.6-0.1-1.1-0.3-1.4c-0.2-0.3-0.5-0.5-0.8-0.5
		c-0.3,0-0.6,0.2-0.8,0.5C745,474.6,744.8,475,744.8,475.7z"/>
	<path d="M749.8,478.9v-1.6h1.3v1.6H749.8z"/>
	<path d="M758.5,475.8v-1.5h3.1v3.4c-0.3,0.4-0.7,0.7-1.3,0.9s-1.1,0.4-1.7,0.4c-0.7,0-1.3-0.2-1.8-0.5s-1-0.9-1.3-1.5
		s-0.5-1.5-0.5-2.4c0-0.9,0.2-1.8,0.5-2.4s0.7-1.2,1.2-1.5s1.1-0.5,1.8-0.5c0.8,0,1.5,0.2,2,0.6s0.8,1.1,1,1.9l-1.4,0.3
		c-0.1-0.4-0.3-0.8-0.6-1s-0.6-0.4-1-0.4c-0.6,0-1.1,0.2-1.5,0.7s-0.6,1.2-0.6,2.2c0,1,0.2,1.8,0.6,2.4c0.3,0.5,0.8,0.7,1.4,0.7
		c0.3,0,0.6-0.1,0.9-0.2c0.3-0.1,0.6-0.3,0.8-0.5v-1.1H758.5z"/>
	<path d="M762.9,470.3h2.6c0.7,0,1.1,0.1,1.5,0.2s0.6,0.4,0.9,0.7s0.5,0.8,0.7,1.4c0.2,0.6,0.2,1.2,0.2,2.1c0,0.7-0.1,1.4-0.3,1.9
		c-0.2,0.5-0.4,1-0.6,1.3s-0.6,0.6-0.9,0.7s-0.8,0.2-1.4,0.2h-2.7V470.3z M764.3,471.8v5.7h1.1c0.5,0,0.8,0,1-0.1s0.4-0.2,0.5-0.4
		c0.1-0.2,0.2-0.4,0.3-0.8c0.1-0.4,0.1-0.9,0.1-1.5c0-0.6,0-1.1-0.1-1.5c-0.1-0.4-0.2-0.7-0.4-0.9s-0.4-0.3-0.7-0.4
		c-0.2-0.1-0.6-0.1-1.2-0.1H764.3z"/>
	<path d="M770,478.9v-8.6h2.3c0.9,0,1.4,0,1.7,0.1c0.4,0.1,0.8,0.4,1,0.8s0.4,1,0.4,1.7c0,0.6-0.1,1.1-0.4,1.6s-0.5,0.7-0.9,0.9
		s-1,0.3-1.8,0.3h-0.9v3.2H770z M771.4,471.8v2.4h0.8c0.5,0,0.9,0,1.1-0.1c0.2-0.1,0.3-0.2,0.5-0.4c0.1-0.2,0.2-0.4,0.2-0.7
		c0-0.3-0.1-0.5-0.2-0.7c-0.1-0.2-0.3-0.3-0.5-0.4c-0.2-0.1-0.6-0.1-1.2-0.1H771.4z"/>
</g>
<g>
	<path d="M108.8,464.5V456h1.4v7.1h3.5v1.5H108.8z"/>
	<path d="M114.4,461.3c0-0.6,0.1-1.2,0.4-1.7s0.6-0.9,0.9-1.1c0.4-0.3,0.8-0.4,1.3-0.4c0.8,0,1.5,0.3,1.9,1s0.7,1.4,0.7,2.3
		c0,0.6-0.1,1.2-0.4,1.7s-0.6,0.9-1,1.2c-0.4,0.3-0.8,0.4-1.3,0.4c-0.8,0-1.4-0.3-1.9-0.9S114.4,462.4,114.4,461.3z M115.8,461.4
		c0,0.6,0.1,1.1,0.4,1.4s0.5,0.5,0.9,0.5c0.3,0,0.6-0.2,0.9-0.5s0.4-0.8,0.4-1.4c0-0.6-0.1-1.1-0.4-1.4s-0.5-0.5-0.9-0.5
		c-0.3,0-0.6,0.2-0.9,0.5C115.9,460.3,115.8,460.8,115.8,461.4z"/>
	<path d="M121.7,464.5l-1.6-6.2h1.3l1,4.1l0.9-4.1h1.3l0.9,4.1l1-4.1h1.3l-1.7,6.2h-1.3l-0.9-4l-0.9,4H121.7z"/>
	<path d="M131.1,464.5v-8.6h5.2v1.5h-3.8v1.9h3.5v1.4h-3.5v2.3h3.9v1.5H131.1z"/>
	<path d="M137.1,458.3h0.8v-0.5c0-0.6,0.1-1,0.2-1.2c0.1-0.3,0.3-0.5,0.5-0.6s0.5-0.2,0.9-0.2c0.4,0,0.8,0.1,1.1,0.2l-0.2,1.1
		c-0.2-0.1-0.4-0.1-0.6-0.1c-0.2,0-0.3,0.1-0.4,0.2c-0.1,0.1-0.1,0.3-0.1,0.6v0.4h1v1.3h-1v4.9h-1.4v-4.9h-0.8V458.3z"/>
	<path d="M140.4,458.3h0.8v-0.5c0-0.6,0.1-1,0.2-1.2c0.1-0.3,0.3-0.5,0.5-0.6s0.5-0.2,0.9-0.2c0.4,0,0.8,0.1,1.1,0.2l-0.2,1.1
		c-0.2-0.1-0.4-0.1-0.6-0.1c-0.2,0-0.3,0.1-0.4,0.2c-0.1,0.1-0.1,0.3-0.1,0.6v0.4h1v1.3h-1v4.9h-1.4v-4.9h-0.8V458.3z"/>
	<path d="M143.9,461.3c0-0.6,0.1-1.2,0.4-1.7s0.6-0.9,0.9-1.1c0.4-0.3,0.8-0.4,1.3-0.4c0.8,0,1.5,0.3,1.9,1s0.7,1.4,0.7,2.3
		c0,0.6-0.1,1.2-0.4,1.7s-0.6,0.9-1,1.2c-0.4,0.3-0.8,0.4-1.3,0.4c-0.8,0-1.4-0.3-1.9-0.9S143.9,462.4,143.9,461.3z M145.3,461.4
		c0,0.6,0.1,1.1,0.4,1.4s0.5,0.5,0.9,0.5c0.3,0,0.6-0.2,0.9-0.5s0.4-0.8,0.4-1.4c0-0.6-0.1-1.1-0.4-1.4s-0.5-0.5-0.9-0.5
		c-0.3,0-0.6,0.2-0.9,0.5C145.4,460.3,145.3,460.8,145.3,461.4z"/>
	<path d="M151.5,464.5h-1.4v-6.2h1.3v0.9c0.2-0.4,0.4-0.7,0.6-0.8s0.4-0.2,0.6-0.2c0.3,0,0.6,0.1,0.9,0.3l-0.4,1.4
		c-0.2-0.2-0.4-0.3-0.6-0.3c-0.2,0-0.4,0.1-0.5,0.2c-0.1,0.1-0.2,0.4-0.3,0.8c-0.1,0.4-0.1,1-0.1,2V464.5z"/>
	<path d="M156.4,458.3v1.3h-0.9v2.5c0,0.5,0,0.9,0,0.9c0.1,0.2,0.2,0.2,0.3,0.2c0.1,0,0.3-0.1,0.5-0.2l0.1,1.3
		c-0.3,0.2-0.7,0.2-1.1,0.2c-0.3,0-0.6-0.1-0.8-0.2s-0.3-0.4-0.4-0.7c-0.1-0.2-0.1-0.7-0.1-1.4v-2.7h-0.6v-1.3h0.6V457l1.4-1v2.2
		H156.4z"/>
	<path d="M157.3,462.9h1.3v1.2c0,0.7-0.1,1.2-0.2,1.5c-0.2,0.4-0.5,0.7-1,0.9l-0.3-0.7c0.3-0.1,0.5-0.3,0.6-0.4s0.2-0.5,0.2-0.8
		h-0.7V462.9z"/>
	<path d="M108.8,478.9v-8.5h1.4v7.1h3.5v1.5H108.8z"/>
	<path d="M114.4,475.7c0-0.6,0.1-1.2,0.4-1.7c0.2-0.5,0.6-0.9,0.9-1.1c0.4-0.3,0.8-0.4,1.3-0.4c0.8,0,1.5,0.3,1.9,1
		c0.5,0.6,0.7,1.4,0.7,2.3c0,0.6-0.1,1.2-0.4,1.7s-0.6,0.9-1,1.2s-0.8,0.4-1.3,0.4c-0.8,0-1.4-0.3-1.9-0.9S114.4,476.8,114.4,475.7z
		 M115.8,475.8c0,0.6,0.1,1.1,0.4,1.4s0.5,0.5,0.9,0.5c0.3,0,0.6-0.2,0.9-0.5s0.4-0.8,0.4-1.4c0-0.6-0.1-1.1-0.4-1.4
		s-0.5-0.5-0.9-0.5c-0.3,0-0.6,0.2-0.9,0.5C115.9,474.7,115.8,475.2,115.8,475.8z"/>
	<path d="M121.7,478.9l-1.6-6.2h1.3l1,4.1l0.9-4.1h1.3l0.9,4.1l1-4.1h1.3l-1.7,6.2h-1.3l-0.9-4l-0.9,4H121.7z"/>
	<path d="M137.1,478.9h-1.5L135,477h-2.8l-0.6,1.9h-1.5l2.7-8.6h1.5L137.1,478.9z M134.5,475.5l-1-3.2l-1,3.2H134.5z"/>
	<path d="M138.9,478.9l-2.1-6.2h1.4l1,3.2l0.3,1.1l0.3-1.1l1-3.2h1.4l-2,6.2H138.9z"/>
	<path d="M142.9,479.3l1.5,0.2c0,0.2,0.1,0.4,0.2,0.5s0.3,0.1,0.6,0.1c0.3,0,0.5,0,0.7-0.1c0.1-0.1,0.2-0.2,0.3-0.4s0.1-0.5,0.1-0.9
		v-0.9c-0.2,0.3-0.4,0.6-0.7,0.8s-0.5,0.3-0.8,0.3c-0.6,0-1-0.3-1.4-0.8c-0.4-0.6-0.7-1.4-0.7-2.4c0-1.1,0.2-1.9,0.6-2.4
		c0.4-0.5,0.9-0.8,1.5-0.8c0.3,0,0.6,0.1,0.9,0.3s0.5,0.4,0.7,0.8v-0.9h1.3v5.6c0,0.9-0.1,1.5-0.2,1.9s-0.4,0.7-0.8,0.9
		s-0.8,0.3-1.4,0.3c-0.6,0-1-0.1-1.3-0.2s-0.6-0.4-0.8-0.7s-0.3-0.6-0.3-1V479.3z M144.1,475.7c0,0.7,0.1,1.2,0.3,1.5
		c0.2,0.3,0.5,0.5,0.8,0.5c0.3,0,0.6-0.2,0.8-0.5c0.2-0.3,0.3-0.8,0.3-1.4c0-0.6-0.1-1.1-0.3-1.4c-0.2-0.3-0.5-0.5-0.8-0.5
		c-0.3,0-0.6,0.2-0.8,0.5C144.2,474.6,144.1,475,144.1,475.7z"/>
	<path d="M149,478.9v-1.6h1.3v1.6H149z"/>
	<path d="M157.8,475.8v-1.5h3.1v3.4c-0.3,0.4-0.7,0.7-1.3,0.9s-1.1,0.4-1.7,0.4c-0.7,0-1.3-0.2-1.8-0.5s-1-0.9-1.3-1.5
		s-0.5-1.5-0.5-2.4c0-0.9,0.2-1.8,0.5-2.4s0.7-1.2,1.2-1.5s1.1-0.5,1.8-0.5c0.8,0,1.5,0.2,2,0.6s0.8,1.1,1,1.9l-1.4,0.3
		c-0.1-0.4-0.3-0.8-0.6-1s-0.6-0.4-1-0.4c-0.6,0-1.1,0.2-1.5,0.7s-0.6,1.2-0.6,2.2c0,1,0.2,1.8,0.6,2.4c0.3,0.5,0.8,0.7,1.4,0.7
		c0.3,0,0.6-0.1,0.9-0.2c0.3-0.1,0.6-0.3,0.8-0.5v-1.1H157.8z"/>
	<path d="M162.1,470.3h2.6c0.7,0,1.1,0.1,1.5,0.2c0.3,0.1,0.6,0.4,0.9,0.7c0.3,0.3,0.5,0.8,0.7,1.4c0.2,0.6,0.2,1.2,0.2,2.1
		c0,0.7-0.1,1.4-0.3,1.9c-0.2,0.5-0.4,1-0.6,1.3c-0.3,0.3-0.6,0.6-0.9,0.7c-0.4,0.2-0.8,0.2-1.4,0.2h-2.7V470.3z M163.5,471.8v5.7
		h1.1c0.5,0,0.8,0,1-0.1s0.4-0.2,0.5-0.4c0.1-0.2,0.2-0.4,0.3-0.8c0.1-0.4,0.1-0.9,0.1-1.5c0-0.6,0-1.1-0.1-1.5
		c-0.1-0.4-0.2-0.7-0.4-0.9s-0.4-0.3-0.7-0.4c-0.2-0.1-0.6-0.1-1.2-0.1H163.5z"/>
	<path d="M169.2,478.9v-8.6h2.3c0.9,0,1.4,0,1.7,0.1c0.4,0.1,0.8,0.4,1,0.8s0.4,1,0.4,1.7c0,0.6-0.1,1.1-0.4,1.6s-0.5,0.7-0.9,0.9
		s-1,0.3-1.8,0.3h-0.9v3.2H169.2z M170.7,471.8v2.4h0.8c0.5,0,0.9,0,1.1-0.1c0.2-0.1,0.3-0.2,0.5-0.4c0.1-0.2,0.2-0.4,0.2-0.7
		c0-0.3-0.1-0.5-0.2-0.7c-0.1-0.2-0.3-0.3-0.5-0.4s-0.6-0.1-1.2-0.1H170.7z"/>
</g>
<g>
	<path class="st10" d="M247.9,362.1v-8.6h4.8v1.5h-3.4v2h3v1.5h-3v3.7H247.9z"/>
	<path class="st10" d="M253.9,362.1v-8.6h1.4v8.6H253.9z"/>
	<path class="st10" d="M256.3,358.9c0-0.6,0.1-1.2,0.4-1.7s0.6-0.9,0.9-1.1c0.4-0.3,0.8-0.4,1.3-0.4c0.8,0,1.5,0.3,1.9,1
		s0.7,1.4,0.7,2.3c0,0.6-0.1,1.2-0.4,1.7s-0.6,0.9-1,1.2c-0.4,0.3-0.8,0.4-1.3,0.4c-0.8,0-1.4-0.3-1.9-0.9S256.3,360,256.3,358.9z
		 M257.7,359c0,0.6,0.1,1.1,0.4,1.4s0.5,0.5,0.9,0.5c0.3,0,0.6-0.2,0.9-0.5c0.2-0.3,0.4-0.8,0.4-1.4c0-0.6-0.1-1.1-0.4-1.4
		s-0.5-0.5-0.9-0.5c-0.3,0-0.6,0.2-0.9,0.5C257.8,357.9,257.7,358.4,257.7,359z"/>
	<path class="st10" d="M263.9,362.1h-1.4v-6.2h1.3v0.9c0.2-0.4,0.4-0.7,0.6-0.8s0.4-0.2,0.6-0.2c0.3,0,0.6,0.1,0.9,0.3l-0.4,1.4
		c-0.2-0.2-0.4-0.3-0.6-0.3c-0.2,0-0.4,0.1-0.5,0.2s-0.2,0.4-0.3,0.8c-0.1,0.4-0.1,1-0.1,2V362.1z"/>
	<path class="st10" d="M266.5,355v-1.5h1.4v1.5H266.5z M266.5,362.1v-6.2h1.4v6.2H266.5z"/>
	<path class="st10" d="M273.9,362.1h-1.3v-0.9c-0.2,0.4-0.5,0.6-0.7,0.8s-0.6,0.3-0.9,0.3c-0.6,0-1.1-0.3-1.5-0.9
		c-0.4-0.6-0.6-1.4-0.6-2.4c0-1.1,0.2-1.9,0.6-2.4c0.4-0.5,0.9-0.8,1.5-0.8c0.3,0,0.6,0.1,0.8,0.2s0.5,0.4,0.7,0.7v-3.1h1.4V362.1z
		 M270.3,358.9c0,0.6,0,1,0.1,1.3c0.1,0.3,0.2,0.5,0.4,0.6c0.2,0.1,0.4,0.2,0.6,0.2c0.3,0,0.6-0.2,0.8-0.5s0.3-0.8,0.3-1.5
		c0-0.7-0.1-1.2-0.3-1.5c-0.2-0.3-0.5-0.5-0.8-0.5c-0.3,0-0.6,0.2-0.8,0.5C270.4,357.8,270.3,358.2,270.3,358.9z"/>
	<path class="st10" d="M276.2,357.8l-1.2-0.3c0.1-0.6,0.4-1.1,0.7-1.4s0.8-0.4,1.5-0.4c0.6,0,1,0.1,1.3,0.2s0.5,0.4,0.6,0.7
		s0.2,0.8,0.2,1.5l0,1.9c0,0.5,0,0.9,0.1,1.2c0,0.3,0.1,0.5,0.2,0.8h-1.3l-0.2-0.7c-0.2,0.3-0.5,0.5-0.7,0.6s-0.5,0.2-0.8,0.2
		c-0.5,0-0.9-0.2-1.2-0.5c-0.3-0.3-0.5-0.8-0.5-1.3c0-0.4,0.1-0.7,0.2-0.9s0.3-0.5,0.5-0.6s0.6-0.3,1.1-0.4c0.6-0.1,1.1-0.3,1.3-0.4
		c0-0.3,0-0.6-0.1-0.7c0-0.1-0.1-0.2-0.3-0.3c-0.1-0.1-0.3-0.1-0.6-0.1c-0.2,0-0.4,0.1-0.6,0.2S276.3,357.5,276.2,357.8z M278,359.1
		c-0.2,0.1-0.4,0.2-0.8,0.2c-0.4,0.1-0.7,0.2-0.8,0.4c-0.1,0.1-0.2,0.3-0.2,0.5c0,0.2,0.1,0.4,0.2,0.6c0.1,0.2,0.3,0.2,0.5,0.2
		c0.2,0,0.4-0.1,0.6-0.2c0.2-0.1,0.3-0.3,0.4-0.5c0.1-0.2,0.1-0.5,0.1-1V359.1z"/>
</g>
<g>
	<path class="st10" d="M345.7,57.2l-2.5-8.6h1.5l1.8,6.4l1.7-6.4h1.5l-2.5,8.6H345.7z"/>
	<path class="st10" d="M352.9,55.2l1.3,0.3c-0.2,0.6-0.5,1.1-0.8,1.4s-0.8,0.5-1.4,0.5c-0.8,0-1.3-0.3-1.7-0.8
		c-0.5-0.6-0.7-1.4-0.7-2.5c0-1,0.2-1.9,0.7-2.5c0.4-0.5,0.9-0.8,1.6-0.8c0.7,0,1.3,0.3,1.7,0.8c0.5,0.6,0.7,1.5,0.7,2.7l0,0.2h-3.4
		c0,0.5,0.1,0.9,0.3,1.1c0.2,0.3,0.5,0.4,0.8,0.4C352.5,56.1,352.8,55.8,352.9,55.2z M353,53.5c0-0.5-0.1-0.9-0.3-1.1
		c-0.2-0.2-0.4-0.4-0.7-0.4c-0.3,0-0.5,0.1-0.7,0.4c-0.2,0.3-0.3,0.6-0.3,1.1H353z"/>
	<path class="st10" d="M356.7,57.2h-1.4V51h1.3v0.9c0.2-0.4,0.4-0.7,0.6-0.8s0.4-0.2,0.6-0.2c0.3,0,0.6,0.1,0.9,0.3l-0.4,1.4
		c-0.2-0.2-0.4-0.3-0.6-0.3c-0.2,0-0.4,0.1-0.5,0.2s-0.2,0.4-0.3,0.8c-0.1,0.4-0.1,1-0.1,2V57.2z"/>
	<path class="st10" d="M359.1,51h1.2v0.8c0.2-0.3,0.5-0.6,0.7-0.7s0.6-0.2,0.9-0.2c0.3,0,0.6,0.1,0.9,0.2s0.4,0.4,0.6,0.7
		c0.2-0.3,0.5-0.6,0.7-0.7s0.5-0.2,0.8-0.2c0.3,0,0.6,0.1,0.9,0.2s0.4,0.4,0.6,0.7s0.2,0.8,0.2,1.4v4h-1.4v-3.6c0-0.6-0.1-1-0.2-1.2
		c-0.1-0.2-0.3-0.3-0.6-0.3c-0.3,0-0.5,0.1-0.7,0.4c-0.2,0.3-0.3,0.8-0.3,1.7v3h-1.4v-3.4c0-0.7,0-1.1-0.1-1.3
		c-0.1-0.3-0.3-0.4-0.6-0.4c-0.2,0-0.4,0.1-0.6,0.2s-0.3,0.3-0.4,0.6s-0.1,0.7-0.1,1.3v3h-1.4V51z"/>
	<path class="st10" d="M367.7,54c0-0.6,0.1-1.2,0.4-1.7s0.6-0.9,0.9-1.1c0.4-0.3,0.8-0.4,1.3-0.4c0.8,0,1.5,0.3,1.9,1
		s0.7,1.4,0.7,2.3c0,0.6-0.1,1.2-0.4,1.7s-0.6,0.9-1,1.2c-0.4,0.3-0.8,0.4-1.3,0.4c-0.8,0-1.4-0.3-1.9-0.9S367.7,55.1,367.7,54z
		 M369,54.1c0,0.6,0.1,1.1,0.4,1.4s0.5,0.5,0.9,0.5c0.3,0,0.6-0.2,0.9-0.5c0.2-0.3,0.4-0.8,0.4-1.4c0-0.6-0.1-1.1-0.4-1.4
		s-0.5-0.5-0.9-0.5c-0.3,0-0.6,0.2-0.9,0.5C369.2,53,369,53.4,369,54.1z"/>
	<path class="st10" d="M378.6,57.2h-1.4V54c0-0.6,0-1.1-0.1-1.3s-0.1-0.4-0.3-0.5s-0.3-0.2-0.5-0.2c-0.2,0-0.4,0.1-0.6,0.2
		s-0.3,0.3-0.4,0.6s-0.1,0.7-0.1,1.5v2.8H374V51h1.3v0.9c0.2-0.4,0.5-0.6,0.8-0.8s0.6-0.3,0.9-0.3c0.4,0,0.7,0.1,1,0.3
		s0.5,0.5,0.6,0.8s0.2,0.8,0.2,1.4V57.2z"/>
	<path class="st10" d="M382.3,51v1.3h-0.9v2.5c0,0.5,0,0.9,0,0.9c0.1,0.2,0.2,0.2,0.3,0.2c0.1,0,0.3-0.1,0.5-0.2l0.1,1.3
		c-0.3,0.2-0.7,0.2-1.1,0.2c-0.3,0-0.6-0.1-0.8-0.2s-0.3-0.4-0.4-0.7c-0.1-0.2-0.1-0.7-0.1-1.4v-2.7h-0.6V51h0.6v-1.2l1.4-1V51
		H382.3z"/>
</g>
<g>
	<g>
		<path class="st8" d="M550.5,143.3v-8.6h1.4l2.9,5.7v-5.7h1.3v8.6h-1.4l-2.8-5.6v5.6H550.5z"/>
		<path class="st8" d="M560.6,141.3l1.3,0.3c-0.2,0.6-0.5,1.1-0.8,1.4c-0.4,0.3-0.8,0.5-1.4,0.5c-0.8,0-1.3-0.3-1.7-0.8
			c-0.5-0.6-0.7-1.4-0.7-2.5c0-1,0.2-1.9,0.7-2.5c0.4-0.5,0.9-0.8,1.6-0.8c0.7,0,1.3,0.3,1.7,0.8c0.5,0.6,0.7,1.5,0.7,2.7l0,0.2
			h-3.4c0,0.5,0.1,0.9,0.3,1.1c0.2,0.3,0.5,0.4,0.8,0.4C560.2,142.2,560.4,141.9,560.6,141.3z M560.7,139.7c0-0.5-0.1-0.9-0.3-1.1
			c-0.2-0.2-0.4-0.4-0.7-0.4c-0.3,0-0.5,0.1-0.7,0.4c-0.2,0.3-0.3,0.6-0.3,1.1H560.7z"/>
		<path class="st8" d="M564.1,143.3l-1.6-6.2h1.3l1,4.1l0.9-4.1h1.3l0.9,4.1l1-4.1h1.3l-1.7,6.2h-1.3l-0.9-4l-0.9,4H564.1z"/>
		<path class="st8" d="M576,134.7h1.4v5.4c0,0.9-0.1,1.5-0.3,2s-0.4,0.8-0.8,1s-0.8,0.3-1.3,0.3c-0.7,0-1.2-0.2-1.6-0.7
			s-0.6-1.2-0.6-2.1l1.3-0.2c0,0.5,0.1,0.9,0.2,1.1c0.2,0.3,0.4,0.4,0.7,0.4c0.3,0,0.5-0.1,0.7-0.3s0.2-0.7,0.2-1.4V134.7z"/>
		<path class="st8" d="M581.9,141.3l1.3,0.3c-0.2,0.6-0.5,1.1-0.8,1.4c-0.4,0.3-0.8,0.5-1.4,0.5c-0.8,0-1.3-0.3-1.7-0.8
			c-0.5-0.6-0.7-1.4-0.7-2.5c0-1,0.2-1.9,0.7-2.5c0.4-0.5,0.9-0.8,1.6-0.8c0.7,0,1.3,0.3,1.7,0.8c0.5,0.6,0.7,1.5,0.7,2.7l0,0.2H580
			c0,0.5,0.1,0.9,0.3,1.1c0.2,0.3,0.5,0.4,0.8,0.4C581.5,142.2,581.8,141.9,581.9,141.3z M582,139.7c0-0.5-0.1-0.9-0.3-1.1
			c-0.2-0.2-0.4-0.4-0.7-0.4c-0.3,0-0.5,0.1-0.7,0.4c-0.2,0.3-0.3,0.6-0.3,1.1H582z"/>
		<path class="st8" d="M585.7,143.3h-1.4v-6.2h1.3v0.9c0.2-0.4,0.4-0.7,0.6-0.8s0.4-0.2,0.6-0.2c0.3,0,0.6,0.1,0.9,0.3l-0.4,1.4
			c-0.2-0.2-0.4-0.3-0.6-0.3c-0.2,0-0.4,0.1-0.5,0.2s-0.2,0.4-0.3,0.8c-0.1,0.4-0.1,1-0.1,2V143.3z"/>
		<path class="st8" d="M587.8,141.5l1.4-0.3c0.1,0.7,0.5,1,1.1,1c0.3,0,0.6-0.1,0.7-0.2s0.2-0.3,0.2-0.5c0-0.1,0-0.2-0.1-0.3
			c-0.1-0.1-0.2-0.1-0.4-0.2c-1.1-0.3-1.8-0.6-2.1-0.8c-0.4-0.3-0.6-0.8-0.6-1.4c0-0.6,0.2-1,0.6-1.4s0.9-0.5,1.6-0.5
			c0.7,0,1.2,0.1,1.5,0.4s0.6,0.7,0.7,1.3l-1.3,0.3c-0.1-0.5-0.4-0.8-1-0.8c-0.3,0-0.6,0-0.7,0.1c-0.1,0.1-0.2,0.2-0.2,0.4
			c0,0.1,0.1,0.3,0.2,0.3c0.1,0.1,0.5,0.2,1.2,0.4c0.8,0.2,1.3,0.5,1.5,0.8c0.3,0.3,0.4,0.7,0.4,1.2c0,0.6-0.2,1.1-0.6,1.5
			c-0.4,0.4-1,0.6-1.7,0.6c-0.7,0-1.2-0.2-1.6-0.5S587.9,142.2,587.8,141.5z"/>
		<path class="st8" d="M596.7,141.3l1.3,0.3c-0.2,0.6-0.5,1.1-0.8,1.4c-0.4,0.3-0.8,0.5-1.4,0.5c-0.8,0-1.3-0.3-1.7-0.8
			c-0.5-0.6-0.7-1.4-0.7-2.5c0-1,0.2-1.9,0.7-2.5c0.4-0.5,0.9-0.8,1.6-0.8c0.7,0,1.3,0.3,1.7,0.8c0.5,0.6,0.7,1.5,0.7,2.7l0,0.2
			h-3.4c0,0.5,0.1,0.9,0.3,1.1c0.2,0.3,0.5,0.4,0.8,0.4C596.3,142.2,596.6,141.9,596.7,141.3z M596.8,139.7c0-0.5-0.1-0.9-0.3-1.1
			c-0.2-0.2-0.4-0.4-0.7-0.4c-0.3,0-0.5,0.1-0.7,0.4c-0.2,0.3-0.3,0.6-0.3,1.1H596.8z"/>
		<path class="st8" d="M598.6,137.1h1.4l1.2,4.4l1.2-4.4h1.4l-1.8,6l-0.3,1.2c-0.2,0.4-0.3,0.8-0.5,1c-0.2,0.2-0.3,0.4-0.6,0.5
			c-0.2,0.1-0.5,0.2-0.9,0.2c-0.3,0-0.5,0-0.8-0.1l-0.1-1.3c0.2,0.1,0.4,0.1,0.6,0.1c0.3,0,0.5-0.1,0.6-0.3c0.2-0.2,0.3-0.5,0.4-0.9
			L598.6,137.1z"/>
	</g>
</g>
</svg>
